G04 Layer_Color=32896*
%FSLAX25Y25*%
%MOIN*%
G70*
G01*
G75*
%ADD21C,0.01000*%
%ADD22C,0.03000*%
%ADD45C,0.00100*%
D21*
X421531Y196570D02*
X422197Y197237D01*
X423530D01*
X424197Y196570D01*
Y193904D01*
X423530Y193238D01*
X422197D01*
X421531Y193904D01*
X420198Y197237D02*
Y193238D01*
Y195237D01*
X419532Y195904D01*
X418199D01*
X417532Y195237D01*
Y193238D01*
X415533Y195904D02*
X414200D01*
X413534Y195237D01*
Y193238D01*
X415533D01*
X416199Y193904D01*
X415533Y194571D01*
X413534D01*
X412201Y193238D02*
Y195904D01*
X410201D01*
X409535Y195237D01*
Y193238D01*
X405536Y197237D02*
Y193238D01*
X407536D01*
X408202Y193904D01*
Y195237D01*
X407536Y195904D01*
X405536D01*
X404203D02*
Y193904D01*
X403537Y193238D01*
X401538D01*
Y195904D01*
X400205Y193238D02*
X398872D01*
X399538D01*
Y197237D01*
X400205D01*
X396206Y195904D02*
X394873D01*
X394207Y195237D01*
Y193238D01*
X396206D01*
X396872Y193904D01*
X396206Y194571D01*
X394207D01*
X392874Y193238D02*
Y197237D01*
X390208Y193238D01*
Y197237D01*
X384876D02*
Y193238D01*
X382877D01*
X382210Y193904D01*
Y196570D01*
X382877Y197237D01*
X384876D01*
X378212D02*
X380877D01*
Y193238D01*
X378212D01*
X380877Y195237D02*
X379545D01*
X374213Y196570D02*
X374879Y197237D01*
X376212D01*
X376879Y196570D01*
Y195904D01*
X376212Y195237D01*
X374879D01*
X374213Y194571D01*
Y193904D01*
X374879Y193238D01*
X376212D01*
X376879Y193904D01*
X372880Y197237D02*
X371547D01*
X372214D01*
Y193238D01*
X372880D01*
X371547D01*
X366882Y196570D02*
X367548Y197237D01*
X368881D01*
X369548Y196570D01*
Y193904D01*
X368881Y193238D01*
X367548D01*
X366882Y193904D01*
Y195237D01*
X368215D01*
X365549Y193238D02*
Y197237D01*
X362883Y193238D01*
Y197237D01*
X424197Y190038D02*
X422864D01*
X423530D01*
Y186039D01*
X424197D01*
X422864D01*
X420865D02*
Y188705D01*
X418865D01*
X418199Y188039D01*
Y186039D01*
X410201Y189372D02*
X410868Y190038D01*
X412201D01*
X412867Y189372D01*
Y188705D01*
X412201Y188039D01*
X410868D01*
X410201Y187372D01*
Y186706D01*
X410868Y186039D01*
X412201D01*
X412867Y186706D01*
X408869Y188705D02*
Y186039D01*
Y187372D01*
X408202Y188039D01*
X407536Y188705D01*
X406869D01*
X404870Y186039D02*
X403537D01*
X404203D01*
Y188705D01*
X404870D01*
X397539Y190038D02*
Y186039D01*
X394873D01*
X392874Y188705D02*
X391541D01*
X390874Y188039D01*
Y186039D01*
X392874D01*
X393540Y186706D01*
X392874Y187372D01*
X390874D01*
X389541Y186039D02*
Y188705D01*
X387542D01*
X386876Y188039D01*
Y186039D01*
X385543D02*
Y190038D01*
Y187372D02*
X383543Y188705D01*
X385543Y187372D02*
X383543Y186039D01*
X380877Y188705D02*
X379545D01*
X378878Y188039D01*
Y186039D01*
X380877D01*
X381544Y186706D01*
X380877Y187372D01*
X378878D01*
D22*
X464567Y230315D02*
Y245310D01*
X459569Y240312D01*
X454570Y245310D01*
Y230315D01*
X449572Y245310D02*
X444573D01*
X447073D01*
Y230315D01*
X449572D01*
X444573D01*
X427079Y242811D02*
X429578Y245310D01*
X434577D01*
X437076Y242811D01*
Y232814D01*
X434577Y230315D01*
X429578D01*
X427079Y232814D01*
X422081Y230315D02*
Y245310D01*
X414583D01*
X412084Y242811D01*
Y237812D01*
X414583Y235313D01*
X422081D01*
X417082D02*
X412084Y230315D01*
X399588Y245310D02*
X404586D01*
X407086Y242811D01*
Y232814D01*
X404586Y230315D01*
X399588D01*
X397089Y232814D01*
Y242811D01*
X399588Y245310D01*
X392090D02*
Y230315D01*
X384593D01*
X382094Y232814D01*
Y235313D01*
X384593Y237812D01*
X392090D01*
X384593D01*
X382094Y240312D01*
Y242811D01*
X384593Y245310D01*
X392090D01*
X374596Y230315D02*
X369598D01*
X367098Y232814D01*
Y237812D01*
X369598Y240312D01*
X374596D01*
X377095Y237812D01*
Y232814D01*
X374596Y230315D01*
X362100Y245310D02*
X352103D01*
X357102D01*
Y230315D01*
X347105Y240312D02*
X344606D01*
Y237812D01*
X347105D01*
Y240312D01*
Y232814D02*
X344606D01*
Y230315D01*
X347105D01*
Y232814D01*
X334609Y240312D02*
X332110D01*
Y237812D01*
X334609D01*
Y240312D01*
Y232814D02*
X332110D01*
Y230315D01*
X334609D01*
Y232814D01*
X322113Y245310D02*
Y235313D01*
X317115Y230315D01*
X312116Y235313D01*
Y245310D01*
X307118Y230315D02*
X302119D01*
X304619D01*
Y245310D01*
X307118Y242811D01*
D45*
X467725Y335098D02*
X467925D01*
X511925D02*
X514425D01*
X467425Y335198D02*
X468925D01*
X481025D02*
X482525D01*
X493625D02*
X495225D01*
X511625D02*
X514725D01*
X462425Y335298D02*
X462925D01*
X463325D02*
X463725D01*
X464025D02*
X464125D01*
X466525D02*
X469325D01*
X476425D02*
X477125D01*
X480525D02*
X483325D01*
X492925D02*
X496025D01*
X503525D02*
X504025D01*
X504725D02*
X504925D01*
X511025D02*
X515625D01*
X461725Y335398D02*
X464525D01*
X466325D02*
X469725D01*
X475625D02*
X478325D01*
X480225D02*
X483725D01*
X492425D02*
X496325D01*
X502525D02*
X505525D01*
X510725D02*
X515825D01*
X461525Y335498D02*
X464625D01*
X466225D02*
X470025D01*
X475525D02*
X478525D01*
X480125D02*
X483825D01*
X492225D02*
X496525D01*
X502325D02*
X505625D01*
X510525D02*
X515925D01*
X461425Y335598D02*
X464925D01*
X465825D02*
X470225D01*
X475325D02*
X478725D01*
X479825D02*
X484125D01*
X491825D02*
X496825D01*
X502225D02*
X505725D01*
X510225D02*
X516325D01*
X461425Y335698D02*
X465025D01*
X465525D02*
X470525D01*
X475225D02*
X478725D01*
X479625D02*
X484325D01*
X491725D02*
X497025D01*
X502125D02*
X505925D01*
X510125D02*
X516525D01*
X461425Y335798D02*
X465025D01*
X465425D02*
X470525D01*
X475225D02*
X478825D01*
X479525D02*
X484425D01*
X491525D02*
X497125D01*
X502125D02*
X505925D01*
X510025D02*
X516625D01*
X461325Y335898D02*
X470925D01*
X475225D02*
X478825D01*
X479125D02*
X484725D01*
X491125D02*
X497625D01*
X502125D02*
X505925D01*
X509525D02*
X517125D01*
X461325Y335998D02*
X471025D01*
X475225D02*
X484825D01*
X491025D02*
X497725D01*
X502125D02*
X505925D01*
X509325D02*
X517225D01*
X461325Y336098D02*
X471125D01*
X475225D02*
X484925D01*
X490925D02*
X497825D01*
X502125D02*
X505925D01*
X509225D02*
X517325D01*
X461325Y336198D02*
X471425D01*
X475125D02*
X485125D01*
X490725D02*
X498025D01*
X502125D02*
X506025D01*
X508925D02*
X517625D01*
X461325Y336298D02*
X471625D01*
X475125D02*
X485225D01*
X490525D02*
X498325D01*
X502125D02*
X506025D01*
X508825D02*
X517725D01*
X461325Y336398D02*
X471625D01*
X475125D02*
X485325D01*
X490525D02*
X498325D01*
X502125D02*
X506025D01*
X508725D02*
X517825D01*
X461325Y336498D02*
X471725D01*
X475125D02*
X485425D01*
X490325D02*
X498525D01*
X502125D02*
X506025D01*
X508425D02*
X518125D01*
X461325Y336598D02*
X471925D01*
X475125D02*
X485525D01*
X490125D02*
X498725D01*
X502125D02*
X505925D01*
X508325D02*
X518225D01*
X461325Y336698D02*
X472025D01*
X475125D02*
X485625D01*
X490025D02*
X498825D01*
X502125D02*
X505925D01*
X508225D02*
X518325D01*
X461325Y336798D02*
X472225D01*
X475125D02*
X485725D01*
X489925D02*
X498925D01*
X502125D02*
X505925D01*
X508125D02*
X518525D01*
X461325Y336898D02*
X472325D01*
X475125D02*
X485825D01*
X489825D02*
X499025D01*
X502125D02*
X505925D01*
X507925D02*
X518625D01*
X461325Y336998D02*
X472425D01*
X475225D02*
X485825D01*
X489625D02*
X499025D01*
X502125D02*
X505925D01*
X507925D02*
X518725D01*
X461325Y337098D02*
X472425D01*
X475225D02*
X485925D01*
X489625D02*
X499225D01*
X502125D02*
X505925D01*
X507725D02*
X518925D01*
X461325Y337198D02*
X472525D01*
X475225D02*
X486025D01*
X489525D02*
X499325D01*
X502125D02*
X505925D01*
X507625D02*
X519025D01*
X461325Y337298D02*
X472625D01*
X475225D02*
X486125D01*
X489425D02*
X499425D01*
X502125D02*
X505925D01*
X507625D02*
X519125D01*
X461325Y337398D02*
X472625D01*
X475225D02*
X486125D01*
X489325D02*
X499525D01*
X502125D02*
X505925D01*
X507525D02*
X519225D01*
X461325Y337498D02*
X472725D01*
X475225D02*
X486125D01*
X489225D02*
X499525D01*
X502125D02*
X505925D01*
X507425D02*
X519325D01*
X461425Y337598D02*
X472725D01*
X475225D02*
X486125D01*
X489125D02*
X499625D01*
X502125D02*
X505925D01*
X507325D02*
X519425D01*
X461425Y337698D02*
X472825D01*
X475225D02*
X486225D01*
X489025D02*
X499625D01*
X502125D02*
X505925D01*
X507325D02*
X519425D01*
X461425Y337798D02*
X472925D01*
X475225D02*
X486325D01*
X489025D02*
X499725D01*
X502125D02*
X505925D01*
X507325D02*
X519525D01*
X461425Y337898D02*
X472925D01*
X475225D02*
X486425D01*
X488925D02*
X499825D01*
X502125D02*
X505925D01*
X507325D02*
X519625D01*
X461425Y337998D02*
X473025D01*
X475225D02*
X486425D01*
X488925D02*
X499825D01*
X502125D02*
X505925D01*
X507325D02*
X519725D01*
X461425Y338098D02*
X473025D01*
X475225D02*
X486425D01*
X488825D02*
X499925D01*
X502125D02*
X505925D01*
X507325D02*
X519825D01*
X461425Y338198D02*
X473025D01*
X475225D02*
X486425D01*
X488725D02*
X499925D01*
X502125D02*
X505925D01*
X507425D02*
X519825D01*
X461425Y338298D02*
X473125D01*
X475225D02*
X486425D01*
X488725D02*
X499925D01*
X502125D02*
X505925D01*
X507625D02*
X519925D01*
X461325Y338398D02*
X467225D01*
X467825D02*
X473225D01*
X475225D02*
X486425D01*
X488625D02*
X494125D01*
X494625D02*
X500025D01*
X502125D02*
X505925D01*
X507625D02*
X520025D01*
X461325Y338498D02*
X466725D01*
X468025D02*
X473225D01*
X475225D02*
X486525D01*
X488625D02*
X493725D01*
X494925D02*
X500125D01*
X502125D02*
X505925D01*
X507625D02*
X520025D01*
X461325Y338598D02*
X466225D01*
X468625D02*
X473325D01*
X475225D02*
X480325D01*
X481925D02*
X486525D01*
X488625D02*
X493225D01*
X495425D02*
X500225D01*
X502125D02*
X505925D01*
X507825D02*
X511725D01*
X514425D02*
X520125D01*
X461325Y338698D02*
X466225D01*
X468725D02*
X473325D01*
X475225D02*
X480225D01*
X482025D02*
X486625D01*
X488625D02*
X493125D01*
X495625D02*
X500225D01*
X502125D02*
X505925D01*
X507925D02*
X511625D01*
X514525D02*
X520125D01*
X461325Y338798D02*
X466125D01*
X468825D02*
X473325D01*
X475225D02*
X480025D01*
X482225D02*
X486625D01*
X488525D02*
X493025D01*
X495725D02*
X500225D01*
X502125D02*
X505925D01*
X507925D02*
X511425D01*
X514725D02*
X520125D01*
X461325Y338898D02*
X465925D01*
X469025D02*
X473325D01*
X475225D02*
X479925D01*
X482325D02*
X486725D01*
X488425D02*
X492825D01*
X496025D02*
X500225D01*
X502125D02*
X505925D01*
X508225D02*
X511125D01*
X515025D02*
X520225D01*
X461325Y338998D02*
X465825D01*
X469125D02*
X473325D01*
X475225D02*
X479725D01*
X482425D02*
X486725D01*
X488425D02*
X492825D01*
X496025D02*
X500225D01*
X502125D02*
X505925D01*
X508225D02*
X511025D01*
X515225D02*
X520325D01*
X461325Y339098D02*
X465725D01*
X469125D02*
X473425D01*
X475225D02*
X479725D01*
X482525D02*
X486725D01*
X488425D02*
X492725D01*
X496025D02*
X500325D01*
X502125D02*
X506025D01*
X508325D02*
X510925D01*
X515325D02*
X520425D01*
X461325Y339198D02*
X465625D01*
X469325D02*
X473425D01*
X475225D02*
X479525D01*
X482625D02*
X486725D01*
X488325D02*
X492525D01*
X496225D02*
X500325D01*
X502125D02*
X506025D01*
X508525D02*
X510625D01*
X515625D02*
X520425D01*
X461325Y339298D02*
X465625D01*
X469325D02*
X473525D01*
X475225D02*
X479425D01*
X482625D02*
X486725D01*
X488325D02*
X492525D01*
X496325D02*
X500425D01*
X502125D02*
X506025D01*
X508525D02*
X510625D01*
X515725D02*
X520425D01*
X461325Y339398D02*
X465525D01*
X469425D02*
X473525D01*
X475225D02*
X479425D01*
X482625D02*
X486725D01*
X488325D02*
X492525D01*
X496325D02*
X500425D01*
X502125D02*
X506025D01*
X508625D02*
X510525D01*
X515825D02*
X520425D01*
X461325Y339498D02*
X465325D01*
X469525D02*
X473525D01*
X475225D02*
X479325D01*
X482725D02*
X486725D01*
X488325D02*
X492325D01*
X496425D02*
X500425D01*
X502125D02*
X506025D01*
X508825D02*
X510325D01*
X516025D02*
X520525D01*
X461325Y339598D02*
X465325D01*
X469525D02*
X473625D01*
X475225D02*
X479325D01*
X482825D02*
X486725D01*
X488325D02*
X492225D01*
X496525D02*
X500525D01*
X502125D02*
X506025D01*
X508925D02*
X510225D01*
X516125D02*
X520625D01*
X461325Y339698D02*
X465325D01*
X469625D02*
X473625D01*
X475225D02*
X479225D01*
X482825D02*
X486725D01*
X488325D02*
X492225D01*
X496625D02*
X500525D01*
X502125D02*
X506025D01*
X508925D02*
X510125D01*
X516125D02*
X520625D01*
X461325Y339798D02*
X465325D01*
X469625D02*
X473625D01*
X475225D02*
X479125D01*
X482825D02*
X486725D01*
X488325D02*
X492225D01*
X496625D02*
X500525D01*
X502125D02*
X506025D01*
X509125D02*
X509825D01*
X516225D02*
X520725D01*
X461325Y339898D02*
X465325D01*
X469725D02*
X473625D01*
X475225D02*
X479125D01*
X482825D02*
X486725D01*
X488325D02*
X492225D01*
X496625D02*
X500525D01*
X502125D02*
X506025D01*
X509225D02*
X509725D01*
X516325D02*
X520725D01*
X461325Y339998D02*
X465225D01*
X469725D02*
X473625D01*
X475225D02*
X479125D01*
X482925D02*
X486725D01*
X488225D02*
X492125D01*
X496625D02*
X500525D01*
X502125D02*
X506025D01*
X516425D02*
X520725D01*
X461325Y340098D02*
X465225D01*
X469725D02*
X473625D01*
X475225D02*
X479125D01*
X482925D02*
X486725D01*
X488225D02*
X492125D01*
X496625D02*
X500525D01*
X502125D02*
X506025D01*
X516525D02*
X520725D01*
X461325Y340198D02*
X465225D01*
X469725D02*
X473625D01*
X475225D02*
X479125D01*
X482925D02*
X486725D01*
X488225D02*
X492125D01*
X496625D02*
X500525D01*
X502125D02*
X505925D01*
X516525D02*
X520725D01*
X461325Y340298D02*
X465225D01*
X469825D02*
X473625D01*
X475225D02*
X479125D01*
X482925D02*
X486725D01*
X488125D02*
X492125D01*
X496725D02*
X500525D01*
X502125D02*
X505925D01*
X516625D02*
X520725D01*
X461325Y340398D02*
X465225D01*
X469825D02*
X473625D01*
X475225D02*
X479125D01*
X482925D02*
X486725D01*
X488125D02*
X492125D01*
X496725D02*
X500525D01*
X502125D02*
X505925D01*
X516725D02*
X520825D01*
X461325Y340498D02*
X465125D01*
X469825D02*
X473625D01*
X475225D02*
X479125D01*
X482925D02*
X486725D01*
X488125D02*
X492025D01*
X496725D02*
X500525D01*
X502125D02*
X505925D01*
X516825D02*
X520925D01*
X461325Y340598D02*
X465025D01*
X469825D02*
X473625D01*
X475225D02*
X479125D01*
X482925D02*
X486725D01*
X488125D02*
X492025D01*
X496725D02*
X500525D01*
X502125D02*
X505925D01*
X516825D02*
X520925D01*
X461325Y340698D02*
X465025D01*
X469825D02*
X473625D01*
X475225D02*
X479025D01*
X482925D02*
X486725D01*
X488025D02*
X491925D01*
X496725D02*
X500525D01*
X502125D02*
X505925D01*
X516825D02*
X520925D01*
X461325Y340798D02*
X465025D01*
X469825D02*
X473625D01*
X475225D02*
X479025D01*
X482925D02*
X486725D01*
X488025D02*
X491925D01*
X496725D02*
X500525D01*
X502125D02*
X505925D01*
X516825D02*
X521025D01*
X461325Y340898D02*
X465025D01*
X469825D02*
X473625D01*
X475225D02*
X479025D01*
X482925D02*
X486725D01*
X488025D02*
X491925D01*
X496725D02*
X500525D01*
X502125D02*
X505925D01*
X516925D02*
X521025D01*
X461325Y340998D02*
X465025D01*
X469825D02*
X473625D01*
X475225D02*
X479025D01*
X482925D02*
X486725D01*
X488025D02*
X491925D01*
X496725D02*
X500525D01*
X502125D02*
X506025D01*
X516925D02*
X521025D01*
X461325Y341098D02*
X465025D01*
X469825D02*
X473625D01*
X475225D02*
X479025D01*
X482925D02*
X486725D01*
X488025D02*
X491925D01*
X496725D02*
X500525D01*
X502125D02*
X506025D01*
X517025D02*
X521025D01*
X461325Y341198D02*
X465025D01*
X469825D02*
X473625D01*
X475225D02*
X479025D01*
X482925D02*
X486725D01*
X488025D02*
X491925D01*
X496725D02*
X500525D01*
X502125D02*
X506025D01*
X517025D02*
X521025D01*
X461325Y341298D02*
X465025D01*
X469825D02*
X473625D01*
X475225D02*
X479025D01*
X482925D02*
X486725D01*
X488025D02*
X491925D01*
X496725D02*
X500525D01*
X502125D02*
X506025D01*
X517125D02*
X521025D01*
X461325Y341398D02*
X465025D01*
X469825D02*
X473625D01*
X475225D02*
X479025D01*
X482925D02*
X486725D01*
X488125D02*
X492025D01*
X496725D02*
X500525D01*
X502125D02*
X506025D01*
X517125D02*
X521025D01*
X461325Y341498D02*
X465025D01*
X469825D02*
X473625D01*
X475225D02*
X479025D01*
X482925D02*
X486725D01*
X488125D02*
X492025D01*
X496725D02*
X500525D01*
X502125D02*
X506025D01*
X517125D02*
X521025D01*
X461325Y341598D02*
X465025D01*
X469825D02*
X473625D01*
X475225D02*
X479025D01*
X482925D02*
X486725D01*
X488125D02*
X492025D01*
X496725D02*
X500525D01*
X502125D02*
X506025D01*
X517225D02*
X521125D01*
X461325Y341698D02*
X465125D01*
X469825D02*
X473625D01*
X475225D02*
X479025D01*
X482925D02*
X486725D01*
X488125D02*
X492025D01*
X496725D02*
X500525D01*
X502125D02*
X505925D01*
X517225D02*
X521125D01*
X461325Y341798D02*
X465125D01*
X469725D02*
X473625D01*
X475225D02*
X479025D01*
X482925D02*
X486725D01*
X488125D02*
X492125D01*
X496725D02*
X500525D01*
X502125D02*
X505925D01*
X517225D02*
X521125D01*
X461325Y341898D02*
X465225D01*
X469725D02*
X473625D01*
X475225D02*
X479025D01*
X482925D02*
X486725D01*
X488225D02*
X492125D01*
X496625D02*
X500525D01*
X502125D02*
X505925D01*
X517325D02*
X521125D01*
X461325Y341998D02*
X465225D01*
X469725D02*
X473625D01*
X475225D02*
X479025D01*
X482925D02*
X486725D01*
X488225D02*
X492225D01*
X496625D02*
X500525D01*
X502125D02*
X505925D01*
X517325D02*
X521125D01*
X461325Y342098D02*
X465325D01*
X469725D02*
X473625D01*
X475225D02*
X479025D01*
X482925D02*
X486725D01*
X488325D02*
X492225D01*
X496625D02*
X500525D01*
X502125D02*
X505925D01*
X517325D02*
X521125D01*
X461325Y342198D02*
X465325D01*
X469625D02*
X473625D01*
X475225D02*
X479025D01*
X482925D02*
X486725D01*
X488325D02*
X492225D01*
X496525D02*
X500525D01*
X502125D02*
X505925D01*
X517325D02*
X521125D01*
X461325Y342298D02*
X465325D01*
X469625D02*
X473625D01*
X475225D02*
X479025D01*
X482925D02*
X486725D01*
X488325D02*
X492225D01*
X496525D02*
X500525D01*
X502125D02*
X505925D01*
X517325D02*
X521125D01*
X461325Y342398D02*
X465325D01*
X469525D02*
X473625D01*
X475225D02*
X479025D01*
X482925D02*
X486725D01*
X488325D02*
X492325D01*
X496425D02*
X500425D01*
X502125D02*
X505925D01*
X517325D02*
X521125D01*
X461325Y342498D02*
X465325D01*
X469525D02*
X473525D01*
X475225D02*
X479025D01*
X482925D02*
X486725D01*
X488325D02*
X492325D01*
X496425D02*
X500425D01*
X502125D02*
X505925D01*
X517325D02*
X521125D01*
X461325Y342598D02*
X465525D01*
X469425D02*
X473525D01*
X475225D02*
X479025D01*
X482925D02*
X486725D01*
X488325D02*
X492425D01*
X496325D02*
X500425D01*
X502125D02*
X505925D01*
X517325D02*
X521125D01*
X461325Y342698D02*
X465625D01*
X469325D02*
X473525D01*
X475225D02*
X479025D01*
X482925D02*
X486725D01*
X488325D02*
X492525D01*
X496325D02*
X500425D01*
X502125D02*
X505925D01*
X517325D02*
X521125D01*
X461325Y342798D02*
X465625D01*
X469225D02*
X473525D01*
X475225D02*
X479025D01*
X482925D02*
X486725D01*
X488325D02*
X492525D01*
X496225D02*
X500325D01*
X502125D02*
X505925D01*
X517325D02*
X521125D01*
X461425Y342898D02*
X465725D01*
X469125D02*
X473425D01*
X475225D02*
X479025D01*
X482925D02*
X486725D01*
X488425D02*
X492625D01*
X496125D02*
X500325D01*
X502125D02*
X505925D01*
X517325D02*
X521125D01*
X461425Y342998D02*
X465825D01*
X469025D02*
X473425D01*
X475225D02*
X479025D01*
X482925D02*
X486725D01*
X488425D02*
X492725D01*
X496025D02*
X500225D01*
X502125D02*
X505925D01*
X517325D02*
X521125D01*
X461425Y343098D02*
X465925D01*
X469025D02*
X473325D01*
X475225D02*
X479025D01*
X482925D02*
X486725D01*
X488525D02*
X492825D01*
X495925D02*
X500225D01*
X502125D02*
X505925D01*
X517325D02*
X521125D01*
X461325Y343198D02*
X466125D01*
X468725D02*
X473325D01*
X475225D02*
X479025D01*
X482925D02*
X486725D01*
X488625D02*
X493025D01*
X495725D02*
X500225D01*
X502125D02*
X505925D01*
X517325D02*
X521125D01*
X461325Y343298D02*
X466225D01*
X468525D02*
X473325D01*
X475225D02*
X479025D01*
X482925D02*
X486725D01*
X488625D02*
X493225D01*
X495625D02*
X500225D01*
X502125D02*
X505925D01*
X517325D02*
X521125D01*
X461325Y343398D02*
X466325D01*
X468425D02*
X473325D01*
X475225D02*
X479025D01*
X482925D02*
X486725D01*
X488625D02*
X493325D01*
X495425D02*
X500125D01*
X502125D02*
X506025D01*
X517325D02*
X521125D01*
X461325Y343498D02*
X466725D01*
X468125D02*
X473225D01*
X475125D02*
X479025D01*
X482925D02*
X486725D01*
X488625D02*
X493725D01*
X495125D02*
X500125D01*
X502125D02*
X506025D01*
X517225D02*
X521125D01*
X461325Y343598D02*
X473225D01*
X475125D02*
X479025D01*
X482925D02*
X486725D01*
X488725D02*
X500025D01*
X502125D02*
X506025D01*
X517125D02*
X521125D01*
X461325Y343698D02*
X473125D01*
X475125D02*
X479025D01*
X482925D02*
X486725D01*
X488725D02*
X499925D01*
X502125D02*
X505925D01*
X517125D02*
X521025D01*
X461325Y343798D02*
X473025D01*
X475125D02*
X479025D01*
X482925D02*
X486725D01*
X488725D02*
X499925D01*
X502125D02*
X505925D01*
X517125D02*
X521025D01*
X461325Y343898D02*
X473025D01*
X475125D02*
X479025D01*
X482925D02*
X486725D01*
X488825D02*
X499925D01*
X502125D02*
X505925D01*
X517125D02*
X521025D01*
X461325Y343998D02*
X473025D01*
X475225D02*
X479025D01*
X482925D02*
X486725D01*
X488925D02*
X499825D01*
X502125D02*
X505925D01*
X517125D02*
X521025D01*
X461325Y344098D02*
X472925D01*
X475225D02*
X479025D01*
X482925D02*
X486725D01*
X489025D02*
X499825D01*
X502125D02*
X506025D01*
X517025D02*
X521025D01*
X461325Y344198D02*
X472925D01*
X475225D02*
X479025D01*
X482925D02*
X486725D01*
X489025D02*
X499725D01*
X502125D02*
X506025D01*
X517025D02*
X521025D01*
X461325Y344298D02*
X472825D01*
X475225D02*
X479025D01*
X482925D02*
X486725D01*
X489125D02*
X499625D01*
X502125D02*
X506025D01*
X516925D02*
X521025D01*
X461325Y344398D02*
X472725D01*
X475225D02*
X479025D01*
X482925D02*
X486725D01*
X489225D02*
X499625D01*
X502125D02*
X506025D01*
X516825D02*
X521025D01*
X461325Y344498D02*
X472725D01*
X475225D02*
X479025D01*
X482925D02*
X486725D01*
X489225D02*
X499525D01*
X502125D02*
X505925D01*
X516825D02*
X520925D01*
X461325Y344598D02*
X472625D01*
X475225D02*
X479025D01*
X482925D02*
X486725D01*
X489325D02*
X499425D01*
X502125D02*
X505925D01*
X516825D02*
X520925D01*
X461325Y344698D02*
X472525D01*
X475225D02*
X479025D01*
X482925D02*
X486725D01*
X489425D02*
X499325D01*
X502125D02*
X505925D01*
X516725D02*
X520825D01*
X461325Y344798D02*
X472525D01*
X475225D02*
X479025D01*
X482925D02*
X486725D01*
X489525D02*
X499225D01*
X502125D02*
X505925D01*
X516725D02*
X520825D01*
X461325Y344898D02*
X472425D01*
X475225D02*
X479025D01*
X482925D02*
X486725D01*
X489525D02*
X499225D01*
X502125D02*
X505925D01*
X516625D02*
X520725D01*
X461325Y344998D02*
X472325D01*
X475225D02*
X479025D01*
X482925D02*
X486725D01*
X489725D02*
X499025D01*
X502125D02*
X505925D01*
X516625D02*
X520725D01*
X461325Y345098D02*
X472225D01*
X475225D02*
X479025D01*
X482925D02*
X486725D01*
X489825D02*
X498925D01*
X502125D02*
X505925D01*
X516525D02*
X520725D01*
X461325Y345198D02*
X472125D01*
X475225D02*
X479025D01*
X482925D02*
X486725D01*
X489925D02*
X498925D01*
X502125D02*
X505925D01*
X516425D02*
X520725D01*
X461325Y345298D02*
X472025D01*
X475225D02*
X479025D01*
X482925D02*
X486725D01*
X490025D02*
X498625D01*
X502125D02*
X505925D01*
X509325D02*
X509825D01*
X516325D02*
X520725D01*
X461325Y345398D02*
X471925D01*
X475225D02*
X479025D01*
X482925D02*
X486725D01*
X490125D02*
X498625D01*
X502125D02*
X505925D01*
X509125D02*
X510025D01*
X516225D02*
X520725D01*
X461325Y345498D02*
X471825D01*
X475225D02*
X479025D01*
X482925D02*
X486725D01*
X490225D02*
X498525D01*
X502125D02*
X505925D01*
X509025D02*
X510025D01*
X516125D02*
X520625D01*
X461325Y345598D02*
X471525D01*
X475225D02*
X479025D01*
X482925D02*
X486725D01*
X490525D02*
X498325D01*
X502125D02*
X505925D01*
X508925D02*
X510125D01*
X516125D02*
X520625D01*
X461325Y345698D02*
X471425D01*
X475225D02*
X479025D01*
X482925D02*
X486725D01*
X490625D02*
X498225D01*
X502125D02*
X505925D01*
X508825D02*
X510325D01*
X515925D02*
X520525D01*
X461325Y345798D02*
X471425D01*
X475225D02*
X479025D01*
X482925D02*
X486725D01*
X490625D02*
X498025D01*
X502125D02*
X505925D01*
X508625D02*
X510325D01*
X515825D02*
X520425D01*
X461325Y345898D02*
X471125D01*
X475225D02*
X479025D01*
X482925D02*
X486725D01*
X490925D02*
X497825D01*
X502125D02*
X505925D01*
X508625D02*
X510425D01*
X515825D02*
X520425D01*
X461325Y345998D02*
X470925D01*
X475225D02*
X479025D01*
X482925D02*
X486725D01*
X491125D02*
X497625D01*
X502125D02*
X505925D01*
X508525D02*
X510625D01*
X515525D02*
X520425D01*
X461325Y346098D02*
X470825D01*
X475225D02*
X479025D01*
X483025D02*
X486725D01*
X491225D02*
X497525D01*
X502125D02*
X505925D01*
X508325D02*
X510825D01*
X515325D02*
X520325D01*
X461325Y346198D02*
X465225D01*
X465525D02*
X470625D01*
X475225D02*
X479025D01*
X483025D02*
X486725D01*
X491525D02*
X497225D01*
X502125D02*
X505925D01*
X508325D02*
X510925D01*
X515325D02*
X520325D01*
X461325Y346298D02*
X465125D01*
X465725D02*
X470425D01*
X475225D02*
X479025D01*
X483125D02*
X486725D01*
X491725D02*
X497025D01*
X502125D02*
X505925D01*
X508125D02*
X511225D01*
X515025D02*
X520225D01*
X461325Y346398D02*
X465125D01*
X465925D02*
X470225D01*
X475225D02*
X478925D01*
X483125D02*
X486725D01*
X491825D02*
X496825D01*
X502125D02*
X505925D01*
X508025D02*
X511425D01*
X514925D02*
X520225D01*
X461325Y346498D02*
X465125D01*
X466325D02*
X470025D01*
X475425D02*
X478725D01*
X483225D02*
X486525D01*
X492325D02*
X496625D01*
X502125D02*
X505925D01*
X507925D02*
X511525D01*
X514625D02*
X520125D01*
X461325Y346598D02*
X465125D01*
X466525D02*
X469625D01*
X475625D02*
X478525D01*
X483525D02*
X485825D01*
X492625D02*
X496225D01*
X502125D02*
X505925D01*
X507825D02*
X512325D01*
X514125D02*
X520125D01*
X461325Y346698D02*
X465125D01*
X466925D02*
X469025D01*
X493025D02*
X495525D01*
X502125D02*
X505925D01*
X507625D02*
X512625D01*
X513725D02*
X520025D01*
X461325Y346798D02*
X465125D01*
X467725D02*
X468425D01*
X493625D02*
X494725D01*
X502125D02*
X506025D01*
X507625D02*
X513225D01*
X513425D02*
X519925D01*
X461325Y346898D02*
X465125D01*
X502125D02*
X506025D01*
X507525D02*
X519825D01*
X461325Y346998D02*
X465125D01*
X502125D02*
X506025D01*
X507425D02*
X519825D01*
X461325Y347098D02*
X465125D01*
X502125D02*
X506025D01*
X507325D02*
X519725D01*
X461325Y347198D02*
X465025D01*
X502125D02*
X506025D01*
X507325D02*
X519725D01*
X461325Y347298D02*
X465025D01*
X502125D02*
X506025D01*
X507325D02*
X519625D01*
X461325Y347398D02*
X465025D01*
X502125D02*
X506025D01*
X507325D02*
X519525D01*
X461325Y347498D02*
X465125D01*
X502125D02*
X506025D01*
X507325D02*
X519425D01*
X461325Y347598D02*
X465125D01*
X502125D02*
X506025D01*
X507425D02*
X519425D01*
X461325Y347698D02*
X465125D01*
X502125D02*
X506025D01*
X507525D02*
X519325D01*
X461325Y347798D02*
X465125D01*
X502125D02*
X506025D01*
X507625D02*
X519225D01*
X461325Y347898D02*
X465125D01*
X502125D02*
X505925D01*
X507625D02*
X519125D01*
X461325Y347998D02*
X465125D01*
X502125D02*
X505925D01*
X507625D02*
X519025D01*
X461325Y348098D02*
X465125D01*
X502125D02*
X505925D01*
X507725D02*
X518825D01*
X461325Y348198D02*
X465125D01*
X502125D02*
X505925D01*
X507925D02*
X518825D01*
X461325Y348298D02*
X465125D01*
X502125D02*
X505925D01*
X507925D02*
X518725D01*
X461325Y348398D02*
X465125D01*
X502125D02*
X505925D01*
X508025D02*
X518525D01*
X461425Y348498D02*
X465125D01*
X502125D02*
X505925D01*
X508225D02*
X518425D01*
X461425Y348598D02*
X465025D01*
X502125D02*
X505925D01*
X508325D02*
X518225D01*
X461425Y348698D02*
X465025D01*
X502125D02*
X505925D01*
X508525D02*
X518125D01*
X461325Y348798D02*
X465125D01*
X502125D02*
X505925D01*
X508625D02*
X518025D01*
X461225Y348898D02*
X465125D01*
X502125D02*
X505925D01*
X508725D02*
X517925D01*
X461225Y348998D02*
X465125D01*
X502125D02*
X505925D01*
X509025D02*
X517625D01*
X461325Y349098D02*
X465125D01*
X502125D02*
X505925D01*
X509125D02*
X517425D01*
X461325Y349198D02*
X465125D01*
X502125D02*
X505925D01*
X509325D02*
X517325D01*
X461425Y349298D02*
X465125D01*
X502125D02*
X505925D01*
X509625D02*
X516925D01*
X461325Y349398D02*
X465125D01*
X502125D02*
X505925D01*
X509725D02*
X516725D01*
X461325Y349498D02*
X465125D01*
X502125D02*
X505925D01*
X509825D02*
X516625D01*
X461225Y349598D02*
X465125D01*
X502125D02*
X505925D01*
X510325D02*
X516025D01*
X461225Y349698D02*
X465025D01*
X502125D02*
X505925D01*
X510725D02*
X515825D01*
X461325Y349798D02*
X465025D01*
X502125D02*
X505925D01*
X510925D02*
X515725D01*
X461325Y349898D02*
X465025D01*
X502125D02*
X505925D01*
X511225D02*
X515325D01*
X461325Y349998D02*
X465125D01*
X502125D02*
X505925D01*
X511525D02*
X515025D01*
X461325Y350098D02*
X465225D01*
X502125D02*
X505925D01*
X512325D02*
X514725D01*
X461325Y350198D02*
X465225D01*
X502125D02*
X505925D01*
X461325Y350298D02*
X465125D01*
X502125D02*
X505925D01*
X461425Y350398D02*
X465025D01*
X502125D02*
X505725D01*
X461425Y350498D02*
X464925D01*
X502225D02*
X505725D01*
X461525Y350598D02*
X464825D01*
X502325D02*
X505625D01*
X461625Y350698D02*
X464725D01*
X502425D02*
X505425D01*
X462125Y350798D02*
X462525D01*
X461825Y350898D02*
X464325D01*
X471925D02*
X472225D01*
X476525D02*
X478225D01*
X481525D02*
X482225D01*
X486925D02*
X487425D01*
X490125D02*
X490725D01*
X495625D02*
X496025D01*
X499125D02*
X499425D01*
X502325D02*
X503125D01*
X507525D02*
X507925D01*
X513025D02*
X513425D01*
X461625Y350998D02*
X464425D01*
X471625D02*
X472525D01*
X476325D02*
X478525D01*
X481325D02*
X482625D01*
X486725D02*
X487625D01*
X490025D02*
X490925D01*
X495225D02*
X496225D01*
X498825D02*
X499725D01*
X502025D02*
X503125D01*
X507325D02*
X508225D01*
X512725D02*
X513725D01*
X461625Y351098D02*
X464525D01*
X471525D02*
X472625D01*
X476125D02*
X478725D01*
X481225D02*
X482625D01*
X486625D02*
X487625D01*
X489925D02*
X491025D01*
X495225D02*
X496325D01*
X498625D02*
X499825D01*
X501925D02*
X503225D01*
X507325D02*
X508425D01*
X512625D02*
X513725D01*
X461225Y351198D02*
X465025D01*
X471425D02*
X472725D01*
X475525D02*
X479125D01*
X481225D02*
X482825D01*
X486525D02*
X487725D01*
X489925D02*
X491025D01*
X495125D02*
X496425D01*
X498525D02*
X499825D01*
X501925D02*
X503225D01*
X507225D02*
X508425D01*
X512525D02*
X513825D01*
X461125Y351298D02*
X465225D01*
X471325D02*
X472825D01*
X475425D02*
X479425D01*
X481225D02*
X482925D01*
X486525D02*
X487825D01*
X489825D02*
X491225D01*
X495125D02*
X496525D01*
X498525D02*
X499925D01*
X501825D02*
X503225D01*
X507125D02*
X508525D01*
X512525D02*
X513925D01*
X460925Y351398D02*
X465425D01*
X471325D02*
X472825D01*
X475325D02*
X479525D01*
X481225D02*
X483025D01*
X486425D02*
X487825D01*
X489825D02*
X491325D01*
X495125D02*
X496525D01*
X498425D02*
X499925D01*
X501825D02*
X503325D01*
X507125D02*
X508525D01*
X512425D02*
X513925D01*
X460825Y351498D02*
X465625D01*
X471325D02*
X472925D01*
X475225D02*
X479725D01*
X481225D02*
X483025D01*
X486325D02*
X487825D01*
X489825D02*
X491325D01*
X495025D02*
X496525D01*
X498425D02*
X499925D01*
X501825D02*
X503325D01*
X507025D02*
X508625D01*
X512425D02*
X513925D01*
X460625Y351598D02*
X465725D01*
X471225D02*
X472925D01*
X475125D02*
X479825D01*
X481325D02*
X483125D01*
X486325D02*
X487925D01*
X489725D02*
X491325D01*
X495025D02*
X496525D01*
X498425D02*
X499925D01*
X501825D02*
X503325D01*
X507025D02*
X508625D01*
X512325D02*
X513925D01*
X460525Y351698D02*
X465825D01*
X471225D02*
X472925D01*
X475025D02*
X479925D01*
X481325D02*
X483125D01*
X486325D02*
X487925D01*
X489725D02*
X491325D01*
X495025D02*
X496525D01*
X498425D02*
X499925D01*
X501825D02*
X503325D01*
X507025D02*
X508725D01*
X512325D02*
X513925D01*
X460525Y351798D02*
X465925D01*
X471225D02*
X472925D01*
X474925D02*
X480025D01*
X481325D02*
X483325D01*
X486325D02*
X487925D01*
X489725D02*
X491325D01*
X495025D02*
X496525D01*
X498425D02*
X499925D01*
X501825D02*
X503325D01*
X507025D02*
X508725D01*
X512325D02*
X513925D01*
X460325Y351898D02*
X465925D01*
X471225D02*
X472925D01*
X474825D02*
X480125D01*
X481425D02*
X483425D01*
X486325D02*
X487925D01*
X489725D02*
X491325D01*
X495025D02*
X496525D01*
X498425D02*
X499925D01*
X501825D02*
X503325D01*
X507025D02*
X508625D01*
X512325D02*
X513925D01*
X460325Y351998D02*
X466025D01*
X471225D02*
X472925D01*
X474725D02*
X480225D01*
X481425D02*
X483425D01*
X486325D02*
X487925D01*
X489725D02*
X491325D01*
X495025D02*
X496525D01*
X498425D02*
X499925D01*
X501825D02*
X503325D01*
X507025D02*
X508625D01*
X512325D02*
X513925D01*
X460225Y352098D02*
X466025D01*
X471225D02*
X472925D01*
X474625D02*
X480325D01*
X481525D02*
X483625D01*
X486325D02*
X487925D01*
X489725D02*
X491325D01*
X495025D02*
X496525D01*
X498425D02*
X499925D01*
X501825D02*
X503325D01*
X507025D02*
X508625D01*
X512325D02*
X513925D01*
X460225Y352198D02*
X465925D01*
X471225D02*
X472925D01*
X474625D02*
X480325D01*
X481625D02*
X483625D01*
X486325D02*
X487925D01*
X489725D02*
X491325D01*
X495025D02*
X496525D01*
X498425D02*
X499925D01*
X501825D02*
X503325D01*
X507025D02*
X508625D01*
X512325D02*
X513925D01*
X460225Y352298D02*
X465925D01*
X471225D02*
X472925D01*
X474625D02*
X480325D01*
X481725D02*
X483725D01*
X486325D02*
X487925D01*
X489725D02*
X491325D01*
X495025D02*
X496525D01*
X498425D02*
X499925D01*
X501825D02*
X503325D01*
X507025D02*
X508625D01*
X512325D02*
X513925D01*
X460125Y352398D02*
X462225D01*
X463925D02*
X465925D01*
X471225D02*
X472925D01*
X474625D02*
X476625D01*
X478225D02*
X480525D01*
X481825D02*
X483725D01*
X486325D02*
X487925D01*
X489725D02*
X491325D01*
X495025D02*
X496525D01*
X498425D02*
X499925D01*
X501825D02*
X503325D01*
X507025D02*
X508625D01*
X512325D02*
X513925D01*
X460125Y352498D02*
X462025D01*
X464125D02*
X465925D01*
X471225D02*
X472925D01*
X474625D02*
X476525D01*
X478225D02*
X480625D01*
X481825D02*
X483825D01*
X486325D02*
X487925D01*
X489725D02*
X491325D01*
X495025D02*
X496525D01*
X498425D02*
X499925D01*
X501825D02*
X503325D01*
X507025D02*
X508725D01*
X512325D02*
X514025D01*
X460125Y352598D02*
X461925D01*
X464425D02*
X465825D01*
X471225D02*
X472925D01*
X474625D02*
X476325D01*
X478525D02*
X480625D01*
X481925D02*
X483925D01*
X486325D02*
X487925D01*
X489625D02*
X491325D01*
X495025D02*
X496525D01*
X498425D02*
X499925D01*
X501825D02*
X503325D01*
X507025D02*
X508725D01*
X512325D02*
X514025D01*
X460125Y352698D02*
X461725D01*
X464725D02*
X465725D01*
X471225D02*
X472925D01*
X474725D02*
X476025D01*
X478725D02*
X480625D01*
X482025D02*
X484025D01*
X486325D02*
X487925D01*
X489625D02*
X491325D01*
X495025D02*
X496525D01*
X498425D02*
X499925D01*
X501825D02*
X503325D01*
X507025D02*
X508725D01*
X512325D02*
X514025D01*
X460125Y352798D02*
X461625D01*
X464925D02*
X465625D01*
X471225D02*
X472925D01*
X474825D02*
X475925D01*
X478825D02*
X480725D01*
X482225D02*
X484025D01*
X486325D02*
X487925D01*
X489725D02*
X491325D01*
X495025D02*
X496525D01*
X498425D02*
X499925D01*
X501825D02*
X503325D01*
X507025D02*
X508725D01*
X512325D02*
X514025D01*
X460125Y352898D02*
X461625D01*
X471225D02*
X472925D01*
X474925D02*
X475725D01*
X478925D02*
X480825D01*
X482225D02*
X484125D01*
X486325D02*
X487925D01*
X489725D02*
X491325D01*
X495025D02*
X496525D01*
X498425D02*
X499925D01*
X501825D02*
X503325D01*
X507025D02*
X508725D01*
X512325D02*
X514025D01*
X460125Y352998D02*
X461625D01*
X471225D02*
X472925D01*
X479025D02*
X480925D01*
X482325D02*
X484225D01*
X486325D02*
X487925D01*
X489725D02*
X491325D01*
X495025D02*
X496525D01*
X498425D02*
X499925D01*
X501825D02*
X503325D01*
X507025D02*
X508725D01*
X512325D02*
X513925D01*
X460125Y353098D02*
X461625D01*
X471225D02*
X472925D01*
X479125D02*
X480925D01*
X482325D02*
X484325D01*
X486225D02*
X487925D01*
X489725D02*
X491325D01*
X495025D02*
X496525D01*
X498425D02*
X499925D01*
X501825D02*
X503325D01*
X507025D02*
X508725D01*
X512325D02*
X514025D01*
X460125Y353198D02*
X461625D01*
X471225D02*
X472925D01*
X479225D02*
X480925D01*
X482525D02*
X484425D01*
X486225D02*
X487925D01*
X489725D02*
X491325D01*
X495025D02*
X496525D01*
X498425D02*
X499925D01*
X501825D02*
X503325D01*
X507025D02*
X508725D01*
X512325D02*
X514025D01*
X460125Y353298D02*
X461625D01*
X471225D02*
X472925D01*
X479325D02*
X481025D01*
X482525D02*
X484525D01*
X486025D02*
X487925D01*
X489725D02*
X491325D01*
X495025D02*
X496525D01*
X498425D02*
X499925D01*
X501825D02*
X503325D01*
X507025D02*
X508625D01*
X512325D02*
X514025D01*
X460125Y353398D02*
X461825D01*
X471225D02*
X472925D01*
X479325D02*
X481025D01*
X482625D02*
X484625D01*
X485925D02*
X487925D01*
X489725D02*
X491325D01*
X495025D02*
X496525D01*
X498425D02*
X499925D01*
X501825D02*
X503325D01*
X507025D02*
X508625D01*
X512325D02*
X514025D01*
X460125Y353498D02*
X461925D01*
X471225D02*
X472925D01*
X479425D02*
X481025D01*
X482625D02*
X484625D01*
X485825D02*
X487925D01*
X489725D02*
X491325D01*
X495025D02*
X496525D01*
X498425D02*
X499925D01*
X501825D02*
X503325D01*
X507025D02*
X508625D01*
X512325D02*
X514025D01*
X460125Y353598D02*
X462325D01*
X471225D02*
X472925D01*
X479425D02*
X481125D01*
X482725D02*
X484825D01*
X485725D02*
X487925D01*
X489725D02*
X491325D01*
X495025D02*
X496525D01*
X498425D02*
X499925D01*
X501825D02*
X503325D01*
X507025D02*
X508625D01*
X512325D02*
X514025D01*
X460125Y353698D02*
X462725D01*
X471225D02*
X472925D01*
X479425D02*
X481125D01*
X482825D02*
X484925D01*
X485525D02*
X487925D01*
X489725D02*
X491325D01*
X495025D02*
X496525D01*
X498425D02*
X499925D01*
X501825D02*
X503325D01*
X507025D02*
X508625D01*
X512325D02*
X514025D01*
X460225Y353798D02*
X462925D01*
X471225D02*
X472925D01*
X479425D02*
X481125D01*
X482925D02*
X485025D01*
X485425D02*
X487925D01*
X489725D02*
X491325D01*
X495025D02*
X496525D01*
X498425D02*
X499925D01*
X501825D02*
X503325D01*
X507025D02*
X508625D01*
X512325D02*
X514025D01*
X460225Y353898D02*
X463325D01*
X471225D02*
X472925D01*
X474825D02*
X474925D01*
X479325D02*
X481125D01*
X483025D02*
X487925D01*
X489725D02*
X491325D01*
X495025D02*
X496525D01*
X498425D02*
X499925D01*
X501825D02*
X503325D01*
X507025D02*
X508625D01*
X512325D02*
X514025D01*
X460225Y353998D02*
X464125D01*
X471225D02*
X472925D01*
X474425D02*
X481125D01*
X483125D02*
X487925D01*
X489725D02*
X491325D01*
X495025D02*
X496525D01*
X498425D02*
X499925D01*
X501825D02*
X503325D01*
X507025D02*
X508625D01*
X512325D02*
X514025D01*
X460225Y354098D02*
X464325D01*
X471225D02*
X472925D01*
X474325D02*
X481125D01*
X483125D02*
X487925D01*
X489725D02*
X491325D01*
X495025D02*
X496525D01*
X498425D02*
X499925D01*
X501825D02*
X503325D01*
X507025D02*
X508625D01*
X512325D02*
X514025D01*
X460325Y354198D02*
X464525D01*
X471225D02*
X472925D01*
X474325D02*
X481125D01*
X483225D02*
X487925D01*
X489725D02*
X491325D01*
X495025D02*
X496525D01*
X498425D02*
X499925D01*
X501825D02*
X503325D01*
X507025D02*
X508625D01*
X512325D02*
X514025D01*
X460425Y354298D02*
X464925D01*
X471225D02*
X472925D01*
X474225D02*
X481225D01*
X483325D02*
X487925D01*
X489725D02*
X491325D01*
X495025D02*
X496525D01*
X498425D02*
X499925D01*
X501825D02*
X503325D01*
X507025D02*
X508625D01*
X512325D02*
X514025D01*
X460525Y354398D02*
X465025D01*
X471225D02*
X472925D01*
X474125D02*
X481225D01*
X483425D02*
X487925D01*
X489725D02*
X491325D01*
X495025D02*
X496525D01*
X498425D02*
X499925D01*
X501825D02*
X503325D01*
X507025D02*
X508625D01*
X512325D02*
X514025D01*
X460625Y354498D02*
X465125D01*
X471225D02*
X472925D01*
X474125D02*
X481225D01*
X483525D02*
X487925D01*
X489725D02*
X491325D01*
X495025D02*
X496525D01*
X498425D02*
X499925D01*
X501825D02*
X503325D01*
X507025D02*
X508625D01*
X512325D02*
X514025D01*
X460725Y354598D02*
X465325D01*
X471225D02*
X472925D01*
X474025D02*
X481225D01*
X483525D02*
X487925D01*
X489725D02*
X491325D01*
X495025D02*
X496525D01*
X498425D02*
X499925D01*
X501825D02*
X503325D01*
X507025D02*
X508625D01*
X512325D02*
X514025D01*
X460825Y354698D02*
X465325D01*
X471225D02*
X472925D01*
X474025D02*
X481225D01*
X483625D02*
X487925D01*
X489725D02*
X491325D01*
X495025D02*
X496525D01*
X498425D02*
X499925D01*
X501825D02*
X503325D01*
X507025D02*
X508625D01*
X512325D02*
X514025D01*
X461225Y354798D02*
X465425D01*
X471225D02*
X472925D01*
X474025D02*
X481225D01*
X483725D02*
X487925D01*
X489725D02*
X491325D01*
X495025D02*
X496525D01*
X498425D02*
X499925D01*
X501825D02*
X503325D01*
X507025D02*
X508625D01*
X512325D02*
X514025D01*
X461325Y354898D02*
X465525D01*
X471225D02*
X472925D01*
X474025D02*
X481225D01*
X483725D02*
X487925D01*
X489725D02*
X491325D01*
X495025D02*
X496525D01*
X498425D02*
X499925D01*
X501825D02*
X503325D01*
X507025D02*
X508625D01*
X512325D02*
X514025D01*
X461425Y354998D02*
X465625D01*
X471225D02*
X472925D01*
X474125D02*
X481225D01*
X483825D02*
X487925D01*
X489725D02*
X491325D01*
X495025D02*
X496525D01*
X498425D02*
X499925D01*
X501825D02*
X503325D01*
X507025D02*
X508625D01*
X512325D02*
X514025D01*
X462425Y355098D02*
X465625D01*
X471225D02*
X472925D01*
X474125D02*
X481125D01*
X483925D02*
X487925D01*
X489725D02*
X491325D01*
X494925D02*
X496525D01*
X498425D02*
X499925D01*
X501825D02*
X503325D01*
X507025D02*
X508625D01*
X512325D02*
X514025D01*
X462625Y355198D02*
X465725D01*
X471225D02*
X472925D01*
X474225D02*
X481125D01*
X483825D02*
X487925D01*
X489725D02*
X491325D01*
X494925D02*
X496525D01*
X498425D02*
X499925D01*
X501825D02*
X503325D01*
X507025D02*
X508625D01*
X512325D02*
X514025D01*
X462925Y355298D02*
X465825D01*
X471225D02*
X472925D01*
X474225D02*
X481125D01*
X483725D02*
X486125D01*
X486225D02*
X487925D01*
X489725D02*
X491325D01*
X494825D02*
X496525D01*
X498425D02*
X499925D01*
X501825D02*
X503325D01*
X506925D02*
X508725D01*
X512325D02*
X514025D01*
X463825Y355398D02*
X465825D01*
X471225D02*
X472925D01*
X474225D02*
X475725D01*
X479525D02*
X481125D01*
X483725D02*
X485925D01*
X486325D02*
X487925D01*
X489725D02*
X491325D01*
X494825D02*
X496525D01*
X498425D02*
X499925D01*
X501825D02*
X503325D01*
X506925D02*
X508725D01*
X512325D02*
X514025D01*
X463825Y355498D02*
X465825D01*
X471225D02*
X472925D01*
X474225D02*
X475725D01*
X479425D02*
X481125D01*
X483525D02*
X485825D01*
X486325D02*
X487925D01*
X489725D02*
X491325D01*
X494725D02*
X496525D01*
X498425D02*
X499925D01*
X501825D02*
X503325D01*
X506925D02*
X508725D01*
X512325D02*
X514025D01*
X463925Y355598D02*
X465925D01*
X471125D02*
X472925D01*
X474225D02*
X475825D01*
X479425D02*
X481025D01*
X483425D02*
X485725D01*
X486325D02*
X487925D01*
X489725D02*
X491325D01*
X494725D02*
X496525D01*
X498425D02*
X499925D01*
X501825D02*
X503325D01*
X506925D02*
X508625D01*
X512325D02*
X514025D01*
X464125Y355698D02*
X465925D01*
X471025D02*
X472925D01*
X474225D02*
X475825D01*
X479425D02*
X481025D01*
X483425D02*
X485525D01*
X486325D02*
X487925D01*
X489725D02*
X491325D01*
X494725D02*
X496525D01*
X498425D02*
X499925D01*
X501825D02*
X503325D01*
X506825D02*
X508625D01*
X512325D02*
X514025D01*
X464125Y355798D02*
X465925D01*
X470925D02*
X472925D01*
X474225D02*
X475925D01*
X479325D02*
X481025D01*
X483225D02*
X485425D01*
X486325D02*
X487925D01*
X489825D02*
X491425D01*
X494725D02*
X496525D01*
X498425D02*
X499925D01*
X501825D02*
X503525D01*
X506825D02*
X508625D01*
X512325D02*
X514025D01*
X464225Y355898D02*
X465925D01*
X470925D02*
X472925D01*
X474325D02*
X475925D01*
X479325D02*
X481025D01*
X483225D02*
X485425D01*
X486325D02*
X487925D01*
X489825D02*
X491525D01*
X494625D02*
X496525D01*
X498425D02*
X499925D01*
X501825D02*
X503525D01*
X506725D02*
X508625D01*
X512325D02*
X514025D01*
X464225Y355998D02*
X465925D01*
X470925D02*
X472925D01*
X474325D02*
X476025D01*
X479325D02*
X480925D01*
X483125D02*
X485225D01*
X486325D02*
X487925D01*
X489825D02*
X491525D01*
X494625D02*
X496525D01*
X498425D02*
X499925D01*
X501825D02*
X503525D01*
X506725D02*
X508625D01*
X512325D02*
X514025D01*
X464225Y356098D02*
X465925D01*
X470925D02*
X472925D01*
X474325D02*
X476025D01*
X479225D02*
X480925D01*
X482925D02*
X485125D01*
X486325D02*
X487925D01*
X489825D02*
X491625D01*
X494525D02*
X496525D01*
X498425D02*
X499925D01*
X501825D02*
X503625D01*
X506525D02*
X508625D01*
X512325D02*
X514025D01*
X464225Y356198D02*
X465925D01*
X470925D02*
X472925D01*
X474425D02*
X476125D01*
X479125D02*
X480825D01*
X482825D02*
X484925D01*
X486325D02*
X487925D01*
X489925D02*
X491625D01*
X494425D02*
X496525D01*
X498425D02*
X499925D01*
X501925D02*
X503625D01*
X506425D02*
X508625D01*
X512325D02*
X514025D01*
X464225Y356298D02*
X465925D01*
X470725D02*
X472925D01*
X474525D02*
X476225D01*
X479025D02*
X480725D01*
X482825D02*
X484825D01*
X486325D02*
X487925D01*
X489925D02*
X491625D01*
X494425D02*
X496525D01*
X498425D02*
X499925D01*
X501925D02*
X503725D01*
X506425D02*
X508625D01*
X512325D02*
X514025D01*
X460825Y356398D02*
X461225D01*
X464125D02*
X465925D01*
X470525D02*
X472925D01*
X474525D02*
X476425D01*
X478825D02*
X480625D01*
X482625D02*
X484725D01*
X486325D02*
X487925D01*
X489925D02*
X491825D01*
X494225D02*
X496525D01*
X498425D02*
X499925D01*
X502025D02*
X503825D01*
X506225D02*
X508625D01*
X512325D02*
X514025D01*
X460625Y356498D02*
X461325D01*
X464025D02*
X465825D01*
X467025D02*
X467825D01*
X470325D02*
X472925D01*
X474625D02*
X476525D01*
X478725D02*
X480625D01*
X482525D02*
X484625D01*
X486325D02*
X487925D01*
X490025D02*
X491925D01*
X494125D02*
X496525D01*
X498425D02*
X499925D01*
X502025D02*
X503925D01*
X506125D02*
X508625D01*
X512325D02*
X514025D01*
X460625Y356598D02*
X461525D01*
X463925D02*
X465725D01*
X466925D02*
X467925D01*
X470325D02*
X472925D01*
X474625D02*
X476625D01*
X478525D02*
X480625D01*
X482525D02*
X484525D01*
X486325D02*
X487925D01*
X490025D02*
X492025D01*
X494025D02*
X496525D01*
X498425D02*
X499925D01*
X502125D02*
X504025D01*
X506025D02*
X508625D01*
X512325D02*
X514025D01*
X460525Y356698D02*
X462225D01*
X463325D02*
X465725D01*
X466925D02*
X467925D01*
X469425D02*
X472925D01*
X474625D02*
X477125D01*
X478125D02*
X480525D01*
X482325D02*
X484425D01*
X486325D02*
X487925D01*
X490125D02*
X492825D01*
X493225D02*
X496525D01*
X498425D02*
X499925D01*
X502125D02*
X504625D01*
X505025D02*
X505325D01*
X505425D02*
X508625D01*
X512325D02*
X514025D01*
X460525Y356798D02*
X465625D01*
X466925D02*
X468025D01*
X469125D02*
X472925D01*
X474725D02*
X480525D01*
X482225D02*
X484325D01*
X486325D02*
X487925D01*
X490125D02*
X496525D01*
X498425D02*
X499925D01*
X502125D02*
X508625D01*
X512325D02*
X514025D01*
X460525Y356898D02*
X465625D01*
X466825D02*
X468025D01*
X469125D02*
X472925D01*
X474825D02*
X480425D01*
X482125D02*
X484225D01*
X486325D02*
X487925D01*
X490225D02*
X496525D01*
X498425D02*
X499925D01*
X502125D02*
X508625D01*
X512325D02*
X514025D01*
X460525Y356998D02*
X465625D01*
X466825D02*
X468025D01*
X468925D02*
X472925D01*
X474925D02*
X480325D01*
X482025D02*
X484125D01*
X486325D02*
X487925D01*
X490225D02*
X496525D01*
X498425D02*
X499925D01*
X502225D02*
X508625D01*
X512325D02*
X514025D01*
X460525Y357098D02*
X465625D01*
X466725D02*
X468125D01*
X468825D02*
X472925D01*
X474925D02*
X480325D01*
X481925D02*
X484025D01*
X486325D02*
X487925D01*
X490325D02*
X496525D01*
X498425D02*
X499925D01*
X502225D02*
X508625D01*
X512325D02*
X514025D01*
X460525Y357198D02*
X465425D01*
X466725D02*
X468125D01*
X468825D02*
X472925D01*
X475025D02*
X480225D01*
X481825D02*
X483925D01*
X486325D02*
X487925D01*
X490525D02*
X496525D01*
X498425D02*
X499925D01*
X502425D02*
X508625D01*
X512325D02*
X514025D01*
X460525Y357298D02*
X465325D01*
X466725D02*
X468125D01*
X468825D02*
X472925D01*
X475225D02*
X480125D01*
X481625D02*
X483725D01*
X486325D02*
X487925D01*
X490525D02*
X496525D01*
X498425D02*
X499925D01*
X502425D02*
X508625D01*
X512325D02*
X514025D01*
X460525Y357398D02*
X465325D01*
X466725D02*
X468125D01*
X468825D02*
X472925D01*
X475325D02*
X480025D01*
X481625D02*
X483725D01*
X486325D02*
X487925D01*
X490625D02*
X496525D01*
X498425D02*
X499925D01*
X502525D02*
X508625D01*
X512325D02*
X514025D01*
X460525Y357498D02*
X465225D01*
X466725D02*
X468125D01*
X468825D02*
X472925D01*
X475525D02*
X479725D01*
X481525D02*
X483625D01*
X486325D02*
X487925D01*
X490725D02*
X496525D01*
X498425D02*
X499925D01*
X502725D02*
X508625D01*
X512325D02*
X514025D01*
X460525Y357598D02*
X465025D01*
X466725D02*
X468125D01*
X468825D02*
X472925D01*
X475525D02*
X479725D01*
X481425D02*
X483525D01*
X486325D02*
X487925D01*
X490825D02*
X496525D01*
X498425D02*
X499925D01*
X502825D02*
X508625D01*
X512325D02*
X514025D01*
X460625Y357698D02*
X464925D01*
X466725D02*
X468125D01*
X468825D02*
X471125D01*
X471225D02*
X472925D01*
X475725D02*
X479625D01*
X481525D02*
X483425D01*
X486325D02*
X487925D01*
X490825D02*
X494925D01*
X495025D02*
X496525D01*
X498425D02*
X499925D01*
X502925D02*
X508625D01*
X512325D02*
X514025D01*
X460825Y357798D02*
X464825D01*
X466825D02*
X468125D01*
X468825D02*
X471025D01*
X471325D02*
X472825D01*
X475925D02*
X479425D01*
X481525D02*
X483325D01*
X486325D02*
X487925D01*
X491025D02*
X494625D01*
X495125D02*
X496525D01*
X498425D02*
X499925D01*
X503125D02*
X506625D01*
X507025D02*
X508625D01*
X512325D02*
X514025D01*
X461025Y357898D02*
X464625D01*
X466825D02*
X468125D01*
X468925D02*
X470725D01*
X471325D02*
X472725D01*
X476125D02*
X479225D01*
X481625D02*
X483125D01*
X486325D02*
X487925D01*
X491225D02*
X494425D01*
X495125D02*
X496425D01*
X498525D02*
X499925D01*
X503325D02*
X506325D01*
X507025D02*
X508625D01*
X512325D02*
X514025D01*
X461225Y357998D02*
X464525D01*
X466825D02*
X468125D01*
X469025D02*
X470625D01*
X471525D02*
X472625D01*
X476225D02*
X479025D01*
X481625D02*
X483025D01*
X486325D02*
X487925D01*
X491325D02*
X494225D01*
X495225D02*
X496425D01*
X498625D02*
X499825D01*
X503425D02*
X506325D01*
X507025D02*
X508625D01*
X512325D02*
X514025D01*
X461525Y358098D02*
X464125D01*
X466725D02*
X468125D01*
X469225D02*
X470225D01*
X471825D02*
X472425D01*
X476525D02*
X478825D01*
X481925D02*
X482825D01*
X486325D02*
X487925D01*
X491725D02*
X493925D01*
X495425D02*
X496225D01*
X498925D02*
X499525D01*
X503825D02*
X506025D01*
X507025D02*
X508625D01*
X512325D02*
X514025D01*
X462825Y358198D02*
X463025D01*
X466725D02*
X468125D01*
X477525D02*
X477825D01*
X486325D02*
X487925D01*
X507025D02*
X508625D01*
X512325D02*
X514025D01*
X466725Y358298D02*
X468125D01*
X486325D02*
X487925D01*
X507025D02*
X508625D01*
X512325D02*
X514025D01*
X466725Y358398D02*
X468125D01*
X486325D02*
X487925D01*
X507025D02*
X508625D01*
X512325D02*
X514025D01*
X466725Y358498D02*
X468125D01*
X486325D02*
X487925D01*
X507025D02*
X508625D01*
X512325D02*
X514025D01*
X466725Y358598D02*
X468125D01*
X486325D02*
X487925D01*
X507025D02*
X508625D01*
X512225D02*
X514025D01*
X466725Y358698D02*
X468125D01*
X486325D02*
X487925D01*
X507025D02*
X508625D01*
X512225D02*
X514025D01*
X466725Y358798D02*
X468125D01*
X486325D02*
X487925D01*
X507025D02*
X508625D01*
X512225D02*
X514025D01*
X466725Y358898D02*
X468125D01*
X486325D02*
X487925D01*
X507025D02*
X508625D01*
X510825D02*
X511125D01*
X512125D02*
X514325D01*
X514525D02*
X514625D01*
X516125D02*
X516225D01*
X466725Y358998D02*
X468125D01*
X486325D02*
X487925D01*
X507025D02*
X508725D01*
X509725D02*
X516625D01*
X466725Y359098D02*
X468125D01*
X486325D02*
X487925D01*
X498725D02*
X499625D01*
X507025D02*
X508725D01*
X509425D02*
X516925D01*
X466725Y359198D02*
X468125D01*
X486325D02*
X487925D01*
X498525D02*
X499825D01*
X507025D02*
X508725D01*
X509225D02*
X517025D01*
X466725Y359298D02*
X468125D01*
X486325D02*
X487925D01*
X498525D02*
X499925D01*
X507025D02*
X508725D01*
X509225D02*
X517025D01*
X466725Y359398D02*
X468125D01*
X486325D02*
X487925D01*
X498425D02*
X499925D01*
X507025D02*
X508625D01*
X509225D02*
X517025D01*
X466725Y359498D02*
X468125D01*
X486325D02*
X487925D01*
X498325D02*
X500025D01*
X507025D02*
X508625D01*
X509125D02*
X517025D01*
X466725Y359598D02*
X468125D01*
X486325D02*
X487925D01*
X498225D02*
X500125D01*
X507025D02*
X508625D01*
X509125D02*
X517025D01*
X466725Y359698D02*
X468125D01*
X486325D02*
X487925D01*
X498225D02*
X500125D01*
X507025D02*
X508625D01*
X509125D02*
X517025D01*
X466825Y359798D02*
X468125D01*
X486325D02*
X487925D01*
X498225D02*
X500125D01*
X507025D02*
X508625D01*
X509225D02*
X517025D01*
X466825Y359898D02*
X468125D01*
X486325D02*
X487925D01*
X498225D02*
X500225D01*
X507025D02*
X508625D01*
X509225D02*
X517025D01*
X466825Y359998D02*
X468025D01*
X486325D02*
X487925D01*
X498125D02*
X500225D01*
X507025D02*
X508625D01*
X509325D02*
X517025D01*
X466925Y360098D02*
X468025D01*
X486325D02*
X487925D01*
X498225D02*
X500125D01*
X507025D02*
X508625D01*
X509425D02*
X517025D01*
X466925Y360198D02*
X467925D01*
X486325D02*
X487925D01*
X498225D02*
X500125D01*
X507025D02*
X508625D01*
X509525D02*
X516925D01*
X467325Y360298D02*
X467725D01*
X486325D02*
X487925D01*
X498325D02*
X500025D01*
X507025D02*
X508725D01*
X509725D02*
X516825D01*
X486425Y360398D02*
X487925D01*
X498425D02*
X500025D01*
X507025D02*
X508625D01*
X510225D02*
X510525D01*
X510925D02*
X511425D01*
X511725D02*
X513625D01*
X513825D02*
X514125D01*
X514725D02*
X515425D01*
X515925D02*
X516625D01*
X486425Y360498D02*
X487825D01*
X498425D02*
X499925D01*
X507125D02*
X508525D01*
X486525Y360598D02*
X487825D01*
X498525D02*
X499825D01*
X507125D02*
X508525D01*
X486525Y360698D02*
X487825D01*
X498625D02*
X499725D01*
X507225D02*
X508425D01*
X486725Y360798D02*
X487625D01*
X498825D02*
X499525D01*
X507325D02*
X508325D01*
X488925Y363698D02*
X489925D01*
X488325Y363798D02*
X490725D01*
X488125Y363898D02*
X490825D01*
X487925Y363998D02*
X491025D01*
X487725Y364098D02*
X491325D01*
X487525Y364198D02*
X491525D01*
X487425Y364298D02*
X491625D01*
X487225Y364398D02*
X491825D01*
X487125Y364498D02*
X491925D01*
X487125Y364598D02*
X492025D01*
X486825Y364698D02*
X492225D01*
X486825Y364798D02*
X492225D01*
X486725Y364898D02*
X492225D01*
X486625Y364998D02*
X492425D01*
X486525Y365098D02*
X492525D01*
X486525Y365198D02*
X492525D01*
X486325Y365298D02*
X492625D01*
X486325Y365398D02*
X492725D01*
X486225Y365498D02*
X492825D01*
X486225Y365598D02*
X492825D01*
X486225Y365698D02*
X492825D01*
X486125Y365798D02*
X489125D01*
X489825D02*
X492825D01*
X486025Y365898D02*
X489125D01*
X489925D02*
X492925D01*
X485925Y365998D02*
X488925D01*
X490025D02*
X492925D01*
X485925Y366098D02*
X488725D01*
X490425D02*
X493025D01*
X485925Y366198D02*
X488625D01*
X490525D02*
X493125D01*
X485925Y366298D02*
X488525D01*
X490525D02*
X493125D01*
X485925Y366398D02*
X488325D01*
X490725D02*
X493125D01*
X485925Y366498D02*
X488325D01*
X490825D02*
X493125D01*
X485825Y366598D02*
X488225D01*
X490825D02*
X493125D01*
X485825Y366698D02*
X488225D01*
X490825D02*
X493125D01*
X485725Y366798D02*
X488225D01*
X490825D02*
X493125D01*
X485725Y366898D02*
X488225D01*
X490925D02*
X493125D01*
X485725Y366998D02*
X488125D01*
X491025D02*
X493125D01*
X485725Y367098D02*
X488125D01*
X491125D02*
X493125D01*
X485725Y367198D02*
X488125D01*
X491125D02*
X493125D01*
X485725Y367298D02*
X488125D01*
X491125D02*
X493125D01*
X485725Y367398D02*
X488125D01*
X491125D02*
X493125D01*
X485725Y367498D02*
X488125D01*
X491125D02*
X493125D01*
X485725Y367598D02*
X488125D01*
X491125D02*
X493125D01*
X485725Y367698D02*
X488125D01*
X491025D02*
X493125D01*
X485725Y367798D02*
X488125D01*
X490925D02*
X493125D01*
X485725Y367898D02*
X488225D01*
X490925D02*
X493125D01*
X485725Y367998D02*
X488225D01*
X490825D02*
X493125D01*
X485825Y368098D02*
X488225D01*
X490825D02*
X493125D01*
X485925Y368198D02*
X488325D01*
X490825D02*
X493125D01*
X485925Y368298D02*
X488425D01*
X490625D02*
X493125D01*
X485925Y368398D02*
X488525D01*
X490525D02*
X493125D01*
X485925Y368498D02*
X488625D01*
X490525D02*
X493125D01*
X485925Y368598D02*
X488725D01*
X490325D02*
X493125D01*
X485925Y368698D02*
X488925D01*
X490025D02*
X493025D01*
X497225D02*
X499125D01*
X480725Y368798D02*
X481425D01*
X486025D02*
X489725D01*
X489825D02*
X492925D01*
X496925D02*
X499325D01*
X480225Y368898D02*
X481725D01*
X486025D02*
X492825D01*
X496625D02*
X499525D01*
X479825Y368998D02*
X482325D01*
X486125D02*
X492825D01*
X496525D02*
X499725D01*
X479725Y369098D02*
X482425D01*
X486225D02*
X492825D01*
X496325D02*
X499925D01*
X479525Y369198D02*
X482725D01*
X486325D02*
X492825D01*
X496225D02*
X500025D01*
X479225Y369298D02*
X482925D01*
X486325D02*
X492725D01*
X496025D02*
X500225D01*
X479125Y369398D02*
X483025D01*
X486425D02*
X492625D01*
X495925D02*
X500225D01*
X479025Y369498D02*
X483125D01*
X486525D02*
X492525D01*
X495725D02*
X500425D01*
X478825Y369598D02*
X483325D01*
X486525D02*
X492525D01*
X495625D02*
X500525D01*
X478725Y369698D02*
X483425D01*
X486625D02*
X492425D01*
X495525D02*
X500625D01*
X478625Y369798D02*
X483525D01*
X486825D02*
X492225D01*
X495425D02*
X500725D01*
X478425Y369898D02*
X483625D01*
X486825D02*
X492225D01*
X495325D02*
X500825D01*
X478325Y369998D02*
X483725D01*
X486825D02*
X492125D01*
X495225D02*
X500925D01*
X478325Y370098D02*
X483725D01*
X487125D02*
X492025D01*
X495125D02*
X501025D01*
X478225Y370198D02*
X483925D01*
X487125D02*
X491925D01*
X495125D02*
X501125D01*
X478025Y370298D02*
X484025D01*
X487225D02*
X491825D01*
X495025D02*
X501125D01*
X478025Y370398D02*
X484025D01*
X487425D02*
X491625D01*
X495025D02*
X501225D01*
X477925Y370498D02*
X484225D01*
X487525D02*
X491625D01*
X494825D02*
X501425D01*
X477925Y370598D02*
X484325D01*
X487625D02*
X491325D01*
X494825D02*
X501425D01*
X477925Y370698D02*
X484325D01*
X487825D02*
X491125D01*
X494825D02*
X501525D01*
X477825Y370798D02*
X484325D01*
X487925D02*
X491025D01*
X494725D02*
X501525D01*
X477725Y370898D02*
X484425D01*
X488225D02*
X490925D01*
X494725D02*
X501625D01*
X477625Y370998D02*
X484425D01*
X488825D02*
X490225D01*
X494725D02*
X497425D01*
X498725D02*
X501625D01*
X477625Y371098D02*
X484525D01*
X489025D02*
X490125D01*
X494625D02*
X497425D01*
X498825D02*
X501625D01*
X477625Y371198D02*
X484525D01*
X494525D02*
X497325D01*
X498925D02*
X501625D01*
X477625Y371298D02*
X480225D01*
X481825D02*
X484625D01*
X494525D02*
X497125D01*
X499125D02*
X501725D01*
X477625Y371398D02*
X480225D01*
X481925D02*
X484625D01*
X494525D02*
X497025D01*
X499225D02*
X501725D01*
X477625Y371498D02*
X480125D01*
X482025D02*
X484625D01*
X494525D02*
X496925D01*
X499325D02*
X501725D01*
X477625Y371598D02*
X479925D01*
X482225D02*
X484725D01*
X494525D02*
X496825D01*
X499425D02*
X501725D01*
X477525Y371698D02*
X479925D01*
X482225D02*
X484725D01*
X494525D02*
X496825D01*
X499425D02*
X501825D01*
X477425Y371798D02*
X479825D01*
X482325D02*
X484825D01*
X494425D02*
X496825D01*
X499425D02*
X501825D01*
X477425Y371898D02*
X479725D01*
X482425D02*
X484825D01*
X494425D02*
X496725D01*
X499425D02*
X501925D01*
X477325Y371998D02*
X479725D01*
X482425D02*
X484825D01*
X494425D02*
X496725D01*
X499425D02*
X501925D01*
X477325Y372098D02*
X479725D01*
X482525D02*
X484825D01*
X494425D02*
X496525D01*
X499425D02*
X501925D01*
X477325Y372198D02*
X479725D01*
X482525D02*
X484825D01*
X494425D02*
X496525D01*
X499425D02*
X501925D01*
X477325Y372298D02*
X479725D01*
X482525D02*
X484825D01*
X494425D02*
X496525D01*
X499425D02*
X501925D01*
X477325Y372398D02*
X479625D01*
X482525D02*
X484825D01*
X494425D02*
X496525D01*
X499525D02*
X501925D01*
X477325Y372498D02*
X479625D01*
X482525D02*
X484825D01*
X494425D02*
X496525D01*
X499525D02*
X501925D01*
X477325Y372598D02*
X479625D01*
X482525D02*
X484825D01*
X494425D02*
X496525D01*
X499525D02*
X501925D01*
X477325Y372698D02*
X479625D01*
X482525D02*
X484825D01*
X494425D02*
X496525D01*
X499425D02*
X501925D01*
X477325Y372798D02*
X479725D01*
X482525D02*
X484825D01*
X494425D02*
X496725D01*
X499425D02*
X501925D01*
X477325Y372898D02*
X479725D01*
X482525D02*
X484825D01*
X494425D02*
X496825D01*
X499425D02*
X501925D01*
X477325Y372998D02*
X479725D01*
X482525D02*
X484825D01*
X494425D02*
X496825D01*
X499425D02*
X501925D01*
X477425Y373098D02*
X479725D01*
X482525D02*
X484825D01*
X494425D02*
X496825D01*
X499425D02*
X501825D01*
X477425Y373198D02*
X479725D01*
X482325D02*
X484825D01*
X487925D02*
X488025D01*
X490725D02*
X491825D01*
X494525D02*
X496825D01*
X499325D02*
X501725D01*
X477425Y373298D02*
X479725D01*
X482325D02*
X484825D01*
X487425D02*
X488425D01*
X490525D02*
X492125D01*
X494525D02*
X496925D01*
X499225D02*
X501725D01*
X477525Y373398D02*
X479825D01*
X482225D02*
X484825D01*
X487225D02*
X488525D01*
X490525D02*
X492225D01*
X494525D02*
X497025D01*
X499125D02*
X501725D01*
X477625Y373498D02*
X479925D01*
X482225D02*
X484725D01*
X487125D02*
X488825D01*
X490325D02*
X492325D01*
X494525D02*
X497125D01*
X499025D02*
X501725D01*
X477625Y373598D02*
X480025D01*
X482025D02*
X484725D01*
X486925D02*
X488925D01*
X490225D02*
X492425D01*
X494525D02*
X497325D01*
X498925D02*
X501725D01*
X477625Y373698D02*
X480025D01*
X481925D02*
X484725D01*
X486825D02*
X488925D01*
X490125D02*
X492525D01*
X494625D02*
X497425D01*
X498825D02*
X501625D01*
X477625Y373798D02*
X480325D01*
X481725D02*
X484625D01*
X486825D02*
X489125D01*
X490025D02*
X492525D01*
X494725D02*
X497925D01*
X498225D02*
X501625D01*
X477625Y373898D02*
X480525D01*
X481525D02*
X484625D01*
X486625D02*
X489125D01*
X489925D02*
X492625D01*
X494725D02*
X501525D01*
X477625Y373998D02*
X480625D01*
X481425D02*
X484525D01*
X486625D02*
X489125D01*
X489925D02*
X492725D01*
X494725D02*
X501425D01*
X477725Y374098D02*
X484525D01*
X486525D02*
X489225D01*
X489925D02*
X492725D01*
X494825D02*
X501425D01*
X477725Y374198D02*
X484525D01*
X486525D02*
X489325D01*
X489925D02*
X492825D01*
X494825D02*
X501425D01*
X477725Y374298D02*
X484425D01*
X486425D02*
X489425D01*
X489825D02*
X492825D01*
X494825D02*
X501325D01*
X477925Y374398D02*
X484325D01*
X486425D02*
X489425D01*
X489825D02*
X492825D01*
X494925D02*
X501225D01*
X477925Y374498D02*
X484325D01*
X486425D02*
X489425D01*
X489825D02*
X492825D01*
X495025D02*
X501125D01*
X477925Y374598D02*
X484225D01*
X486425D02*
X489425D01*
X489825D02*
X492825D01*
X495125D02*
X501125D01*
X478025Y374698D02*
X484025D01*
X486425D02*
X489425D01*
X489825D02*
X492825D01*
X495125D02*
X501025D01*
X478025Y374798D02*
X484025D01*
X486425D02*
X489425D01*
X489825D02*
X492825D01*
X495225D02*
X500925D01*
X478225Y374898D02*
X484025D01*
X486425D02*
X489425D01*
X489925D02*
X492825D01*
X495325D02*
X500825D01*
X478325Y374998D02*
X483925D01*
X486425D02*
X489425D01*
X489925D02*
X492825D01*
X495425D02*
X500725D01*
X478325Y375098D02*
X483825D01*
X486525D02*
X489425D01*
X489925D02*
X492725D01*
X495525D02*
X500625D01*
X478425Y375198D02*
X483725D01*
X486525D02*
X489325D01*
X489925D02*
X492625D01*
X495725D02*
X500525D01*
X478625Y375298D02*
X483625D01*
X486525D02*
X489225D01*
X490025D02*
X492625D01*
X495825D02*
X500425D01*
X478625Y375398D02*
X483525D01*
X486625D02*
X489225D01*
X490125D02*
X492525D01*
X495925D02*
X500325D01*
X478725Y375498D02*
X483425D01*
X486725D02*
X489125D01*
X490125D02*
X492525D01*
X496025D02*
X500125D01*
X479125Y375598D02*
X483125D01*
X486825D02*
X489025D01*
X490225D02*
X492325D01*
X496425D02*
X499825D01*
X479125Y375698D02*
X483025D01*
X486825D02*
X489025D01*
X490325D02*
X492225D01*
X496525D02*
X499725D01*
X479125Y375798D02*
X482925D01*
X486925D02*
X488925D01*
X490525D02*
X492225D01*
X496625D02*
X499625D01*
X479625Y375898D02*
X482425D01*
X487225D02*
X488625D01*
X491025D02*
X491525D01*
X497525D02*
X498725D01*
X479725Y375998D02*
X482325D01*
X487225D02*
X488625D01*
X497725D02*
X498625D01*
X479925Y376098D02*
X482125D01*
X487425D02*
X488425D01*
X492725D02*
X493525D01*
X485825Y376198D02*
X485925D01*
X492625D02*
X493725D01*
X485625Y376298D02*
X487025D01*
X492125D02*
X494025D01*
X485525Y376398D02*
X487225D01*
X492025D02*
X494125D01*
X485425Y376498D02*
X487325D01*
X492025D02*
X494125D01*
X485325Y376598D02*
X487425D01*
X491825D02*
X494325D01*
X485225Y376698D02*
X487525D01*
X491725D02*
X494425D01*
X485125Y376798D02*
X487525D01*
X491725D02*
X494425D01*
X485025Y376898D02*
X487625D01*
X491725D02*
X494425D01*
X485025Y376998D02*
X487725D01*
X491725D02*
X494525D01*
X485025Y377098D02*
X487825D01*
X491725D02*
X494525D01*
X485025Y377198D02*
X487825D01*
X491725D02*
X494525D01*
X484925Y377298D02*
X487825D01*
X491725D02*
X494525D01*
X484925Y377398D02*
X487825D01*
X491725D02*
X494525D01*
X484925Y377498D02*
X487825D01*
X491725D02*
X494525D01*
X484925Y377598D02*
X487725D01*
X491725D02*
X494525D01*
X484925Y377698D02*
X487725D01*
X491725D02*
X494525D01*
X484925Y377798D02*
X487725D01*
X491725D02*
X494425D01*
X484925Y377898D02*
X487725D01*
X491725D02*
X494425D01*
X485025Y377998D02*
X487725D01*
X491725D02*
X494425D01*
X498325D02*
X498525D01*
X485025Y378098D02*
X487725D01*
X491725D02*
X494425D01*
X497325D02*
X499125D01*
X485025Y378198D02*
X487725D01*
X491825D02*
X494425D01*
X496925D02*
X499725D01*
X485025Y378298D02*
X487625D01*
X491825D02*
X494325D01*
X496925D02*
X499825D01*
X481025Y378398D02*
X481725D01*
X485025D02*
X487625D01*
X491925D02*
X494225D01*
X496625D02*
X500025D01*
X480125Y378498D02*
X482425D01*
X485125D02*
X487625D01*
X492025D02*
X494125D01*
X496325D02*
X500225D01*
X480125Y378598D02*
X482525D01*
X485225D02*
X487525D01*
X492125D02*
X494025D01*
X496225D02*
X500225D01*
X479825Y378698D02*
X482825D01*
X485325D02*
X487425D01*
X492325D02*
X493925D01*
X496125D02*
X500425D01*
X479425Y378798D02*
X483025D01*
X485425D02*
X487325D01*
X492325D02*
X493825D01*
X496025D02*
X500525D01*
X479325Y378898D02*
X483125D01*
X485725D02*
X487025D01*
X491225D02*
X491725D01*
X492625D02*
X493525D01*
X495925D02*
X500725D01*
X479225Y378998D02*
X483325D01*
X486025D02*
X486625D01*
X490925D02*
X492125D01*
X495825D02*
X500825D01*
X479125Y379098D02*
X483425D01*
X487625D02*
X488525D01*
X490825D02*
X492325D01*
X495725D02*
X500925D01*
X478925Y379198D02*
X483525D01*
X487525D02*
X488725D01*
X490725D02*
X492425D01*
X495625D02*
X501025D01*
X478825Y379298D02*
X483625D01*
X487225D02*
X488925D01*
X490525D02*
X492525D01*
X495525D02*
X501125D01*
X478725Y379398D02*
X483725D01*
X487125D02*
X489125D01*
X490525D02*
X492725D01*
X495425D02*
X501125D01*
X478625Y379498D02*
X483825D01*
X487125D02*
X489225D01*
X490425D02*
X492825D01*
X495325D02*
X501325D01*
X478525Y379598D02*
X483925D01*
X487025D02*
X489325D01*
X490325D02*
X492825D01*
X495325D02*
X501425D01*
X478425Y379698D02*
X484025D01*
X486925D02*
X489425D01*
X490225D02*
X492825D01*
X495125D02*
X501425D01*
X478325Y379798D02*
X484125D01*
X486825D02*
X489525D01*
X490125D02*
X492825D01*
X495125D02*
X501425D01*
X478325Y379898D02*
X484225D01*
X486825D02*
X489525D01*
X490125D02*
X492925D01*
X495125D02*
X501525D01*
X478225Y379998D02*
X484325D01*
X486825D02*
X489525D01*
X490025D02*
X492925D01*
X495025D02*
X501625D01*
X478125Y380098D02*
X484325D01*
X486825D02*
X489525D01*
X490025D02*
X493025D01*
X494925D02*
X501625D01*
X478025Y380198D02*
X484525D01*
X486825D02*
X489525D01*
X490025D02*
X493125D01*
X494925D02*
X501725D01*
X478025Y380298D02*
X484525D01*
X486825D02*
X489525D01*
X490025D02*
X493125D01*
X494825D02*
X498125D01*
X498525D02*
X501725D01*
X477925Y380398D02*
X484625D01*
X486725D02*
X489625D01*
X490025D02*
X493025D01*
X494825D02*
X497825D01*
X498825D02*
X501725D01*
X477925Y380498D02*
X484625D01*
X486625D02*
X489625D01*
X490025D02*
X493025D01*
X494825D02*
X497525D01*
X499125D02*
X501825D01*
X477925Y380598D02*
X484625D01*
X486625D02*
X489625D01*
X490125D02*
X493025D01*
X494825D02*
X497425D01*
X499125D02*
X501925D01*
X477925Y380698D02*
X481325D01*
X481625D02*
X484825D01*
X486625D02*
X489625D01*
X490125D02*
X492925D01*
X494725D02*
X497225D01*
X499325D02*
X501925D01*
X477825Y380798D02*
X480625D01*
X481825D02*
X484825D01*
X486725D02*
X489625D01*
X490125D02*
X492925D01*
X494725D02*
X497125D01*
X499425D02*
X501925D01*
X477725Y380898D02*
X480525D01*
X481925D02*
X484925D01*
X486725D02*
X489525D01*
X490125D02*
X492925D01*
X494725D02*
X497125D01*
X499425D02*
X502025D01*
X477725Y380998D02*
X480325D01*
X482125D02*
X484925D01*
X486825D02*
X489525D01*
X490225D02*
X492825D01*
X494725D02*
X497025D01*
X499525D02*
X502025D01*
X477625Y381098D02*
X480225D01*
X482325D02*
X484925D01*
X486825D02*
X489525D01*
X490325D02*
X492825D01*
X494725D02*
X496825D01*
X499625D02*
X502025D01*
X477625Y381198D02*
X480125D01*
X482325D02*
X484925D01*
X486825D02*
X489425D01*
X490325D02*
X492825D01*
X494725D02*
X496825D01*
X499625D02*
X502025D01*
X477625Y381298D02*
X480025D01*
X482425D02*
X484925D01*
X486825D02*
X489425D01*
X490425D02*
X492725D01*
X494725D02*
X496825D01*
X499725D02*
X502025D01*
X477625Y381398D02*
X480025D01*
X482525D02*
X484925D01*
X487025D02*
X489325D01*
X490525D02*
X492525D01*
X494625D02*
X496825D01*
X499725D02*
X502025D01*
X477625Y381498D02*
X480025D01*
X482525D02*
X484925D01*
X487125D02*
X489225D01*
X490525D02*
X492525D01*
X494625D02*
X496825D01*
X499725D02*
X502025D01*
X477625Y381598D02*
X479925D01*
X482625D02*
X485025D01*
X487125D02*
X489125D01*
X490725D02*
X492425D01*
X494625D02*
X496825D01*
X499725D02*
X502025D01*
X477625Y381698D02*
X479825D01*
X482625D02*
X485125D01*
X487325D02*
X489025D01*
X491025D02*
X492125D01*
X494525D02*
X496825D01*
X499725D02*
X502025D01*
X477625Y381798D02*
X479725D01*
X482625D02*
X485125D01*
X487425D02*
X488925D01*
X491125D02*
X492025D01*
X494525D02*
X496825D01*
X499725D02*
X502025D01*
X477625Y381898D02*
X479725D01*
X482625D02*
X485125D01*
X487525D02*
X488825D01*
X491325D02*
X491725D01*
X494525D02*
X496825D01*
X499725D02*
X502025D01*
X477625Y381998D02*
X479725D01*
X482625D02*
X485125D01*
X494525D02*
X496825D01*
X499725D02*
X502025D01*
X477625Y382098D02*
X479725D01*
X482625D02*
X485125D01*
X494625D02*
X496825D01*
X499725D02*
X502025D01*
X477625Y382198D02*
X479725D01*
X482625D02*
X485125D01*
X494625D02*
X496825D01*
X499725D02*
X502025D01*
X477625Y382298D02*
X479725D01*
X482625D02*
X485125D01*
X494625D02*
X496825D01*
X499625D02*
X502025D01*
X477625Y382398D02*
X479725D01*
X482625D02*
X485125D01*
X494725D02*
X497025D01*
X499625D02*
X502025D01*
X477625Y382498D02*
X479725D01*
X482625D02*
X485025D01*
X494725D02*
X497125D01*
X499525D02*
X502025D01*
X477625Y382598D02*
X479825D01*
X482625D02*
X485025D01*
X494725D02*
X497125D01*
X499525D02*
X502025D01*
X477625Y382698D02*
X479925D01*
X482625D02*
X484925D01*
X494725D02*
X497125D01*
X499425D02*
X501925D01*
X477625Y382798D02*
X480025D01*
X482525D02*
X484925D01*
X494825D02*
X497125D01*
X499325D02*
X501925D01*
X477625Y382898D02*
X480025D01*
X482525D02*
X484925D01*
X494825D02*
X497125D01*
X499325D02*
X501925D01*
X477625Y382998D02*
X480025D01*
X482525D02*
X484925D01*
X494825D02*
X497625D01*
X499025D02*
X501825D01*
X477625Y383098D02*
X480025D01*
X482325D02*
X484925D01*
X494825D02*
X497625D01*
X498925D02*
X501825D01*
X477725Y383198D02*
X480225D01*
X482325D02*
X484825D01*
X494825D02*
X497725D01*
X498925D02*
X501725D01*
X477725Y383298D02*
X480325D01*
X482225D02*
X484825D01*
X488925D02*
X490925D01*
X494925D02*
X501725D01*
X477725Y383398D02*
X480525D01*
X482025D02*
X484825D01*
X488625D02*
X491125D01*
X495025D02*
X501725D01*
X477825Y383498D02*
X480525D01*
X482025D02*
X484825D01*
X488525D02*
X491225D01*
X495025D02*
X501625D01*
X477925Y383598D02*
X484725D01*
X488225D02*
X491625D01*
X495125D02*
X501525D01*
X477925Y383698D02*
X484625D01*
X487925D02*
X491925D01*
X495125D02*
X501425D01*
X477925Y383798D02*
X484625D01*
X487825D02*
X491925D01*
X495125D02*
X501425D01*
X477925Y383898D02*
X484525D01*
X487725D02*
X492225D01*
X495225D02*
X501325D01*
X478025Y383998D02*
X484525D01*
X487525D02*
X492325D01*
X495325D02*
X501325D01*
X478025Y384098D02*
X484425D01*
X487425D02*
X492325D01*
X495425D02*
X501125D01*
X478225Y384198D02*
X484325D01*
X487325D02*
X492525D01*
X495525D02*
X501125D01*
X478225Y384298D02*
X484325D01*
X487225D02*
X492625D01*
X495525D02*
X501025D01*
X478325Y384398D02*
X484225D01*
X487125D02*
X492725D01*
X495725D02*
X500825D01*
X478425Y384498D02*
X484125D01*
X487025D02*
X492825D01*
X495825D02*
X500725D01*
X478525Y384598D02*
X484025D01*
X486925D02*
X492825D01*
X495825D02*
X500725D01*
X478525Y384698D02*
X483925D01*
X486825D02*
X492925D01*
X496025D02*
X500525D01*
X478625Y384798D02*
X483825D01*
X486825D02*
X493025D01*
X496225D02*
X500425D01*
X478725Y384898D02*
X483725D01*
X486825D02*
X493125D01*
X496325D02*
X500325D01*
X478825Y384998D02*
X483625D01*
X486825D02*
X493125D01*
X496425D02*
X500125D01*
X479025Y385098D02*
X483425D01*
X486625D02*
X493125D01*
X496725D02*
X499925D01*
X479125Y385198D02*
X483425D01*
X486525D02*
X493125D01*
X496825D02*
X499725D01*
X479325Y385298D02*
X483325D01*
X486525D02*
X493225D01*
X497025D02*
X499525D01*
X479625Y385398D02*
X483025D01*
X486525D02*
X489525D01*
X490225D02*
X493225D01*
X479625Y385498D02*
X482925D01*
X486425D02*
X489425D01*
X490425D02*
X493325D01*
X479925Y385598D02*
X482725D01*
X486325D02*
X489225D01*
X490525D02*
X493425D01*
X480825Y385698D02*
X481825D01*
X486325D02*
X489025D01*
X490825D02*
X493425D01*
X480925Y385798D02*
X481725D01*
X486325D02*
X488925D01*
X490825D02*
X493425D01*
X486225Y385898D02*
X488825D01*
X491025D02*
X493425D01*
X486225Y385998D02*
X488825D01*
X491125D02*
X493425D01*
X486225Y386098D02*
X488725D01*
X491125D02*
X493425D01*
X486225Y386198D02*
X488625D01*
X491225D02*
X493525D01*
X486225Y386298D02*
X488525D01*
X491425D02*
X493525D01*
X486225Y386398D02*
X488525D01*
X491425D02*
X493525D01*
X486225Y386498D02*
X488525D01*
X491425D02*
X493525D01*
X486225Y386598D02*
X488525D01*
X491425D02*
X493525D01*
X486225Y386698D02*
X488525D01*
X491425D02*
X493525D01*
X486125Y386798D02*
X488525D01*
X491425D02*
X493525D01*
X486125Y386898D02*
X488525D01*
X491425D02*
X493525D01*
X486125Y386998D02*
X488525D01*
X491425D02*
X493525D01*
X486125Y387098D02*
X488525D01*
X491425D02*
X493525D01*
X486225Y387198D02*
X488525D01*
X491425D02*
X493525D01*
X486225Y387298D02*
X488525D01*
X491425D02*
X493425D01*
X486225Y387398D02*
X488525D01*
X491325D02*
X493425D01*
X486225Y387498D02*
X488525D01*
X491225D02*
X493425D01*
X486225Y387598D02*
X488625D01*
X491125D02*
X493425D01*
X486225Y387698D02*
X488725D01*
X491125D02*
X493425D01*
X486225Y387798D02*
X488825D01*
X491125D02*
X493425D01*
X486225Y387898D02*
X488925D01*
X490925D02*
X493425D01*
X486225Y387998D02*
X489025D01*
X490825D02*
X493425D01*
X486325Y388098D02*
X489125D01*
X490825D02*
X493425D01*
X486325Y388198D02*
X489325D01*
X490525D02*
X493425D01*
X486325Y388298D02*
X493325D01*
X486425Y388398D02*
X493225D01*
X486525Y388498D02*
X493225D01*
X486525Y388598D02*
X493125D01*
X486625Y388698D02*
X493125D01*
X486725Y388798D02*
X493125D01*
X486825Y388898D02*
X493025D01*
X486825Y388998D02*
X492925D01*
X486925Y389098D02*
X492825D01*
X486925Y389198D02*
X492825D01*
X487125Y389298D02*
X492825D01*
X487125Y389398D02*
X492625D01*
X487225Y389498D02*
X492525D01*
X487425Y389598D02*
X492425D01*
X487525Y389698D02*
X492225D01*
X487625Y389798D02*
X492225D01*
X487825Y389898D02*
X492025D01*
X488025Y389998D02*
X491825D01*
X488125Y390098D02*
X491725D01*
X488125Y390198D02*
X491625D01*
X488425Y390298D02*
X491325D01*
X488625Y390398D02*
X491225D01*
X489025Y390498D02*
X490925D01*
X489425Y390598D02*
X490425D01*
X272843Y335098D02*
X273043D01*
X317043D02*
X319543D01*
X272543Y335198D02*
X274043D01*
X286143D02*
X287643D01*
X298743D02*
X300343D01*
X316743D02*
X319843D01*
X267543Y335298D02*
X268043D01*
X268443D02*
X268843D01*
X269143D02*
X269243D01*
X271643D02*
X274443D01*
X281543D02*
X282243D01*
X285643D02*
X288443D01*
X298043D02*
X301143D01*
X308643D02*
X309143D01*
X309843D02*
X310043D01*
X316143D02*
X320743D01*
X266843Y335398D02*
X269643D01*
X271443D02*
X274843D01*
X280743D02*
X283443D01*
X285343D02*
X288843D01*
X297543D02*
X301443D01*
X307643D02*
X310643D01*
X315843D02*
X320943D01*
X266643Y335498D02*
X269743D01*
X271343D02*
X275143D01*
X280643D02*
X283643D01*
X285243D02*
X288943D01*
X297343D02*
X301643D01*
X307443D02*
X310743D01*
X315643D02*
X321043D01*
X266543Y335598D02*
X270043D01*
X270943D02*
X275343D01*
X280443D02*
X283843D01*
X284943D02*
X289243D01*
X296943D02*
X301943D01*
X307343D02*
X310843D01*
X315343D02*
X321443D01*
X266543Y335698D02*
X270143D01*
X270643D02*
X275643D01*
X280343D02*
X283843D01*
X284743D02*
X289443D01*
X296843D02*
X302143D01*
X307243D02*
X311043D01*
X315243D02*
X321643D01*
X266543Y335798D02*
X270143D01*
X270543D02*
X275643D01*
X280343D02*
X283943D01*
X284643D02*
X289543D01*
X296643D02*
X302243D01*
X307243D02*
X311043D01*
X315143D02*
X321743D01*
X266443Y335898D02*
X276043D01*
X280343D02*
X283943D01*
X284243D02*
X289843D01*
X296243D02*
X302743D01*
X307243D02*
X311043D01*
X314643D02*
X322243D01*
X266443Y335998D02*
X276143D01*
X280343D02*
X289943D01*
X296143D02*
X302843D01*
X307243D02*
X311043D01*
X314443D02*
X322343D01*
X266443Y336098D02*
X276243D01*
X280343D02*
X290043D01*
X296043D02*
X302943D01*
X307243D02*
X311043D01*
X314343D02*
X322443D01*
X266443Y336198D02*
X276543D01*
X280243D02*
X290243D01*
X295843D02*
X303143D01*
X307243D02*
X311143D01*
X314043D02*
X322743D01*
X266443Y336298D02*
X276743D01*
X280243D02*
X290343D01*
X295643D02*
X303443D01*
X307243D02*
X311143D01*
X313943D02*
X322843D01*
X266443Y336398D02*
X276743D01*
X280243D02*
X290443D01*
X295643D02*
X303443D01*
X307243D02*
X311143D01*
X313843D02*
X322943D01*
X266443Y336498D02*
X276843D01*
X280243D02*
X290543D01*
X295443D02*
X303643D01*
X307243D02*
X311143D01*
X313543D02*
X323243D01*
X266443Y336598D02*
X277043D01*
X280243D02*
X290643D01*
X295243D02*
X303843D01*
X307243D02*
X311043D01*
X313443D02*
X323343D01*
X266443Y336698D02*
X277143D01*
X280243D02*
X290743D01*
X295143D02*
X303943D01*
X307243D02*
X311043D01*
X313343D02*
X323443D01*
X266443Y336798D02*
X277343D01*
X280243D02*
X290843D01*
X295043D02*
X304043D01*
X307243D02*
X311043D01*
X313243D02*
X323643D01*
X266443Y336898D02*
X277443D01*
X280243D02*
X290943D01*
X294943D02*
X304143D01*
X307243D02*
X311043D01*
X313043D02*
X323743D01*
X266443Y336998D02*
X277543D01*
X280343D02*
X290943D01*
X294743D02*
X304143D01*
X307243D02*
X311043D01*
X313043D02*
X323843D01*
X266443Y337098D02*
X277543D01*
X280343D02*
X291043D01*
X294743D02*
X304343D01*
X307243D02*
X311043D01*
X312843D02*
X324043D01*
X266443Y337198D02*
X277643D01*
X280343D02*
X291143D01*
X294643D02*
X304443D01*
X307243D02*
X311043D01*
X312743D02*
X324143D01*
X266443Y337298D02*
X277743D01*
X280343D02*
X291243D01*
X294543D02*
X304543D01*
X307243D02*
X311043D01*
X312743D02*
X324243D01*
X266443Y337398D02*
X277743D01*
X280343D02*
X291243D01*
X294443D02*
X304643D01*
X307243D02*
X311043D01*
X312643D02*
X324343D01*
X266443Y337498D02*
X277843D01*
X280343D02*
X291243D01*
X294343D02*
X304643D01*
X307243D02*
X311043D01*
X312543D02*
X324443D01*
X266543Y337598D02*
X277843D01*
X280343D02*
X291243D01*
X294243D02*
X304743D01*
X307243D02*
X311043D01*
X312443D02*
X324543D01*
X266543Y337698D02*
X277943D01*
X280343D02*
X291343D01*
X294143D02*
X304743D01*
X307243D02*
X311043D01*
X312443D02*
X324543D01*
X266543Y337798D02*
X278043D01*
X280343D02*
X291443D01*
X294143D02*
X304843D01*
X307243D02*
X311043D01*
X312443D02*
X324643D01*
X266543Y337898D02*
X278043D01*
X280343D02*
X291543D01*
X294043D02*
X304943D01*
X307243D02*
X311043D01*
X312443D02*
X324743D01*
X266543Y337998D02*
X278143D01*
X280343D02*
X291543D01*
X294043D02*
X304943D01*
X307243D02*
X311043D01*
X312443D02*
X324843D01*
X266543Y338098D02*
X278143D01*
X280343D02*
X291543D01*
X293943D02*
X305043D01*
X307243D02*
X311043D01*
X312443D02*
X324943D01*
X266543Y338198D02*
X278143D01*
X280343D02*
X291543D01*
X293843D02*
X305043D01*
X307243D02*
X311043D01*
X312543D02*
X324943D01*
X266543Y338298D02*
X278243D01*
X280343D02*
X291543D01*
X293843D02*
X305043D01*
X307243D02*
X311043D01*
X312743D02*
X325043D01*
X266443Y338398D02*
X272343D01*
X272943D02*
X278343D01*
X280343D02*
X291543D01*
X293743D02*
X299243D01*
X299743D02*
X305143D01*
X307243D02*
X311043D01*
X312743D02*
X325143D01*
X266443Y338498D02*
X271843D01*
X273143D02*
X278343D01*
X280343D02*
X291643D01*
X293743D02*
X298843D01*
X300043D02*
X305243D01*
X307243D02*
X311043D01*
X312743D02*
X325143D01*
X266443Y338598D02*
X271343D01*
X273743D02*
X278443D01*
X280343D02*
X285443D01*
X287043D02*
X291643D01*
X293743D02*
X298343D01*
X300543D02*
X305343D01*
X307243D02*
X311043D01*
X312943D02*
X316843D01*
X319543D02*
X325243D01*
X266443Y338698D02*
X271343D01*
X273843D02*
X278443D01*
X280343D02*
X285343D01*
X287143D02*
X291743D01*
X293743D02*
X298243D01*
X300743D02*
X305343D01*
X307243D02*
X311043D01*
X313043D02*
X316743D01*
X319643D02*
X325243D01*
X266443Y338798D02*
X271243D01*
X273943D02*
X278443D01*
X280343D02*
X285143D01*
X287343D02*
X291743D01*
X293643D02*
X298143D01*
X300843D02*
X305343D01*
X307243D02*
X311043D01*
X313043D02*
X316543D01*
X319843D02*
X325243D01*
X266443Y338898D02*
X271043D01*
X274143D02*
X278443D01*
X280343D02*
X285043D01*
X287443D02*
X291843D01*
X293543D02*
X297943D01*
X301143D02*
X305343D01*
X307243D02*
X311043D01*
X313343D02*
X316243D01*
X320143D02*
X325343D01*
X266443Y338998D02*
X270943D01*
X274243D02*
X278443D01*
X280343D02*
X284843D01*
X287543D02*
X291843D01*
X293543D02*
X297943D01*
X301143D02*
X305343D01*
X307243D02*
X311043D01*
X313343D02*
X316143D01*
X320343D02*
X325443D01*
X266443Y339098D02*
X270843D01*
X274243D02*
X278543D01*
X280343D02*
X284843D01*
X287643D02*
X291843D01*
X293543D02*
X297843D01*
X301143D02*
X305443D01*
X307243D02*
X311143D01*
X313443D02*
X316043D01*
X320443D02*
X325543D01*
X266443Y339198D02*
X270743D01*
X274443D02*
X278543D01*
X280343D02*
X284643D01*
X287743D02*
X291843D01*
X293443D02*
X297643D01*
X301343D02*
X305443D01*
X307243D02*
X311143D01*
X313643D02*
X315743D01*
X320743D02*
X325543D01*
X266443Y339298D02*
X270743D01*
X274443D02*
X278643D01*
X280343D02*
X284543D01*
X287743D02*
X291843D01*
X293443D02*
X297643D01*
X301443D02*
X305543D01*
X307243D02*
X311143D01*
X313643D02*
X315743D01*
X320843D02*
X325543D01*
X266443Y339398D02*
X270643D01*
X274543D02*
X278643D01*
X280343D02*
X284543D01*
X287743D02*
X291843D01*
X293443D02*
X297643D01*
X301443D02*
X305543D01*
X307243D02*
X311143D01*
X313743D02*
X315643D01*
X320943D02*
X325543D01*
X266443Y339498D02*
X270443D01*
X274643D02*
X278643D01*
X280343D02*
X284443D01*
X287843D02*
X291843D01*
X293443D02*
X297443D01*
X301543D02*
X305543D01*
X307243D02*
X311143D01*
X313943D02*
X315443D01*
X321143D02*
X325643D01*
X266443Y339598D02*
X270443D01*
X274643D02*
X278743D01*
X280343D02*
X284443D01*
X287943D02*
X291843D01*
X293443D02*
X297343D01*
X301643D02*
X305643D01*
X307243D02*
X311143D01*
X314043D02*
X315343D01*
X321243D02*
X325743D01*
X266443Y339698D02*
X270443D01*
X274743D02*
X278743D01*
X280343D02*
X284343D01*
X287943D02*
X291843D01*
X293443D02*
X297343D01*
X301743D02*
X305643D01*
X307243D02*
X311143D01*
X314043D02*
X315243D01*
X321243D02*
X325743D01*
X266443Y339798D02*
X270443D01*
X274743D02*
X278743D01*
X280343D02*
X284243D01*
X287943D02*
X291843D01*
X293443D02*
X297343D01*
X301743D02*
X305643D01*
X307243D02*
X311143D01*
X314243D02*
X314943D01*
X321343D02*
X325843D01*
X266443Y339898D02*
X270443D01*
X274843D02*
X278743D01*
X280343D02*
X284243D01*
X287943D02*
X291843D01*
X293443D02*
X297343D01*
X301743D02*
X305643D01*
X307243D02*
X311143D01*
X314343D02*
X314843D01*
X321443D02*
X325843D01*
X266443Y339998D02*
X270343D01*
X274843D02*
X278743D01*
X280343D02*
X284243D01*
X288043D02*
X291843D01*
X293343D02*
X297243D01*
X301743D02*
X305643D01*
X307243D02*
X311143D01*
X321543D02*
X325843D01*
X266443Y340098D02*
X270343D01*
X274843D02*
X278743D01*
X280343D02*
X284243D01*
X288043D02*
X291843D01*
X293343D02*
X297243D01*
X301743D02*
X305643D01*
X307243D02*
X311143D01*
X321643D02*
X325843D01*
X266443Y340198D02*
X270343D01*
X274843D02*
X278743D01*
X280343D02*
X284243D01*
X288043D02*
X291843D01*
X293343D02*
X297243D01*
X301743D02*
X305643D01*
X307243D02*
X311043D01*
X321643D02*
X325843D01*
X266443Y340298D02*
X270343D01*
X274943D02*
X278743D01*
X280343D02*
X284243D01*
X288043D02*
X291843D01*
X293243D02*
X297243D01*
X301843D02*
X305643D01*
X307243D02*
X311043D01*
X321743D02*
X325843D01*
X266443Y340398D02*
X270343D01*
X274943D02*
X278743D01*
X280343D02*
X284243D01*
X288043D02*
X291843D01*
X293243D02*
X297243D01*
X301843D02*
X305643D01*
X307243D02*
X311043D01*
X321843D02*
X325943D01*
X266443Y340498D02*
X270243D01*
X274943D02*
X278743D01*
X280343D02*
X284243D01*
X288043D02*
X291843D01*
X293243D02*
X297143D01*
X301843D02*
X305643D01*
X307243D02*
X311043D01*
X321943D02*
X326043D01*
X266443Y340598D02*
X270143D01*
X274943D02*
X278743D01*
X280343D02*
X284243D01*
X288043D02*
X291843D01*
X293243D02*
X297143D01*
X301843D02*
X305643D01*
X307243D02*
X311043D01*
X321943D02*
X326043D01*
X266443Y340698D02*
X270143D01*
X274943D02*
X278743D01*
X280343D02*
X284143D01*
X288043D02*
X291843D01*
X293143D02*
X297043D01*
X301843D02*
X305643D01*
X307243D02*
X311043D01*
X321943D02*
X326043D01*
X266443Y340798D02*
X270143D01*
X274943D02*
X278743D01*
X280343D02*
X284143D01*
X288043D02*
X291843D01*
X293143D02*
X297043D01*
X301843D02*
X305643D01*
X307243D02*
X311043D01*
X321943D02*
X326143D01*
X266443Y340898D02*
X270143D01*
X274943D02*
X278743D01*
X280343D02*
X284143D01*
X288043D02*
X291843D01*
X293143D02*
X297043D01*
X301843D02*
X305643D01*
X307243D02*
X311043D01*
X322043D02*
X326143D01*
X266443Y340998D02*
X270143D01*
X274943D02*
X278743D01*
X280343D02*
X284143D01*
X288043D02*
X291843D01*
X293143D02*
X297043D01*
X301843D02*
X305643D01*
X307243D02*
X311143D01*
X322043D02*
X326143D01*
X266443Y341098D02*
X270143D01*
X274943D02*
X278743D01*
X280343D02*
X284143D01*
X288043D02*
X291843D01*
X293143D02*
X297043D01*
X301843D02*
X305643D01*
X307243D02*
X311143D01*
X322143D02*
X326143D01*
X266443Y341198D02*
X270143D01*
X274943D02*
X278743D01*
X280343D02*
X284143D01*
X288043D02*
X291843D01*
X293143D02*
X297043D01*
X301843D02*
X305643D01*
X307243D02*
X311143D01*
X322143D02*
X326143D01*
X266443Y341298D02*
X270143D01*
X274943D02*
X278743D01*
X280343D02*
X284143D01*
X288043D02*
X291843D01*
X293143D02*
X297043D01*
X301843D02*
X305643D01*
X307243D02*
X311143D01*
X322243D02*
X326143D01*
X266443Y341398D02*
X270143D01*
X274943D02*
X278743D01*
X280343D02*
X284143D01*
X288043D02*
X291843D01*
X293243D02*
X297143D01*
X301843D02*
X305643D01*
X307243D02*
X311143D01*
X322243D02*
X326143D01*
X266443Y341498D02*
X270143D01*
X274943D02*
X278743D01*
X280343D02*
X284143D01*
X288043D02*
X291843D01*
X293243D02*
X297143D01*
X301843D02*
X305643D01*
X307243D02*
X311143D01*
X322243D02*
X326143D01*
X266443Y341598D02*
X270143D01*
X274943D02*
X278743D01*
X280343D02*
X284143D01*
X288043D02*
X291843D01*
X293243D02*
X297143D01*
X301843D02*
X305643D01*
X307243D02*
X311143D01*
X322343D02*
X326243D01*
X266443Y341698D02*
X270243D01*
X274943D02*
X278743D01*
X280343D02*
X284143D01*
X288043D02*
X291843D01*
X293243D02*
X297143D01*
X301843D02*
X305643D01*
X307243D02*
X311043D01*
X322343D02*
X326243D01*
X266443Y341798D02*
X270243D01*
X274843D02*
X278743D01*
X280343D02*
X284143D01*
X288043D02*
X291843D01*
X293243D02*
X297243D01*
X301843D02*
X305643D01*
X307243D02*
X311043D01*
X322343D02*
X326243D01*
X266443Y341898D02*
X270343D01*
X274843D02*
X278743D01*
X280343D02*
X284143D01*
X288043D02*
X291843D01*
X293343D02*
X297243D01*
X301743D02*
X305643D01*
X307243D02*
X311043D01*
X322443D02*
X326243D01*
X266443Y341998D02*
X270343D01*
X274843D02*
X278743D01*
X280343D02*
X284143D01*
X288043D02*
X291843D01*
X293343D02*
X297343D01*
X301743D02*
X305643D01*
X307243D02*
X311043D01*
X322443D02*
X326243D01*
X266443Y342098D02*
X270443D01*
X274843D02*
X278743D01*
X280343D02*
X284143D01*
X288043D02*
X291843D01*
X293443D02*
X297343D01*
X301743D02*
X305643D01*
X307243D02*
X311043D01*
X322443D02*
X326243D01*
X266443Y342198D02*
X270443D01*
X274743D02*
X278743D01*
X280343D02*
X284143D01*
X288043D02*
X291843D01*
X293443D02*
X297343D01*
X301643D02*
X305643D01*
X307243D02*
X311043D01*
X322443D02*
X326243D01*
X266443Y342298D02*
X270443D01*
X274743D02*
X278743D01*
X280343D02*
X284143D01*
X288043D02*
X291843D01*
X293443D02*
X297343D01*
X301643D02*
X305643D01*
X307243D02*
X311043D01*
X322443D02*
X326243D01*
X266443Y342398D02*
X270443D01*
X274643D02*
X278743D01*
X280343D02*
X284143D01*
X288043D02*
X291843D01*
X293443D02*
X297443D01*
X301543D02*
X305543D01*
X307243D02*
X311043D01*
X322443D02*
X326243D01*
X266443Y342498D02*
X270443D01*
X274643D02*
X278643D01*
X280343D02*
X284143D01*
X288043D02*
X291843D01*
X293443D02*
X297443D01*
X301543D02*
X305543D01*
X307243D02*
X311043D01*
X322443D02*
X326243D01*
X266443Y342598D02*
X270643D01*
X274543D02*
X278643D01*
X280343D02*
X284143D01*
X288043D02*
X291843D01*
X293443D02*
X297543D01*
X301443D02*
X305543D01*
X307243D02*
X311043D01*
X322443D02*
X326243D01*
X266443Y342698D02*
X270743D01*
X274443D02*
X278643D01*
X280343D02*
X284143D01*
X288043D02*
X291843D01*
X293443D02*
X297643D01*
X301443D02*
X305543D01*
X307243D02*
X311043D01*
X322443D02*
X326243D01*
X266443Y342798D02*
X270743D01*
X274343D02*
X278643D01*
X280343D02*
X284143D01*
X288043D02*
X291843D01*
X293443D02*
X297643D01*
X301343D02*
X305443D01*
X307243D02*
X311043D01*
X322443D02*
X326243D01*
X266543Y342898D02*
X270843D01*
X274243D02*
X278543D01*
X280343D02*
X284143D01*
X288043D02*
X291843D01*
X293543D02*
X297743D01*
X301243D02*
X305443D01*
X307243D02*
X311043D01*
X322443D02*
X326243D01*
X266543Y342998D02*
X270943D01*
X274143D02*
X278543D01*
X280343D02*
X284143D01*
X288043D02*
X291843D01*
X293543D02*
X297843D01*
X301143D02*
X305343D01*
X307243D02*
X311043D01*
X322443D02*
X326243D01*
X266543Y343098D02*
X271043D01*
X274143D02*
X278443D01*
X280343D02*
X284143D01*
X288043D02*
X291843D01*
X293643D02*
X297943D01*
X301043D02*
X305343D01*
X307243D02*
X311043D01*
X322443D02*
X326243D01*
X266443Y343198D02*
X271243D01*
X273843D02*
X278443D01*
X280343D02*
X284143D01*
X288043D02*
X291843D01*
X293743D02*
X298143D01*
X300843D02*
X305343D01*
X307243D02*
X311043D01*
X322443D02*
X326243D01*
X266443Y343298D02*
X271343D01*
X273643D02*
X278443D01*
X280343D02*
X284143D01*
X288043D02*
X291843D01*
X293743D02*
X298343D01*
X300743D02*
X305343D01*
X307243D02*
X311043D01*
X322443D02*
X326243D01*
X266443Y343398D02*
X271443D01*
X273543D02*
X278443D01*
X280343D02*
X284143D01*
X288043D02*
X291843D01*
X293743D02*
X298443D01*
X300543D02*
X305243D01*
X307243D02*
X311143D01*
X322443D02*
X326243D01*
X266443Y343498D02*
X271843D01*
X273243D02*
X278343D01*
X280243D02*
X284143D01*
X288043D02*
X291843D01*
X293743D02*
X298843D01*
X300243D02*
X305243D01*
X307243D02*
X311143D01*
X322343D02*
X326243D01*
X266443Y343598D02*
X278343D01*
X280243D02*
X284143D01*
X288043D02*
X291843D01*
X293843D02*
X305143D01*
X307243D02*
X311143D01*
X322243D02*
X326243D01*
X266443Y343698D02*
X278243D01*
X280243D02*
X284143D01*
X288043D02*
X291843D01*
X293843D02*
X305043D01*
X307243D02*
X311043D01*
X322243D02*
X326143D01*
X266443Y343798D02*
X278143D01*
X280243D02*
X284143D01*
X288043D02*
X291843D01*
X293843D02*
X305043D01*
X307243D02*
X311043D01*
X322243D02*
X326143D01*
X266443Y343898D02*
X278143D01*
X280243D02*
X284143D01*
X288043D02*
X291843D01*
X293943D02*
X305043D01*
X307243D02*
X311043D01*
X322243D02*
X326143D01*
X266443Y343998D02*
X278143D01*
X280343D02*
X284143D01*
X288043D02*
X291843D01*
X294043D02*
X304943D01*
X307243D02*
X311043D01*
X322243D02*
X326143D01*
X266443Y344098D02*
X278043D01*
X280343D02*
X284143D01*
X288043D02*
X291843D01*
X294143D02*
X304943D01*
X307243D02*
X311143D01*
X322143D02*
X326143D01*
X266443Y344198D02*
X278043D01*
X280343D02*
X284143D01*
X288043D02*
X291843D01*
X294143D02*
X304843D01*
X307243D02*
X311143D01*
X322143D02*
X326143D01*
X266443Y344298D02*
X277943D01*
X280343D02*
X284143D01*
X288043D02*
X291843D01*
X294243D02*
X304743D01*
X307243D02*
X311143D01*
X322043D02*
X326143D01*
X266443Y344398D02*
X277843D01*
X280343D02*
X284143D01*
X288043D02*
X291843D01*
X294343D02*
X304743D01*
X307243D02*
X311143D01*
X321943D02*
X326143D01*
X266443Y344498D02*
X277843D01*
X280343D02*
X284143D01*
X288043D02*
X291843D01*
X294343D02*
X304643D01*
X307243D02*
X311043D01*
X321943D02*
X326043D01*
X266443Y344598D02*
X277743D01*
X280343D02*
X284143D01*
X288043D02*
X291843D01*
X294443D02*
X304543D01*
X307243D02*
X311043D01*
X321943D02*
X326043D01*
X266443Y344698D02*
X277643D01*
X280343D02*
X284143D01*
X288043D02*
X291843D01*
X294543D02*
X304443D01*
X307243D02*
X311043D01*
X321843D02*
X325943D01*
X266443Y344798D02*
X277643D01*
X280343D02*
X284143D01*
X288043D02*
X291843D01*
X294643D02*
X304343D01*
X307243D02*
X311043D01*
X321843D02*
X325943D01*
X266443Y344898D02*
X277543D01*
X280343D02*
X284143D01*
X288043D02*
X291843D01*
X294643D02*
X304343D01*
X307243D02*
X311043D01*
X321743D02*
X325843D01*
X266443Y344998D02*
X277443D01*
X280343D02*
X284143D01*
X288043D02*
X291843D01*
X294843D02*
X304143D01*
X307243D02*
X311043D01*
X321743D02*
X325843D01*
X266443Y345098D02*
X277343D01*
X280343D02*
X284143D01*
X288043D02*
X291843D01*
X294943D02*
X304043D01*
X307243D02*
X311043D01*
X321643D02*
X325843D01*
X266443Y345198D02*
X277243D01*
X280343D02*
X284143D01*
X288043D02*
X291843D01*
X295043D02*
X304043D01*
X307243D02*
X311043D01*
X321543D02*
X325843D01*
X266443Y345298D02*
X277143D01*
X280343D02*
X284143D01*
X288043D02*
X291843D01*
X295143D02*
X303743D01*
X307243D02*
X311043D01*
X314443D02*
X314943D01*
X321443D02*
X325843D01*
X266443Y345398D02*
X277043D01*
X280343D02*
X284143D01*
X288043D02*
X291843D01*
X295243D02*
X303743D01*
X307243D02*
X311043D01*
X314243D02*
X315143D01*
X321343D02*
X325843D01*
X266443Y345498D02*
X276943D01*
X280343D02*
X284143D01*
X288043D02*
X291843D01*
X295343D02*
X303643D01*
X307243D02*
X311043D01*
X314143D02*
X315143D01*
X321243D02*
X325743D01*
X266443Y345598D02*
X276643D01*
X280343D02*
X284143D01*
X288043D02*
X291843D01*
X295643D02*
X303443D01*
X307243D02*
X311043D01*
X314043D02*
X315243D01*
X321243D02*
X325743D01*
X266443Y345698D02*
X276543D01*
X280343D02*
X284143D01*
X288043D02*
X291843D01*
X295743D02*
X303343D01*
X307243D02*
X311043D01*
X313943D02*
X315443D01*
X321043D02*
X325643D01*
X266443Y345798D02*
X276543D01*
X280343D02*
X284143D01*
X288043D02*
X291843D01*
X295743D02*
X303143D01*
X307243D02*
X311043D01*
X313743D02*
X315443D01*
X320943D02*
X325543D01*
X266443Y345898D02*
X276243D01*
X280343D02*
X284143D01*
X288043D02*
X291843D01*
X296043D02*
X302943D01*
X307243D02*
X311043D01*
X313743D02*
X315543D01*
X320943D02*
X325543D01*
X266443Y345998D02*
X276043D01*
X280343D02*
X284143D01*
X288043D02*
X291843D01*
X296243D02*
X302743D01*
X307243D02*
X311043D01*
X313643D02*
X315743D01*
X320643D02*
X325543D01*
X266443Y346098D02*
X275943D01*
X280343D02*
X284143D01*
X288143D02*
X291843D01*
X296343D02*
X302643D01*
X307243D02*
X311043D01*
X313443D02*
X315943D01*
X320443D02*
X325443D01*
X266443Y346198D02*
X270343D01*
X270643D02*
X275743D01*
X280343D02*
X284143D01*
X288143D02*
X291843D01*
X296643D02*
X302343D01*
X307243D02*
X311043D01*
X313443D02*
X316043D01*
X320443D02*
X325443D01*
X266443Y346298D02*
X270243D01*
X270843D02*
X275543D01*
X280343D02*
X284143D01*
X288243D02*
X291843D01*
X296843D02*
X302143D01*
X307243D02*
X311043D01*
X313243D02*
X316343D01*
X320143D02*
X325343D01*
X266443Y346398D02*
X270243D01*
X271043D02*
X275343D01*
X280343D02*
X284043D01*
X288243D02*
X291843D01*
X296943D02*
X301943D01*
X307243D02*
X311043D01*
X313143D02*
X316543D01*
X320043D02*
X325343D01*
X266443Y346498D02*
X270243D01*
X271443D02*
X275143D01*
X280543D02*
X283843D01*
X288343D02*
X291643D01*
X297443D02*
X301743D01*
X307243D02*
X311043D01*
X313043D02*
X316643D01*
X319743D02*
X325243D01*
X266443Y346598D02*
X270243D01*
X271643D02*
X274743D01*
X280743D02*
X283643D01*
X288643D02*
X290943D01*
X297743D02*
X301343D01*
X307243D02*
X311043D01*
X312943D02*
X317443D01*
X319243D02*
X325243D01*
X266443Y346698D02*
X270243D01*
X272043D02*
X274143D01*
X298143D02*
X300643D01*
X307243D02*
X311043D01*
X312743D02*
X317743D01*
X318843D02*
X325143D01*
X266443Y346798D02*
X270243D01*
X272843D02*
X273543D01*
X298743D02*
X299843D01*
X307243D02*
X311143D01*
X312743D02*
X318343D01*
X318543D02*
X325043D01*
X266443Y346898D02*
X270243D01*
X307243D02*
X311143D01*
X312643D02*
X324943D01*
X266443Y346998D02*
X270243D01*
X307243D02*
X311143D01*
X312543D02*
X324943D01*
X266443Y347098D02*
X270243D01*
X307243D02*
X311143D01*
X312443D02*
X324843D01*
X266443Y347198D02*
X270143D01*
X307243D02*
X311143D01*
X312443D02*
X324843D01*
X266443Y347298D02*
X270143D01*
X307243D02*
X311143D01*
X312443D02*
X324743D01*
X266443Y347398D02*
X270143D01*
X307243D02*
X311143D01*
X312443D02*
X324643D01*
X266443Y347498D02*
X270243D01*
X307243D02*
X311143D01*
X312443D02*
X324543D01*
X266443Y347598D02*
X270243D01*
X307243D02*
X311143D01*
X312543D02*
X324543D01*
X266443Y347698D02*
X270243D01*
X307243D02*
X311143D01*
X312643D02*
X324443D01*
X266443Y347798D02*
X270243D01*
X307243D02*
X311143D01*
X312743D02*
X324343D01*
X266443Y347898D02*
X270243D01*
X307243D02*
X311043D01*
X312743D02*
X324243D01*
X266443Y347998D02*
X270243D01*
X307243D02*
X311043D01*
X312743D02*
X324143D01*
X266443Y348098D02*
X270243D01*
X307243D02*
X311043D01*
X312843D02*
X323943D01*
X266443Y348198D02*
X270243D01*
X307243D02*
X311043D01*
X313043D02*
X323943D01*
X266443Y348298D02*
X270243D01*
X307243D02*
X311043D01*
X313043D02*
X323843D01*
X266443Y348398D02*
X270243D01*
X307243D02*
X311043D01*
X313143D02*
X323643D01*
X266543Y348498D02*
X270243D01*
X307243D02*
X311043D01*
X313343D02*
X323543D01*
X266543Y348598D02*
X270143D01*
X307243D02*
X311043D01*
X313443D02*
X323343D01*
X266543Y348698D02*
X270143D01*
X307243D02*
X311043D01*
X313643D02*
X323243D01*
X266443Y348798D02*
X270243D01*
X307243D02*
X311043D01*
X313743D02*
X323143D01*
X266343Y348898D02*
X270243D01*
X307243D02*
X311043D01*
X313843D02*
X323043D01*
X266343Y348998D02*
X270243D01*
X307243D02*
X311043D01*
X314143D02*
X322743D01*
X266443Y349098D02*
X270243D01*
X307243D02*
X311043D01*
X314243D02*
X322543D01*
X266443Y349198D02*
X270243D01*
X307243D02*
X311043D01*
X314443D02*
X322443D01*
X266543Y349298D02*
X270243D01*
X307243D02*
X311043D01*
X314743D02*
X322043D01*
X266443Y349398D02*
X270243D01*
X307243D02*
X311043D01*
X314843D02*
X321843D01*
X266443Y349498D02*
X270243D01*
X307243D02*
X311043D01*
X314943D02*
X321743D01*
X266343Y349598D02*
X270243D01*
X307243D02*
X311043D01*
X315443D02*
X321143D01*
X266343Y349698D02*
X270143D01*
X307243D02*
X311043D01*
X315843D02*
X320943D01*
X266443Y349798D02*
X270143D01*
X307243D02*
X311043D01*
X316043D02*
X320843D01*
X266443Y349898D02*
X270143D01*
X307243D02*
X311043D01*
X316343D02*
X320443D01*
X266443Y349998D02*
X270243D01*
X307243D02*
X311043D01*
X316643D02*
X320143D01*
X266443Y350098D02*
X270343D01*
X307243D02*
X311043D01*
X317443D02*
X319843D01*
X266443Y350198D02*
X270343D01*
X307243D02*
X311043D01*
X266443Y350298D02*
X270243D01*
X307243D02*
X311043D01*
X266543Y350398D02*
X270143D01*
X307243D02*
X310843D01*
X266543Y350498D02*
X270043D01*
X307343D02*
X310843D01*
X266643Y350598D02*
X269943D01*
X307443D02*
X310743D01*
X266743Y350698D02*
X269843D01*
X307543D02*
X310543D01*
X267243Y350798D02*
X267643D01*
X266943Y350898D02*
X269443D01*
X277043D02*
X277343D01*
X281643D02*
X283343D01*
X286643D02*
X287343D01*
X292043D02*
X292543D01*
X295243D02*
X295843D01*
X300743D02*
X301143D01*
X304243D02*
X304543D01*
X307443D02*
X308243D01*
X312643D02*
X313043D01*
X318143D02*
X318543D01*
X266743Y350998D02*
X269543D01*
X276743D02*
X277643D01*
X281443D02*
X283643D01*
X286443D02*
X287743D01*
X291843D02*
X292743D01*
X295143D02*
X296043D01*
X300343D02*
X301343D01*
X303943D02*
X304843D01*
X307143D02*
X308243D01*
X312443D02*
X313343D01*
X317843D02*
X318843D01*
X266743Y351098D02*
X269643D01*
X276643D02*
X277743D01*
X281243D02*
X283843D01*
X286343D02*
X287743D01*
X291743D02*
X292743D01*
X295043D02*
X296143D01*
X300343D02*
X301443D01*
X303743D02*
X304943D01*
X307043D02*
X308343D01*
X312443D02*
X313543D01*
X317743D02*
X318843D01*
X266343Y351198D02*
X270143D01*
X276543D02*
X277843D01*
X280643D02*
X284243D01*
X286343D02*
X287943D01*
X291643D02*
X292843D01*
X295043D02*
X296143D01*
X300243D02*
X301543D01*
X303643D02*
X304943D01*
X307043D02*
X308343D01*
X312343D02*
X313543D01*
X317643D02*
X318943D01*
X266243Y351298D02*
X270343D01*
X276443D02*
X277943D01*
X280543D02*
X284543D01*
X286343D02*
X288043D01*
X291643D02*
X292943D01*
X294943D02*
X296343D01*
X300243D02*
X301643D01*
X303643D02*
X305043D01*
X306943D02*
X308343D01*
X312243D02*
X313643D01*
X317643D02*
X319043D01*
X266043Y351398D02*
X270543D01*
X276443D02*
X277943D01*
X280443D02*
X284643D01*
X286343D02*
X288143D01*
X291543D02*
X292943D01*
X294943D02*
X296443D01*
X300243D02*
X301643D01*
X303543D02*
X305043D01*
X306943D02*
X308443D01*
X312243D02*
X313643D01*
X317543D02*
X319043D01*
X265943Y351498D02*
X270743D01*
X276443D02*
X278043D01*
X280343D02*
X284843D01*
X286343D02*
X288143D01*
X291443D02*
X292943D01*
X294943D02*
X296443D01*
X300143D02*
X301643D01*
X303543D02*
X305043D01*
X306943D02*
X308443D01*
X312143D02*
X313743D01*
X317543D02*
X319043D01*
X265743Y351598D02*
X270843D01*
X276343D02*
X278043D01*
X280243D02*
X284943D01*
X286443D02*
X288243D01*
X291443D02*
X293043D01*
X294843D02*
X296443D01*
X300143D02*
X301643D01*
X303543D02*
X305043D01*
X306943D02*
X308443D01*
X312143D02*
X313743D01*
X317443D02*
X319043D01*
X265643Y351698D02*
X270943D01*
X276343D02*
X278043D01*
X280143D02*
X285043D01*
X286443D02*
X288243D01*
X291443D02*
X293043D01*
X294843D02*
X296443D01*
X300143D02*
X301643D01*
X303543D02*
X305043D01*
X306943D02*
X308443D01*
X312143D02*
X313843D01*
X317443D02*
X319043D01*
X265643Y351798D02*
X271043D01*
X276343D02*
X278043D01*
X280043D02*
X285143D01*
X286443D02*
X288443D01*
X291443D02*
X293043D01*
X294843D02*
X296443D01*
X300143D02*
X301643D01*
X303543D02*
X305043D01*
X306943D02*
X308443D01*
X312143D02*
X313843D01*
X317443D02*
X319043D01*
X265443Y351898D02*
X271043D01*
X276343D02*
X278043D01*
X279943D02*
X285243D01*
X286543D02*
X288543D01*
X291443D02*
X293043D01*
X294843D02*
X296443D01*
X300143D02*
X301643D01*
X303543D02*
X305043D01*
X306943D02*
X308443D01*
X312143D02*
X313743D01*
X317443D02*
X319043D01*
X265443Y351998D02*
X271143D01*
X276343D02*
X278043D01*
X279843D02*
X285343D01*
X286543D02*
X288543D01*
X291443D02*
X293043D01*
X294843D02*
X296443D01*
X300143D02*
X301643D01*
X303543D02*
X305043D01*
X306943D02*
X308443D01*
X312143D02*
X313743D01*
X317443D02*
X319043D01*
X265343Y352098D02*
X271143D01*
X276343D02*
X278043D01*
X279743D02*
X285443D01*
X286643D02*
X288743D01*
X291443D02*
X293043D01*
X294843D02*
X296443D01*
X300143D02*
X301643D01*
X303543D02*
X305043D01*
X306943D02*
X308443D01*
X312143D02*
X313743D01*
X317443D02*
X319043D01*
X265343Y352198D02*
X271043D01*
X276343D02*
X278043D01*
X279743D02*
X285443D01*
X286743D02*
X288743D01*
X291443D02*
X293043D01*
X294843D02*
X296443D01*
X300143D02*
X301643D01*
X303543D02*
X305043D01*
X306943D02*
X308443D01*
X312143D02*
X313743D01*
X317443D02*
X319043D01*
X265343Y352298D02*
X271043D01*
X276343D02*
X278043D01*
X279743D02*
X285443D01*
X286843D02*
X288843D01*
X291443D02*
X293043D01*
X294843D02*
X296443D01*
X300143D02*
X301643D01*
X303543D02*
X305043D01*
X306943D02*
X308443D01*
X312143D02*
X313743D01*
X317443D02*
X319043D01*
X265243Y352398D02*
X267343D01*
X269043D02*
X271043D01*
X276343D02*
X278043D01*
X279743D02*
X281743D01*
X283343D02*
X285643D01*
X286943D02*
X288843D01*
X291443D02*
X293043D01*
X294843D02*
X296443D01*
X300143D02*
X301643D01*
X303543D02*
X305043D01*
X306943D02*
X308443D01*
X312143D02*
X313743D01*
X317443D02*
X319043D01*
X265243Y352498D02*
X267143D01*
X269243D02*
X271043D01*
X276343D02*
X278043D01*
X279743D02*
X281643D01*
X283343D02*
X285743D01*
X286943D02*
X288943D01*
X291443D02*
X293043D01*
X294843D02*
X296443D01*
X300143D02*
X301643D01*
X303543D02*
X305043D01*
X306943D02*
X308443D01*
X312143D02*
X313843D01*
X317443D02*
X319143D01*
X265243Y352598D02*
X267043D01*
X269543D02*
X270943D01*
X276343D02*
X278043D01*
X279743D02*
X281443D01*
X283643D02*
X285743D01*
X287043D02*
X289043D01*
X291443D02*
X293043D01*
X294743D02*
X296443D01*
X300143D02*
X301643D01*
X303543D02*
X305043D01*
X306943D02*
X308443D01*
X312143D02*
X313843D01*
X317443D02*
X319143D01*
X265243Y352698D02*
X266843D01*
X269843D02*
X270843D01*
X276343D02*
X278043D01*
X279843D02*
X281143D01*
X283843D02*
X285743D01*
X287143D02*
X289143D01*
X291443D02*
X293043D01*
X294743D02*
X296443D01*
X300143D02*
X301643D01*
X303543D02*
X305043D01*
X306943D02*
X308443D01*
X312143D02*
X313843D01*
X317443D02*
X319143D01*
X265243Y352798D02*
X266743D01*
X270043D02*
X270743D01*
X276343D02*
X278043D01*
X279943D02*
X281043D01*
X283943D02*
X285843D01*
X287343D02*
X289143D01*
X291443D02*
X293043D01*
X294843D02*
X296443D01*
X300143D02*
X301643D01*
X303543D02*
X305043D01*
X306943D02*
X308443D01*
X312143D02*
X313843D01*
X317443D02*
X319143D01*
X265243Y352898D02*
X266743D01*
X276343D02*
X278043D01*
X280043D02*
X280843D01*
X284043D02*
X285943D01*
X287343D02*
X289243D01*
X291443D02*
X293043D01*
X294843D02*
X296443D01*
X300143D02*
X301643D01*
X303543D02*
X305043D01*
X306943D02*
X308443D01*
X312143D02*
X313843D01*
X317443D02*
X319143D01*
X265243Y352998D02*
X266743D01*
X276343D02*
X278043D01*
X284143D02*
X286043D01*
X287443D02*
X289343D01*
X291443D02*
X293043D01*
X294843D02*
X296443D01*
X300143D02*
X301643D01*
X303543D02*
X305043D01*
X306943D02*
X308443D01*
X312143D02*
X313843D01*
X317443D02*
X319043D01*
X265243Y353098D02*
X266743D01*
X276343D02*
X278043D01*
X284243D02*
X286043D01*
X287443D02*
X289443D01*
X291343D02*
X293043D01*
X294843D02*
X296443D01*
X300143D02*
X301643D01*
X303543D02*
X305043D01*
X306943D02*
X308443D01*
X312143D02*
X313843D01*
X317443D02*
X319143D01*
X265243Y353198D02*
X266743D01*
X276343D02*
X278043D01*
X284343D02*
X286043D01*
X287643D02*
X289543D01*
X291343D02*
X293043D01*
X294843D02*
X296443D01*
X300143D02*
X301643D01*
X303543D02*
X305043D01*
X306943D02*
X308443D01*
X312143D02*
X313843D01*
X317443D02*
X319143D01*
X265243Y353298D02*
X266743D01*
X276343D02*
X278043D01*
X284443D02*
X286143D01*
X287643D02*
X289643D01*
X291143D02*
X293043D01*
X294843D02*
X296443D01*
X300143D02*
X301643D01*
X303543D02*
X305043D01*
X306943D02*
X308443D01*
X312143D02*
X313743D01*
X317443D02*
X319143D01*
X265243Y353398D02*
X266943D01*
X276343D02*
X278043D01*
X284443D02*
X286143D01*
X287743D02*
X289743D01*
X291043D02*
X293043D01*
X294843D02*
X296443D01*
X300143D02*
X301643D01*
X303543D02*
X305043D01*
X306943D02*
X308443D01*
X312143D02*
X313743D01*
X317443D02*
X319143D01*
X265243Y353498D02*
X267043D01*
X276343D02*
X278043D01*
X284543D02*
X286143D01*
X287743D02*
X289743D01*
X290943D02*
X293043D01*
X294843D02*
X296443D01*
X300143D02*
X301643D01*
X303543D02*
X305043D01*
X306943D02*
X308443D01*
X312143D02*
X313743D01*
X317443D02*
X319143D01*
X265243Y353598D02*
X267443D01*
X276343D02*
X278043D01*
X284543D02*
X286243D01*
X287843D02*
X289943D01*
X290843D02*
X293043D01*
X294843D02*
X296443D01*
X300143D02*
X301643D01*
X303543D02*
X305043D01*
X306943D02*
X308443D01*
X312143D02*
X313743D01*
X317443D02*
X319143D01*
X265243Y353698D02*
X267843D01*
X276343D02*
X278043D01*
X284543D02*
X286243D01*
X287943D02*
X290043D01*
X290643D02*
X293043D01*
X294843D02*
X296443D01*
X300143D02*
X301643D01*
X303543D02*
X305043D01*
X306943D02*
X308443D01*
X312143D02*
X313743D01*
X317443D02*
X319143D01*
X265343Y353798D02*
X268043D01*
X276343D02*
X278043D01*
X284543D02*
X286243D01*
X288043D02*
X290143D01*
X290543D02*
X293043D01*
X294843D02*
X296443D01*
X300143D02*
X301643D01*
X303543D02*
X305043D01*
X306943D02*
X308443D01*
X312143D02*
X313743D01*
X317443D02*
X319143D01*
X265343Y353898D02*
X268443D01*
X276343D02*
X278043D01*
X279943D02*
X280043D01*
X284443D02*
X286243D01*
X288143D02*
X293043D01*
X294843D02*
X296443D01*
X300143D02*
X301643D01*
X303543D02*
X305043D01*
X306943D02*
X308443D01*
X312143D02*
X313743D01*
X317443D02*
X319143D01*
X265343Y353998D02*
X269243D01*
X276343D02*
X278043D01*
X279543D02*
X286243D01*
X288243D02*
X293043D01*
X294843D02*
X296443D01*
X300143D02*
X301643D01*
X303543D02*
X305043D01*
X306943D02*
X308443D01*
X312143D02*
X313743D01*
X317443D02*
X319143D01*
X265343Y354098D02*
X269443D01*
X276343D02*
X278043D01*
X279443D02*
X286243D01*
X288243D02*
X293043D01*
X294843D02*
X296443D01*
X300143D02*
X301643D01*
X303543D02*
X305043D01*
X306943D02*
X308443D01*
X312143D02*
X313743D01*
X317443D02*
X319143D01*
X265443Y354198D02*
X269643D01*
X276343D02*
X278043D01*
X279443D02*
X286243D01*
X288343D02*
X293043D01*
X294843D02*
X296443D01*
X300143D02*
X301643D01*
X303543D02*
X305043D01*
X306943D02*
X308443D01*
X312143D02*
X313743D01*
X317443D02*
X319143D01*
X265543Y354298D02*
X270043D01*
X276343D02*
X278043D01*
X279343D02*
X286343D01*
X288443D02*
X293043D01*
X294843D02*
X296443D01*
X300143D02*
X301643D01*
X303543D02*
X305043D01*
X306943D02*
X308443D01*
X312143D02*
X313743D01*
X317443D02*
X319143D01*
X265643Y354398D02*
X270143D01*
X276343D02*
X278043D01*
X279243D02*
X286343D01*
X288543D02*
X293043D01*
X294843D02*
X296443D01*
X300143D02*
X301643D01*
X303543D02*
X305043D01*
X306943D02*
X308443D01*
X312143D02*
X313743D01*
X317443D02*
X319143D01*
X265743Y354498D02*
X270243D01*
X276343D02*
X278043D01*
X279243D02*
X286343D01*
X288643D02*
X293043D01*
X294843D02*
X296443D01*
X300143D02*
X301643D01*
X303543D02*
X305043D01*
X306943D02*
X308443D01*
X312143D02*
X313743D01*
X317443D02*
X319143D01*
X265843Y354598D02*
X270443D01*
X276343D02*
X278043D01*
X279143D02*
X286343D01*
X288643D02*
X293043D01*
X294843D02*
X296443D01*
X300143D02*
X301643D01*
X303543D02*
X305043D01*
X306943D02*
X308443D01*
X312143D02*
X313743D01*
X317443D02*
X319143D01*
X265943Y354698D02*
X270443D01*
X276343D02*
X278043D01*
X279143D02*
X286343D01*
X288743D02*
X293043D01*
X294843D02*
X296443D01*
X300143D02*
X301643D01*
X303543D02*
X305043D01*
X306943D02*
X308443D01*
X312143D02*
X313743D01*
X317443D02*
X319143D01*
X266343Y354798D02*
X270543D01*
X276343D02*
X278043D01*
X279143D02*
X286343D01*
X288843D02*
X293043D01*
X294843D02*
X296443D01*
X300143D02*
X301643D01*
X303543D02*
X305043D01*
X306943D02*
X308443D01*
X312143D02*
X313743D01*
X317443D02*
X319143D01*
X266443Y354898D02*
X270643D01*
X276343D02*
X278043D01*
X279143D02*
X286343D01*
X288843D02*
X293043D01*
X294843D02*
X296443D01*
X300143D02*
X301643D01*
X303543D02*
X305043D01*
X306943D02*
X308443D01*
X312143D02*
X313743D01*
X317443D02*
X319143D01*
X266543Y354998D02*
X270743D01*
X276343D02*
X278043D01*
X279243D02*
X286343D01*
X288943D02*
X293043D01*
X294843D02*
X296443D01*
X300143D02*
X301643D01*
X303543D02*
X305043D01*
X306943D02*
X308443D01*
X312143D02*
X313743D01*
X317443D02*
X319143D01*
X267543Y355098D02*
X270743D01*
X276343D02*
X278043D01*
X279243D02*
X286243D01*
X289043D02*
X293043D01*
X294843D02*
X296443D01*
X300043D02*
X301643D01*
X303543D02*
X305043D01*
X306943D02*
X308443D01*
X312143D02*
X313743D01*
X317443D02*
X319143D01*
X267743Y355198D02*
X270843D01*
X276343D02*
X278043D01*
X279343D02*
X286243D01*
X288943D02*
X293043D01*
X294843D02*
X296443D01*
X300043D02*
X301643D01*
X303543D02*
X305043D01*
X306943D02*
X308443D01*
X312143D02*
X313743D01*
X317443D02*
X319143D01*
X268043Y355298D02*
X270943D01*
X276343D02*
X278043D01*
X279343D02*
X286243D01*
X288843D02*
X291243D01*
X291343D02*
X293043D01*
X294843D02*
X296443D01*
X299943D02*
X301643D01*
X303543D02*
X305043D01*
X306943D02*
X308443D01*
X312043D02*
X313843D01*
X317443D02*
X319143D01*
X268943Y355398D02*
X270943D01*
X276343D02*
X278043D01*
X279343D02*
X280843D01*
X284643D02*
X286243D01*
X288843D02*
X291043D01*
X291443D02*
X293043D01*
X294843D02*
X296443D01*
X299943D02*
X301643D01*
X303543D02*
X305043D01*
X306943D02*
X308443D01*
X312043D02*
X313843D01*
X317443D02*
X319143D01*
X268943Y355498D02*
X270943D01*
X276343D02*
X278043D01*
X279343D02*
X280843D01*
X284543D02*
X286243D01*
X288643D02*
X290943D01*
X291443D02*
X293043D01*
X294843D02*
X296443D01*
X299843D02*
X301643D01*
X303543D02*
X305043D01*
X306943D02*
X308443D01*
X312043D02*
X313843D01*
X317443D02*
X319143D01*
X269043Y355598D02*
X271043D01*
X276243D02*
X278043D01*
X279343D02*
X280943D01*
X284543D02*
X286143D01*
X288543D02*
X290843D01*
X291443D02*
X293043D01*
X294843D02*
X296443D01*
X299843D02*
X301643D01*
X303543D02*
X305043D01*
X306943D02*
X308443D01*
X312043D02*
X313743D01*
X317443D02*
X319143D01*
X269243Y355698D02*
X271043D01*
X276143D02*
X278043D01*
X279343D02*
X280943D01*
X284543D02*
X286143D01*
X288543D02*
X290643D01*
X291443D02*
X293043D01*
X294843D02*
X296443D01*
X299843D02*
X301643D01*
X303543D02*
X305043D01*
X306943D02*
X308443D01*
X311943D02*
X313743D01*
X317443D02*
X319143D01*
X269243Y355798D02*
X271043D01*
X276043D02*
X278043D01*
X279343D02*
X281043D01*
X284443D02*
X286143D01*
X288343D02*
X290543D01*
X291443D02*
X293043D01*
X294943D02*
X296543D01*
X299843D02*
X301643D01*
X303543D02*
X305043D01*
X306943D02*
X308643D01*
X311943D02*
X313743D01*
X317443D02*
X319143D01*
X269343Y355898D02*
X271043D01*
X276043D02*
X278043D01*
X279443D02*
X281043D01*
X284443D02*
X286143D01*
X288343D02*
X290543D01*
X291443D02*
X293043D01*
X294943D02*
X296643D01*
X299743D02*
X301643D01*
X303543D02*
X305043D01*
X306943D02*
X308643D01*
X311843D02*
X313743D01*
X317443D02*
X319143D01*
X269343Y355998D02*
X271043D01*
X276043D02*
X278043D01*
X279443D02*
X281143D01*
X284443D02*
X286043D01*
X288243D02*
X290343D01*
X291443D02*
X293043D01*
X294943D02*
X296643D01*
X299743D02*
X301643D01*
X303543D02*
X305043D01*
X306943D02*
X308643D01*
X311843D02*
X313743D01*
X317443D02*
X319143D01*
X269343Y356098D02*
X271043D01*
X276043D02*
X278043D01*
X279443D02*
X281143D01*
X284343D02*
X286043D01*
X288043D02*
X290243D01*
X291443D02*
X293043D01*
X294943D02*
X296743D01*
X299643D02*
X301643D01*
X303543D02*
X305043D01*
X306943D02*
X308743D01*
X311643D02*
X313743D01*
X317443D02*
X319143D01*
X269343Y356198D02*
X271043D01*
X276043D02*
X278043D01*
X279543D02*
X281243D01*
X284243D02*
X285943D01*
X287943D02*
X290043D01*
X291443D02*
X293043D01*
X295043D02*
X296743D01*
X299543D02*
X301643D01*
X303543D02*
X305043D01*
X307043D02*
X308743D01*
X311543D02*
X313743D01*
X317443D02*
X319143D01*
X269343Y356298D02*
X271043D01*
X275843D02*
X278043D01*
X279643D02*
X281343D01*
X284143D02*
X285843D01*
X287943D02*
X289943D01*
X291443D02*
X293043D01*
X295043D02*
X296743D01*
X299543D02*
X301643D01*
X303543D02*
X305043D01*
X307043D02*
X308843D01*
X311543D02*
X313743D01*
X317443D02*
X319143D01*
X265943Y356398D02*
X266343D01*
X269243D02*
X271043D01*
X275643D02*
X278043D01*
X279643D02*
X281543D01*
X283943D02*
X285743D01*
X287743D02*
X289843D01*
X291443D02*
X293043D01*
X295043D02*
X296943D01*
X299343D02*
X301643D01*
X303543D02*
X305043D01*
X307143D02*
X308943D01*
X311343D02*
X313743D01*
X317443D02*
X319143D01*
X265743Y356498D02*
X266443D01*
X269143D02*
X270943D01*
X272143D02*
X272943D01*
X275443D02*
X278043D01*
X279743D02*
X281643D01*
X283843D02*
X285743D01*
X287643D02*
X289743D01*
X291443D02*
X293043D01*
X295143D02*
X297043D01*
X299243D02*
X301643D01*
X303543D02*
X305043D01*
X307143D02*
X309043D01*
X311243D02*
X313743D01*
X317443D02*
X319143D01*
X265743Y356598D02*
X266643D01*
X269043D02*
X270843D01*
X272043D02*
X273043D01*
X275443D02*
X278043D01*
X279743D02*
X281743D01*
X283643D02*
X285743D01*
X287643D02*
X289643D01*
X291443D02*
X293043D01*
X295143D02*
X297143D01*
X299143D02*
X301643D01*
X303543D02*
X305043D01*
X307243D02*
X309143D01*
X311143D02*
X313743D01*
X317443D02*
X319143D01*
X265643Y356698D02*
X267343D01*
X268443D02*
X270843D01*
X272043D02*
X273043D01*
X274543D02*
X278043D01*
X279743D02*
X282243D01*
X283243D02*
X285643D01*
X287443D02*
X289543D01*
X291443D02*
X293043D01*
X295243D02*
X297943D01*
X298343D02*
X301643D01*
X303543D02*
X305043D01*
X307243D02*
X309743D01*
X310143D02*
X310443D01*
X310543D02*
X313743D01*
X317443D02*
X319143D01*
X265643Y356798D02*
X270743D01*
X272043D02*
X273143D01*
X274243D02*
X278043D01*
X279843D02*
X285643D01*
X287343D02*
X289443D01*
X291443D02*
X293043D01*
X295243D02*
X301643D01*
X303543D02*
X305043D01*
X307243D02*
X313743D01*
X317443D02*
X319143D01*
X265643Y356898D02*
X270743D01*
X271943D02*
X273143D01*
X274243D02*
X278043D01*
X279943D02*
X285543D01*
X287243D02*
X289343D01*
X291443D02*
X293043D01*
X295343D02*
X301643D01*
X303543D02*
X305043D01*
X307243D02*
X313743D01*
X317443D02*
X319143D01*
X265643Y356998D02*
X270743D01*
X271943D02*
X273143D01*
X274043D02*
X278043D01*
X280043D02*
X285443D01*
X287143D02*
X289243D01*
X291443D02*
X293043D01*
X295343D02*
X301643D01*
X303543D02*
X305043D01*
X307343D02*
X313743D01*
X317443D02*
X319143D01*
X265643Y357098D02*
X270743D01*
X271843D02*
X273243D01*
X273943D02*
X278043D01*
X280043D02*
X285443D01*
X287043D02*
X289143D01*
X291443D02*
X293043D01*
X295443D02*
X301643D01*
X303543D02*
X305043D01*
X307343D02*
X313743D01*
X317443D02*
X319143D01*
X265643Y357198D02*
X270543D01*
X271843D02*
X273243D01*
X273943D02*
X278043D01*
X280143D02*
X285343D01*
X286943D02*
X289043D01*
X291443D02*
X293043D01*
X295643D02*
X301643D01*
X303543D02*
X305043D01*
X307543D02*
X313743D01*
X317443D02*
X319143D01*
X265643Y357298D02*
X270443D01*
X271843D02*
X273243D01*
X273943D02*
X278043D01*
X280343D02*
X285243D01*
X286743D02*
X288843D01*
X291443D02*
X293043D01*
X295643D02*
X301643D01*
X303543D02*
X305043D01*
X307543D02*
X313743D01*
X317443D02*
X319143D01*
X265643Y357398D02*
X270443D01*
X271843D02*
X273243D01*
X273943D02*
X278043D01*
X280443D02*
X285143D01*
X286743D02*
X288843D01*
X291443D02*
X293043D01*
X295743D02*
X301643D01*
X303543D02*
X305043D01*
X307643D02*
X313743D01*
X317443D02*
X319143D01*
X265643Y357498D02*
X270343D01*
X271843D02*
X273243D01*
X273943D02*
X278043D01*
X280643D02*
X284843D01*
X286643D02*
X288743D01*
X291443D02*
X293043D01*
X295843D02*
X301643D01*
X303543D02*
X305043D01*
X307843D02*
X313743D01*
X317443D02*
X319143D01*
X265643Y357598D02*
X270143D01*
X271843D02*
X273243D01*
X273943D02*
X278043D01*
X280643D02*
X284843D01*
X286543D02*
X288643D01*
X291443D02*
X293043D01*
X295943D02*
X301643D01*
X303543D02*
X305043D01*
X307943D02*
X313743D01*
X317443D02*
X319143D01*
X265743Y357698D02*
X270043D01*
X271843D02*
X273243D01*
X273943D02*
X276243D01*
X276343D02*
X278043D01*
X280843D02*
X284743D01*
X286643D02*
X288543D01*
X291443D02*
X293043D01*
X295943D02*
X300043D01*
X300143D02*
X301643D01*
X303543D02*
X305043D01*
X308043D02*
X313743D01*
X317443D02*
X319143D01*
X265943Y357798D02*
X269943D01*
X271943D02*
X273243D01*
X273943D02*
X276143D01*
X276443D02*
X277943D01*
X281043D02*
X284543D01*
X286643D02*
X288443D01*
X291443D02*
X293043D01*
X296143D02*
X299743D01*
X300243D02*
X301643D01*
X303543D02*
X305043D01*
X308243D02*
X311743D01*
X312143D02*
X313743D01*
X317443D02*
X319143D01*
X266143Y357898D02*
X269743D01*
X271943D02*
X273243D01*
X274043D02*
X275843D01*
X276443D02*
X277843D01*
X281243D02*
X284343D01*
X286743D02*
X288243D01*
X291443D02*
X293043D01*
X296343D02*
X299543D01*
X300243D02*
X301543D01*
X303643D02*
X305043D01*
X308443D02*
X311443D01*
X312143D02*
X313743D01*
X317443D02*
X319143D01*
X266343Y357998D02*
X269643D01*
X271943D02*
X273243D01*
X274143D02*
X275743D01*
X276643D02*
X277743D01*
X281343D02*
X284143D01*
X286743D02*
X288143D01*
X291443D02*
X293043D01*
X296443D02*
X299343D01*
X300343D02*
X301543D01*
X303743D02*
X304943D01*
X308543D02*
X311443D01*
X312143D02*
X313743D01*
X317443D02*
X319143D01*
X266643Y358098D02*
X269243D01*
X271843D02*
X273243D01*
X274343D02*
X275343D01*
X276943D02*
X277543D01*
X281643D02*
X283943D01*
X287043D02*
X287943D01*
X291443D02*
X293043D01*
X296843D02*
X299043D01*
X300543D02*
X301343D01*
X304043D02*
X304643D01*
X308943D02*
X311143D01*
X312143D02*
X313743D01*
X317443D02*
X319143D01*
X267943Y358198D02*
X268143D01*
X271843D02*
X273243D01*
X282643D02*
X282943D01*
X291443D02*
X293043D01*
X312143D02*
X313743D01*
X317443D02*
X319143D01*
X271843Y358298D02*
X273243D01*
X291443D02*
X293043D01*
X312143D02*
X313743D01*
X317443D02*
X319143D01*
X271843Y358398D02*
X273243D01*
X291443D02*
X293043D01*
X312143D02*
X313743D01*
X317443D02*
X319143D01*
X271843Y358498D02*
X273243D01*
X291443D02*
X293043D01*
X312143D02*
X313743D01*
X317443D02*
X319143D01*
X271843Y358598D02*
X273243D01*
X291443D02*
X293043D01*
X312143D02*
X313743D01*
X317343D02*
X319143D01*
X271843Y358698D02*
X273243D01*
X291443D02*
X293043D01*
X312143D02*
X313743D01*
X317343D02*
X319143D01*
X271843Y358798D02*
X273243D01*
X291443D02*
X293043D01*
X312143D02*
X313743D01*
X317343D02*
X319143D01*
X271843Y358898D02*
X273243D01*
X291443D02*
X293043D01*
X312143D02*
X313743D01*
X315943D02*
X316243D01*
X317243D02*
X319443D01*
X319643D02*
X319743D01*
X321243D02*
X321343D01*
X271843Y358998D02*
X273243D01*
X291443D02*
X293043D01*
X312143D02*
X313843D01*
X314843D02*
X321743D01*
X271843Y359098D02*
X273243D01*
X291443D02*
X293043D01*
X303843D02*
X304743D01*
X312143D02*
X313843D01*
X314543D02*
X322043D01*
X271843Y359198D02*
X273243D01*
X291443D02*
X293043D01*
X303643D02*
X304943D01*
X312143D02*
X313843D01*
X314343D02*
X322143D01*
X271843Y359298D02*
X273243D01*
X291443D02*
X293043D01*
X303643D02*
X305043D01*
X312143D02*
X313843D01*
X314343D02*
X322143D01*
X271843Y359398D02*
X273243D01*
X291443D02*
X293043D01*
X303543D02*
X305043D01*
X312143D02*
X313743D01*
X314343D02*
X322143D01*
X271843Y359498D02*
X273243D01*
X291443D02*
X293043D01*
X303443D02*
X305143D01*
X312143D02*
X313743D01*
X314243D02*
X322143D01*
X271843Y359598D02*
X273243D01*
X291443D02*
X293043D01*
X303343D02*
X305243D01*
X312143D02*
X313743D01*
X314243D02*
X322143D01*
X271843Y359698D02*
X273243D01*
X291443D02*
X293043D01*
X303343D02*
X305243D01*
X312143D02*
X313743D01*
X314243D02*
X322143D01*
X271943Y359798D02*
X273243D01*
X291443D02*
X293043D01*
X303343D02*
X305243D01*
X312143D02*
X313743D01*
X314343D02*
X322143D01*
X271943Y359898D02*
X273243D01*
X291443D02*
X293043D01*
X303343D02*
X305343D01*
X312143D02*
X313743D01*
X314343D02*
X322143D01*
X271943Y359998D02*
X273143D01*
X291443D02*
X293043D01*
X303243D02*
X305343D01*
X312143D02*
X313743D01*
X314443D02*
X322143D01*
X272043Y360098D02*
X273143D01*
X291443D02*
X293043D01*
X303343D02*
X305243D01*
X312143D02*
X313743D01*
X314543D02*
X322143D01*
X272043Y360198D02*
X273043D01*
X291443D02*
X293043D01*
X303343D02*
X305243D01*
X312143D02*
X313743D01*
X314643D02*
X322043D01*
X272443Y360298D02*
X272843D01*
X291443D02*
X293043D01*
X303443D02*
X305143D01*
X312143D02*
X313843D01*
X314843D02*
X321943D01*
X291543Y360398D02*
X293043D01*
X303543D02*
X305143D01*
X312143D02*
X313743D01*
X315343D02*
X315643D01*
X316043D02*
X316543D01*
X316843D02*
X318743D01*
X318943D02*
X319243D01*
X319843D02*
X320543D01*
X321043D02*
X321743D01*
X291543Y360498D02*
X292943D01*
X303543D02*
X305043D01*
X312243D02*
X313643D01*
X291643Y360598D02*
X292943D01*
X303643D02*
X304943D01*
X312243D02*
X313643D01*
X291643Y360698D02*
X292943D01*
X303743D02*
X304843D01*
X312343D02*
X313543D01*
X291843Y360798D02*
X292743D01*
X303943D02*
X304643D01*
X312443D02*
X313443D01*
X294043Y363698D02*
X295043D01*
X293443Y363798D02*
X295843D01*
X293243Y363898D02*
X295943D01*
X293043Y363998D02*
X296143D01*
X292843Y364098D02*
X296443D01*
X292643Y364198D02*
X296643D01*
X292543Y364298D02*
X296743D01*
X292343Y364398D02*
X296943D01*
X292243Y364498D02*
X297043D01*
X292243Y364598D02*
X297143D01*
X291943Y364698D02*
X297343D01*
X291943Y364798D02*
X297343D01*
X291843Y364898D02*
X297343D01*
X291743Y364998D02*
X297543D01*
X291643Y365098D02*
X297643D01*
X291643Y365198D02*
X297643D01*
X291443Y365298D02*
X297743D01*
X291443Y365398D02*
X297843D01*
X291343Y365498D02*
X297943D01*
X291343Y365598D02*
X297943D01*
X291343Y365698D02*
X297943D01*
X291243Y365798D02*
X294243D01*
X294943D02*
X297943D01*
X291143Y365898D02*
X294243D01*
X295043D02*
X298043D01*
X291043Y365998D02*
X294043D01*
X295143D02*
X298043D01*
X291043Y366098D02*
X293843D01*
X295543D02*
X298143D01*
X291043Y366198D02*
X293743D01*
X295643D02*
X298243D01*
X291043Y366298D02*
X293643D01*
X295643D02*
X298243D01*
X291043Y366398D02*
X293443D01*
X295843D02*
X298243D01*
X291043Y366498D02*
X293443D01*
X295943D02*
X298243D01*
X290943Y366598D02*
X293343D01*
X295943D02*
X298243D01*
X290943Y366698D02*
X293343D01*
X295943D02*
X298243D01*
X290843Y366798D02*
X293343D01*
X295943D02*
X298243D01*
X290843Y366898D02*
X293343D01*
X296043D02*
X298243D01*
X290843Y366998D02*
X293243D01*
X296143D02*
X298243D01*
X290843Y367098D02*
X293243D01*
X296243D02*
X298243D01*
X290843Y367198D02*
X293243D01*
X296243D02*
X298243D01*
X290843Y367298D02*
X293243D01*
X296243D02*
X298243D01*
X290843Y367398D02*
X293243D01*
X296243D02*
X298243D01*
X290843Y367498D02*
X293243D01*
X296243D02*
X298243D01*
X290843Y367598D02*
X293243D01*
X296243D02*
X298243D01*
X290843Y367698D02*
X293243D01*
X296143D02*
X298243D01*
X290843Y367798D02*
X293243D01*
X296043D02*
X298243D01*
X290843Y367898D02*
X293343D01*
X296043D02*
X298243D01*
X290843Y367998D02*
X293343D01*
X295943D02*
X298243D01*
X290943Y368098D02*
X293343D01*
X295943D02*
X298243D01*
X291043Y368198D02*
X293443D01*
X295943D02*
X298243D01*
X291043Y368298D02*
X293543D01*
X295743D02*
X298243D01*
X291043Y368398D02*
X293643D01*
X295643D02*
X298243D01*
X291043Y368498D02*
X293743D01*
X295643D02*
X298243D01*
X291043Y368598D02*
X293843D01*
X295443D02*
X298243D01*
X291043Y368698D02*
X294043D01*
X295143D02*
X298143D01*
X302343D02*
X304243D01*
X285843Y368798D02*
X286543D01*
X291143D02*
X294843D01*
X294943D02*
X298043D01*
X302043D02*
X304443D01*
X285343Y368898D02*
X286843D01*
X291143D02*
X297943D01*
X301743D02*
X304643D01*
X284943Y368998D02*
X287443D01*
X291243D02*
X297943D01*
X301643D02*
X304843D01*
X284843Y369098D02*
X287543D01*
X291343D02*
X297943D01*
X301443D02*
X305043D01*
X284643Y369198D02*
X287843D01*
X291443D02*
X297943D01*
X301343D02*
X305143D01*
X284343Y369298D02*
X288043D01*
X291443D02*
X297843D01*
X301143D02*
X305343D01*
X284243Y369398D02*
X288143D01*
X291543D02*
X297743D01*
X301043D02*
X305343D01*
X284143Y369498D02*
X288243D01*
X291643D02*
X297643D01*
X300843D02*
X305543D01*
X283943Y369598D02*
X288443D01*
X291643D02*
X297643D01*
X300743D02*
X305643D01*
X283843Y369698D02*
X288543D01*
X291743D02*
X297543D01*
X300643D02*
X305743D01*
X283743Y369798D02*
X288643D01*
X291943D02*
X297343D01*
X300543D02*
X305843D01*
X283543Y369898D02*
X288743D01*
X291943D02*
X297343D01*
X300443D02*
X305943D01*
X283443Y369998D02*
X288843D01*
X291943D02*
X297243D01*
X300343D02*
X306043D01*
X283443Y370098D02*
X288843D01*
X292243D02*
X297143D01*
X300243D02*
X306143D01*
X283343Y370198D02*
X289043D01*
X292243D02*
X297043D01*
X300243D02*
X306243D01*
X283143Y370298D02*
X289143D01*
X292343D02*
X296943D01*
X300143D02*
X306243D01*
X283143Y370398D02*
X289143D01*
X292543D02*
X296743D01*
X300143D02*
X306343D01*
X283043Y370498D02*
X289343D01*
X292643D02*
X296743D01*
X299943D02*
X306543D01*
X283043Y370598D02*
X289443D01*
X292743D02*
X296443D01*
X299943D02*
X306543D01*
X283043Y370698D02*
X289443D01*
X292943D02*
X296243D01*
X299943D02*
X306643D01*
X282943Y370798D02*
X289443D01*
X293043D02*
X296143D01*
X299843D02*
X306643D01*
X282843Y370898D02*
X289543D01*
X293343D02*
X296043D01*
X299843D02*
X306743D01*
X282743Y370998D02*
X289543D01*
X293943D02*
X295343D01*
X299843D02*
X302543D01*
X303843D02*
X306743D01*
X282743Y371098D02*
X289643D01*
X294143D02*
X295243D01*
X299743D02*
X302543D01*
X303943D02*
X306743D01*
X282743Y371198D02*
X289643D01*
X299643D02*
X302443D01*
X304043D02*
X306743D01*
X282743Y371298D02*
X285343D01*
X286943D02*
X289743D01*
X299643D02*
X302243D01*
X304243D02*
X306843D01*
X282743Y371398D02*
X285343D01*
X287043D02*
X289743D01*
X299643D02*
X302143D01*
X304343D02*
X306843D01*
X282743Y371498D02*
X285243D01*
X287143D02*
X289743D01*
X299643D02*
X302043D01*
X304443D02*
X306843D01*
X282743Y371598D02*
X285043D01*
X287343D02*
X289843D01*
X299643D02*
X301943D01*
X304543D02*
X306843D01*
X282643Y371698D02*
X285043D01*
X287343D02*
X289843D01*
X299643D02*
X301943D01*
X304543D02*
X306943D01*
X282543Y371798D02*
X284943D01*
X287443D02*
X289943D01*
X299543D02*
X301943D01*
X304543D02*
X306943D01*
X282543Y371898D02*
X284843D01*
X287543D02*
X289943D01*
X299543D02*
X301843D01*
X304543D02*
X307043D01*
X282443Y371998D02*
X284843D01*
X287543D02*
X289943D01*
X299543D02*
X301843D01*
X304543D02*
X307043D01*
X282443Y372098D02*
X284843D01*
X287643D02*
X289943D01*
X299543D02*
X301643D01*
X304543D02*
X307043D01*
X282443Y372198D02*
X284843D01*
X287643D02*
X289943D01*
X299543D02*
X301643D01*
X304543D02*
X307043D01*
X282443Y372298D02*
X284843D01*
X287643D02*
X289943D01*
X299543D02*
X301643D01*
X304543D02*
X307043D01*
X282443Y372398D02*
X284743D01*
X287643D02*
X289943D01*
X299543D02*
X301643D01*
X304643D02*
X307043D01*
X282443Y372498D02*
X284743D01*
X287643D02*
X289943D01*
X299543D02*
X301643D01*
X304643D02*
X307043D01*
X282443Y372598D02*
X284743D01*
X287643D02*
X289943D01*
X299543D02*
X301643D01*
X304643D02*
X307043D01*
X282443Y372698D02*
X284743D01*
X287643D02*
X289943D01*
X299543D02*
X301643D01*
X304543D02*
X307043D01*
X282443Y372798D02*
X284843D01*
X287643D02*
X289943D01*
X299543D02*
X301843D01*
X304543D02*
X307043D01*
X282443Y372898D02*
X284843D01*
X287643D02*
X289943D01*
X299543D02*
X301943D01*
X304543D02*
X307043D01*
X282443Y372998D02*
X284843D01*
X287643D02*
X289943D01*
X299543D02*
X301943D01*
X304543D02*
X307043D01*
X282543Y373098D02*
X284843D01*
X287643D02*
X289943D01*
X299543D02*
X301943D01*
X304543D02*
X306943D01*
X282543Y373198D02*
X284843D01*
X287443D02*
X289943D01*
X293043D02*
X293143D01*
X295843D02*
X296943D01*
X299643D02*
X301943D01*
X304443D02*
X306843D01*
X282543Y373298D02*
X284843D01*
X287443D02*
X289943D01*
X292543D02*
X293543D01*
X295643D02*
X297243D01*
X299643D02*
X302043D01*
X304343D02*
X306843D01*
X282643Y373398D02*
X284943D01*
X287343D02*
X289943D01*
X292343D02*
X293643D01*
X295643D02*
X297343D01*
X299643D02*
X302143D01*
X304243D02*
X306843D01*
X282743Y373498D02*
X285043D01*
X287343D02*
X289843D01*
X292243D02*
X293943D01*
X295443D02*
X297443D01*
X299643D02*
X302243D01*
X304143D02*
X306843D01*
X282743Y373598D02*
X285143D01*
X287143D02*
X289843D01*
X292043D02*
X294043D01*
X295343D02*
X297543D01*
X299643D02*
X302443D01*
X304043D02*
X306843D01*
X282743Y373698D02*
X285143D01*
X287043D02*
X289843D01*
X291943D02*
X294043D01*
X295243D02*
X297643D01*
X299743D02*
X302543D01*
X303943D02*
X306743D01*
X282743Y373798D02*
X285443D01*
X286843D02*
X289743D01*
X291943D02*
X294243D01*
X295143D02*
X297643D01*
X299843D02*
X303043D01*
X303343D02*
X306743D01*
X282743Y373898D02*
X285643D01*
X286643D02*
X289743D01*
X291743D02*
X294243D01*
X295043D02*
X297743D01*
X299843D02*
X306643D01*
X282743Y373998D02*
X285743D01*
X286543D02*
X289643D01*
X291743D02*
X294243D01*
X295043D02*
X297843D01*
X299843D02*
X306543D01*
X282843Y374098D02*
X289643D01*
X291643D02*
X294343D01*
X295043D02*
X297843D01*
X299943D02*
X306543D01*
X282843Y374198D02*
X289643D01*
X291643D02*
X294443D01*
X295043D02*
X297943D01*
X299943D02*
X306543D01*
X282843Y374298D02*
X289543D01*
X291543D02*
X294543D01*
X294943D02*
X297943D01*
X299943D02*
X306443D01*
X283043Y374398D02*
X289443D01*
X291543D02*
X294543D01*
X294943D02*
X297943D01*
X300043D02*
X306343D01*
X283043Y374498D02*
X289443D01*
X291543D02*
X294543D01*
X294943D02*
X297943D01*
X300143D02*
X306243D01*
X283043Y374598D02*
X289343D01*
X291543D02*
X294543D01*
X294943D02*
X297943D01*
X300243D02*
X306243D01*
X283143Y374698D02*
X289143D01*
X291543D02*
X294543D01*
X294943D02*
X297943D01*
X300243D02*
X306143D01*
X283143Y374798D02*
X289143D01*
X291543D02*
X294543D01*
X294943D02*
X297943D01*
X300343D02*
X306043D01*
X283343Y374898D02*
X289143D01*
X291543D02*
X294543D01*
X295043D02*
X297943D01*
X300443D02*
X305943D01*
X283443Y374998D02*
X289043D01*
X291543D02*
X294543D01*
X295043D02*
X297943D01*
X300543D02*
X305843D01*
X283443Y375098D02*
X288943D01*
X291643D02*
X294543D01*
X295043D02*
X297843D01*
X300643D02*
X305743D01*
X283543Y375198D02*
X288843D01*
X291643D02*
X294443D01*
X295043D02*
X297743D01*
X300843D02*
X305643D01*
X283743Y375298D02*
X288743D01*
X291643D02*
X294343D01*
X295143D02*
X297743D01*
X300943D02*
X305543D01*
X283743Y375398D02*
X288643D01*
X291743D02*
X294343D01*
X295243D02*
X297643D01*
X301043D02*
X305443D01*
X283843Y375498D02*
X288543D01*
X291843D02*
X294243D01*
X295243D02*
X297643D01*
X301143D02*
X305243D01*
X284243Y375598D02*
X288243D01*
X291943D02*
X294143D01*
X295343D02*
X297443D01*
X301543D02*
X304943D01*
X284243Y375698D02*
X288143D01*
X291943D02*
X294143D01*
X295443D02*
X297343D01*
X301643D02*
X304843D01*
X284243Y375798D02*
X288043D01*
X292043D02*
X294043D01*
X295643D02*
X297343D01*
X301743D02*
X304743D01*
X284743Y375898D02*
X287543D01*
X292343D02*
X293743D01*
X296143D02*
X296643D01*
X302643D02*
X303843D01*
X284843Y375998D02*
X287443D01*
X292343D02*
X293743D01*
X302843D02*
X303743D01*
X285043Y376098D02*
X287243D01*
X292543D02*
X293543D01*
X297843D02*
X298643D01*
X290943Y376198D02*
X291043D01*
X297743D02*
X298843D01*
X290743Y376298D02*
X292143D01*
X297243D02*
X299143D01*
X290643Y376398D02*
X292343D01*
X297143D02*
X299243D01*
X290543Y376498D02*
X292443D01*
X297143D02*
X299243D01*
X290443Y376598D02*
X292543D01*
X296943D02*
X299443D01*
X290343Y376698D02*
X292643D01*
X296843D02*
X299543D01*
X290243Y376798D02*
X292643D01*
X296843D02*
X299543D01*
X290143Y376898D02*
X292743D01*
X296843D02*
X299543D01*
X290143Y376998D02*
X292843D01*
X296843D02*
X299643D01*
X290143Y377098D02*
X292943D01*
X296843D02*
X299643D01*
X290143Y377198D02*
X292943D01*
X296843D02*
X299643D01*
X290043Y377298D02*
X292943D01*
X296843D02*
X299643D01*
X290043Y377398D02*
X292943D01*
X296843D02*
X299643D01*
X290043Y377498D02*
X292943D01*
X296843D02*
X299643D01*
X290043Y377598D02*
X292843D01*
X296843D02*
X299643D01*
X290043Y377698D02*
X292843D01*
X296843D02*
X299643D01*
X290043Y377798D02*
X292843D01*
X296843D02*
X299543D01*
X290043Y377898D02*
X292843D01*
X296843D02*
X299543D01*
X290143Y377998D02*
X292843D01*
X296843D02*
X299543D01*
X303443D02*
X303643D01*
X290143Y378098D02*
X292843D01*
X296843D02*
X299543D01*
X302443D02*
X304243D01*
X290143Y378198D02*
X292843D01*
X296943D02*
X299543D01*
X302043D02*
X304843D01*
X290143Y378298D02*
X292743D01*
X296943D02*
X299443D01*
X302043D02*
X304943D01*
X286143Y378398D02*
X286843D01*
X290143D02*
X292743D01*
X297043D02*
X299343D01*
X301743D02*
X305143D01*
X285243Y378498D02*
X287543D01*
X290243D02*
X292743D01*
X297143D02*
X299243D01*
X301443D02*
X305343D01*
X285243Y378598D02*
X287643D01*
X290343D02*
X292643D01*
X297243D02*
X299143D01*
X301343D02*
X305343D01*
X284943Y378698D02*
X287943D01*
X290443D02*
X292543D01*
X297443D02*
X299043D01*
X301243D02*
X305543D01*
X284543Y378798D02*
X288143D01*
X290543D02*
X292443D01*
X297443D02*
X298943D01*
X301143D02*
X305643D01*
X284443Y378898D02*
X288243D01*
X290843D02*
X292143D01*
X296343D02*
X296843D01*
X297743D02*
X298643D01*
X301043D02*
X305843D01*
X284343Y378998D02*
X288443D01*
X291143D02*
X291743D01*
X296043D02*
X297243D01*
X300943D02*
X305943D01*
X284243Y379098D02*
X288543D01*
X292743D02*
X293643D01*
X295943D02*
X297443D01*
X300843D02*
X306043D01*
X284043Y379198D02*
X288643D01*
X292643D02*
X293843D01*
X295843D02*
X297543D01*
X300743D02*
X306143D01*
X283943Y379298D02*
X288743D01*
X292343D02*
X294043D01*
X295643D02*
X297643D01*
X300643D02*
X306243D01*
X283843Y379398D02*
X288843D01*
X292243D02*
X294243D01*
X295643D02*
X297843D01*
X300543D02*
X306243D01*
X283743Y379498D02*
X288943D01*
X292243D02*
X294343D01*
X295543D02*
X297943D01*
X300443D02*
X306443D01*
X283643Y379598D02*
X289043D01*
X292143D02*
X294443D01*
X295443D02*
X297943D01*
X300443D02*
X306543D01*
X283543Y379698D02*
X289143D01*
X292043D02*
X294543D01*
X295343D02*
X297943D01*
X300243D02*
X306543D01*
X283443Y379798D02*
X289243D01*
X291943D02*
X294643D01*
X295243D02*
X297943D01*
X300243D02*
X306543D01*
X283443Y379898D02*
X289343D01*
X291943D02*
X294643D01*
X295243D02*
X298043D01*
X300243D02*
X306643D01*
X283343Y379998D02*
X289443D01*
X291943D02*
X294643D01*
X295143D02*
X298043D01*
X300143D02*
X306743D01*
X283243Y380098D02*
X289443D01*
X291943D02*
X294643D01*
X295143D02*
X298143D01*
X300043D02*
X306743D01*
X283143Y380198D02*
X289643D01*
X291943D02*
X294643D01*
X295143D02*
X298243D01*
X300043D02*
X306843D01*
X283143Y380298D02*
X289643D01*
X291943D02*
X294643D01*
X295143D02*
X298243D01*
X299943D02*
X303243D01*
X303643D02*
X306843D01*
X283043Y380398D02*
X289743D01*
X291843D02*
X294743D01*
X295143D02*
X298143D01*
X299943D02*
X302943D01*
X303943D02*
X306843D01*
X283043Y380498D02*
X289743D01*
X291743D02*
X294743D01*
X295143D02*
X298143D01*
X299943D02*
X302643D01*
X304243D02*
X306943D01*
X283043Y380598D02*
X289743D01*
X291743D02*
X294743D01*
X295243D02*
X298143D01*
X299943D02*
X302543D01*
X304243D02*
X307043D01*
X283043Y380698D02*
X286443D01*
X286743D02*
X289943D01*
X291743D02*
X294743D01*
X295243D02*
X298043D01*
X299843D02*
X302343D01*
X304443D02*
X307043D01*
X282943Y380798D02*
X285743D01*
X286943D02*
X289943D01*
X291843D02*
X294743D01*
X295243D02*
X298043D01*
X299843D02*
X302243D01*
X304543D02*
X307043D01*
X282843Y380898D02*
X285643D01*
X287043D02*
X290043D01*
X291843D02*
X294643D01*
X295243D02*
X298043D01*
X299843D02*
X302243D01*
X304543D02*
X307143D01*
X282843Y380998D02*
X285443D01*
X287243D02*
X290043D01*
X291943D02*
X294643D01*
X295343D02*
X297943D01*
X299843D02*
X302143D01*
X304643D02*
X307143D01*
X282743Y381098D02*
X285343D01*
X287443D02*
X290043D01*
X291943D02*
X294643D01*
X295443D02*
X297943D01*
X299843D02*
X301943D01*
X304743D02*
X307143D01*
X282743Y381198D02*
X285243D01*
X287443D02*
X290043D01*
X291943D02*
X294543D01*
X295443D02*
X297943D01*
X299843D02*
X301943D01*
X304743D02*
X307143D01*
X282743Y381298D02*
X285143D01*
X287543D02*
X290043D01*
X291943D02*
X294543D01*
X295543D02*
X297843D01*
X299843D02*
X301943D01*
X304843D02*
X307143D01*
X282743Y381398D02*
X285143D01*
X287643D02*
X290043D01*
X292143D02*
X294443D01*
X295643D02*
X297643D01*
X299743D02*
X301943D01*
X304843D02*
X307143D01*
X282743Y381498D02*
X285143D01*
X287643D02*
X290043D01*
X292243D02*
X294343D01*
X295643D02*
X297643D01*
X299743D02*
X301943D01*
X304843D02*
X307143D01*
X282743Y381598D02*
X285043D01*
X287743D02*
X290143D01*
X292243D02*
X294243D01*
X295843D02*
X297543D01*
X299743D02*
X301943D01*
X304843D02*
X307143D01*
X282743Y381698D02*
X284943D01*
X287743D02*
X290243D01*
X292443D02*
X294143D01*
X296143D02*
X297243D01*
X299643D02*
X301943D01*
X304843D02*
X307143D01*
X282743Y381798D02*
X284843D01*
X287743D02*
X290243D01*
X292543D02*
X294043D01*
X296243D02*
X297143D01*
X299643D02*
X301943D01*
X304843D02*
X307143D01*
X282743Y381898D02*
X284843D01*
X287743D02*
X290243D01*
X292643D02*
X293943D01*
X296443D02*
X296843D01*
X299643D02*
X301943D01*
X304843D02*
X307143D01*
X282743Y381998D02*
X284843D01*
X287743D02*
X290243D01*
X299643D02*
X301943D01*
X304843D02*
X307143D01*
X282743Y382098D02*
X284843D01*
X287743D02*
X290243D01*
X299743D02*
X301943D01*
X304843D02*
X307143D01*
X282743Y382198D02*
X284843D01*
X287743D02*
X290243D01*
X299743D02*
X301943D01*
X304843D02*
X307143D01*
X282743Y382298D02*
X284843D01*
X287743D02*
X290243D01*
X299743D02*
X301943D01*
X304743D02*
X307143D01*
X282743Y382398D02*
X284843D01*
X287743D02*
X290243D01*
X299843D02*
X302143D01*
X304743D02*
X307143D01*
X282743Y382498D02*
X284843D01*
X287743D02*
X290143D01*
X299843D02*
X302243D01*
X304643D02*
X307143D01*
X282743Y382598D02*
X284943D01*
X287743D02*
X290143D01*
X299843D02*
X302243D01*
X304643D02*
X307143D01*
X282743Y382698D02*
X285043D01*
X287743D02*
X290043D01*
X299843D02*
X302243D01*
X304543D02*
X307043D01*
X282743Y382798D02*
X285143D01*
X287643D02*
X290043D01*
X299943D02*
X302243D01*
X304443D02*
X307043D01*
X282743Y382898D02*
X285143D01*
X287643D02*
X290043D01*
X299943D02*
X302243D01*
X304443D02*
X307043D01*
X282743Y382998D02*
X285143D01*
X287643D02*
X290043D01*
X299943D02*
X302743D01*
X304143D02*
X306943D01*
X282743Y383098D02*
X285143D01*
X287443D02*
X290043D01*
X299943D02*
X302743D01*
X304043D02*
X306943D01*
X282843Y383198D02*
X285343D01*
X287443D02*
X289943D01*
X299943D02*
X302843D01*
X304043D02*
X306843D01*
X282843Y383298D02*
X285443D01*
X287343D02*
X289943D01*
X294043D02*
X296043D01*
X300043D02*
X306843D01*
X282843Y383398D02*
X285643D01*
X287143D02*
X289943D01*
X293743D02*
X296243D01*
X300143D02*
X306843D01*
X282943Y383498D02*
X285643D01*
X287143D02*
X289943D01*
X293643D02*
X296343D01*
X300143D02*
X306743D01*
X283043Y383598D02*
X289843D01*
X293343D02*
X296743D01*
X300243D02*
X306643D01*
X283043Y383698D02*
X289743D01*
X293043D02*
X297043D01*
X300243D02*
X306543D01*
X283043Y383798D02*
X289743D01*
X292943D02*
X297043D01*
X300243D02*
X306543D01*
X283043Y383898D02*
X289643D01*
X292843D02*
X297343D01*
X300343D02*
X306443D01*
X283143Y383998D02*
X289643D01*
X292643D02*
X297443D01*
X300443D02*
X306443D01*
X283143Y384098D02*
X289543D01*
X292543D02*
X297443D01*
X300543D02*
X306243D01*
X283343Y384198D02*
X289443D01*
X292443D02*
X297643D01*
X300643D02*
X306243D01*
X283343Y384298D02*
X289443D01*
X292343D02*
X297743D01*
X300643D02*
X306143D01*
X283443Y384398D02*
X289343D01*
X292243D02*
X297843D01*
X300843D02*
X305943D01*
X283543Y384498D02*
X289243D01*
X292143D02*
X297943D01*
X300943D02*
X305843D01*
X283643Y384598D02*
X289143D01*
X292043D02*
X297943D01*
X300943D02*
X305843D01*
X283643Y384698D02*
X289043D01*
X291943D02*
X298043D01*
X301143D02*
X305643D01*
X283743Y384798D02*
X288943D01*
X291943D02*
X298143D01*
X301343D02*
X305543D01*
X283843Y384898D02*
X288843D01*
X291943D02*
X298243D01*
X301443D02*
X305443D01*
X283943Y384998D02*
X288743D01*
X291943D02*
X298243D01*
X301543D02*
X305243D01*
X284143Y385098D02*
X288543D01*
X291743D02*
X298243D01*
X301843D02*
X305043D01*
X284243Y385198D02*
X288543D01*
X291643D02*
X298243D01*
X301943D02*
X304843D01*
X284443Y385298D02*
X288443D01*
X291643D02*
X298343D01*
X302143D02*
X304643D01*
X284743Y385398D02*
X288143D01*
X291643D02*
X294643D01*
X295343D02*
X298343D01*
X284743Y385498D02*
X288043D01*
X291543D02*
X294543D01*
X295543D02*
X298443D01*
X285043Y385598D02*
X287843D01*
X291443D02*
X294343D01*
X295643D02*
X298543D01*
X285943Y385698D02*
X286943D01*
X291443D02*
X294143D01*
X295943D02*
X298543D01*
X286043Y385798D02*
X286843D01*
X291443D02*
X294043D01*
X295943D02*
X298543D01*
X291343Y385898D02*
X293943D01*
X296143D02*
X298543D01*
X291343Y385998D02*
X293943D01*
X296243D02*
X298543D01*
X291343Y386098D02*
X293843D01*
X296243D02*
X298543D01*
X291343Y386198D02*
X293743D01*
X296343D02*
X298643D01*
X291343Y386298D02*
X293643D01*
X296543D02*
X298643D01*
X291343Y386398D02*
X293643D01*
X296543D02*
X298643D01*
X291343Y386498D02*
X293643D01*
X296543D02*
X298643D01*
X291343Y386598D02*
X293643D01*
X296543D02*
X298643D01*
X291343Y386698D02*
X293643D01*
X296543D02*
X298643D01*
X291243Y386798D02*
X293643D01*
X296543D02*
X298643D01*
X291243Y386898D02*
X293643D01*
X296543D02*
X298643D01*
X291243Y386998D02*
X293643D01*
X296543D02*
X298643D01*
X291243Y387098D02*
X293643D01*
X296543D02*
X298643D01*
X291343Y387198D02*
X293643D01*
X296543D02*
X298643D01*
X291343Y387298D02*
X293643D01*
X296543D02*
X298543D01*
X291343Y387398D02*
X293643D01*
X296443D02*
X298543D01*
X291343Y387498D02*
X293643D01*
X296343D02*
X298543D01*
X291343Y387598D02*
X293743D01*
X296243D02*
X298543D01*
X291343Y387698D02*
X293843D01*
X296243D02*
X298543D01*
X291343Y387798D02*
X293943D01*
X296243D02*
X298543D01*
X291343Y387898D02*
X294043D01*
X296043D02*
X298543D01*
X291343Y387998D02*
X294143D01*
X295943D02*
X298543D01*
X291443Y388098D02*
X294243D01*
X295943D02*
X298543D01*
X291443Y388198D02*
X294443D01*
X295643D02*
X298543D01*
X291443Y388298D02*
X298443D01*
X291543Y388398D02*
X298343D01*
X291643Y388498D02*
X298343D01*
X291643Y388598D02*
X298243D01*
X291743Y388698D02*
X298243D01*
X291843Y388798D02*
X298243D01*
X291943Y388898D02*
X298143D01*
X291943Y388998D02*
X298043D01*
X292043Y389098D02*
X297943D01*
X292043Y389198D02*
X297943D01*
X292243Y389298D02*
X297943D01*
X292243Y389398D02*
X297743D01*
X292343Y389498D02*
X297643D01*
X292543Y389598D02*
X297543D01*
X292643Y389698D02*
X297343D01*
X292743Y389798D02*
X297343D01*
X292943Y389898D02*
X297143D01*
X293143Y389998D02*
X296943D01*
X293243Y390098D02*
X296843D01*
X293243Y390198D02*
X296743D01*
X293543Y390298D02*
X296443D01*
X293743Y390398D02*
X296343D01*
X294143Y390498D02*
X296043D01*
X294543Y390598D02*
X295543D01*
M02*
