M48
;Layer_Color=9474304
;FILE_FORMAT=2:5
INCH,TZ
;TYPE=PLATED
T1F00S00C0.01200
T2F00S00C0.02480
T3F00S00C0.03000
T4F00S00C0.03150
T5F00S00C0.03346
T6F00S00C0.03543
T7F00S00C0.03937
T8F00S00C0.11000
T9F00S00C0.13000
%
T01
X263779Y155512
X338583Y131890
Y114173
X356299Y145669
X391732Y114173
X435039Y139763
X444882Y145669
Y151575
X450787Y155512
X513779Y129921
X496062Y161417
X490158Y159449
Y172244
X488189Y175197
X494095Y171260
X484252Y169291
X480315Y171260
X472441Y173228
X480315Y194882
X490158Y192913
X488189Y188976
X503937Y179134
X507874Y183071
X517717
Y177165
X531496Y181102
X539370Y177165
X543307Y187008
X525591Y192913
X517717Y196850
X521654Y222441
X525591Y232283
X531496
X521654Y263779
X564961Y259842
X568898Y188976
X482283Y236221
X458661Y214567
X448819
X461614Y201772
Y186024
X456693Y188976
Y159449
X417323Y165354
X409449Y167323
X401575Y181102
X385827Y177165
Y163386
X368110
X358268
X336614Y173228
X313386Y173622
X318898Y188976
Y204724
X312992Y222441
X338189Y198425
X344488Y196850
X372047Y204724
X389764Y216535
X385827Y222441
X374016Y268504
X370079Y271654
X366142Y275590
X372047Y283465
X409449Y295276
X415354Y291339
X427165Y279528
X433071Y273622
X309055
X303150Y275590
X307087Y238189
X303150Y234252
X295276
X289370
X281496Y240158
X275590Y224410
Y198819
X289370Y194882
Y188976
X293307Y181102
X297244Y169291
X303150Y173228
X309055Y169291
Y165354
X285433Y167323
X278140Y177747
X269685Y175197
X259842Y190945
X248031Y214567
X246063Y265748
X251969Y273622
X220472Y244094
X311024Y226378
X307087Y222441
Y200787
X250000Y157480
X417323Y314961
X419291Y326772
X429134Y325787
X435039Y338583
X431102Y348425
X458661Y318898
X464567
X440945Y437008
X437008Y442913
X334646Y438976
X335630Y463583
X530512Y430118
X478346Y360236
X474409
X472441Y580709
X448819Y509842
X446850
X415354
X413386Y507874
X417323Y511811
X344488Y521654
X346457Y529528
T02
X531496Y199055
Y218268
X354331Y216299
Y197087
T03
X377827Y153543
X385827
X393827
X454724Y344488
Y383858
X332677Y383858
Y344488
X332677Y521654
Y561024
X454724Y561024
Y521654
T04
X515748Y169291
X535433
X546181Y165354
X556181
X565866
X575866
X553150Y217441
Y227441
Y237126
Y247126
X234252Y245158
Y235157
Y225472
Y215472
X231221Y165354
X221535
X211535
X241220
X265748Y183071
X285433
X301181Y423228
X320866
X458662Y421260
X478346
T05
X286181Y458661
X316181
X465315Y454724
X495315
T06
X271654Y145669
X281654
X291654
X301654
X311654
X350945Y122047
X360945
X370945
X380945
X390945
X400945
X410945
X420945
X430945
X440945
X405512Y104331
X395512
X385512
X375512
X486220Y145669
X496220
X506220
X516220
X526220
X529213Y295276
X519213
X539213
X549213
X482283Y283780
Y273780
Y263780
X472283
Y273780
Y283780
X407953Y307087
X397953
X387953
X377953
X330709Y281811
Y271811
Y261811
X320709
Y271811
Y281811
X281968Y295276
X271968
X261968
X251968
X261811Y258347
Y248346
Y238347
Y228346
X236221Y428661
Y438661
Y448662
Y458662
X360669Y467756
X370669
X380669
X390669
X400669
X410669
X420669
X430669
Y437756
X420669
X410669
X400669
X390669
X380669
X370669
X360669
X378701Y399173
Y389173
Y379173
Y369173
Y359173
Y349173
Y339173
Y329173
X408701
Y339173
Y349173
Y359173
Y369173
Y379173
Y389173
Y399173
X501811Y437008
X511811
X553150Y439134
Y449134
Y459134
Y429134
X437008Y496063
X427008
X417008
X407008
X380394Y496063
X370394
X360394
X350394
X346457Y570709
Y580709
X370079Y580866
Y570866
X391732Y566772
Y576772
X423228Y576929
Y566929
X440945
Y576929
T07
X358268Y356732
Y426732
X529095Y476378
X459094
T08
X277559Y328740
Y399606
X509842
Y328740
Y505905
Y576772
X277559
Y505905
T09
X246063Y127953
X541339
X413386Y206693
X393701Y255906
X242126Y318898
X545276
Y488189
X393701Y519685
X242126Y488189
M30
