G04 Layer_Color=0*
%FSLAX25Y25*%
%MOIN*%
G70*
G01*
G75*
%ADD72C,0.00197*%
D72*
X541650Y221795D02*
X541668Y222823D01*
X541578Y223848D01*
X541382Y224857D01*
X541081Y225840D01*
X540680Y226787D01*
X540181Y227686D01*
X539591Y228528D01*
X538917Y229304D01*
X538165Y230006D01*
X537344Y230624D01*
X536462Y231154D01*
X535530Y231588D01*
X534558Y231923D01*
X533556Y232154D01*
X532536Y232280D01*
Y185043D02*
X533556Y185168D01*
X534558Y185400D01*
X535530Y185734D01*
X536462Y186169D01*
X537344Y186699D01*
X538165Y187317D01*
X538917Y188019D01*
X539591Y188795D01*
X540181Y189637D01*
X540680Y190536D01*
X541081Y191483D01*
X541382Y192466D01*
X541578Y193475D01*
X541668Y194500D01*
X541650Y195528D01*
X521342D02*
X521324Y194500D01*
X521414Y193475D01*
X521610Y192466D01*
X521911Y191483D01*
X522312Y190536D01*
X522811Y189637D01*
X523401Y188795D01*
X524075Y188019D01*
X524827Y187317D01*
X525649Y186699D01*
X526530Y186169D01*
X527462Y185734D01*
X528434Y185400D01*
X529436Y185168D01*
X530456Y185043D01*
Y232280D02*
X529436Y232154D01*
X528434Y231923D01*
X527462Y231588D01*
X526530Y231154D01*
X525649Y230624D01*
X524827Y230006D01*
X524075Y229304D01*
X523401Y228528D01*
X522811Y227686D01*
X522312Y226787D01*
X521911Y225840D01*
X521610Y224857D01*
X521414Y223848D01*
X521324Y222823D01*
X521342Y221795D01*
X364485Y219827D02*
X364502Y220855D01*
X364413Y221879D01*
X364217Y222888D01*
X363916Y223872D01*
X363514Y224818D01*
X363016Y225717D01*
X362426Y226560D01*
X361751Y227336D01*
X360999Y228037D01*
X360178Y228656D01*
X359297Y229185D01*
X358365Y229620D01*
X357393Y229955D01*
X356391Y230186D01*
X355370Y230311D01*
Y183074D02*
X356391Y183200D01*
X357393Y183431D01*
X358365Y183766D01*
X359297Y184201D01*
X360178Y184730D01*
X360999Y185349D01*
X361751Y186050D01*
X362426Y186826D01*
X363016Y187668D01*
X363514Y188568D01*
X363916Y189514D01*
X364217Y190498D01*
X364413Y191507D01*
X364502Y192531D01*
X364485Y193559D01*
X344177D02*
X344159Y192531D01*
X344249Y191507D01*
X344445Y190498D01*
X344745Y189514D01*
X345147Y188568D01*
X345646Y187668D01*
X346235Y186826D01*
X346910Y186050D01*
X347662Y185349D01*
X348483Y184730D01*
X349365Y184201D01*
X350296Y183766D01*
X351269Y183431D01*
X352271Y183200D01*
X353291Y183074D01*
Y230311D02*
X352271Y230186D01*
X351269Y229955D01*
X350296Y229620D01*
X349365Y229185D01*
X348483Y228656D01*
X347662Y228037D01*
X346910Y227336D01*
X346235Y226560D01*
X345646Y225717D01*
X345147Y224818D01*
X344745Y223872D01*
X344445Y222888D01*
X344249Y221879D01*
X344159Y220855D01*
X344177Y219827D01*
X544527Y177323D02*
X557835D01*
X544527D02*
Y184882D01*
X557835D01*
Y177323D02*
Y184882D01*
X555768Y203051D02*
Y210335D01*
X542657Y203051D02*
Y210335D01*
X555768D01*
X542657Y203051D02*
X555768D01*
Y193209D02*
Y200492D01*
X542657Y193209D02*
Y200492D01*
X555768D01*
X542657Y193209D02*
X555768D01*
X277402Y270906D02*
Y284213D01*
X269843Y270906D02*
X277402D01*
X269843D02*
Y284213D01*
X277402D01*
X304370Y578898D02*
X317677D01*
X304370D02*
Y586457D01*
X317677D01*
Y578898D02*
Y586457D01*
X477598D02*
X490906D01*
Y578898D02*
Y586457D01*
X477598Y578898D02*
X490906D01*
X477598D02*
Y586457D01*
X536654Y273465D02*
X549961D01*
Y265905D02*
Y273465D01*
X536654Y265905D02*
X549961D01*
X536654D02*
Y273465D01*
X209882Y252126D02*
X223189D01*
X209882D02*
Y259685D01*
X223189D01*
Y252126D02*
Y259685D01*
X530512Y232283D02*
X532480D01*
X541653Y195473D02*
Y221850D01*
X530512Y185039D02*
X532480D01*
X521339Y195473D02*
Y221850D01*
X566181Y184882D02*
X579488D01*
Y177323D02*
Y184882D01*
X566181Y177323D02*
X579488D01*
X566181D02*
Y184882D01*
X566181Y202598D02*
X579488D01*
Y195039D02*
Y202598D01*
X566181Y195039D02*
X579488D01*
X566181D02*
Y202598D01*
X399449Y526811D02*
Y540118D01*
X391890Y526811D02*
X399449D01*
X391890D02*
Y540118D01*
X399449D01*
X261654Y270906D02*
Y284213D01*
X254095Y270906D02*
X261654D01*
X254095D02*
Y284213D01*
X261654D01*
X463106Y125240D02*
X476413D01*
Y117681D02*
Y125240D01*
X463106Y117681D02*
X476413D01*
X463106D02*
Y125240D01*
X266969Y454567D02*
X280276D01*
Y447008D02*
Y454567D01*
X266969Y447008D02*
X280276D01*
X266969D02*
Y454567D01*
X543150Y231535D02*
Y244842D01*
X535591Y231535D02*
X543150D01*
X535591D02*
Y244842D01*
X543150D01*
X229567Y187165D02*
X242874D01*
X229567D02*
Y194725D01*
X242874D01*
Y187165D02*
Y194725D01*
X339803Y165197D02*
X353110D01*
Y157638D02*
Y165197D01*
X339803Y157638D02*
X353110D01*
X339803D02*
Y165197D01*
Y141890D02*
X353110D01*
X339803D02*
Y149449D01*
X353110D01*
Y141890D02*
Y149449D01*
X207913Y187165D02*
X221220D01*
X207913D02*
Y194724D01*
X221220D01*
Y187165D02*
Y194724D01*
X314213Y121890D02*
X327520D01*
Y114331D02*
Y121890D01*
X314213Y114331D02*
X327520D01*
X314213D02*
Y121890D01*
X353346Y230315D02*
X355315D01*
X364488Y193504D02*
Y219882D01*
X353346Y183071D02*
X355315D01*
X344173Y193504D02*
Y219882D01*
X368406Y208012D02*
X375689D01*
X368406Y221122D02*
X375689D01*
Y208012D02*
Y221122D01*
X368406Y208012D02*
Y221122D01*
X368406Y203405D02*
X375689D01*
X368406Y190295D02*
X375689D01*
X368406D02*
Y203405D01*
X375689Y190295D02*
Y203405D01*
M02*
