G04 Layer_Color=65535*
%FSLAX25Y25*%
%MOIN*%
G70*
G01*
G75*
%ADD21C,0.01000*%
%ADD41C,0.00787*%
%ADD42C,0.00500*%
%ADD43C,0.00984*%
%ADD44C,0.02362*%
%ADD45C,0.00100*%
%ADD46C,0.00800*%
D21*
X515410Y328740D02*
X515321Y329734D01*
X515055Y330697D01*
X514622Y331596D01*
X514036Y332403D01*
X513314Y333093D01*
X512481Y333643D01*
X511563Y334035D01*
X510590Y334258D01*
X509593Y334302D01*
X508604Y334168D01*
X507654Y333860D01*
X506775Y333387D01*
X505995Y332765D01*
X505338Y332013D01*
X504826Y331156D01*
X504475Y330221D01*
X504297Y329239D01*
Y328241D01*
X504475Y327259D01*
X504826Y326324D01*
X505338Y325467D01*
X505995Y324716D01*
X506775Y324093D01*
X507654Y323620D01*
X508604Y323312D01*
X509593Y323178D01*
X510590Y323223D01*
X511563Y323445D01*
X512481Y323837D01*
X513314Y324387D01*
X514036Y325077D01*
X514622Y325885D01*
X515055Y326784D01*
X515321Y327746D01*
X515410Y328740D01*
Y399606D02*
X515321Y400600D01*
X515055Y401563D01*
X514622Y402462D01*
X514036Y403269D01*
X513314Y403959D01*
X512481Y404509D01*
X511563Y404902D01*
X510590Y405124D01*
X509593Y405168D01*
X508604Y405034D01*
X507654Y404726D01*
X506775Y404253D01*
X505995Y403631D01*
X505338Y402879D01*
X504826Y402022D01*
X504475Y401088D01*
X504297Y400105D01*
Y399107D01*
X504475Y398125D01*
X504826Y397190D01*
X505338Y396334D01*
X505995Y395582D01*
X506775Y394960D01*
X507654Y394487D01*
X508604Y394178D01*
X509593Y394044D01*
X510590Y394089D01*
X511563Y394311D01*
X512481Y394703D01*
X513314Y395253D01*
X514036Y395943D01*
X514622Y396751D01*
X515055Y397650D01*
X515321Y398612D01*
X515410Y399606D01*
Y576772D02*
X515321Y577766D01*
X515055Y578728D01*
X514622Y579627D01*
X514036Y580435D01*
X513314Y581125D01*
X512481Y581675D01*
X511563Y582067D01*
X510590Y582289D01*
X509593Y582334D01*
X508604Y582200D01*
X507654Y581891D01*
X506775Y581418D01*
X505995Y580796D01*
X505338Y580044D01*
X504826Y579187D01*
X504475Y578253D01*
X504297Y577271D01*
Y576273D01*
X504475Y575290D01*
X504826Y574356D01*
X505338Y573499D01*
X505995Y572747D01*
X506775Y572125D01*
X507654Y571652D01*
X508604Y571344D01*
X509593Y571209D01*
X510590Y571254D01*
X511563Y571476D01*
X512481Y571869D01*
X513314Y572419D01*
X514036Y573108D01*
X514622Y573916D01*
X515055Y574815D01*
X515321Y575777D01*
X515410Y576772D01*
Y505905D02*
X515321Y506900D01*
X515055Y507862D01*
X514622Y508761D01*
X514036Y509569D01*
X513314Y510259D01*
X512481Y510809D01*
X511563Y511201D01*
X510590Y511423D01*
X509593Y511468D01*
X508604Y511334D01*
X507654Y511025D01*
X506775Y510552D01*
X505995Y509930D01*
X505338Y509178D01*
X504826Y508321D01*
X504475Y507387D01*
X504297Y506405D01*
Y505406D01*
X504475Y504424D01*
X504826Y503490D01*
X505338Y502633D01*
X505995Y501881D01*
X506775Y501259D01*
X507654Y500786D01*
X508604Y500477D01*
X509593Y500343D01*
X510590Y500388D01*
X511563Y500610D01*
X512481Y501003D01*
X513314Y501552D01*
X514036Y502242D01*
X514622Y503050D01*
X515055Y503949D01*
X515321Y504911D01*
X515410Y505905D01*
Y399606D02*
X515321Y400600D01*
X515055Y401563D01*
X514622Y402462D01*
X514036Y403269D01*
X513314Y403959D01*
X512481Y404509D01*
X511563Y404902D01*
X510590Y405124D01*
X509593Y405168D01*
X508604Y405034D01*
X507654Y404726D01*
X506775Y404253D01*
X505995Y403631D01*
X505338Y402879D01*
X504826Y402022D01*
X504475Y401088D01*
X504297Y400105D01*
Y399107D01*
X504475Y398125D01*
X504826Y397190D01*
X505338Y396334D01*
X505995Y395582D01*
X506775Y394960D01*
X507654Y394487D01*
X508604Y394178D01*
X509593Y394044D01*
X510590Y394089D01*
X511563Y394311D01*
X512481Y394703D01*
X513314Y395253D01*
X514036Y395943D01*
X514622Y396751D01*
X515055Y397650D01*
X515321Y398612D01*
X515410Y399606D01*
X516068Y328740D02*
X515987Y329739D01*
X515747Y330711D01*
X515354Y331633D01*
X514819Y332480D01*
X514155Y333230D01*
X513379Y333863D01*
X512511Y334364D01*
X511574Y334719D01*
X510593Y334920D01*
X509592Y334960D01*
X508597Y334839D01*
X507635Y334561D01*
X506730Y334131D01*
X505906Y333562D01*
X505183Y332868D01*
X504581Y332067D01*
X504116Y331180D01*
X503798Y330230D01*
X503638Y329241D01*
Y328239D01*
X503798Y327250D01*
X504116Y326300D01*
X504581Y325413D01*
X505183Y324612D01*
X505906Y323918D01*
X506730Y323349D01*
X507635Y322920D01*
X508597Y322641D01*
X509592Y322520D01*
X510593Y322561D01*
X511574Y322761D01*
X512511Y323116D01*
X513379Y323617D01*
X514155Y324251D01*
X514819Y325001D01*
X515354Y325847D01*
X515747Y326769D01*
X515987Y327742D01*
X516068Y328740D01*
X283127Y399606D02*
X283037Y400600D01*
X282772Y401563D01*
X282339Y402462D01*
X281752Y403269D01*
X281031Y403959D01*
X280197Y404509D01*
X279280Y404902D01*
X278306Y405124D01*
X277309Y405168D01*
X276320Y405034D01*
X275371Y404726D01*
X274492Y404253D01*
X273711Y403631D01*
X273055Y402879D01*
X272543Y402022D01*
X272192Y401088D01*
X272014Y400105D01*
Y399107D01*
X272192Y398125D01*
X272543Y397190D01*
X273055Y396334D01*
X273711Y395582D01*
X274492Y394960D01*
X275371Y394487D01*
X276320Y394178D01*
X277309Y394044D01*
X278306Y394089D01*
X279280Y394311D01*
X280197Y394703D01*
X281031Y395253D01*
X281752Y395943D01*
X282339Y396751D01*
X282772Y397650D01*
X283037Y398612D01*
X283127Y399606D01*
Y328740D02*
X283037Y329734D01*
X282772Y330697D01*
X282339Y331596D01*
X281752Y332403D01*
X281031Y333093D01*
X280197Y333643D01*
X279280Y334035D01*
X278306Y334258D01*
X277309Y334302D01*
X276320Y334168D01*
X275371Y333860D01*
X274492Y333387D01*
X273711Y332765D01*
X273055Y332013D01*
X272543Y331156D01*
X272192Y330221D01*
X272014Y329239D01*
Y328241D01*
X272192Y327259D01*
X272543Y326324D01*
X273055Y325467D01*
X273711Y324716D01*
X274492Y324093D01*
X275371Y323620D01*
X276320Y323312D01*
X277309Y323178D01*
X278306Y323223D01*
X279280Y323445D01*
X280197Y323837D01*
X281031Y324387D01*
X281752Y325077D01*
X282339Y325885D01*
X282772Y326784D01*
X283037Y327746D01*
X283127Y328740D01*
X283127D02*
X283037Y329734D01*
X282772Y330697D01*
X282339Y331596D01*
X281752Y332403D01*
X281031Y333093D01*
X280197Y333643D01*
X279280Y334035D01*
X278306Y334258D01*
X277309Y334302D01*
X276320Y334168D01*
X275371Y333860D01*
X274492Y333387D01*
X273711Y332765D01*
X273055Y332013D01*
X272543Y331156D01*
X272192Y330221D01*
X272014Y329239D01*
Y328241D01*
X272192Y327259D01*
X272543Y326324D01*
X273055Y325467D01*
X273711Y324716D01*
X274492Y324093D01*
X275371Y323620D01*
X276320Y323312D01*
X277309Y323178D01*
X278306Y323223D01*
X279280Y323445D01*
X280197Y323837D01*
X281031Y324387D01*
X281752Y325077D01*
X282339Y325885D01*
X282772Y326784D01*
X283037Y327746D01*
X283127Y328740D01*
Y399606D02*
X283037Y400600D01*
X282772Y401563D01*
X282339Y402462D01*
X281752Y403269D01*
X281031Y403959D01*
X280197Y404509D01*
X279280Y404902D01*
X278306Y405124D01*
X277309Y405168D01*
X276320Y405034D01*
X275371Y404726D01*
X274492Y404253D01*
X273711Y403631D01*
X273055Y402879D01*
X272543Y402022D01*
X272192Y401088D01*
X272014Y400105D01*
Y399107D01*
X272192Y398125D01*
X272543Y397190D01*
X273055Y396334D01*
X273711Y395582D01*
X274492Y394960D01*
X275371Y394487D01*
X276320Y394178D01*
X277309Y394044D01*
X278306Y394089D01*
X279280Y394311D01*
X280197Y394703D01*
X281031Y395253D01*
X281752Y395943D01*
X282339Y396751D01*
X282772Y397650D01*
X283037Y398612D01*
X283127Y399606D01*
Y505905D02*
X283037Y506900D01*
X282772Y507862D01*
X282339Y508761D01*
X281752Y509569D01*
X281031Y510259D01*
X280197Y510809D01*
X279280Y511201D01*
X278306Y511423D01*
X277309Y511468D01*
X276320Y511334D01*
X275371Y511025D01*
X274492Y510552D01*
X273711Y509930D01*
X273055Y509178D01*
X272543Y508321D01*
X272192Y507387D01*
X272014Y506405D01*
Y505406D01*
X272192Y504424D01*
X272543Y503490D01*
X273055Y502633D01*
X273711Y501881D01*
X274492Y501259D01*
X275371Y500786D01*
X276320Y500477D01*
X277309Y500343D01*
X278306Y500388D01*
X279280Y500610D01*
X280197Y501003D01*
X281031Y501552D01*
X281752Y502242D01*
X282339Y503050D01*
X282772Y503949D01*
X283037Y504911D01*
X283127Y505905D01*
X283127Y576772D02*
X283037Y577766D01*
X282772Y578728D01*
X282339Y579627D01*
X281752Y580435D01*
X281031Y581125D01*
X280197Y581675D01*
X279280Y582067D01*
X278306Y582289D01*
X277309Y582334D01*
X276320Y582200D01*
X275371Y581891D01*
X274492Y581418D01*
X273711Y580796D01*
X273055Y580044D01*
X272543Y579187D01*
X272192Y578253D01*
X272014Y577271D01*
Y576273D01*
X272192Y575290D01*
X272543Y574356D01*
X273055Y573499D01*
X273711Y572747D01*
X274492Y572125D01*
X275371Y571652D01*
X276320Y571344D01*
X277309Y571209D01*
X278306Y571254D01*
X279280Y571476D01*
X280197Y571869D01*
X281031Y572419D01*
X281752Y573108D01*
X282339Y573916D01*
X282772Y574815D01*
X283037Y575777D01*
X283127Y576772D01*
X204587Y119622D02*
X205544Y119335D01*
X206502Y119050D01*
X207461Y118766D01*
X208419Y118484D01*
X209379Y118204D01*
X210338Y117925D01*
X211298Y117647D01*
X212259Y117371D01*
X213219Y117096D01*
X214181Y116823D01*
X215143Y116552D01*
X216105Y116281D01*
X217067Y116013D01*
X218030Y115746D01*
X218994Y115480D01*
X219957Y115216D01*
X220922Y114953D01*
X221886Y114692D01*
X222851Y114432D01*
X223817Y114174D01*
X224783Y113917D01*
X225749Y113662D01*
X226715Y113408D01*
X227682Y113156D01*
X228650Y112906D01*
X229618Y112656D01*
X230586Y112409D01*
X231554Y112162D01*
X232523Y111918D01*
X233493Y111675D01*
X234462Y111433D01*
X235432Y111193D01*
X236403Y110954D01*
X237374Y110717D01*
X238345Y110481D01*
X239316Y110247D01*
X240288Y110015D01*
X241261Y109783D01*
X242233Y109554D01*
X243206Y109326D01*
X244179Y109099D01*
X245153Y108874D01*
X246127Y108651D01*
X247101Y108429D01*
X248076Y108208D01*
X249051Y107989D01*
X250027Y107771D01*
X251002Y107555D01*
X251978Y107341D01*
X252955Y107128D01*
X253932Y106916D01*
X254909Y106707D01*
X255886Y106498D01*
X256864Y106291D01*
X257842Y106086D01*
X258820Y105882D01*
X259799Y105680D01*
X260778Y105479D01*
X261757Y105279D01*
X262737Y105082D01*
X263717Y104885D01*
X264697Y104691D01*
X265677Y104497D01*
X266658Y104306D01*
X267639Y104115D01*
X268621Y103927D01*
X269602Y103740D01*
X270584Y103554D01*
X271567Y103370D01*
X272549Y103187D01*
X273532Y103006D01*
X274515Y102827D01*
X275498Y102649D01*
X276482Y102472D01*
X277466Y102297D01*
X278450Y102124D01*
X279435Y101952D01*
X280419Y101782D01*
X281404Y101613D01*
X282390Y101446D01*
X283375Y101280D01*
X284361Y101116D01*
X285347Y100953D01*
X286333Y100792D01*
X287320Y100632D01*
X288306Y100474D01*
X289294Y100318D01*
X290281Y100162D01*
X291268Y100009D01*
X292256Y99857D01*
X293244Y99707D01*
X294232Y99558D01*
X295221Y99410D01*
X296209Y99264D01*
X297198Y99120D01*
X298187Y98977D01*
X299177Y98836D01*
X300166Y98696D01*
X301156Y98558D01*
X302146Y98422D01*
X303136Y98286D01*
X304127Y98153D01*
X305117Y98021D01*
X306108Y97890D01*
X307099Y97761D01*
X308090Y97634D01*
X309082Y97508D01*
X310073Y97384D01*
X311065Y97261D01*
X312057Y97140D01*
X313049Y97020D01*
X314041Y96902D01*
X315034Y96785D01*
X316027Y96670D01*
X317020Y96557D01*
X318013Y96445D01*
X319006Y96334D01*
X319999Y96225D01*
X320993Y96118D01*
X321987Y96012D01*
X322980Y95908D01*
X323974Y95805D01*
X324969Y95704D01*
X325963Y95604D01*
X326958Y95506D01*
X327952Y95409D01*
X328947Y95314D01*
X329942Y95221D01*
X330937Y95129D01*
X331932Y95038D01*
X332928Y94950D01*
X333923Y94862D01*
X334919Y94776D01*
X335915Y94692D01*
X336911Y94609D01*
X337907Y94528D01*
X338903Y94449D01*
X339899Y94371D01*
X340896Y94294D01*
X341892Y94219D01*
X342889Y94146D01*
X343886Y94074D01*
X344883Y94004D01*
X345880Y93935D01*
X346877Y93868D01*
X347874Y93802D01*
X348871Y93738D01*
X349869Y93675D01*
X350866Y93614D01*
X351864Y93555D01*
X352861Y93497D01*
X353859Y93441D01*
X354857Y93386D01*
X355855Y93332D01*
X356853Y93281D01*
X357851Y93231D01*
X358849Y93182D01*
X359848Y93135D01*
X360846Y93089D01*
X361844Y93045D01*
X362843Y93003D01*
X363841Y92962D01*
X364840Y92923D01*
X365839Y92885D01*
X366837Y92849D01*
X367836Y92814D01*
X368835Y92781D01*
X369834Y92749D01*
X370833Y92719D01*
X371831Y92691D01*
X372831Y92664D01*
X373830Y92638D01*
X374829Y92615D01*
X375828Y92592D01*
X376827Y92572D01*
X377826Y92552D01*
X378825Y92535D01*
X379824Y92519D01*
X380824Y92504D01*
X381823Y92491D01*
X382822Y92480D01*
X383822Y92470D01*
X384821Y92462D01*
X385820Y92455D01*
X386820Y92450D01*
X387819Y92446D01*
X388818Y92444D01*
X389818Y92443D01*
X390817Y92444D01*
X391816Y92447D01*
X392816Y92451D01*
X393815Y92457D01*
X394814Y92464D01*
X395814Y92472D01*
X396813Y92483D01*
X397812Y92494D01*
X398812Y92508D01*
X399811Y92523D01*
X400810Y92539D01*
X401809Y92557D01*
X402809Y92577D01*
X403808Y92598D01*
X404807Y92621D01*
X405806Y92645D01*
X406805Y92671D01*
X407804Y92698D01*
X408803Y92727D01*
X409802Y92758D01*
X410801Y92790D01*
X411799Y92823D01*
X412798Y92858D01*
X413797Y92895D01*
X414795Y92933D01*
X415794Y92973D01*
X416792Y93014D01*
X417791Y93057D01*
X418789Y93101D01*
X419788Y93147D01*
X420786Y93195D01*
X421784Y93244D01*
X422782Y93295D01*
X423780Y93347D01*
X424778Y93400D01*
X425776Y93456D01*
X426774Y93512D01*
X427771Y93571D01*
X428769Y93631D01*
X429766Y93692D01*
X430764Y93755D01*
X431761Y93820D01*
X432758Y93886D01*
X433755Y93953D01*
X434752Y94023D01*
X435749Y94093D01*
X436746Y94165D01*
X437742Y94239D01*
X438739Y94315D01*
X439735Y94392D01*
X440731Y94470D01*
X441728Y94550D01*
X442724Y94632D01*
X443720Y94715D01*
X444715Y94799D01*
X445711Y94885D01*
X446706Y94973D01*
X447702Y95063D01*
X448697Y95153D01*
X449692Y95246D01*
X450687Y95340D01*
X451682Y95435D01*
X452676Y95532D01*
X453671Y95631D01*
X454665Y95731D01*
X455660Y95832D01*
X456654Y95935D01*
X457647Y96040D01*
X458641Y96146D01*
X459635Y96254D01*
X460628Y96364D01*
X461621Y96474D01*
X462614Y96587D01*
X463607Y96701D01*
X464600Y96816D01*
X465592Y96933D01*
X466584Y97052D01*
X467577Y97172D01*
X468569Y97294D01*
X469560Y97417D01*
X470552Y97542D01*
X471543Y97668D01*
X472534Y97796D01*
X473525Y97925D01*
X474516Y98056D01*
X475507Y98189D01*
X476497Y98322D01*
X477487Y98458D01*
X478477Y98595D01*
X479467Y98734D01*
X480456Y98874D01*
X481445Y99015D01*
X482435Y99159D01*
X483423Y99303D01*
X484412Y99450D01*
X485400Y99597D01*
X486388Y99747D01*
X487376Y99898D01*
X488364Y100050D01*
X489352Y100204D01*
X490339Y100359D01*
X491326Y100516D01*
X492312Y100675D01*
X493299Y100835D01*
X494285Y100996D01*
X495271Y101160D01*
X496257Y101324D01*
X497242Y101490D01*
X498227Y101658D01*
X499212Y101827D01*
X500197Y101998D01*
X501181Y102171D01*
X502165Y102344D01*
X503149Y102520D01*
X504133Y102697D01*
X505116Y102875D01*
X506099Y103055D01*
X507082Y103236D01*
X508064Y103419D01*
X509047Y103604D01*
X510029Y103790D01*
X511010Y103977D01*
X511991Y104166D01*
X512972Y104357D01*
X513953Y104549D01*
X514934Y104743D01*
X515914Y104938D01*
X516893Y105135D01*
X517873Y105333D01*
X518852Y105533D01*
X519831Y105734D01*
X520810Y105937D01*
X521788Y106141D01*
X522766Y106347D01*
X523743Y106554D01*
X524721Y106763D01*
X525698Y106973D01*
X526674Y107185D01*
X527651Y107398D01*
X528627Y107613D01*
X529602Y107830D01*
X530578Y108047D01*
X531553Y108267D01*
X532527Y108488D01*
X533501Y108710D01*
X534476Y108934D01*
X535449Y109160D01*
X536422Y109387D01*
X537395Y109615D01*
X538368Y109845D01*
X539340Y110077D01*
X540312Y110310D01*
X541283Y110545D01*
X542254Y110781D01*
X543225Y111018D01*
X544195Y111257D01*
X545165Y111498D01*
X546135Y111740D01*
X547104Y111983D01*
X548073Y112228D01*
X549041Y112475D01*
X550009Y112723D01*
X550977Y112973D01*
X551944Y113224D01*
X552911Y113476D01*
X553878Y113731D01*
X554844Y113986D01*
X555810Y114243D01*
X556775Y114502D01*
X557740Y114762D01*
X558705Y115023D01*
X559669Y115287D01*
X560632Y115551D01*
X561596Y115817D01*
X562559Y116085D01*
X563521Y116354D01*
X564483Y116624D01*
X565445Y116896D01*
X566406Y117170D01*
X567367Y117445D01*
X568327Y117721D01*
X569287Y117999D01*
X570246Y118279D01*
X571205Y118560D01*
X572164Y118842D01*
X573122Y119126D01*
X574080Y119412D01*
X575037Y119699D01*
X575994Y119987D01*
X576950Y120277D01*
X577906Y120569D01*
X578862Y120861D01*
X579817Y121156D01*
X580771Y121452D01*
X581726Y121749D01*
X582677Y122047D01*
X373327Y157543D02*
X373104Y156574D01*
X372978Y155588D01*
X372948Y154595D01*
X373017Y153603D01*
X373182Y152622D01*
X373442Y151663D01*
X373795Y150734D01*
X374238Y149844D01*
X374766Y149001D01*
X375373Y148214D01*
X376055Y147491D01*
X376805Y146838D01*
X377615Y146261D01*
X378478Y145767D01*
X379384Y145360D01*
X380327Y145043D01*
X391827Y145043D02*
X392776Y145434D01*
X393679Y145921D01*
X394526Y146500D01*
X395308Y147165D01*
X396016Y147908D01*
X396643Y148720D01*
X397181Y149594D01*
X397625Y150519D01*
X397971Y151486D01*
X398213Y152483D01*
X398349Y153500D01*
X398378Y154526D01*
X398300Y155549D01*
X398116Y156559D01*
X397827Y157543D01*
X224161Y590551D02*
X562992D01*
X525591Y340551D02*
X561024D01*
X525591D02*
Y387795D01*
X561024D01*
Y340551D02*
Y387795D01*
X460630Y340551D02*
X525591D01*
X460630D02*
Y387795D01*
X525591D01*
X448819Y350394D02*
X460630D01*
X448819D02*
Y377953D01*
X460630D01*
X448819Y340551D02*
X460630D01*
X448819D02*
Y387795D01*
X460630D01*
X525591Y334646D02*
Y340551D01*
X478346Y334646D02*
X525591D01*
X478346D02*
Y340551D01*
X525591Y328740D02*
Y340551D01*
Y316929D02*
Y328740D01*
X500000Y316929D02*
X525591D01*
X494094D02*
Y334646D01*
Y316929D02*
X498031D01*
X500000D01*
Y411417D02*
X525591D01*
X478346Y393701D02*
X525591D01*
X494094Y411417D02*
X498031D01*
X494094Y393701D02*
Y411417D01*
X525591Y387795D02*
Y399606D01*
X478346Y387795D02*
Y393701D01*
X525591Y399606D02*
Y411417D01*
Y387795D02*
Y393701D01*
X498031Y411417D02*
X500000D01*
X525591Y564961D02*
Y570866D01*
X478346Y564961D02*
Y570866D01*
X525591D01*
X478346Y511811D02*
Y517717D01*
Y511811D02*
X525591D01*
Y517717D01*
X448819Y564961D02*
X460630D01*
X448819Y517717D02*
Y564961D01*
Y517717D02*
X460630D01*
X448819Y555118D02*
X460630D01*
X448819Y527559D02*
Y555118D01*
Y527559D02*
X460630D01*
Y564961D02*
X525591D01*
X460630Y517717D02*
Y564961D01*
Y517717D02*
X525591D01*
X561024D02*
Y564961D01*
X525591D02*
X561024D01*
X525591Y517717D02*
Y564961D01*
Y517717D02*
X561024D01*
X261811Y511811D02*
Y517717D01*
X309055Y511811D02*
Y517717D01*
X261811Y511811D02*
X309055D01*
Y564961D02*
Y570866D01*
X261811D02*
X309055D01*
X261811Y564961D02*
Y570866D01*
X326772Y517717D02*
X338583D01*
Y564961D01*
X326772D02*
X338583D01*
X326772Y527559D02*
X338583D01*
Y555118D01*
X326772D02*
X338583D01*
X261811Y517717D02*
X326772D01*
Y564961D01*
X261811D02*
X326772D01*
X226378Y517717D02*
Y564961D01*
Y517717D02*
X261811D01*
Y564961D01*
X226378D02*
X261811D01*
X494094Y494095D02*
X525591D01*
X494094Y494095D02*
X494094Y494095D01*
X494094Y494095D02*
Y511811D01*
X478346D02*
X494094D01*
X478346D02*
Y564961D01*
X478346Y564961D01*
Y570866D01*
X478346Y570866D02*
X478346Y570866D01*
X478346Y570866D02*
X494094D01*
X494094Y570866D01*
Y588583D01*
X525591D01*
Y494095D02*
Y588583D01*
X494094Y316929D02*
X525591D01*
X494094Y316929D02*
X494094Y316929D01*
X494094Y316929D02*
Y334646D01*
X478346D02*
X494094D01*
X478346D02*
Y387795D01*
Y393701D01*
X494094D01*
Y411417D01*
X525591D01*
Y316929D02*
Y411417D01*
X525591Y316929D02*
X525591Y316929D01*
X525591Y316929D02*
X525591D01*
X226378Y387795D02*
X261811D01*
Y340551D02*
Y387795D01*
X226378Y340551D02*
X261811D01*
X226378D02*
Y387795D01*
X261811D02*
X326772D01*
Y340551D02*
Y387795D01*
X261811Y340551D02*
X326772D01*
Y377953D02*
X338583D01*
Y350394D02*
Y377953D01*
X326772Y350394D02*
X338583D01*
X326772Y387795D02*
X338583D01*
Y340551D02*
Y387795D01*
X326772Y340551D02*
X338583D01*
X261811Y387795D02*
Y393701D01*
X309055D01*
Y387795D02*
Y393701D01*
X261811Y387795D02*
Y399606D01*
Y411417D01*
X287402D01*
X293307Y393701D02*
Y411417D01*
X289370D02*
X293307D01*
X287402D02*
X289370D01*
X261811Y316929D02*
X287402D01*
X261811Y334646D02*
X309055D01*
X289370Y316929D02*
X293307D01*
Y334646D01*
X261811Y328740D02*
Y340551D01*
X309055Y334646D02*
Y340551D01*
X261811Y316929D02*
Y328740D01*
Y334646D02*
Y340551D01*
X287402Y316929D02*
X289370D01*
X261811Y411417D02*
X293307D01*
X293307Y411417D01*
Y393701D02*
Y411417D01*
Y393701D02*
X293307Y393701D01*
X309055D01*
Y387795D02*
Y393701D01*
Y387795D02*
X326772D01*
Y340551D02*
Y387795D01*
X326772Y340551D02*
X326772Y340551D01*
X309055Y340551D02*
X326772D01*
X309055Y334646D02*
Y340551D01*
X309055Y334646D02*
X309055Y334646D01*
X293307Y334646D02*
X309055D01*
X293307Y334646D02*
X293307Y334646D01*
X293307Y316929D02*
Y334646D01*
X293307Y316929D02*
X293307Y316929D01*
X261811Y316929D02*
X293307D01*
X261811Y316929D02*
X261811Y316929D01*
X261811Y316929D02*
Y411417D01*
X309055Y564961D02*
X326772D01*
Y517717D02*
Y564961D01*
X309055Y517717D02*
X326772D01*
X261811D02*
X309055D01*
X261811Y511811D02*
X293307D01*
X261811Y564961D02*
X309055D01*
X261811Y570866D02*
X293307D01*
X261811D02*
Y588583D01*
X293307D01*
Y570866D02*
Y588583D01*
Y570866D02*
X309055D01*
Y511811D02*
Y570866D01*
X293307Y511811D02*
X309055D01*
X293307Y494095D02*
Y511811D01*
X261811Y494095D02*
X293307D01*
X261811D02*
Y588583D01*
X224161Y590551D02*
X562992D01*
X204588Y120215D02*
X204724Y120079D01*
X204588Y120215D02*
Y124016D01*
X582677Y122047D02*
Y275590D01*
X562992D02*
X582677D01*
X562992Y275591D02*
Y590551D01*
X224161Y275342D02*
Y590551D01*
X204588Y124016D02*
Y275342D01*
X224161D01*
X562992Y275591D02*
X562992Y275590D01*
X562992D02*
X562992Y275591D01*
X373327Y157543D02*
X381327D01*
X397827D01*
X380327Y145043D02*
X391827D01*
X397669Y348425D02*
X391671D01*
X393670Y350425D01*
X391671Y352424D01*
X397669D01*
X391671Y354423D02*
X397669Y358422D01*
X391671D02*
X397669Y354423D01*
Y360421D02*
Y362421D01*
Y361421D01*
X391671D01*
X392670Y360421D01*
X396669Y365420D02*
X397669Y366419D01*
Y368419D01*
X396669Y369418D01*
X392670D01*
X391671Y368419D01*
Y366419D01*
X392670Y365420D01*
X393670D01*
X394670Y366419D01*
Y369418D01*
X397669Y371418D02*
Y373417D01*
Y372417D01*
X391671D01*
X392670Y371418D01*
X396669Y376416D02*
X397669Y377416D01*
Y379415D01*
X396669Y380415D01*
X392670D01*
X391671Y379415D01*
Y377416D01*
X392670Y376416D01*
X393670D01*
X394670Y377416D01*
Y380415D01*
X271654Y535433D02*
Y541431D01*
X273653Y539432D01*
X275652Y541431D01*
Y535433D01*
X278651D02*
X280651D01*
X281650Y536433D01*
Y538432D01*
X280651Y539432D01*
X278651D01*
X277652Y538432D01*
Y536433D01*
X278651Y535433D01*
X284649Y540431D02*
Y539432D01*
X283650D01*
X285649D01*
X284649D01*
Y536433D01*
X285649Y535433D01*
X289648D02*
X291647D01*
X292647Y536433D01*
Y538432D01*
X291647Y539432D01*
X289648D01*
X288648Y538432D01*
Y536433D01*
X289648Y535433D01*
X294646Y539432D02*
Y535433D01*
Y537432D01*
X295646Y538432D01*
X296645Y539432D01*
X297645D01*
X303643Y535433D02*
Y541431D01*
X300644Y538432D01*
X304643D01*
X486221Y539370D02*
Y545368D01*
X488220Y543369D01*
X490219Y545368D01*
Y539370D01*
X493218D02*
X495218D01*
X496217Y540370D01*
Y542369D01*
X495218Y543369D01*
X493218D01*
X492218Y542369D01*
Y540370D01*
X493218Y539370D01*
X499216Y544369D02*
Y543369D01*
X498217D01*
X500216D01*
X499216D01*
Y540370D01*
X500216Y539370D01*
X504215D02*
X506214D01*
X507214Y540370D01*
Y542369D01*
X506214Y543369D01*
X504215D01*
X503215Y542369D01*
Y540370D01*
X504215Y539370D01*
X509213Y543369D02*
Y539370D01*
Y541369D01*
X510213Y542369D01*
X511212Y543369D01*
X512212D01*
X515211Y544369D02*
X516211Y545368D01*
X518210D01*
X519210Y544369D01*
Y543369D01*
X518210Y542369D01*
X517210D01*
X518210D01*
X519210Y541369D01*
Y540370D01*
X518210Y539370D01*
X516211D01*
X515211Y540370D01*
X275590Y360236D02*
Y366234D01*
X277590Y364235D01*
X279589Y366234D01*
Y360236D01*
X282588D02*
X284588D01*
X285587Y361236D01*
Y363235D01*
X284588Y364235D01*
X282588D01*
X281589Y363235D01*
Y361236D01*
X282588Y360236D01*
X288586Y365235D02*
Y364235D01*
X287587D01*
X289586D01*
X288586D01*
Y361236D01*
X289586Y360236D01*
X293585D02*
X295584D01*
X296584Y361236D01*
Y363235D01*
X295584Y364235D01*
X293585D01*
X292585Y363235D01*
Y361236D01*
X293585Y360236D01*
X298583Y364235D02*
Y360236D01*
Y362236D01*
X299583Y363235D01*
X300583Y364235D01*
X301582D01*
X308580Y360236D02*
X304581D01*
X308580Y364235D01*
Y365235D01*
X307580Y366234D01*
X305581D01*
X304581Y365235D01*
X322835Y580709D02*
Y584707D01*
X324834D01*
X325500Y584041D01*
Y582708D01*
X324834Y582042D01*
X322835D01*
X324167D02*
X325500Y580709D01*
X329499D02*
X326833D01*
X329499Y583375D01*
Y584041D01*
X328833Y584707D01*
X327500D01*
X326833Y584041D01*
X330832Y580709D02*
X332165D01*
X331499D01*
Y584707D01*
X330832Y584041D01*
X458661Y584646D02*
Y588644D01*
X460661D01*
X461327Y587978D01*
Y586645D01*
X460661Y585979D01*
X458661D01*
X459994D02*
X461327Y584646D01*
X465326D02*
X462660D01*
X465326Y587312D01*
Y587978D01*
X464660Y588644D01*
X463327D01*
X462660Y587978D01*
X466659D02*
X467325Y588644D01*
X468658D01*
X469325Y587978D01*
Y585312D01*
X468658Y584646D01*
X467325D01*
X466659Y585312D01*
Y587978D01*
X240158Y566929D02*
Y570928D01*
X242157D01*
X242823Y570261D01*
Y568928D01*
X242157Y568262D01*
X240158D01*
X244156Y570928D02*
Y566929D01*
X245489Y568262D01*
X246822Y566929D01*
Y570928D01*
X248155Y566929D02*
Y570928D01*
X250154D01*
X250821Y570261D01*
Y568928D01*
X250154Y568262D01*
X248155D01*
X249488D02*
X250821Y566929D01*
X539370Y568898D02*
Y572896D01*
X541369D01*
X542036Y572230D01*
Y570897D01*
X541369Y570230D01*
X539370D01*
X543369Y572896D02*
Y568898D01*
X544702Y570230D01*
X546035Y568898D01*
Y572896D01*
X547367Y568898D02*
Y572896D01*
X549367D01*
X550033Y572230D01*
Y570897D01*
X549367Y570230D01*
X547367D01*
X548700D02*
X550033Y568898D01*
X533465Y257874D02*
Y262872D01*
X535964D01*
X536797Y262039D01*
Y260373D01*
X535964Y259540D01*
X533465D01*
X535131D02*
X536797Y257874D01*
X538463D02*
X540129D01*
X539296D01*
Y262872D01*
X538463Y262039D01*
X542628Y258707D02*
X543461Y257874D01*
X545127D01*
X545961Y258707D01*
Y262039D01*
X545127Y262872D01*
X543461D01*
X542628Y262039D01*
Y261206D01*
X543461Y260373D01*
X545961D01*
X226378Y253937D02*
Y258935D01*
X228877D01*
X229710Y258102D01*
Y256436D01*
X228877Y255603D01*
X226378D01*
X228044D02*
X229710Y253937D01*
X231376D02*
X233043D01*
X232209D01*
Y258935D01*
X231376Y258102D01*
X235542D02*
X236375Y258935D01*
X238041D01*
X238874Y258102D01*
Y257269D01*
X238041Y256436D01*
X238874Y255603D01*
Y254770D01*
X238041Y253937D01*
X236375D01*
X235542Y254770D01*
Y255603D01*
X236375Y256436D01*
X235542Y257269D01*
Y258102D01*
X236375Y256436D02*
X238041D01*
X543307Y277559D02*
Y282557D01*
X545806D01*
X546639Y281724D01*
Y280058D01*
X545806Y279225D01*
X543307D01*
X548306Y282557D02*
Y277559D01*
X549972Y279225D01*
X551638Y277559D01*
Y282557D01*
X553304Y277559D02*
Y282557D01*
X555803D01*
X556636Y281724D01*
Y280058D01*
X555803Y279225D01*
X553304D01*
X554970D02*
X556636Y277559D01*
X230315D02*
Y282557D01*
X232814D01*
X233647Y281724D01*
Y280058D01*
X232814Y279225D01*
X230315D01*
X235313Y282557D02*
Y277559D01*
X236980Y279225D01*
X238646Y277559D01*
Y282557D01*
X240312Y277559D02*
Y282557D01*
X242811D01*
X243644Y281724D01*
Y280058D01*
X242811Y279225D01*
X240312D01*
X241978D02*
X243644Y277559D01*
X252061Y224410D02*
X246063D01*
Y221410D01*
X247063Y220411D01*
X251061D01*
X252061Y221410D01*
Y224410D01*
X251061Y218411D02*
X252061Y217412D01*
Y215412D01*
X251061Y214413D01*
X250062D01*
X249062Y215412D01*
Y216412D01*
Y215412D01*
X248062Y214413D01*
X247063D01*
X246063Y215412D01*
Y217412D01*
X247063Y218411D01*
X345081Y239441D02*
Y238441D01*
X347080Y236442D01*
X349079Y238441D01*
Y239441D01*
X347080Y236442D02*
Y233443D01*
X355078D02*
X351079D01*
X355078Y237442D01*
Y238441D01*
X354078Y239441D01*
X352079D01*
X351079Y238441D01*
X507782Y210630D02*
X508781D01*
X510780Y212629D01*
X508781Y214629D01*
X507782D01*
X510780Y212629D02*
X513779D01*
Y216628D02*
Y218627D01*
Y217628D01*
X507782D01*
X508781Y216628D01*
X295100Y226730D02*
Y221731D01*
X296100Y220731D01*
X298099D01*
X299099Y221731D01*
Y226730D01*
X304097Y220731D02*
Y226730D01*
X301098Y223730D01*
X305097D01*
X387795Y415447D02*
Y410449D01*
X388795Y409449D01*
X390794D01*
X391794Y410449D01*
Y415447D01*
X393793Y414447D02*
X394793Y415447D01*
X396792D01*
X397792Y414447D01*
Y413448D01*
X396792Y412448D01*
X395793D01*
X396792D01*
X397792Y411448D01*
Y410449D01*
X396792Y409449D01*
X394793D01*
X393793Y410449D01*
X387795Y482376D02*
Y477378D01*
X388795Y476378D01*
X390794D01*
X391794Y477378D01*
Y482376D01*
X397792Y476378D02*
X393793D01*
X397792Y480377D01*
Y481376D01*
X396792Y482376D01*
X394793D01*
X393793Y481376D01*
X466374Y226667D02*
Y221668D01*
X467374Y220669D01*
X469373D01*
X470373Y221668D01*
Y226667D01*
X472372Y220669D02*
X474371D01*
X473372D01*
Y226667D01*
X472372Y225667D01*
X267900Y457700D02*
Y461699D01*
X269899D01*
X270566Y461032D01*
Y459699D01*
X269899Y459033D01*
X267900D01*
X269233D02*
X270566Y457700D01*
X271899D02*
X273232D01*
X272565D01*
Y461699D01*
X271899Y461032D01*
X277897Y461699D02*
X276564Y461032D01*
X275231Y459699D01*
Y458366D01*
X275897Y457700D01*
X277230D01*
X277897Y458366D01*
Y459033D01*
X277230Y459699D01*
X275231D01*
X385827Y527559D02*
X380828D01*
Y530058D01*
X381662Y530891D01*
X383328D01*
X384161Y530058D01*
Y527559D01*
Y529225D02*
X385827Y530891D01*
Y532557D02*
Y534224D01*
Y533391D01*
X380828D01*
X381662Y532557D01*
X380828Y540055D02*
Y536723D01*
X383328D01*
X382494Y538389D01*
Y539222D01*
X383328Y540055D01*
X384994D01*
X385827Y539222D01*
Y537556D01*
X384994Y536723D01*
X315100Y125000D02*
Y129998D01*
X317599D01*
X318432Y129165D01*
Y127499D01*
X317599Y126666D01*
X315100D01*
X316766D02*
X318432Y125000D01*
X320098D02*
X321764D01*
X320931D01*
Y129998D01*
X320098Y129165D01*
X326763Y125000D02*
Y129998D01*
X324264Y127499D01*
X327596D01*
X464000Y128300D02*
Y133298D01*
X466499D01*
X467332Y132465D01*
Y130799D01*
X466499Y129966D01*
X464000D01*
X465666D02*
X467332Y128300D01*
X468998D02*
X470665D01*
X469831D01*
Y133298D01*
X468998Y132465D01*
X473164D02*
X473997Y133298D01*
X475663D01*
X476496Y132465D01*
Y131632D01*
X475663Y130799D01*
X474830D01*
X475663D01*
X476496Y129966D01*
Y129133D01*
X475663Y128300D01*
X473997D01*
X473164Y129133D01*
X340669Y152500D02*
Y158498D01*
X343668D01*
X344667Y157498D01*
Y155499D01*
X343668Y154499D01*
X340669D01*
X342668D02*
X344667Y152500D01*
X346667D02*
X348666D01*
X347666D01*
Y158498D01*
X346667Y157498D01*
X355664Y152500D02*
X351665D01*
X355664Y156499D01*
Y157498D01*
X354664Y158498D01*
X352665D01*
X351665Y157498D01*
X340726Y168263D02*
Y174261D01*
X343725D01*
X344725Y173261D01*
Y171262D01*
X343725Y170262D01*
X340726D01*
X342725D02*
X344725Y168263D01*
X346724D02*
X348723D01*
X347724D01*
Y174261D01*
X346724Y173261D01*
X351722Y168263D02*
X353722D01*
X352722D01*
Y174261D01*
X351722Y173261D01*
X564961Y204724D02*
Y208723D01*
X566960D01*
X567626Y208057D01*
Y206724D01*
X566960Y206057D01*
X564961D01*
X566293D02*
X567626Y204724D01*
X568959D02*
X570292D01*
X569626D01*
Y208723D01*
X568959Y208057D01*
X572292D02*
X572958Y208723D01*
X574291D01*
X574957Y208057D01*
Y205391D01*
X574291Y204724D01*
X572958D01*
X572292Y205391D01*
Y208057D01*
X547244Y187008D02*
Y191007D01*
X549243D01*
X549910Y190340D01*
Y189007D01*
X549243Y188341D01*
X547244D01*
X548577D02*
X549910Y187008D01*
X551243Y187674D02*
X551909Y187008D01*
X553242D01*
X553909Y187674D01*
Y190340D01*
X553242Y191007D01*
X551909D01*
X551243Y190340D01*
Y189674D01*
X551909Y189007D01*
X553909D01*
X208800Y197815D02*
Y203813D01*
X211799D01*
X212799Y202813D01*
Y200814D01*
X211799Y199814D01*
X208800D01*
X210799D02*
X212799Y197815D01*
X214798Y202813D02*
X215798Y203813D01*
X217797D01*
X218797Y202813D01*
Y201814D01*
X217797Y200814D01*
X218797Y199814D01*
Y198815D01*
X217797Y197815D01*
X215798D01*
X214798Y198815D01*
Y199814D01*
X215798Y200814D01*
X214798Y201814D01*
Y202813D01*
X215798Y200814D02*
X217797D01*
X253937Y265748D02*
Y269747D01*
X255936D01*
X256603Y269080D01*
Y267747D01*
X255936Y267081D01*
X253937D01*
X255270D02*
X256603Y265748D01*
X257936Y269747D02*
X260601D01*
Y269080D01*
X257936Y266414D01*
Y265748D01*
X536469Y247932D02*
Y253930D01*
X539467D01*
X540467Y252930D01*
Y250931D01*
X539467Y249931D01*
X536469D01*
X538468D02*
X540467Y247932D01*
X546465Y253930D02*
X544466Y252930D01*
X542467Y250931D01*
Y248931D01*
X543466Y247932D01*
X545466D01*
X546465Y248931D01*
Y249931D01*
X545466Y250931D01*
X542467D01*
X572835Y187008D02*
Y191007D01*
X574834D01*
X575500Y190340D01*
Y189007D01*
X574834Y188341D01*
X572835D01*
X574168D02*
X575500Y187008D01*
X579499Y191007D02*
X576833D01*
Y189007D01*
X578166Y189674D01*
X578833D01*
X579499Y189007D01*
Y187674D01*
X578833Y187008D01*
X577500D01*
X576833Y187674D01*
X230517Y197830D02*
Y203828D01*
X233516D01*
X234515Y202828D01*
Y200829D01*
X233516Y199829D01*
X230517D01*
X232516D02*
X234515Y197830D01*
X239514D02*
Y203828D01*
X236515Y200829D01*
X240513D01*
X275590Y265748D02*
Y269747D01*
X277590D01*
X278256Y269080D01*
Y267747D01*
X277590Y267081D01*
X275590D01*
X276923D02*
X278256Y265748D01*
X279589Y269080D02*
X280256Y269747D01*
X281589D01*
X282255Y269080D01*
Y268414D01*
X281589Y267747D01*
X280922D01*
X281589D01*
X282255Y267081D01*
Y266414D01*
X281589Y265748D01*
X280256D01*
X279589Y266414D01*
X474409Y440945D02*
Y446943D01*
X477409D01*
X478408Y445943D01*
Y443944D01*
X477409Y442944D01*
X474409D01*
X476409D02*
X478408Y440945D01*
X484406D02*
X480407D01*
X484406Y444944D01*
Y445943D01*
X483406Y446943D01*
X481407D01*
X480407Y445943D01*
X297244Y468504D02*
Y473502D01*
X299743D01*
X300576Y472669D01*
Y471003D01*
X299743Y470170D01*
X297244D01*
X298910D02*
X300576Y468504D01*
X302242D02*
X303909D01*
X303076D01*
Y473502D01*
X302242Y472669D01*
X377491Y162078D02*
Y166077D01*
X376491Y167077D01*
X374492D01*
X373492Y166077D01*
Y162078D01*
X374492Y161079D01*
X376491D01*
X375491Y163078D02*
X377491Y161079D01*
X376491D02*
X377491Y162078D01*
X383489Y161079D02*
X379490D01*
X383489Y165077D01*
Y166077D01*
X382489Y167077D01*
X380490D01*
X379490Y166077D01*
X410387Y564961D02*
X413386D01*
Y566460D01*
X412886Y566960D01*
X412386D01*
X411886Y566460D01*
Y564961D01*
Y566460D01*
X411386Y566960D01*
X410887D01*
X410387Y566460D01*
Y564961D01*
Y567960D02*
X412886D01*
X413386Y568460D01*
Y569459D01*
X412886Y569959D01*
X410387D01*
X410887Y572958D02*
X410387Y572458D01*
Y571458D01*
X410887Y570959D01*
X412886D01*
X413386Y571458D01*
Y572458D01*
X412886Y572958D01*
X410387Y573958D02*
X413386D01*
X412386D01*
X410387Y575957D01*
X411886Y574458D01*
X413386Y575957D01*
X413886Y576957D02*
Y578956D01*
X410387Y581455D02*
Y580456D01*
X410887Y579956D01*
X412886D01*
X413386Y580456D01*
Y581455D01*
X412886Y581955D01*
X410887D01*
X410387Y581455D01*
Y582955D02*
X412886D01*
X413386Y583455D01*
Y584454D01*
X412886Y584954D01*
X410387D01*
Y585954D02*
Y587953D01*
Y586953D01*
X413386D01*
X449757Y568898D02*
X452756D01*
Y570397D01*
X452256Y570897D01*
X451756D01*
X451256Y570397D01*
Y568898D01*
Y570397D01*
X450757Y570897D01*
X450257D01*
X449757Y570397D01*
Y568898D01*
Y571897D02*
X452256D01*
X452756Y572397D01*
Y573396D01*
X452256Y573896D01*
X449757D01*
X450257Y576895D02*
X449757Y576395D01*
Y575395D01*
X450257Y574896D01*
X452256D01*
X452756Y575395D01*
Y576395D01*
X452256Y576895D01*
X449757Y577895D02*
X452756D01*
X451756D01*
X449757Y579894D01*
X451256Y578395D01*
X452756Y579894D01*
X453256Y580894D02*
Y582893D01*
X449757Y583893D02*
Y584893D01*
Y584393D01*
X452756D01*
Y583893D01*
Y584893D01*
Y586392D02*
X449757D01*
X452756Y588391D01*
X449757D01*
X381890Y559055D02*
X376891D01*
X378557Y560721D01*
X376891Y562387D01*
X381890D01*
X376891Y564053D02*
Y567386D01*
Y565720D01*
X381890D01*
X382723Y569052D02*
Y572384D01*
X377724Y577383D02*
X376891Y576549D01*
Y574883D01*
X377724Y574050D01*
X378557D01*
X379391Y574883D01*
Y576549D01*
X380224Y577383D01*
X381057D01*
X381890Y576549D01*
Y574883D01*
X381057Y574050D01*
X376891Y579049D02*
X381890D01*
X380224Y580715D01*
X381890Y582381D01*
X376891D01*
X358268Y551181D02*
X353269D01*
X354936Y552847D01*
X353269Y554513D01*
X358268D01*
Y556180D02*
X354936D01*
X353269Y557846D01*
X354936Y559512D01*
X358268D01*
X355768D01*
Y556180D01*
X353269Y561178D02*
Y562844D01*
Y562011D01*
X358268D01*
Y561178D01*
Y562844D01*
Y565343D02*
X353269D01*
X358268Y568675D01*
X353269D01*
X359101Y570342D02*
Y573674D01*
X354102Y578672D02*
X353269Y577839D01*
Y576173D01*
X354102Y575340D01*
X354936D01*
X355768Y576173D01*
Y577839D01*
X356602Y578672D01*
X357435D01*
X358268Y577839D01*
Y576173D01*
X357435Y575340D01*
X353269Y580338D02*
X358268D01*
X356602Y582004D01*
X358268Y583671D01*
X353269D01*
X400513Y562992D02*
X405512D01*
Y565491D01*
X404679Y566324D01*
X403846D01*
X403013Y565491D01*
Y562992D01*
Y565491D01*
X402180Y566324D01*
X401346D01*
X400513Y565491D01*
Y562992D01*
X405512Y567990D02*
X402180D01*
X400513Y569657D01*
X402180Y571323D01*
X405512D01*
X403013D01*
Y567990D01*
X400513Y572989D02*
Y576321D01*
Y574655D01*
X405512D01*
X400513Y577987D02*
Y581320D01*
Y579653D01*
X405512D01*
X497400Y450398D02*
Y445400D01*
X499899D01*
X500732Y446233D01*
Y447066D01*
X499899Y447899D01*
X497400D01*
X499899D01*
X500732Y448732D01*
Y449565D01*
X499899Y450398D01*
X497400D01*
X502398D02*
Y446233D01*
X503231Y445400D01*
X504898D01*
X505731Y446233D01*
Y450398D01*
X507397D02*
X510729D01*
Y449565D01*
X507397Y446233D01*
Y445400D01*
X510729D01*
X512395Y450398D02*
X515727D01*
Y449565D01*
X512395Y446233D01*
Y445400D01*
X515727D01*
X382587Y113568D02*
X381921Y114235D01*
X380588D01*
X379921Y113568D01*
Y112902D01*
X380588Y112236D01*
X381921D01*
X382587Y111569D01*
Y110903D01*
X381921Y110236D01*
X380588D01*
X379921Y110903D01*
X385919Y114235D02*
X384586D01*
X383920Y113568D01*
Y110903D01*
X384586Y110236D01*
X385919D01*
X386586Y110903D01*
Y113568D01*
X385919Y114235D01*
X387919Y110236D02*
Y114235D01*
X390584Y110236D01*
Y114235D01*
X391917Y110236D02*
Y114235D01*
X393917D01*
X394583Y113568D01*
Y112236D01*
X393917Y111569D01*
X391917D01*
X393250D02*
X394583Y110236D01*
X395916D02*
X397249D01*
X396583D01*
Y114235D01*
X395916Y113568D01*
X545556Y470873D02*
X544890Y471540D01*
X543557D01*
X542891Y470873D01*
Y470207D01*
X543557Y469540D01*
X544890D01*
X545556Y468874D01*
Y468207D01*
X544890Y467541D01*
X543557D01*
X542891Y468207D01*
X548889Y471540D02*
X547556D01*
X546889Y470873D01*
Y468207D01*
X547556Y467541D01*
X548889D01*
X549555Y468207D01*
Y470873D01*
X548889Y471540D01*
X550888Y467541D02*
Y471540D01*
X553554Y467541D01*
Y471540D01*
X554887Y467541D02*
Y471540D01*
X556886D01*
X557552Y470873D01*
Y469540D01*
X556886Y468874D01*
X554887D01*
X556220D02*
X557552Y467541D01*
X561551D02*
X558885D01*
X561551Y470207D01*
Y470873D01*
X560885Y471540D01*
X559552D01*
X558885Y470873D01*
X234466Y470432D02*
X233799Y471099D01*
X232466D01*
X231800Y470432D01*
Y469766D01*
X232466Y469099D01*
X233799D01*
X234466Y468433D01*
Y467766D01*
X233799Y467100D01*
X232466D01*
X231800Y467766D01*
X237798Y471099D02*
X236465D01*
X235799Y470432D01*
Y467766D01*
X236465Y467100D01*
X237798D01*
X238464Y467766D01*
Y470432D01*
X237798Y471099D01*
X239797Y467100D02*
Y471099D01*
X242463Y467100D01*
Y471099D01*
X243796Y467100D02*
Y471099D01*
X245795D01*
X246462Y470432D01*
Y469099D01*
X245795Y468433D01*
X243796D01*
X245129D02*
X246462Y467100D01*
X247795Y470432D02*
X248461Y471099D01*
X249794D01*
X250461Y470432D01*
Y469766D01*
X249794Y469099D01*
X249128D01*
X249794D01*
X250461Y468433D01*
Y467766D01*
X249794Y467100D01*
X248461D01*
X247795Y467766D01*
X309055Y300274D02*
X310721D01*
X309888D01*
Y295276D01*
X309055D01*
X310721D01*
X316553Y299441D02*
X315720Y300274D01*
X314054D01*
X313220Y299441D01*
Y298608D01*
X314054Y297775D01*
X315720D01*
X316553Y296942D01*
Y296109D01*
X315720Y295276D01*
X314054D01*
X313220Y296109D01*
X318219Y295276D02*
Y300274D01*
X320718D01*
X321551Y299441D01*
Y297775D01*
X320718Y296942D01*
X318219D01*
X328216Y295276D02*
Y300274D01*
X330715D01*
X331548Y299441D01*
Y297775D01*
X330715Y296942D01*
X328216D01*
X333214Y295276D02*
Y300274D01*
X335713D01*
X336546Y299441D01*
Y297775D01*
X335713Y296942D01*
X333214D01*
X334880D02*
X336546Y295276D01*
X341545Y299441D02*
X340711Y300274D01*
X339045D01*
X338212Y299441D01*
Y296109D01*
X339045Y295276D01*
X340711D01*
X341545Y296109D01*
Y297775D01*
X339879D01*
X344877Y295276D02*
X343211Y296942D01*
Y298608D01*
X344877Y300274D01*
X350708Y295276D02*
X347376D01*
X350708Y298608D01*
Y299441D01*
X349875Y300274D01*
X348209D01*
X347376Y299441D01*
X352374Y295276D02*
X354041Y296942D01*
Y298608D01*
X352374Y300274D01*
X267300Y161098D02*
Y156100D01*
X268300Y155100D01*
X270299D01*
X271299Y156100D01*
Y161098D01*
X273298Y155100D02*
Y159099D01*
X275297Y161098D01*
X277297Y159099D01*
Y155100D01*
Y158099D01*
X273298D01*
X279296Y155100D02*
Y161098D01*
X282295D01*
X283295Y160098D01*
Y158099D01*
X282295Y157099D01*
X279296D01*
X281295D02*
X283295Y155100D01*
X285294Y161098D02*
X289293D01*
X287294D01*
Y155100D01*
X291292Y154100D02*
X295291D01*
X301289Y155100D02*
X297290D01*
X301289Y159099D01*
Y160098D01*
X300289Y161098D01*
X298290D01*
X297290Y160098D01*
X259238Y308148D02*
X255906D01*
Y303150D01*
X259238D01*
X255906Y305649D02*
X257572D01*
X260904Y303150D02*
Y308148D01*
X264236Y303150D01*
Y308148D01*
X269234Y307315D02*
X268402Y308148D01*
X266735D01*
X265902Y307315D01*
Y303983D01*
X266735Y303150D01*
X268402D01*
X269234Y303983D01*
X270901Y302317D02*
X274233D01*
X279231Y303150D02*
X275899D01*
X279231Y306482D01*
Y307315D01*
X278398Y308148D01*
X276732D01*
X275899Y307315D01*
X524986Y310117D02*
X521654D01*
Y305118D01*
X524986D01*
X521654Y307617D02*
X523320D01*
X526652Y305118D02*
Y310117D01*
X529984Y305118D01*
Y310117D01*
X534983Y309283D02*
X534150Y310117D01*
X532483D01*
X531650Y309283D01*
Y305951D01*
X532483Y305118D01*
X534150D01*
X534983Y305951D01*
X536649Y304285D02*
X539981D01*
X541647Y305118D02*
X543313D01*
X542480D01*
Y310117D01*
X541647Y309283D01*
X456693Y300274D02*
X458359D01*
X457526D01*
Y295276D01*
X456693D01*
X458359D01*
X464190Y299441D02*
X463357Y300274D01*
X461691D01*
X460858Y299441D01*
Y298608D01*
X461691Y297775D01*
X463357D01*
X464190Y296942D01*
Y296109D01*
X463357Y295276D01*
X461691D01*
X460858Y296109D01*
X465857Y295276D02*
Y300274D01*
X468356D01*
X469189Y299441D01*
Y297775D01*
X468356Y296942D01*
X465857D01*
X475853Y295276D02*
Y300274D01*
X478353D01*
X479186Y299441D01*
Y297775D01*
X478353Y296942D01*
X475853D01*
X480852Y295276D02*
Y300274D01*
X483351D01*
X484184Y299441D01*
Y297775D01*
X483351Y296942D01*
X480852D01*
X482518D02*
X484184Y295276D01*
X489182Y299441D02*
X488349Y300274D01*
X486683D01*
X485850Y299441D01*
Y296109D01*
X486683Y295276D01*
X488349D01*
X489182Y296109D01*
Y297775D01*
X487516D01*
X492515Y295276D02*
X490848Y296942D01*
Y298608D01*
X492515Y300274D01*
X495014Y295276D02*
X496680D01*
X495847D01*
Y300274D01*
X495014Y299441D01*
X499179Y295276D02*
X500845Y296942D01*
Y298608D01*
X499179Y300274D01*
X481800Y161098D02*
Y156100D01*
X482800Y155100D01*
X484799D01*
X485799Y156100D01*
Y161098D01*
X487798Y155100D02*
Y159099D01*
X489797Y161098D01*
X491797Y159099D01*
Y155100D01*
Y158099D01*
X487798D01*
X493796Y155100D02*
Y161098D01*
X496795D01*
X497795Y160098D01*
Y158099D01*
X496795Y157099D01*
X493796D01*
X495795D02*
X497795Y155100D01*
X499794Y161098D02*
X503793D01*
X501793D01*
Y155100D01*
X505792Y154100D02*
X509791D01*
X511790Y155100D02*
X513790D01*
X512790D01*
Y161098D01*
X511790Y160098D01*
X346000Y510298D02*
X347666D01*
X346833D01*
Y505300D01*
X346000D01*
X347666D01*
X353498D02*
X350165D01*
X353498Y508632D01*
Y509465D01*
X352664Y510298D01*
X350998D01*
X350165Y509465D01*
X358496D02*
X357663Y510298D01*
X355997D01*
X355164Y509465D01*
Y506133D01*
X355997Y505300D01*
X357663D01*
X358496Y506133D01*
X360162Y504467D02*
X363494D01*
X365160Y509465D02*
X365993Y510298D01*
X367660D01*
X368493Y509465D01*
Y508632D01*
X367660Y507799D01*
X366827D01*
X367660D01*
X368493Y506966D01*
Y506133D01*
X367660Y505300D01*
X365993D01*
X365160Y506133D01*
X379921Y299305D02*
X381921D01*
X380921D01*
Y293307D01*
X379921D01*
X381921D01*
X388918D02*
X384920D01*
X388918Y297306D01*
Y298306D01*
X387919Y299305D01*
X385919D01*
X384920Y298306D01*
X394916D02*
X393917Y299305D01*
X391917D01*
X390918Y298306D01*
Y294307D01*
X391917Y293307D01*
X393917D01*
X394916Y294307D01*
X396916Y292307D02*
X400914D01*
X402914Y293307D02*
X404913D01*
X403913D01*
Y299305D01*
X402914Y298306D01*
X280589Y255906D02*
Y254239D01*
Y255072D01*
X275590D01*
Y255906D01*
Y254239D01*
Y248408D02*
Y251740D01*
X278923Y248408D01*
X279756D01*
X280589Y249241D01*
Y250907D01*
X279756Y251740D01*
Y243409D02*
X280589Y244243D01*
Y245909D01*
X279756Y246742D01*
X276424D01*
X275590Y245909D01*
Y244243D01*
X276424Y243409D01*
X274758Y241743D02*
Y238411D01*
X275590Y233413D02*
Y236745D01*
X278923Y233413D01*
X279756D01*
X280589Y234246D01*
Y235912D01*
X279756Y236745D01*
X402600Y510498D02*
Y505500D01*
X403600Y504500D01*
X405599D01*
X406599Y505500D01*
Y510498D01*
X408598Y504500D02*
Y508499D01*
X410597Y510498D01*
X412597Y508499D01*
Y504500D01*
Y507499D01*
X408598D01*
X414596Y504500D02*
Y510498D01*
X417595D01*
X418595Y509498D01*
Y507499D01*
X417595Y506499D01*
X414596D01*
X416596D02*
X418595Y504500D01*
X420594Y510498D02*
X424593D01*
X422593D01*
Y504500D01*
X484252Y360236D02*
Y366234D01*
X486251Y364235D01*
X488251Y366234D01*
Y360236D01*
X491250D02*
X493249D01*
X494249Y361236D01*
Y363235D01*
X493249Y364235D01*
X491250D01*
X490250Y363235D01*
Y361236D01*
X491250Y360236D01*
X497248Y365235D02*
Y364235D01*
X496248D01*
X498247D01*
X497248D01*
Y361236D01*
X498247Y360236D01*
X502246D02*
X504246D01*
X505245Y361236D01*
Y363235D01*
X504246Y364235D01*
X502246D01*
X501247Y363235D01*
Y361236D01*
X502246Y360236D01*
X507244Y364235D02*
Y360236D01*
Y362236D01*
X508244Y363235D01*
X509244Y364235D01*
X510244D01*
X513243Y360236D02*
X515242D01*
X514242D01*
Y366234D01*
X513243Y365235D01*
X385889Y132889D02*
Y136888D01*
X384889Y137888D01*
X382889D01*
X381890Y136888D01*
Y132889D01*
X382889Y131890D01*
X384889D01*
X383889Y133889D02*
X385889Y131890D01*
X384889D02*
X385889Y132889D01*
X387888Y137888D02*
X391886D01*
X389887D01*
Y131890D01*
X393886D02*
Y137888D01*
X396885D01*
X397885Y136888D01*
Y134889D01*
X396885Y133889D01*
X393886D01*
X395885D02*
X397885Y131890D01*
X259842Y423228D02*
Y429226D01*
X261842Y427227D01*
X263841Y429226D01*
Y423228D01*
X268840Y429226D02*
X266840D01*
X265841Y428227D01*
Y424228D01*
X266840Y423228D01*
X268840D01*
X269839Y424228D01*
Y428227D01*
X268840Y429226D01*
X271839D02*
X275837D01*
X273838D01*
Y423228D01*
X277837Y422229D02*
X281835D01*
X283835Y423228D02*
Y429226D01*
X286834D01*
X287833Y428227D01*
Y426227D01*
X286834Y425228D01*
X283835D01*
X289833Y429226D02*
Y423228D01*
X291832Y425228D01*
X293831Y423228D01*
Y429226D01*
X419291Y545276D02*
X423290D01*
Y543276D01*
X422624Y542610D01*
X421291D01*
X420624Y543276D01*
Y545276D01*
X423290Y541277D02*
X419291D01*
X420624Y539944D01*
X419291Y538611D01*
X423290D01*
X419291Y537278D02*
X423290D01*
Y535279D01*
X422624Y534612D01*
X421291D01*
X420624Y535279D01*
Y537278D01*
Y535945D02*
X419291Y534612D01*
X418625Y533280D02*
Y530614D01*
X419291Y529281D02*
X423290D01*
X421957Y527948D01*
X423290Y526615D01*
X419291D01*
Y525282D02*
X421957D01*
X423290Y523949D01*
X421957Y522616D01*
X419291D01*
X421291D01*
Y525282D01*
X423290Y521283D02*
Y519950D01*
Y520617D01*
X419291D01*
Y521283D01*
Y519950D01*
Y517951D02*
X423290D01*
X419291Y515285D01*
X423290D01*
X276954Y110465D02*
X276121Y111298D01*
X274455D01*
X273622Y110465D01*
Y107132D01*
X274455Y106299D01*
X276121D01*
X276954Y107132D01*
Y108798D01*
X275288D01*
X278620Y106299D02*
Y111298D01*
X281120D01*
X281953Y110465D01*
Y108798D01*
X281120Y107965D01*
X278620D01*
X283619Y105466D02*
X286951D01*
X288617Y111298D02*
Y106299D01*
X291949D01*
X296948Y111298D02*
X293616D01*
Y106299D01*
X296948D01*
X293616Y108798D02*
X295282D01*
X298614Y111298D02*
Y106299D01*
X301113D01*
X301946Y107132D01*
Y110465D01*
X301113Y111298D01*
X298614D01*
X306945Y106299D02*
X303612D01*
X306945Y109632D01*
Y110465D01*
X306112Y111298D01*
X304445D01*
X303612Y110465D01*
X481679D02*
X480846Y111298D01*
X479179D01*
X478346Y110465D01*
Y107132D01*
X479179Y106299D01*
X480846D01*
X481679Y107132D01*
Y108798D01*
X480013D01*
X483345Y106299D02*
Y111298D01*
X485844D01*
X486677Y110465D01*
Y108798D01*
X485844Y107965D01*
X483345D01*
X488343Y105466D02*
X491676D01*
X493342Y111298D02*
Y106299D01*
X496674D01*
X501672Y111298D02*
X498340D01*
Y106299D01*
X501672D01*
X498340Y108798D02*
X500006D01*
X503338Y111298D02*
Y106299D01*
X505838D01*
X506671Y107132D01*
Y110465D01*
X505838Y111298D01*
X503338D01*
X508337Y106299D02*
X510003D01*
X509170D01*
Y111298D01*
X508337Y110465D01*
X560931Y236221D02*
X566929D01*
Y239219D01*
X565929Y240219D01*
X561931D01*
X560931Y239219D01*
Y236221D01*
X566929Y242218D02*
Y244218D01*
Y243218D01*
X560931D01*
X561931Y242218D01*
Y247217D02*
X560931Y248217D01*
Y250216D01*
X561931Y251216D01*
X565929D01*
X566929Y250216D01*
Y248217D01*
X565929Y247217D01*
X561931D01*
X547244Y157573D02*
Y151575D01*
X550243D01*
X551243Y152575D01*
Y156573D01*
X550243Y157573D01*
X547244D01*
X553242Y152575D02*
X554242Y151575D01*
X556241D01*
X557241Y152575D01*
Y156573D01*
X556241Y157573D01*
X554242D01*
X553242Y156573D01*
Y155573D01*
X554242Y154574D01*
X557241D01*
X208674Y182456D02*
Y176458D01*
X211673D01*
X212673Y177457D01*
Y181456D01*
X211673Y182456D01*
X208674D01*
X214672Y181456D02*
X215672Y182456D01*
X217671D01*
X218671Y181456D01*
Y180456D01*
X217671Y179456D01*
X218671Y178457D01*
Y177457D01*
X217671Y176458D01*
X215672D01*
X214672Y177457D01*
Y178457D01*
X215672Y179456D01*
X214672Y180456D01*
Y181456D01*
X215672Y179456D02*
X217671D01*
X252061Y246063D02*
X246063D01*
Y243064D01*
X247063Y242064D01*
X251061D01*
X252061Y243064D01*
Y246063D01*
Y240065D02*
Y236066D01*
X251061D01*
X247063Y240065D01*
X246063D01*
X560931Y218504D02*
X566929D01*
Y221503D01*
X565929Y222503D01*
X561931D01*
X560931Y221503D01*
Y218504D01*
Y228501D02*
X561931Y226501D01*
X563930Y224502D01*
X565929D01*
X566929Y225502D01*
Y227501D01*
X565929Y228501D01*
X564930D01*
X563930Y227501D01*
Y224502D01*
X566929Y157573D02*
Y151575D01*
X569928D01*
X570928Y152575D01*
Y156573D01*
X569928Y157573D01*
X566929D01*
X576926D02*
X572927D01*
Y154574D01*
X574927Y155573D01*
X575926D01*
X576926Y154574D01*
Y152575D01*
X575926Y151575D01*
X573927D01*
X572927Y152575D01*
X228306Y182513D02*
Y176515D01*
X231305D01*
X232304Y177515D01*
Y181513D01*
X231305Y182513D01*
X228306D01*
X237303Y176515D02*
Y182513D01*
X234304Y179514D01*
X238302D01*
X472441Y494187D02*
Y488189D01*
X475440D01*
X476440Y489189D01*
Y493187D01*
X475440Y494187D01*
X472441D01*
X482438Y488189D02*
X478439D01*
X482438Y492188D01*
Y493187D01*
X481438Y494187D01*
X479439D01*
X478439Y493187D01*
X336614Y403636D02*
Y397638D01*
X339613D01*
X340613Y398638D01*
Y402636D01*
X339613Y403636D01*
X336614D01*
X342612Y397638D02*
X344612D01*
X343612D01*
Y403636D01*
X342612Y402636D01*
X530225Y158844D02*
X529558Y159511D01*
X528226D01*
X527559Y158844D01*
Y156178D01*
X528226Y155512D01*
X529558D01*
X530225Y156178D01*
X531558Y158844D02*
X532224Y159511D01*
X533557D01*
X534224Y158844D01*
Y158178D01*
X533557Y157511D01*
X534224Y156845D01*
Y156178D01*
X533557Y155512D01*
X532224D01*
X531558Y156178D01*
Y156845D01*
X532224Y157511D01*
X531558Y158178D01*
Y158844D01*
X532224Y157511D02*
X533557D01*
X267639Y199319D02*
X266640Y200319D01*
X264640D01*
X263640Y199319D01*
Y195321D01*
X264640Y194321D01*
X266640D01*
X267639Y195321D01*
X269639Y200319D02*
X273637D01*
Y199319D01*
X269639Y195321D01*
Y194321D01*
X373299Y229267D02*
X372299Y230267D01*
X370300D01*
X369300Y229267D01*
Y225268D01*
X370300Y224269D01*
X372299D01*
X373299Y225268D01*
X379297Y230267D02*
X377297Y229267D01*
X375298Y227268D01*
Y225268D01*
X376298Y224269D01*
X378297D01*
X379297Y225268D01*
Y226268D01*
X378297Y227268D01*
X375298D01*
X373330Y211504D02*
X372330Y212504D01*
X370331D01*
X369332Y211504D01*
Y207505D01*
X370331Y206505D01*
X372330D01*
X373330Y207505D01*
X379328Y212504D02*
X375330D01*
Y209505D01*
X377329Y210504D01*
X378329D01*
X379328Y209505D01*
Y207505D01*
X378329Y206505D01*
X376329D01*
X375330Y207505D01*
X460553Y437508D02*
X459553Y438508D01*
X457554D01*
X456554Y437508D01*
Y433509D01*
X457554Y432510D01*
X459553D01*
X460553Y433509D01*
X465551Y432510D02*
Y438508D01*
X462552Y435509D01*
X466551D01*
X302432Y438665D02*
X301599Y439498D01*
X299933D01*
X299100Y438665D01*
Y435333D01*
X299933Y434500D01*
X301599D01*
X302432Y435333D01*
X304098Y438665D02*
X304931Y439498D01*
X306598D01*
X307431Y438665D01*
Y437832D01*
X306598Y436999D01*
X305765D01*
X306598D01*
X307431Y436166D01*
Y435333D01*
X306598Y434500D01*
X304931D01*
X304098Y435333D01*
X560419Y207964D02*
X561085Y208631D01*
Y209963D01*
X560419Y210630D01*
X557753D01*
X557087Y209963D01*
Y208631D01*
X557753Y207964D01*
X557087Y203965D02*
Y206631D01*
X559752Y203965D01*
X560419D01*
X561085Y204632D01*
Y205965D01*
X560419Y206631D01*
Y196153D02*
X561085Y196820D01*
Y198152D01*
X560419Y198819D01*
X557753D01*
X557087Y198152D01*
Y196820D01*
X557753Y196153D01*
X557087Y194820D02*
Y193487D01*
Y194154D01*
X561085D01*
X560419Y194820D01*
X484252Y139825D02*
Y137160D01*
X485585Y135827D01*
X486918Y137160D01*
Y139825D01*
X494915Y139159D02*
X494249Y139825D01*
X492916D01*
X492249Y139159D01*
Y136493D01*
X492916Y135827D01*
X494249D01*
X494915Y136493D01*
Y137826D01*
X493582D01*
X500247Y139825D02*
X502913D01*
X501580D01*
Y135827D01*
X504246Y139825D02*
X506911Y135827D01*
Y139825D02*
X504246Y135827D01*
X512243D02*
Y139825D01*
X514242D01*
X514909Y139159D01*
Y137826D01*
X514242Y137160D01*
X512243D01*
X513576D02*
X514909Y135827D01*
X516242Y139825D02*
X518907Y135827D01*
Y139825D02*
X516242Y135827D01*
X524239D02*
Y139825D01*
X526238D01*
X526905Y139159D01*
Y137826D01*
X526238Y137160D01*
X524239D01*
X525572D02*
X526905Y135827D01*
X530904Y139159D02*
X530237Y139825D01*
X528904D01*
X528238Y139159D01*
Y138493D01*
X528904Y137826D01*
X530237D01*
X530904Y137160D01*
Y136493D01*
X530237Y135827D01*
X528904D01*
X528238Y136493D01*
X532236Y139825D02*
X534902D01*
X533569D01*
Y135827D01*
X269685Y137857D02*
Y135191D01*
X271018Y133858D01*
X272351Y135191D01*
Y137857D01*
X280348Y137190D02*
X279682Y137857D01*
X278349D01*
X277682Y137190D01*
Y134525D01*
X278349Y133858D01*
X279682D01*
X280348Y134525D01*
Y135858D01*
X279015D01*
X285680Y137857D02*
X288346D01*
X287013D01*
Y133858D01*
X289679Y137857D02*
X292344Y133858D01*
Y137857D02*
X289679Y133858D01*
X297676D02*
Y137857D01*
X299675D01*
X300342Y137190D01*
Y135858D01*
X299675Y135191D01*
X297676D01*
X299009D02*
X300342Y133858D01*
X301675Y137857D02*
X304341Y133858D01*
Y137857D02*
X301675Y133858D01*
X309672D02*
Y137857D01*
X311671D01*
X312338Y137190D01*
Y135858D01*
X311671Y135191D01*
X309672D01*
X311005D02*
X312338Y133858D01*
X316337Y137190D02*
X315670Y137857D01*
X314337D01*
X313671Y137190D01*
Y136524D01*
X314337Y135858D01*
X315670D01*
X316337Y135191D01*
Y134525D01*
X315670Y133858D01*
X314337D01*
X313671Y134525D01*
X317670Y137857D02*
X320335D01*
X319003D01*
Y133858D01*
X372744Y316324D02*
X372078Y316991D01*
X370745D01*
X370079Y316324D01*
Y315658D01*
X370745Y314991D01*
X372078D01*
X372744Y314325D01*
Y313659D01*
X372078Y312992D01*
X370745D01*
X370079Y313659D01*
X374078Y316991D02*
Y312992D01*
X376077D01*
X376743Y313659D01*
Y316324D01*
X376077Y316991D01*
X374078D01*
X378076Y312992D02*
Y315658D01*
X379409Y316991D01*
X380742Y315658D01*
Y312992D01*
Y314991D01*
X378076D01*
X388739Y316324D02*
X388073Y316991D01*
X386740D01*
X386074Y316324D01*
Y315658D01*
X386740Y314991D01*
X388073D01*
X388739Y314325D01*
Y313659D01*
X388073Y312992D01*
X386740D01*
X386074Y313659D01*
X392738Y316324D02*
X392072Y316991D01*
X390739D01*
X390072Y316324D01*
Y313659D01*
X390739Y312992D01*
X392072D01*
X392738Y313659D01*
X394071Y316991D02*
Y312992D01*
X396737D01*
X404734Y316324D02*
X404068Y316991D01*
X402735D01*
X402068Y316324D01*
Y313659D01*
X402735Y312992D01*
X404068D01*
X404734Y313659D01*
Y314991D01*
X403401D01*
X410066Y316991D02*
Y314325D01*
X411399Y312992D01*
X412732Y314325D01*
Y316991D01*
X268321Y225107D02*
X267655Y224440D01*
Y223107D01*
X268321Y222441D01*
X268988D01*
X269654Y223107D01*
Y224440D01*
X270321Y225107D01*
X270987D01*
X271654Y224440D01*
Y223107D01*
X270987Y222441D01*
X267655Y226440D02*
X271654D01*
Y228439D01*
X270987Y229105D01*
X268321D01*
X267655Y228439D01*
Y226440D01*
X271654Y230438D02*
X268988D01*
X267655Y231771D01*
X268988Y233104D01*
X271654D01*
X269654D01*
Y230438D01*
X268321Y241102D02*
X267655Y240435D01*
Y239102D01*
X268321Y238436D01*
X268988D01*
X269654Y239102D01*
Y240435D01*
X270321Y241102D01*
X270987D01*
X271654Y240435D01*
Y239102D01*
X270987Y238436D01*
X268321Y245100D02*
X267655Y244434D01*
Y243101D01*
X268321Y242435D01*
X270987D01*
X271654Y243101D01*
Y244434D01*
X270987Y245100D01*
X267655Y246433D02*
X271654D01*
Y249099D01*
X268321Y257096D02*
X267655Y256430D01*
Y255097D01*
X268321Y254431D01*
X270987D01*
X271654Y255097D01*
Y256430D01*
X270987Y257096D01*
X269654D01*
Y255764D01*
X267655Y262428D02*
X270321D01*
X271654Y263761D01*
X270321Y265094D01*
X267655D01*
X403543Y488251D02*
Y485585D01*
X404876Y484252D01*
X406209Y485585D01*
Y488251D01*
X414207Y487584D02*
X413540Y488251D01*
X412207D01*
X411541Y487584D01*
Y484918D01*
X412207Y484252D01*
X413540D01*
X414207Y484918D01*
Y486251D01*
X412874D01*
X419538Y488251D02*
X422204D01*
X420871D01*
Y484252D01*
X423537Y488251D02*
X426203Y484252D01*
Y488251D02*
X423537Y484252D01*
X431534D02*
Y488251D01*
X433534D01*
X434200Y487584D01*
Y486251D01*
X433534Y485585D01*
X431534D01*
X432867D02*
X434200Y484252D01*
X435533Y488251D02*
X438199Y484252D01*
Y488251D02*
X435533Y484252D01*
X347154Y487584D02*
X346487Y488251D01*
X345155D01*
X344488Y487584D01*
Y486918D01*
X345155Y486251D01*
X346487D01*
X347154Y485585D01*
Y484918D01*
X346487Y484252D01*
X345155D01*
X344488Y484918D01*
X348487Y488251D02*
Y484252D01*
X350486D01*
X351153Y484918D01*
Y487584D01*
X350486Y488251D01*
X348487D01*
X352486Y484252D02*
Y486918D01*
X353818Y488251D01*
X355151Y486918D01*
Y484252D01*
Y486251D01*
X352486D01*
X363149Y487584D02*
X362482Y488251D01*
X361150D01*
X360483Y487584D01*
Y486918D01*
X361150Y486251D01*
X362482D01*
X363149Y485585D01*
Y484918D01*
X362482Y484252D01*
X361150D01*
X360483Y484918D01*
X367147Y487584D02*
X366481Y488251D01*
X365148D01*
X364482Y487584D01*
Y484918D01*
X365148Y484252D01*
X366481D01*
X367147Y484918D01*
X368480Y488251D02*
Y484252D01*
X371146D01*
X379144Y487584D02*
X378477Y488251D01*
X377144D01*
X376478Y487584D01*
Y484918D01*
X377144Y484252D01*
X378477D01*
X379144Y484918D01*
Y486251D01*
X377811D01*
X384475Y488251D02*
Y485585D01*
X385808Y484252D01*
X387141Y485585D01*
Y488251D01*
X368110Y450787D02*
Y456785D01*
X370110Y454786D01*
X372109Y456785D01*
Y450787D01*
X374108Y456785D02*
X378107Y450787D01*
Y456785D02*
X374108Y450787D01*
X380106D02*
X382106D01*
X381106D01*
Y456785D01*
X380106Y455786D01*
X385105Y451787D02*
X386104Y450787D01*
X388104D01*
X389104Y451787D01*
Y455786D01*
X388104Y456785D01*
X386104D01*
X385105Y455786D01*
Y454786D01*
X386104Y453786D01*
X389104D01*
X391103Y450787D02*
X393102D01*
X392103D01*
Y456785D01*
X391103Y455786D01*
X396101Y451787D02*
X397101Y450787D01*
X399100D01*
X400100Y451787D01*
Y455786D01*
X399100Y456785D01*
X397101D01*
X396101Y455786D01*
Y454786D01*
X397101Y453786D01*
X400100D01*
X307784Y259904D02*
X305118D01*
Y257905D01*
X306451Y258571D01*
X307118D01*
X307784Y257905D01*
Y256572D01*
X307118Y255906D01*
X305785D01*
X305118Y256572D01*
X309117Y259904D02*
Y257238D01*
X310450Y255906D01*
X311783Y257238D01*
Y259904D01*
X338583Y281496D02*
Y285495D01*
X340582D01*
X341248Y284828D01*
Y283495D01*
X340582Y282829D01*
X338583D01*
X339916D02*
X341248Y281496D01*
X345247Y284828D02*
X344581Y285495D01*
X343248D01*
X342581Y284828D01*
Y284162D01*
X343248Y283495D01*
X344581D01*
X345247Y282829D01*
Y282162D01*
X344581Y281496D01*
X343248D01*
X342581Y282162D01*
X346580Y285495D02*
X349246D01*
X347913D01*
Y281496D01*
X461327Y263841D02*
X458661D01*
Y261842D01*
X459994Y262508D01*
X460661D01*
X461327Y261842D01*
Y260509D01*
X460661Y259842D01*
X459328D01*
X458661Y260509D01*
X462660Y263841D02*
Y261175D01*
X463993Y259842D01*
X465326Y261175D01*
Y263841D01*
X490158Y283465D02*
Y287463D01*
X492157D01*
X492823Y286797D01*
Y285464D01*
X492157Y284798D01*
X490158D01*
X491490D02*
X492823Y283465D01*
X496822Y286797D02*
X496156Y287463D01*
X494823D01*
X494156Y286797D01*
Y286130D01*
X494823Y285464D01*
X496156D01*
X496822Y284798D01*
Y284131D01*
X496156Y283465D01*
X494823D01*
X494156Y284131D01*
X498155Y287463D02*
X500821D01*
X499488D01*
Y283465D01*
X254301Y288932D02*
X251969D01*
Y287182D01*
X253135Y287766D01*
X253718D01*
X254301Y287182D01*
Y286016D01*
X253718Y285433D01*
X252552D01*
X251969Y286016D01*
X255467Y288932D02*
Y286599D01*
X256634Y285433D01*
X257800Y286599D01*
Y288932D01*
X264798Y288349D02*
X264214Y288932D01*
X263048D01*
X262465Y288349D01*
Y286016D01*
X263048Y285433D01*
X264214D01*
X264798Y286016D01*
Y287182D01*
X263631D01*
X269463Y285433D02*
Y287766D01*
X270629Y288932D01*
X271795Y287766D01*
Y285433D01*
Y287182D01*
X269463D01*
X276461Y288932D02*
Y285433D01*
X278210D01*
X278793Y286016D01*
Y286599D01*
X278210Y287182D01*
X276461D01*
X278210D01*
X278793Y287766D01*
Y288349D01*
X278210Y288932D01*
X276461D01*
X519685D02*
Y285433D01*
X521434D01*
X522018Y286016D01*
Y286599D01*
X521434Y287182D01*
X519685D01*
X521434D01*
X522018Y287766D01*
Y288349D01*
X521434Y288932D01*
X519685D01*
X526683Y285433D02*
Y287766D01*
X527849Y288932D01*
X529015Y287766D01*
Y285433D01*
Y287182D01*
X526683D01*
X536013Y288349D02*
X535430Y288932D01*
X534264D01*
X533680Y288349D01*
Y286016D01*
X534264Y285433D01*
X535430D01*
X536013Y286016D01*
Y287182D01*
X534847D01*
X543011Y288932D02*
X540678D01*
Y287182D01*
X541845Y287766D01*
X542428D01*
X543011Y287182D01*
Y286016D01*
X542428Y285433D01*
X541261D01*
X540678Y286016D01*
X544177Y288932D02*
Y286599D01*
X545343Y285433D01*
X546510Y286599D01*
Y288932D01*
X441309Y135389D02*
X438976D01*
Y133639D01*
X440143Y134222D01*
X440726D01*
X441309Y133639D01*
Y132473D01*
X440726Y131890D01*
X439560D01*
X438976Y132473D01*
X442475Y135389D02*
Y133056D01*
X443642Y131890D01*
X444808Y133056D01*
Y135389D01*
X350758Y134806D02*
X350175Y135389D01*
X349008D01*
X348425Y134806D01*
Y132473D01*
X349008Y131890D01*
X350175D01*
X350758Y132473D01*
Y133639D01*
X349591D01*
X377984Y96987D02*
X377484Y97487D01*
X376484D01*
X375984Y96987D01*
Y94988D01*
X376484Y94488D01*
X377484D01*
X377984Y94988D01*
Y95988D01*
X376984D01*
X383982Y97487D02*
X381982D01*
Y94488D01*
X383982D01*
X381982Y95988D02*
X382982D01*
X387980Y97487D02*
X389980D01*
X388980D01*
Y94488D01*
X395978Y97487D02*
X393978D01*
Y95988D01*
X394978Y96487D01*
X395478D01*
X395978Y95988D01*
Y94988D01*
X395478Y94488D01*
X394478D01*
X393978Y94988D01*
X396977Y97487D02*
Y95488D01*
X397977Y94488D01*
X398977Y95488D01*
Y97487D01*
X387795Y587645D02*
X391794D01*
X387795Y556149D02*
X391794D01*
X389795Y558148D02*
Y554149D01*
X419291Y558117D02*
X423290D01*
X437286D02*
X441284D01*
X419291Y585676D02*
X423290D01*
X421291Y587676D02*
Y583677D01*
X437286Y585676D02*
X441284D01*
X439285Y587676D02*
Y583677D01*
X247094Y452725D02*
Y454724D01*
X245594D01*
X246094Y453725D01*
Y453225D01*
X245594Y452725D01*
X244594D01*
X244094Y453225D01*
Y454225D01*
X244594Y454724D01*
X247094Y451725D02*
X245094D01*
X244094Y450726D01*
X245094Y449726D01*
X247094D01*
Y445727D02*
Y443728D01*
Y444728D01*
X244094D01*
X247094Y437730D02*
Y439729D01*
X244094D01*
Y437730D01*
X245594Y439729D02*
Y438730D01*
X246594Y431732D02*
X247094Y432232D01*
Y433231D01*
X246594Y433731D01*
X244594D01*
X244094Y433231D01*
Y432232D01*
X244594Y431732D01*
X245594D01*
Y432731D01*
X544245Y433102D02*
Y431102D01*
X545745D01*
X545245Y432102D01*
Y432602D01*
X545745Y433102D01*
X546744D01*
X547244Y432602D01*
Y431602D01*
X546744Y431102D01*
X544245Y434101D02*
X546244D01*
X547244Y435101D01*
X546244Y436101D01*
X544245D01*
Y440099D02*
Y442099D01*
Y441099D01*
X547244D01*
X544245Y448097D02*
Y446098D01*
X547244D01*
Y448097D01*
X545745Y446098D02*
Y447097D01*
X544745Y454095D02*
X544245Y453595D01*
Y452595D01*
X544745Y452096D01*
X546744D01*
X547244Y452595D01*
Y453595D01*
X546744Y454095D01*
X545745D01*
Y453095D01*
X386358Y423926D02*
X386191Y424259D01*
X385858Y424592D01*
X385525Y424759D01*
X384858D01*
X384525Y424592D01*
X384191Y424259D01*
X384025Y423926D01*
X383858Y423426D01*
Y422593D01*
X384025Y422093D01*
X384191Y421760D01*
X384525Y421426D01*
X384858Y421260D01*
X385525D01*
X385858Y421426D01*
X386191Y421760D01*
X386358Y422093D01*
X387341Y424759D02*
Y421260D01*
Y422926D02*
X387841Y423426D01*
X388174Y423593D01*
X388674D01*
X389007Y423426D01*
X389174Y422926D01*
Y421260D01*
X392090Y423593D02*
Y421260D01*
Y423093D02*
X391757Y423426D01*
X391423Y423593D01*
X390923D01*
X390590Y423426D01*
X390257Y423093D01*
X390090Y422593D01*
Y422260D01*
X390257Y421760D01*
X390590Y421426D01*
X390923Y421260D01*
X391423D01*
X391757Y421426D01*
X392090Y421760D01*
X393023Y423593D02*
Y421260D01*
Y422926D02*
X393523Y423426D01*
X393856Y423593D01*
X394356D01*
X394689Y423426D01*
X394856Y422926D01*
Y421260D01*
X397772Y424759D02*
Y421260D01*
Y423093D02*
X397439Y423426D01*
X397105Y423593D01*
X396605D01*
X396272Y423426D01*
X395939Y423093D01*
X395772Y422593D01*
Y422260D01*
X395939Y421760D01*
X396272Y421426D01*
X396605Y421260D01*
X397105D01*
X397439Y421426D01*
X397772Y421760D01*
X398705Y423593D02*
Y421926D01*
X398872Y421426D01*
X399205Y421260D01*
X399705D01*
X400038Y421426D01*
X400538Y421926D01*
Y423593D02*
Y421260D01*
X401454Y424759D02*
Y421260D01*
X404187Y423593D02*
Y421260D01*
Y423093D02*
X403854Y423426D01*
X403521Y423593D01*
X403021D01*
X402688Y423426D01*
X402354Y423093D01*
X402188Y422593D01*
Y422260D01*
X402354Y421760D01*
X402688Y421426D01*
X403021Y421260D01*
X403521D01*
X403854Y421426D01*
X404187Y421760D01*
X407870Y424759D02*
Y421260D01*
Y424759D02*
X410203Y421260D01*
Y424759D02*
Y421260D01*
X411336Y421593D02*
X411169Y421426D01*
X411336Y421260D01*
X411502Y421426D01*
X411336Y421593D01*
X415018Y424759D02*
Y421260D01*
Y424759D02*
X416185D01*
X416685Y424592D01*
X417018Y424259D01*
X417184Y423926D01*
X417351Y423426D01*
Y422593D01*
X417184Y422093D01*
X417018Y421760D01*
X416685Y421426D01*
X416185Y421260D01*
X415018D01*
X418134Y422593D02*
X420134D01*
Y422926D01*
X419967Y423259D01*
X419801Y423426D01*
X419467Y423593D01*
X418967D01*
X418634Y423426D01*
X418301Y423093D01*
X418134Y422593D01*
Y422260D01*
X418301Y421760D01*
X418634Y421426D01*
X418967Y421260D01*
X419467D01*
X419801Y421426D01*
X420134Y421760D01*
X422717Y423093D02*
X422550Y423426D01*
X422050Y423593D01*
X421550D01*
X421050Y423426D01*
X420884Y423093D01*
X421050Y422759D01*
X421383Y422593D01*
X422217Y422426D01*
X422550Y422260D01*
X422717Y421926D01*
Y421760D01*
X422550Y421426D01*
X422050Y421260D01*
X421550D01*
X421050Y421426D01*
X420884Y421760D01*
X423783Y424759D02*
X423950Y424592D01*
X424116Y424759D01*
X423950Y424926D01*
X423783Y424759D01*
X423950Y423593D02*
Y421260D01*
X426732Y423593D02*
Y420927D01*
X426566Y420427D01*
X426399Y420260D01*
X426066Y420093D01*
X425566D01*
X425233Y420260D01*
X426732Y423093D02*
X426399Y423426D01*
X426066Y423593D01*
X425566D01*
X425233Y423426D01*
X424899Y423093D01*
X424733Y422593D01*
Y422260D01*
X424899Y421760D01*
X425233Y421426D01*
X425566Y421260D01*
X426066D01*
X426399Y421426D01*
X426732Y421760D01*
X427666Y423593D02*
Y421260D01*
Y422926D02*
X428165Y423426D01*
X428499Y423593D01*
X428999D01*
X429332Y423426D01*
X429498Y422926D01*
Y421260D01*
X368474Y180081D02*
X367891Y180664D01*
X366725D01*
X366142Y180081D01*
Y177749D01*
X366725Y177165D01*
X367891D01*
X368474Y177749D01*
X369641Y180664D02*
Y177165D01*
Y178915D01*
X370224Y179498D01*
X371390D01*
X371973Y178915D01*
Y177165D01*
X373723Y179498D02*
X374889D01*
X375472Y178915D01*
Y177165D01*
X373723D01*
X373140Y177749D01*
X373723Y178332D01*
X375472D01*
X376638Y177165D02*
Y179498D01*
X378388D01*
X378971Y178915D01*
Y177165D01*
X382470Y180664D02*
Y177165D01*
X380720D01*
X380137Y177749D01*
Y178915D01*
X380720Y179498D01*
X382470D01*
X383636D02*
Y177749D01*
X384219Y177165D01*
X385969D01*
Y179498D01*
X387135Y177165D02*
X388301D01*
X387718D01*
Y180664D01*
X387135D01*
X390634Y179498D02*
X391800D01*
X392383Y178915D01*
Y177165D01*
X390634D01*
X390051Y177749D01*
X390634Y178332D01*
X392383D01*
X397048Y177165D02*
Y180664D01*
X399381Y177165D01*
Y180664D01*
X400547Y177165D02*
Y177749D01*
X401130D01*
Y177165D01*
X400547D01*
X403463Y180664D02*
Y177165D01*
X405212D01*
X405796Y177749D01*
Y180081D01*
X405212Y180664D01*
X403463D01*
X408711Y177165D02*
X407545D01*
X406962Y177749D01*
Y178915D01*
X407545Y179498D01*
X408711D01*
X409295Y178915D01*
Y178332D01*
X406962D01*
X410461Y177165D02*
X412210D01*
X412793Y177749D01*
X412210Y178332D01*
X411044D01*
X410461Y178915D01*
X411044Y179498D01*
X412793D01*
X413960Y177165D02*
X415126D01*
X414543D01*
Y179498D01*
X413960D01*
X418042Y175999D02*
X418625D01*
X419208Y176582D01*
Y179498D01*
X417458D01*
X416875Y178915D01*
Y177749D01*
X417458Y177165D01*
X419208D01*
X420374D02*
Y179498D01*
X422124D01*
X422707Y178915D01*
Y177165D01*
X427372D02*
X428538D01*
X427955D01*
Y179498D01*
X427372D01*
X430288Y177165D02*
Y179498D01*
X432037D01*
X432620Y178915D01*
Y177165D01*
X439618Y180081D02*
X439035Y180664D01*
X437868D01*
X437285Y180081D01*
Y179498D01*
X437868Y178915D01*
X439035D01*
X439618Y178332D01*
Y177749D01*
X439035Y177165D01*
X437868D01*
X437285Y177749D01*
X440784Y180664D02*
Y177165D01*
X443117D01*
D41*
X396201Y323622D02*
X396010Y324579D01*
X395469Y325390D01*
X394657Y325932D01*
X393701Y326122D01*
X392744Y325932D01*
X391933Y325390D01*
X391391Y324579D01*
X391201Y323622D01*
X355118Y450256D02*
X356075Y450446D01*
X356886Y450988D01*
X357428Y451799D01*
X357618Y452756D01*
X357428Y453713D01*
X356886Y454524D01*
X356075Y455066D01*
X355118Y455256D01*
X518430Y166017D02*
X518899Y165142D01*
X519474Y164333D01*
X520147Y163602D01*
X520906Y162962D01*
X521740Y162423D01*
X522635Y161993D01*
X523577Y161679D01*
X524551Y161486D01*
X525542Y161417D01*
X526533Y161474D01*
X527509Y161655D01*
X528455Y161957D01*
X529355Y162376D01*
X530196Y162905D01*
X530963Y163535D01*
X531645Y164257D01*
X532230Y165059D01*
X532230Y173524D02*
X531645Y174326D01*
X530963Y175048D01*
X530196Y175678D01*
X529355Y176207D01*
X528455Y176626D01*
X527509Y176928D01*
X526533Y177109D01*
X525542Y177165D01*
X524551Y177096D01*
X523577Y176904D01*
X522635Y176590D01*
X521740Y176160D01*
X520906Y175620D01*
X520147Y174980D01*
X519474Y174250D01*
X518899Y173441D01*
X518430Y172566D01*
X475665Y424534D02*
X475196Y425409D01*
X474620Y426219D01*
X473948Y426949D01*
X473188Y427589D01*
X472355Y428128D01*
X471460Y428558D01*
X470517Y428872D01*
X469544Y429065D01*
X468553Y429134D01*
X467561Y429077D01*
X466585Y428897D01*
X465639Y428594D01*
X464739Y428175D01*
X463899Y427646D01*
X463131Y427016D01*
X462450Y426294D01*
X461864Y425492D01*
Y417028D02*
X462450Y416225D01*
X463131Y415504D01*
X463899Y414873D01*
X464739Y414344D01*
X465639Y413925D01*
X466585Y413623D01*
X467561Y413442D01*
X468553Y413386D01*
X469544Y413455D01*
X470517Y413648D01*
X471460Y413962D01*
X472355Y414392D01*
X473188Y414931D01*
X473948Y415571D01*
X474620Y416301D01*
X475196Y417110D01*
X475665Y417985D01*
X303863Y419954D02*
X304332Y419079D01*
X304907Y418270D01*
X305580Y417539D01*
X306339Y416899D01*
X307173Y416360D01*
X308068Y415930D01*
X309010Y415616D01*
X309984Y415423D01*
X310975Y415354D01*
X311966Y415411D01*
X312942Y415592D01*
X313888Y415894D01*
X314789Y416313D01*
X315629Y416842D01*
X316396Y417472D01*
X317078Y418194D01*
X317663Y418996D01*
X317663Y427461D02*
X317078Y428263D01*
X316396Y428985D01*
X315629Y429615D01*
X314789Y430144D01*
X313888Y430563D01*
X312942Y430865D01*
X311966Y431046D01*
X310975Y431102D01*
X309984Y431034D01*
X309010Y430841D01*
X308068Y430527D01*
X307173Y430097D01*
X306339Y429557D01*
X305580Y428918D01*
X304907Y428187D01*
X304332Y427378D01*
X303863Y426503D01*
X282751Y186345D02*
X282282Y187220D01*
X281707Y188030D01*
X281034Y188760D01*
X280275Y189400D01*
X279441Y189939D01*
X278546Y190369D01*
X277604Y190683D01*
X276630Y190876D01*
X275640Y190945D01*
X274648Y190888D01*
X273672Y190708D01*
X272726Y190405D01*
X271826Y189986D01*
X270985Y189458D01*
X270218Y188827D01*
X269536Y188105D01*
X268951Y187303D01*
Y178839D02*
X269536Y178036D01*
X270218Y177315D01*
X270985Y176684D01*
X271826Y176155D01*
X272726Y175736D01*
X273672Y175434D01*
X274648Y175253D01*
X275640Y175197D01*
X276630Y175266D01*
X277604Y175459D01*
X278546Y175773D01*
X279441Y176203D01*
X280275Y176742D01*
X281034Y177382D01*
X281707Y178112D01*
X282282Y178921D01*
X282751Y179797D01*
X489370Y115551D02*
X496063D01*
X487402Y123032D02*
X489370Y124606D01*
X487402Y117126D02*
X489370Y115551D01*
Y124606D02*
X496063D01*
X487402Y117126D02*
Y123032D01*
X511417Y115551D02*
Y124606D01*
X503937Y115551D02*
X511417D01*
X503937Y124606D02*
X511417D01*
X383268Y323622D02*
Y404724D01*
X404134Y323622D02*
Y404724D01*
X383268D02*
X404134D01*
X383268Y323622D02*
X391201D01*
X396201D02*
X404134D01*
X355118Y463189D02*
X436221D01*
X355118Y442323D02*
X436221D01*
Y463189D01*
X355118Y455256D02*
Y463189D01*
Y442323D02*
Y450256D01*
X490315Y454724D02*
Y457724D01*
X470315D02*
X490315D01*
X470315Y451724D02*
Y457724D01*
Y451724D02*
X490315D01*
Y454724D01*
X469415D02*
X470315D01*
X490315D02*
X491215D01*
X358268Y416732D02*
Y420732D01*
Y362732D02*
Y366732D01*
X348268Y406732D02*
X368268D01*
X348268Y416732D02*
X368268D01*
Y366732D02*
Y416732D01*
X348268Y366732D02*
X368268D01*
X348268D02*
Y416732D01*
X291339Y122638D02*
X298031D01*
X298032Y113583D02*
X300000Y115157D01*
X298032Y122638D02*
X300000Y121063D01*
X291339Y113583D02*
X298032D01*
X300000Y115157D02*
Y121063D01*
X275984Y113583D02*
Y122638D01*
X283465D01*
X275984Y113583D02*
X283465D01*
X465095Y476378D02*
X469095D01*
X519095D02*
X523095D01*
X479095Y466378D02*
Y486378D01*
X469095Y466378D02*
Y486378D01*
X519095D01*
Y466378D02*
Y486378D01*
X469095Y466378D02*
X519095D01*
X554213Y290276D02*
Y300276D01*
X514213Y290276D02*
X554213D01*
X514213Y300276D02*
X554213D01*
X514213Y290276D02*
Y300276D01*
X246968Y290276D02*
Y300276D01*
X286968D01*
X246968Y290276D02*
X286968D01*
Y300276D01*
X256811Y223346D02*
X266811D01*
X256811D02*
Y263347D01*
X266811Y223346D02*
Y263347D01*
X256811D02*
X266811D01*
X467283Y288780D02*
X487283D01*
X467283Y258780D02*
X487283D01*
X467283D02*
Y288780D01*
X487283Y258780D02*
Y288780D01*
Y269613D02*
Y288780D01*
X315709Y286811D02*
X335709D01*
X315709Y256811D02*
X335709D01*
X315709D02*
Y286811D01*
X335709Y256811D02*
Y286811D01*
Y267644D02*
Y286811D01*
X372953Y302087D02*
Y312087D01*
X412953D01*
X372953Y302087D02*
X412953D01*
Y312087D01*
X311181Y458661D02*
Y461661D01*
X291181D02*
X311181D01*
X291181Y455661D02*
Y461661D01*
Y455661D02*
X311181D01*
Y458661D01*
X290281D02*
X291181D01*
X311181D02*
X312081D01*
X410512Y99331D02*
Y109331D01*
X370512Y99331D02*
X410512D01*
X370512Y109331D02*
X410512D01*
X370512Y99331D02*
Y109331D01*
X345945Y117047D02*
X438445D01*
X445945D01*
Y127047D01*
X345945D02*
X445945D01*
X345945Y117047D02*
Y127047D01*
X244094Y585236D02*
X250787D01*
X250787Y576181D02*
X252756Y577756D01*
X250787Y585236D02*
X252756Y583661D01*
X244094Y576181D02*
X250787D01*
X252756Y577756D02*
Y583661D01*
X228740Y576181D02*
Y585236D01*
X236221D01*
X228740Y576181D02*
X236221D01*
X536614Y578150D02*
X543307D01*
X534646Y585630D02*
X536614Y587205D01*
X534646Y579724D02*
X536614Y578150D01*
Y587205D02*
X543307D01*
X534646Y579724D02*
Y585630D01*
X558661Y578150D02*
Y587205D01*
X551181Y578150D02*
X558661D01*
X551181Y587205D02*
X558661D01*
X556299Y265158D02*
X562992D01*
X554331Y272638D02*
X556299Y274213D01*
X554331Y266732D02*
X556299Y265158D01*
Y274213D02*
X562992D01*
X554331Y266732D02*
Y272638D01*
X578346Y265158D02*
Y274213D01*
X570866Y265158D02*
X578346D01*
X570866Y274213D02*
X578346D01*
X211811Y263189D02*
X218504D01*
X209842Y270669D02*
X211811Y272244D01*
X209842Y264764D02*
X211811Y263189D01*
Y272244D02*
X218504D01*
X209842Y264764D02*
Y270669D01*
X233858Y263189D02*
Y272244D01*
X226378Y263189D02*
X233858D01*
X226378Y272244D02*
X233858D01*
X435945Y581929D02*
X445945D01*
Y561929D02*
Y581929D01*
X435945Y561929D02*
X445945D01*
X435945D02*
Y581929D01*
X418228D02*
X428228D01*
Y561929D02*
Y581929D01*
X418228Y561929D02*
X428228D01*
X418228D02*
Y581929D01*
X386732Y561772D02*
X396732D01*
X386732D02*
Y581772D01*
X396732D01*
Y561772D02*
Y581772D01*
X365079Y585866D02*
X375079D01*
Y565866D02*
Y585866D01*
X365079Y565866D02*
X375079D01*
X365079D02*
Y585866D01*
X341457Y565709D02*
X351457D01*
X341457D02*
Y585709D01*
X351457D01*
Y565709D02*
Y585709D01*
X548150Y424134D02*
X558150D01*
X548150D02*
Y464134D01*
X558150Y424134D02*
Y464134D01*
X548150D02*
X558150D01*
X412008Y522835D02*
Y529528D01*
X402953Y522835D02*
X404528Y520866D01*
X410433D02*
X412008Y522835D01*
X402953D02*
Y529528D01*
X404528Y520866D02*
X410433D01*
X402953Y544882D02*
X412008D01*
Y537402D02*
Y544882D01*
X402953Y537402D02*
Y544882D01*
X266929Y432480D02*
X273622D01*
X264961Y439961D02*
X266929Y441536D01*
X264961Y434055D02*
X266929Y432480D01*
Y441536D02*
X273622D01*
X264961Y434055D02*
Y439961D01*
X288976Y432480D02*
Y441536D01*
X281496Y432480D02*
X288976D01*
X281496Y441536D02*
X288976D01*
X497835Y185236D02*
Y208465D01*
X474606Y185236D02*
Y208465D01*
Y185236D02*
X497835D01*
X474606Y208465D02*
X497835D01*
X442008Y491063D02*
Y501063D01*
X402008Y491063D02*
X442008D01*
X402008Y501063D02*
X442008D01*
X402008Y491063D02*
Y501063D01*
X481220Y140669D02*
Y150669D01*
X531220D01*
X481220Y140669D02*
X531220D01*
Y150669D01*
X345394Y491063D02*
Y501063D01*
X385394D01*
X345394Y491063D02*
X385394D01*
Y501063D01*
X231221Y463661D02*
X241220D01*
Y423662D02*
Y463661D01*
X231221Y423662D02*
Y463661D01*
Y423662D02*
X241220D01*
X326575Y185236D02*
Y208465D01*
X303346Y185236D02*
Y208465D01*
Y185236D02*
X326575D01*
X303346Y208465D02*
X326575D01*
X266654Y140669D02*
Y150669D01*
X316654D01*
X266654Y140669D02*
X316654D01*
Y150669D01*
X496811Y432008D02*
Y442008D01*
X516811D01*
Y432008D02*
Y442008D01*
X496811Y432008D02*
X516811D01*
D42*
X540670Y221877D02*
X540649Y222867D01*
X540518Y223847D01*
X540277Y224807D01*
X539930Y225734D01*
X539482Y226617D01*
X538938Y227443D01*
X538305Y228204D01*
X537590Y228889D01*
X536804Y229489D01*
X535955Y229998D01*
X535054Y230408D01*
X534113Y230715D01*
X533144Y230915D01*
X532158Y231005D01*
X532158Y186318D02*
X533144Y186408D01*
X534113Y186608D01*
X535054Y186915D01*
X535955Y187325D01*
X536804Y187834D01*
X537590Y188434D01*
X538305Y189119D01*
X538938Y189880D01*
X539482Y190706D01*
X539930Y191588D01*
X540277Y192516D01*
X540518Y193475D01*
X540649Y194456D01*
X540670Y195446D01*
X522322Y195495D02*
X522409Y194503D01*
X522599Y193525D01*
X522890Y192573D01*
X523279Y191656D01*
X523762Y190785D01*
X524333Y189969D01*
X524987Y189217D01*
X525715Y188538D01*
X526510Y187939D01*
X527364Y187426D01*
X528266Y187005D01*
X529208Y186681D01*
X530178Y186457D01*
X531167Y186336D01*
X532163Y186318D01*
Y231005D02*
X531167Y230987D01*
X530178Y230866D01*
X529208Y230642D01*
X528266Y230318D01*
X527364Y229897D01*
X526510Y229384D01*
X525715Y228785D01*
X524987Y228105D01*
X524333Y227354D01*
X523762Y226538D01*
X523279Y225667D01*
X522890Y224750D01*
X522599Y223798D01*
X522409Y222820D01*
X522322Y221828D01*
X574803Y236417D02*
X575794Y236504D01*
X576756Y236762D01*
X577658Y237182D01*
X578473Y237753D01*
X579176Y238457D01*
X579747Y239272D01*
X580167Y240174D01*
X580425Y241135D01*
X580512Y242126D01*
X580425Y243117D01*
X580167Y244078D01*
X579747Y244980D01*
X579176Y245795D01*
X578473Y246499D01*
X577658Y247070D01*
X576756Y247490D01*
X575794Y247748D01*
X574803Y247835D01*
Y216732D02*
X575794Y216819D01*
X576756Y217076D01*
X577658Y217497D01*
X578473Y218068D01*
X579176Y218772D01*
X579747Y219587D01*
X580167Y220489D01*
X580425Y221450D01*
X580512Y222441D01*
X580425Y223432D01*
X580167Y224393D01*
X579747Y225295D01*
X579176Y226110D01*
X578473Y226814D01*
X577658Y227385D01*
X576756Y227805D01*
X575794Y228063D01*
X574803Y228150D01*
X545472Y143701D02*
X545559Y142710D01*
X545817Y141748D01*
X546237Y140847D01*
X546808Y140031D01*
X547512Y139328D01*
X548327Y138757D01*
X549229Y138336D01*
X550190Y138079D01*
X551181Y137992D01*
X552172Y138079D01*
X553134Y138336D01*
X554035Y138757D01*
X554851Y139328D01*
X555554Y140031D01*
X556125Y140847D01*
X556545Y141748D01*
X556803Y142710D01*
X556890Y143701D01*
X565158D02*
X565244Y142710D01*
X565502Y141748D01*
X565922Y140847D01*
X566493Y140031D01*
X567197Y139328D01*
X568012Y138757D01*
X568914Y138336D01*
X569875Y138079D01*
X570866Y137992D01*
X571857Y138079D01*
X572819Y138336D01*
X573721Y138757D01*
X574536Y139328D01*
X575239Y140031D01*
X575810Y140847D01*
X576230Y141748D01*
X576488Y142710D01*
X576575Y143701D01*
X210827D02*
X210913Y142710D01*
X211171Y141748D01*
X211592Y140847D01*
X212162Y140031D01*
X212866Y139328D01*
X213681Y138757D01*
X214583Y138336D01*
X215544Y138079D01*
X216535Y137992D01*
X217527Y138079D01*
X218488Y138336D01*
X219390Y138757D01*
X220205Y139328D01*
X220908Y140031D01*
X221479Y140847D01*
X221900Y141748D01*
X222157Y142710D01*
X222244Y143701D01*
X212598Y245866D02*
X211607Y245779D01*
X210646Y245522D01*
X209744Y245101D01*
X208929Y244531D01*
X208225Y243827D01*
X207655Y243012D01*
X207234Y242110D01*
X206977Y241149D01*
X206890Y240158D01*
X206977Y239166D01*
X207234Y238205D01*
X207655Y237303D01*
X208225Y236488D01*
X208929Y235784D01*
X209744Y235214D01*
X210646Y234793D01*
X211607Y234536D01*
X212598Y234449D01*
X230512Y143701D02*
X230598Y142710D01*
X230856Y141748D01*
X231277Y140847D01*
X231847Y140031D01*
X232551Y139328D01*
X233366Y138757D01*
X234268Y138336D01*
X235229Y138079D01*
X236221Y137992D01*
X237212Y138079D01*
X238173Y138336D01*
X239075Y138757D01*
X239890Y139328D01*
X240594Y140031D01*
X241164Y140847D01*
X241585Y141748D01*
X241842Y142710D01*
X241929Y143701D01*
X212598Y226181D02*
X211607Y226094D01*
X210646Y225837D01*
X209744Y225416D01*
X208929Y224846D01*
X208225Y224142D01*
X207655Y223327D01*
X207234Y222425D01*
X206977Y221464D01*
X206890Y220472D01*
X206977Y219481D01*
X207234Y218520D01*
X207655Y217618D01*
X208225Y216803D01*
X208929Y216099D01*
X209744Y215529D01*
X210646Y215108D01*
X211607Y214850D01*
X212598Y214764D01*
X363505Y219908D02*
X363484Y220898D01*
X363352Y221879D01*
X363112Y222839D01*
X362765Y223766D01*
X362317Y224648D01*
X361773Y225475D01*
X361139Y226235D01*
X360425Y226920D01*
X359638Y227521D01*
X358789Y228029D01*
X357889Y228440D01*
X356948Y228747D01*
X355979Y228946D01*
X354993Y229036D01*
X354993Y184349D02*
X355979Y184439D01*
X356948Y184639D01*
X357889Y184946D01*
X358789Y185356D01*
X359638Y185865D01*
X360425Y186466D01*
X361139Y187151D01*
X361773Y187911D01*
X362317Y188738D01*
X362765Y189620D01*
X363112Y190547D01*
X363352Y191507D01*
X363484Y192488D01*
X363505Y193477D01*
X345157Y193526D02*
X345244Y192534D01*
X345433Y191557D01*
X345725Y190604D01*
X346114Y189687D01*
X346597Y188816D01*
X347168Y188001D01*
X347821Y187249D01*
X348550Y186570D01*
X349345Y185970D01*
X350199Y185458D01*
X351101Y185037D01*
X352043Y184712D01*
X353013Y184488D01*
X354002Y184367D01*
X354997Y184350D01*
Y229036D02*
X354002Y229019D01*
X353013Y228898D01*
X352043Y228674D01*
X351101Y228349D01*
X350199Y227928D01*
X349345Y227415D01*
X348550Y226816D01*
X347821Y226137D01*
X347168Y225385D01*
X346597Y224570D01*
X346114Y223698D01*
X345725Y222782D01*
X345433Y221829D01*
X345244Y220852D01*
X345157Y219860D01*
X547244Y177599D02*
X555118D01*
X547244Y184606D02*
X555118D01*
X277126Y273622D02*
Y281496D01*
X270118Y273622D02*
Y281496D01*
X307087Y579173D02*
X314961D01*
X307087Y586181D02*
X314961D01*
X480315D02*
X488189D01*
X480315Y579173D02*
X488189D01*
X539370Y273189D02*
X547244D01*
X539370Y266181D02*
X547244D01*
X212598Y252402D02*
X220472D01*
X212598Y259409D02*
X220472D01*
X540669Y195473D02*
Y221850D01*
X522323Y195473D02*
Y221850D01*
X545276Y233465D02*
Y250787D01*
X570472D01*
Y233465D02*
Y250787D01*
X545276Y233465D02*
X570472D01*
Y247835D02*
X574803D01*
X570472Y236417D02*
X574803D01*
X545276Y213779D02*
Y231102D01*
X570472D01*
Y213779D02*
Y231102D01*
X545276Y213779D02*
X570472D01*
Y228150D02*
X574803D01*
X570472Y216732D02*
X574803D01*
X542520Y173228D02*
X559842D01*
Y148031D02*
Y173228D01*
X542520Y148031D02*
X559842D01*
X542520D02*
Y173228D01*
X556890Y143701D02*
Y148031D01*
X545472Y143701D02*
Y148031D01*
X562205Y173228D02*
X579528D01*
Y148031D02*
Y173228D01*
X562205Y148031D02*
X579528D01*
X562205D02*
Y173228D01*
X576575Y143701D02*
Y148031D01*
X565158Y143701D02*
Y148031D01*
X568898Y184606D02*
X576772D01*
X568898Y177598D02*
X576772D01*
X568898Y202323D02*
X576772D01*
X568898Y195315D02*
X576772D01*
X207874Y173228D02*
X225197D01*
Y148031D02*
Y173228D01*
X207874Y148031D02*
X225197D01*
X207874D02*
Y173228D01*
X222244Y143701D02*
Y148031D01*
X210827Y143701D02*
Y148031D01*
X242126Y231496D02*
Y248819D01*
X216929Y231496D02*
X242126D01*
X216929D02*
Y248819D01*
X242126D01*
X212598Y234449D02*
X216929D01*
X212598Y245866D02*
X216929D01*
X227559Y173228D02*
X244882D01*
Y148031D02*
Y173228D01*
X227559Y148031D02*
X244882D01*
X227559D02*
Y173228D01*
X241929Y143701D02*
Y148031D01*
X230512Y143701D02*
Y148031D01*
X242126Y211811D02*
Y229134D01*
X216929Y211811D02*
X242126D01*
X216929D02*
Y229134D01*
X242126D01*
X212598Y214764D02*
X216929D01*
X212598Y226181D02*
X216929D01*
X399173Y529528D02*
Y537402D01*
X392165Y529528D02*
Y537402D01*
X261378Y273622D02*
Y281496D01*
X254370Y273622D02*
Y281496D01*
X465823Y124965D02*
X473697D01*
X465823Y117957D02*
X473697D01*
X269685Y454291D02*
X277559D01*
X269685Y447284D02*
X277559D01*
X542874Y234252D02*
Y242126D01*
X535866Y234252D02*
Y242126D01*
X232284Y187441D02*
X240158D01*
X232284Y194449D02*
X240158D01*
X342520Y164921D02*
X350394D01*
X342520Y157913D02*
X350394D01*
X342520Y142165D02*
X350394D01*
X342520Y149173D02*
X350394D01*
X210630Y187441D02*
X218504D01*
X210630Y194449D02*
X218504D01*
X316929Y121614D02*
X324803D01*
X316929Y114606D02*
X324803D01*
X363504Y193504D02*
Y219882D01*
X345158Y193504D02*
Y219882D01*
D43*
X503248Y182579D02*
X502510Y183005D01*
Y182152D01*
X503248Y182579D01*
X331988D02*
X331250Y183005D01*
Y182152D01*
X331988Y182579D01*
D44*
X495079Y189173D02*
X494634Y190097D01*
X493635Y190325D01*
X492834Y189686D01*
Y188661D01*
X493635Y188022D01*
X494634Y188250D01*
X495079Y189173D01*
X323819D02*
X323374Y190097D01*
X322375Y190325D01*
X321574Y189686D01*
Y188661D01*
X322375Y188022D01*
X323374Y188250D01*
X323819Y189173D01*
D45*
X455970Y228881D02*
X456170D01*
X409470D02*
X411970D01*
X454970Y228981D02*
X456470D01*
X441370D02*
X442870D01*
X428670D02*
X430270D01*
X409170D02*
X412270D01*
X460970Y229081D02*
X461470D01*
X460170D02*
X460570D01*
X459770D02*
X459870D01*
X454570D02*
X457370D01*
X446770D02*
X447470D01*
X440570D02*
X443370D01*
X427870D02*
X430970D01*
X419870D02*
X420370D01*
X418970D02*
X419170D01*
X408270D02*
X412870D01*
X459370Y229181D02*
X462170D01*
X454170D02*
X457570D01*
X445570D02*
X448270D01*
X440170D02*
X443670D01*
X427570D02*
X431470D01*
X418370D02*
X421370D01*
X408070D02*
X413170D01*
X459270Y229281D02*
X462370D01*
X453870D02*
X457670D01*
X445370D02*
X448370D01*
X440070D02*
X443770D01*
X427370D02*
X431670D01*
X418270D02*
X421570D01*
X407970D02*
X413370D01*
X458970Y229381D02*
X462470D01*
X453670D02*
X458070D01*
X445170D02*
X448570D01*
X439770D02*
X444070D01*
X427070D02*
X432070D01*
X418170D02*
X421670D01*
X407570D02*
X413670D01*
X458870Y229481D02*
X462470D01*
X453370D02*
X458370D01*
X445170D02*
X448670D01*
X439570D02*
X444270D01*
X426870D02*
X432170D01*
X417970D02*
X421770D01*
X407370D02*
X413770D01*
X458870Y229581D02*
X462470D01*
X453370D02*
X458470D01*
X445070D02*
X448670D01*
X439470D02*
X444370D01*
X426770D02*
X432370D01*
X417970D02*
X421770D01*
X407270D02*
X413870D01*
X452970Y229681D02*
X462570D01*
X445070D02*
X448670D01*
X439170D02*
X444770D01*
X426270D02*
X432770D01*
X417970D02*
X421770D01*
X406770D02*
X414370D01*
X452870Y229781D02*
X462570D01*
X439070D02*
X448670D01*
X426170D02*
X432870D01*
X417970D02*
X421770D01*
X406670D02*
X414570D01*
X452770Y229881D02*
X462570D01*
X438970D02*
X448670D01*
X426070D02*
X432970D01*
X417970D02*
X421770D01*
X406570D02*
X414670D01*
X452470Y229981D02*
X462570D01*
X438770D02*
X448770D01*
X425870D02*
X433170D01*
X417870D02*
X421770D01*
X406270D02*
X414970D01*
X452270Y230081D02*
X462570D01*
X438670D02*
X448770D01*
X425570D02*
X433370D01*
X417870D02*
X421770D01*
X406170D02*
X415070D01*
X452270Y230181D02*
X462570D01*
X438570D02*
X448770D01*
X425570D02*
X433370D01*
X417870D02*
X421770D01*
X406070D02*
X415170D01*
X452170Y230281D02*
X462570D01*
X438470D02*
X448770D01*
X425370D02*
X433570D01*
X417870D02*
X421770D01*
X405770D02*
X415470D01*
X451970Y230381D02*
X462570D01*
X438370D02*
X448770D01*
X425170D02*
X433770D01*
X417970D02*
X421770D01*
X405670D02*
X415570D01*
X451870Y230481D02*
X462570D01*
X438270D02*
X448770D01*
X425070D02*
X433870D01*
X417970D02*
X421770D01*
X405570D02*
X415670D01*
X451670Y230581D02*
X462570D01*
X438170D02*
X448770D01*
X424970D02*
X433970D01*
X417970D02*
X421770D01*
X405370D02*
X415770D01*
X451570Y230681D02*
X462570D01*
X438070D02*
X448770D01*
X424870D02*
X434070D01*
X417970D02*
X421770D01*
X405270D02*
X415970D01*
X451470Y230781D02*
X462570D01*
X438070D02*
X448670D01*
X424870D02*
X434270D01*
X417970D02*
X421770D01*
X405170D02*
X415970D01*
X451470Y230881D02*
X462570D01*
X437970D02*
X448670D01*
X424670D02*
X434270D01*
X417970D02*
X421770D01*
X404970D02*
X416170D01*
X451370Y230981D02*
X462570D01*
X437870D02*
X448670D01*
X424570D02*
X434370D01*
X417970D02*
X421770D01*
X404870D02*
X416270D01*
X451270Y231081D02*
X462570D01*
X437770D02*
X448670D01*
X424470D02*
X434470D01*
X417970D02*
X421770D01*
X404770D02*
X416270D01*
X451270Y231181D02*
X462570D01*
X437770D02*
X448670D01*
X424370D02*
X434570D01*
X417970D02*
X421770D01*
X404670D02*
X416370D01*
X451170Y231281D02*
X462570D01*
X437770D02*
X448670D01*
X424370D02*
X434670D01*
X417970D02*
X421770D01*
X404570D02*
X416470D01*
X451170Y231381D02*
X462470D01*
X437770D02*
X448670D01*
X424270D02*
X434770D01*
X417970D02*
X421770D01*
X404470D02*
X416570D01*
X451070Y231481D02*
X462470D01*
X437670D02*
X448670D01*
X424270D02*
X434870D01*
X417970D02*
X421770D01*
X404470D02*
X416570D01*
X450970Y231581D02*
X462470D01*
X437570D02*
X448670D01*
X424170D02*
X434870D01*
X417970D02*
X421770D01*
X404370D02*
X416570D01*
X450970Y231681D02*
X462470D01*
X437470D02*
X448670D01*
X424070D02*
X434970D01*
X417970D02*
X421770D01*
X404270D02*
X416570D01*
X450870Y231781D02*
X462470D01*
X437470D02*
X448670D01*
X424070D02*
X434970D01*
X417970D02*
X421770D01*
X404170D02*
X416570D01*
X450870Y231881D02*
X462470D01*
X437470D02*
X448670D01*
X423970D02*
X435070D01*
X417970D02*
X421770D01*
X404070D02*
X416570D01*
X450870Y231981D02*
X462470D01*
X437470D02*
X448670D01*
X423970D02*
X435170D01*
X417970D02*
X421770D01*
X404070D02*
X416470D01*
X450770Y232081D02*
X462470D01*
X437470D02*
X448670D01*
X423970D02*
X435170D01*
X417970D02*
X421770D01*
X403970D02*
X416270D01*
X456670Y232181D02*
X462570D01*
X450670D02*
X456070D01*
X437470D02*
X448670D01*
X429770D02*
X435270D01*
X423870D02*
X429270D01*
X417970D02*
X421770D01*
X403870D02*
X416270D01*
X457170Y232281D02*
X462570D01*
X450670D02*
X455870D01*
X437370D02*
X448670D01*
X430170D02*
X435270D01*
X423770D02*
X428970D01*
X417970D02*
X421770D01*
X403870D02*
X416270D01*
X457670Y232381D02*
X462570D01*
X450570D02*
X455270D01*
X443570D02*
X448670D01*
X437370D02*
X441970D01*
X430670D02*
X435270D01*
X423670D02*
X428470D01*
X417970D02*
X421770D01*
X412170D02*
X416070D01*
X403770D02*
X409470D01*
X457670Y232481D02*
X462570D01*
X450570D02*
X455170D01*
X443670D02*
X448670D01*
X437270D02*
X441870D01*
X430770D02*
X435270D01*
X423670D02*
X428270D01*
X417970D02*
X421770D01*
X412270D02*
X415970D01*
X403770D02*
X409370D01*
X457770Y232581D02*
X462570D01*
X450570D02*
X455070D01*
X443870D02*
X448670D01*
X437270D02*
X441670D01*
X430870D02*
X435370D01*
X423670D02*
X428170D01*
X417970D02*
X421770D01*
X412470D02*
X415970D01*
X403770D02*
X409170D01*
X457970Y232681D02*
X462570D01*
X450570D02*
X454870D01*
X443970D02*
X448670D01*
X437170D02*
X441570D01*
X431070D02*
X435470D01*
X423670D02*
X427870D01*
X417970D02*
X421770D01*
X412770D02*
X415670D01*
X403670D02*
X408870D01*
X458070Y232781D02*
X462570D01*
X450570D02*
X454770D01*
X444170D02*
X448670D01*
X437170D02*
X441470D01*
X431070D02*
X435470D01*
X423670D02*
X427870D01*
X417970D02*
X421770D01*
X412870D02*
X415670D01*
X403570D02*
X408670D01*
X458170Y232881D02*
X462570D01*
X450470D02*
X454770D01*
X444170D02*
X448670D01*
X437170D02*
X441370D01*
X431170D02*
X435470D01*
X423570D02*
X427870D01*
X417870D02*
X421770D01*
X412970D02*
X415570D01*
X403470D02*
X408570D01*
X458270Y232981D02*
X462570D01*
X450470D02*
X454570D01*
X444370D02*
X448670D01*
X437170D02*
X441270D01*
X431370D02*
X435570D01*
X423570D02*
X427670D01*
X417870D02*
X421770D01*
X413270D02*
X415370D01*
X403470D02*
X408270D01*
X458270Y233081D02*
X462570D01*
X450370D02*
X454570D01*
X444470D02*
X448670D01*
X437170D02*
X441270D01*
X431370D02*
X435570D01*
X423470D02*
X427570D01*
X417870D02*
X421770D01*
X413270D02*
X415370D01*
X403470D02*
X408170D01*
X458370Y233181D02*
X462570D01*
X450370D02*
X454470D01*
X444470D02*
X448670D01*
X437170D02*
X441270D01*
X431370D02*
X435570D01*
X423470D02*
X427570D01*
X417870D02*
X421770D01*
X413370D02*
X415270D01*
X403470D02*
X408070D01*
X458570Y233281D02*
X462570D01*
X450370D02*
X454370D01*
X444570D02*
X448670D01*
X437170D02*
X441170D01*
X431570D02*
X435570D01*
X423470D02*
X427470D01*
X417870D02*
X421770D01*
X413570D02*
X415070D01*
X403370D02*
X407870D01*
X458570Y233381D02*
X462570D01*
X450270D02*
X454370D01*
X444570D02*
X448670D01*
X437170D02*
X441070D01*
X431670D02*
X435570D01*
X423370D02*
X427370D01*
X417870D02*
X421770D01*
X413670D02*
X414970D01*
X403270D02*
X407770D01*
X458570Y233481D02*
X462570D01*
X450270D02*
X454270D01*
X444670D02*
X448670D01*
X437170D02*
X441070D01*
X431670D02*
X435570D01*
X423370D02*
X427270D01*
X417870D02*
X421770D01*
X413770D02*
X414970D01*
X403270D02*
X407770D01*
X458570Y233581D02*
X462570D01*
X450270D02*
X454270D01*
X444770D02*
X448670D01*
X437170D02*
X441070D01*
X431670D02*
X435570D01*
X423370D02*
X427270D01*
X417870D02*
X421770D01*
X414070D02*
X414770D01*
X403170D02*
X407670D01*
X458570Y233681D02*
X462570D01*
X450270D02*
X454170D01*
X444770D02*
X448670D01*
X437170D02*
X441070D01*
X431670D02*
X435570D01*
X423370D02*
X427270D01*
X417870D02*
X421770D01*
X414170D02*
X414670D01*
X403170D02*
X407570D01*
X458670Y233781D02*
X462570D01*
X450270D02*
X454170D01*
X444770D02*
X448670D01*
X437170D02*
X440970D01*
X431770D02*
X435670D01*
X423370D02*
X427270D01*
X417870D02*
X421770D01*
X403170D02*
X407470D01*
X458670Y233881D02*
X462570D01*
X450270D02*
X454170D01*
X444770D02*
X448670D01*
X437170D02*
X440970D01*
X431770D02*
X435670D01*
X423370D02*
X427270D01*
X417870D02*
X421770D01*
X403170D02*
X407370D01*
X458670Y233981D02*
X462570D01*
X450270D02*
X454170D01*
X444770D02*
X448670D01*
X437170D02*
X440970D01*
X431770D02*
X435670D01*
X423370D02*
X427270D01*
X417970D02*
X421770D01*
X403170D02*
X407370D01*
X458670Y234081D02*
X462570D01*
X450270D02*
X454070D01*
X444770D02*
X448670D01*
X437170D02*
X440970D01*
X431770D02*
X435770D01*
X423370D02*
X427170D01*
X417970D02*
X421770D01*
X403170D02*
X407270D01*
X458670Y234181D02*
X462570D01*
X450270D02*
X454070D01*
X444770D02*
X448670D01*
X437170D02*
X440970D01*
X431770D02*
X435770D01*
X423370D02*
X427170D01*
X417970D02*
X421770D01*
X403070D02*
X407170D01*
X458770Y234281D02*
X462570D01*
X450270D02*
X454070D01*
X444770D02*
X448670D01*
X437170D02*
X440970D01*
X431870D02*
X435770D01*
X423370D02*
X427170D01*
X417970D02*
X421770D01*
X402970D02*
X407070D01*
X458870Y234381D02*
X462570D01*
X450270D02*
X454070D01*
X444770D02*
X448670D01*
X437170D02*
X440970D01*
X431870D02*
X435770D01*
X423370D02*
X427170D01*
X417970D02*
X421770D01*
X402970D02*
X407070D01*
X458870Y234481D02*
X462570D01*
X450270D02*
X454070D01*
X444870D02*
X448670D01*
X437170D02*
X440970D01*
X431970D02*
X435870D01*
X423370D02*
X427170D01*
X417970D02*
X421770D01*
X402970D02*
X407070D01*
X458870Y234581D02*
X462570D01*
X450270D02*
X454070D01*
X444870D02*
X448670D01*
X437170D02*
X440970D01*
X431970D02*
X435870D01*
X423370D02*
X427170D01*
X417970D02*
X421770D01*
X402870D02*
X407070D01*
X458870Y234681D02*
X462570D01*
X450270D02*
X454070D01*
X444870D02*
X448670D01*
X437170D02*
X440970D01*
X431970D02*
X435870D01*
X423370D02*
X427170D01*
X417970D02*
X421770D01*
X402870D02*
X406970D01*
X458870Y234781D02*
X462570D01*
X450270D02*
X454070D01*
X444870D02*
X448670D01*
X437170D02*
X440970D01*
X431970D02*
X435870D01*
X423370D02*
X427170D01*
X417870D02*
X421770D01*
X402870D02*
X406970D01*
X458870Y234881D02*
X462570D01*
X450270D02*
X454070D01*
X444870D02*
X448670D01*
X437170D02*
X440970D01*
X431970D02*
X435870D01*
X423370D02*
X427170D01*
X417870D02*
X421770D01*
X402870D02*
X406870D01*
X458870Y234981D02*
X462570D01*
X450270D02*
X454070D01*
X444870D02*
X448670D01*
X437170D02*
X440970D01*
X431970D02*
X435870D01*
X423370D02*
X427170D01*
X417870D02*
X421770D01*
X402870D02*
X406870D01*
X458870Y235081D02*
X462570D01*
X450270D02*
X454070D01*
X444870D02*
X448670D01*
X437170D02*
X440970D01*
X431970D02*
X435870D01*
X423370D02*
X427170D01*
X417870D02*
X421770D01*
X402870D02*
X406770D01*
X458870Y235181D02*
X462570D01*
X450270D02*
X454070D01*
X444870D02*
X448670D01*
X437170D02*
X440970D01*
X431870D02*
X435770D01*
X423370D02*
X427170D01*
X417870D02*
X421770D01*
X402870D02*
X406770D01*
X458870Y235281D02*
X462570D01*
X450270D02*
X454070D01*
X444870D02*
X448670D01*
X437170D02*
X440970D01*
X431870D02*
X435770D01*
X423370D02*
X427170D01*
X417870D02*
X421770D01*
X402870D02*
X406770D01*
X458870Y235381D02*
X462570D01*
X450270D02*
X454070D01*
X444870D02*
X448670D01*
X437170D02*
X440970D01*
X431870D02*
X435770D01*
X423370D02*
X427170D01*
X417870D02*
X421770D01*
X402770D02*
X406670D01*
X458770Y235481D02*
X462570D01*
X450270D02*
X454070D01*
X444870D02*
X448670D01*
X437170D02*
X440970D01*
X431870D02*
X435770D01*
X423370D02*
X427170D01*
X417970D02*
X421770D01*
X402770D02*
X406670D01*
X458770Y235581D02*
X462570D01*
X450270D02*
X454170D01*
X444870D02*
X448670D01*
X437170D02*
X440970D01*
X431770D02*
X435770D01*
X423370D02*
X427170D01*
X417970D02*
X421770D01*
X402770D02*
X406670D01*
X458670Y235681D02*
X462570D01*
X450270D02*
X454170D01*
X444870D02*
X448670D01*
X437170D02*
X440970D01*
X431770D02*
X435670D01*
X423370D02*
X427270D01*
X417970D02*
X421770D01*
X402770D02*
X406570D01*
X458670Y235781D02*
X462570D01*
X450270D02*
X454170D01*
X444870D02*
X448670D01*
X437170D02*
X440970D01*
X431670D02*
X435670D01*
X423370D02*
X427270D01*
X417970D02*
X421770D01*
X402770D02*
X406570D01*
X458570Y235881D02*
X462570D01*
X450270D02*
X454170D01*
X444870D02*
X448670D01*
X437170D02*
X440970D01*
X431670D02*
X435570D01*
X423370D02*
X427270D01*
X417970D02*
X421770D01*
X402770D02*
X406570D01*
X458570Y235981D02*
X462570D01*
X450270D02*
X454270D01*
X444870D02*
X448670D01*
X437170D02*
X440970D01*
X431670D02*
X435570D01*
X423370D02*
X427370D01*
X417970D02*
X421770D01*
X402770D02*
X406570D01*
X458570Y236081D02*
X462570D01*
X450270D02*
X454270D01*
X444870D02*
X448670D01*
X437170D02*
X440970D01*
X431670D02*
X435570D01*
X423370D02*
X427370D01*
X417970D02*
X421770D01*
X402770D02*
X406570D01*
X458570Y236181D02*
X462570D01*
X450270D02*
X454370D01*
X444870D02*
X448670D01*
X437170D02*
X440970D01*
X431570D02*
X435570D01*
X423470D02*
X427470D01*
X417970D02*
X421770D01*
X402770D02*
X406570D01*
X458570Y236281D02*
X462570D01*
X450370D02*
X454370D01*
X444870D02*
X448670D01*
X437170D02*
X440970D01*
X431570D02*
X435570D01*
X423470D02*
X427470D01*
X417970D02*
X421770D01*
X402770D02*
X406570D01*
X458370Y236381D02*
X462570D01*
X450370D02*
X454470D01*
X444870D02*
X448670D01*
X437170D02*
X440970D01*
X431470D02*
X435570D01*
X423470D02*
X427570D01*
X417970D02*
X421770D01*
X402770D02*
X406570D01*
X458270Y236481D02*
X462570D01*
X450370D02*
X454570D01*
X444870D02*
X448670D01*
X437170D02*
X440970D01*
X431370D02*
X435570D01*
X423470D02*
X427570D01*
X417970D02*
X421770D01*
X402770D02*
X406570D01*
X458270Y236581D02*
X462570D01*
X450370D02*
X454670D01*
X444870D02*
X448670D01*
X437170D02*
X440970D01*
X431370D02*
X435570D01*
X423570D02*
X427670D01*
X417970D02*
X421770D01*
X402770D02*
X406570D01*
X458170Y236681D02*
X462470D01*
X450470D02*
X454770D01*
X444870D02*
X448670D01*
X437170D02*
X440970D01*
X431270D02*
X435470D01*
X423570D02*
X427770D01*
X417970D02*
X421770D01*
X402770D02*
X406570D01*
X458070Y236781D02*
X462470D01*
X450470D02*
X454870D01*
X444870D02*
X448670D01*
X437170D02*
X440970D01*
X431170D02*
X435470D01*
X423670D02*
X427870D01*
X417970D02*
X421770D01*
X402770D02*
X406570D01*
X457970Y236881D02*
X462470D01*
X450570D02*
X454870D01*
X444870D02*
X448670D01*
X437170D02*
X440970D01*
X431070D02*
X435370D01*
X423670D02*
X427970D01*
X417970D02*
X421770D01*
X402770D02*
X406570D01*
X457770Y236981D02*
X462570D01*
X450570D02*
X455170D01*
X444870D02*
X448670D01*
X437170D02*
X440970D01*
X430870D02*
X435270D01*
X423670D02*
X428170D01*
X417970D02*
X421770D01*
X402770D02*
X406570D01*
X457670Y237081D02*
X462570D01*
X450570D02*
X455370D01*
X444870D02*
X448670D01*
X437170D02*
X440970D01*
X430670D02*
X435270D01*
X423670D02*
X428270D01*
X417970D02*
X421770D01*
X402770D02*
X406570D01*
X457570Y237181D02*
X462570D01*
X450570D02*
X455470D01*
X444870D02*
X448670D01*
X437170D02*
X440970D01*
X430570D02*
X435270D01*
X423770D02*
X428470D01*
X417870D02*
X421770D01*
X402770D02*
X406570D01*
X457170Y237281D02*
X462570D01*
X450670D02*
X455770D01*
X444870D02*
X448770D01*
X437170D02*
X440970D01*
X430170D02*
X435270D01*
X423770D02*
X428770D01*
X417870D02*
X421770D01*
X402770D02*
X406670D01*
X450670Y237381D02*
X462570D01*
X444870D02*
X448770D01*
X437170D02*
X440970D01*
X423870D02*
X435170D01*
X417870D02*
X421770D01*
X402770D02*
X406770D01*
X450770Y237481D02*
X462570D01*
X444870D02*
X448770D01*
X437170D02*
X440970D01*
X423970D02*
X435170D01*
X417970D02*
X421770D01*
X402870D02*
X406770D01*
X450870Y237581D02*
X462570D01*
X444870D02*
X448770D01*
X437170D02*
X440970D01*
X423970D02*
X435170D01*
X417970D02*
X421770D01*
X402870D02*
X406770D01*
X450870Y237681D02*
X462570D01*
X444870D02*
X448770D01*
X437170D02*
X440970D01*
X423970D02*
X435070D01*
X417970D02*
X421770D01*
X402870D02*
X406770D01*
X450870Y237781D02*
X462570D01*
X444870D02*
X448670D01*
X437170D02*
X440970D01*
X424070D02*
X434970D01*
X417970D02*
X421770D01*
X402870D02*
X406770D01*
X450970Y237881D02*
X462570D01*
X444870D02*
X448670D01*
X437170D02*
X440970D01*
X424070D02*
X434870D01*
X417870D02*
X421770D01*
X402870D02*
X406870D01*
X450970Y237981D02*
X462570D01*
X444870D02*
X448670D01*
X437170D02*
X440970D01*
X424170D02*
X434870D01*
X417870D02*
X421770D01*
X402870D02*
X406870D01*
X451070Y238081D02*
X462570D01*
X444870D02*
X448670D01*
X437170D02*
X440970D01*
X424270D02*
X434770D01*
X417870D02*
X421770D01*
X402870D02*
X406970D01*
X451170Y238181D02*
X462570D01*
X444870D02*
X448670D01*
X437170D02*
X440970D01*
X424270D02*
X434670D01*
X417870D02*
X421770D01*
X402870D02*
X407070D01*
X451170Y238281D02*
X462570D01*
X444870D02*
X448670D01*
X437170D02*
X440970D01*
X424370D02*
X434670D01*
X417970D02*
X421770D01*
X402970D02*
X407070D01*
X451270Y238381D02*
X462570D01*
X444870D02*
X448670D01*
X437170D02*
X440970D01*
X424470D02*
X434570D01*
X417970D02*
X421770D01*
X402970D02*
X407070D01*
X451370Y238481D02*
X462570D01*
X444870D02*
X448670D01*
X437170D02*
X440970D01*
X424570D02*
X434470D01*
X417970D02*
X421770D01*
X403070D02*
X407170D01*
X451370Y238581D02*
X462570D01*
X444870D02*
X448670D01*
X437170D02*
X440970D01*
X424670D02*
X434370D01*
X417970D02*
X421770D01*
X403070D02*
X407170D01*
X451470Y238681D02*
X462570D01*
X444870D02*
X448670D01*
X437170D02*
X440970D01*
X424670D02*
X434370D01*
X417970D02*
X421770D01*
X403170D02*
X407270D01*
X451570Y238781D02*
X462570D01*
X444870D02*
X448670D01*
X437170D02*
X440970D01*
X424870D02*
X434170D01*
X417970D02*
X421770D01*
X403170D02*
X407270D01*
X451670Y238881D02*
X462570D01*
X444870D02*
X448670D01*
X437170D02*
X440970D01*
X424970D02*
X434070D01*
X417970D02*
X421770D01*
X403170D02*
X407370D01*
X451770Y238981D02*
X462570D01*
X444870D02*
X448670D01*
X437170D02*
X440970D01*
X424970D02*
X433970D01*
X417970D02*
X421770D01*
X403170D02*
X407470D01*
X451870Y239081D02*
X462570D01*
X444870D02*
X448670D01*
X437170D02*
X440970D01*
X425270D02*
X433870D01*
X417970D02*
X421770D01*
X414070D02*
X414570D01*
X403170D02*
X407570D01*
X451970Y239181D02*
X462570D01*
X444870D02*
X448670D01*
X437170D02*
X440970D01*
X425270D02*
X433770D01*
X417970D02*
X421770D01*
X413870D02*
X414770D01*
X403170D02*
X407670D01*
X452070Y239281D02*
X462570D01*
X444870D02*
X448670D01*
X437170D02*
X440970D01*
X425370D02*
X433670D01*
X417970D02*
X421770D01*
X413870D02*
X414870D01*
X403270D02*
X407770D01*
X452370Y239381D02*
X462570D01*
X444870D02*
X448670D01*
X437170D02*
X440970D01*
X425570D02*
X433370D01*
X417970D02*
X421770D01*
X413770D02*
X414970D01*
X403270D02*
X407770D01*
X452470Y239481D02*
X462570D01*
X444870D02*
X448670D01*
X437170D02*
X440970D01*
X425670D02*
X433270D01*
X417970D02*
X421770D01*
X413570D02*
X415070D01*
X403370D02*
X407970D01*
X452470Y239581D02*
X462570D01*
X444870D02*
X448670D01*
X437170D02*
X440970D01*
X425870D02*
X433270D01*
X417970D02*
X421770D01*
X413570D02*
X415270D01*
X403470D02*
X408070D01*
X452770Y239681D02*
X462570D01*
X444870D02*
X448670D01*
X437170D02*
X440970D01*
X426070D02*
X432970D01*
X417970D02*
X421770D01*
X413470D02*
X415270D01*
X403470D02*
X408070D01*
X452970Y239781D02*
X462570D01*
X444870D02*
X448670D01*
X437170D02*
X440970D01*
X426270D02*
X432770D01*
X417970D02*
X421770D01*
X413270D02*
X415370D01*
X403470D02*
X408370D01*
X453070Y239881D02*
X462570D01*
X444870D02*
X448670D01*
X437170D02*
X440870D01*
X426370D02*
X432670D01*
X417970D02*
X421770D01*
X413070D02*
X415570D01*
X403570D02*
X408570D01*
X458670Y239981D02*
X462570D01*
X453270D02*
X458370D01*
X444870D02*
X448670D01*
X437170D02*
X440870D01*
X426670D02*
X432370D01*
X417970D02*
X421770D01*
X412970D02*
X415570D01*
X403570D02*
X408570D01*
X458770Y240081D02*
X462570D01*
X453470D02*
X458170D01*
X444870D02*
X448670D01*
X437170D02*
X440770D01*
X426870D02*
X432170D01*
X417970D02*
X421770D01*
X412670D02*
X415770D01*
X403670D02*
X408870D01*
X458770Y240181D02*
X462570D01*
X453670D02*
X457970D01*
X444970D02*
X448670D01*
X437170D02*
X440770D01*
X427070D02*
X432070D01*
X417970D02*
X421770D01*
X412470D02*
X415870D01*
X403670D02*
X408970D01*
X458770Y240281D02*
X462570D01*
X453870D02*
X457570D01*
X445170D02*
X448470D01*
X437370D02*
X440670D01*
X427270D02*
X431570D01*
X417970D02*
X421770D01*
X412370D02*
X415970D01*
X403770D02*
X409270D01*
X458770Y240381D02*
X462570D01*
X454270D02*
X457370D01*
X445370D02*
X448270D01*
X438070D02*
X440370D01*
X427670D02*
X431270D01*
X417970D02*
X421770D01*
X411570D02*
X416070D01*
X403770D02*
X409770D01*
X458770Y240481D02*
X462570D01*
X454870D02*
X456970D01*
X428370D02*
X430870D01*
X417970D02*
X421770D01*
X411270D02*
X416270D01*
X403870D02*
X410170D01*
X458770Y240581D02*
X462570D01*
X455470D02*
X456170D01*
X429170D02*
X430270D01*
X417870D02*
X421770D01*
X410670D02*
X416270D01*
X403970D02*
X410470D01*
X458770Y240681D02*
X462570D01*
X417870D02*
X421770D01*
X404070D02*
X416370D01*
X458770Y240781D02*
X462570D01*
X417870D02*
X421770D01*
X404070D02*
X416470D01*
X458770Y240881D02*
X462570D01*
X417870D02*
X421770D01*
X404170D02*
X416570D01*
X458870Y240981D02*
X462570D01*
X417870D02*
X421770D01*
X404170D02*
X416570D01*
X458870Y241081D02*
X462570D01*
X417870D02*
X421770D01*
X404270D02*
X416570D01*
X458870Y241181D02*
X462570D01*
X417870D02*
X421770D01*
X404370D02*
X416570D01*
X458770Y241281D02*
X462570D01*
X417870D02*
X421770D01*
X404470D02*
X416570D01*
X458770Y241381D02*
X462570D01*
X417870D02*
X421770D01*
X404470D02*
X416470D01*
X458770Y241481D02*
X462570D01*
X417870D02*
X421770D01*
X404570D02*
X416370D01*
X458770Y241581D02*
X462570D01*
X417870D02*
X421770D01*
X404670D02*
X416270D01*
X458770Y241681D02*
X462570D01*
X417970D02*
X421770D01*
X404770D02*
X416270D01*
X458770Y241781D02*
X462570D01*
X417970D02*
X421770D01*
X404870D02*
X416270D01*
X458770Y241881D02*
X462570D01*
X417970D02*
X421770D01*
X405070D02*
X416170D01*
X458770Y241981D02*
X462570D01*
X417970D02*
X421770D01*
X405070D02*
X415970D01*
X458770Y242081D02*
X462570D01*
X417970D02*
X421770D01*
X405170D02*
X415970D01*
X458770Y242181D02*
X462570D01*
X417970D02*
X421770D01*
X405370D02*
X415870D01*
X458770Y242281D02*
X462470D01*
X417970D02*
X421770D01*
X405470D02*
X415670D01*
X458870Y242381D02*
X462470D01*
X417970D02*
X421770D01*
X405670D02*
X415570D01*
X458870Y242481D02*
X462470D01*
X417970D02*
X421770D01*
X405770D02*
X415370D01*
X458770Y242581D02*
X462570D01*
X417970D02*
X421770D01*
X405870D02*
X415270D01*
X458770Y242681D02*
X462670D01*
X417970D02*
X421770D01*
X405970D02*
X415170D01*
X458770Y242781D02*
X462670D01*
X417970D02*
X421770D01*
X406270D02*
X414870D01*
X458770Y242881D02*
X462570D01*
X417970D02*
X421770D01*
X406470D02*
X414770D01*
X458770Y242981D02*
X462570D01*
X417970D02*
X421770D01*
X406570D02*
X414570D01*
X458770Y243081D02*
X462470D01*
X417970D02*
X421770D01*
X406970D02*
X414270D01*
X458770Y243181D02*
X462570D01*
X417970D02*
X421770D01*
X407170D02*
X414170D01*
X458770Y243281D02*
X462570D01*
X417970D02*
X421770D01*
X407270D02*
X414070D01*
X458770Y243381D02*
X462670D01*
X417970D02*
X421770D01*
X407870D02*
X413570D01*
X458870Y243481D02*
X462670D01*
X417970D02*
X421770D01*
X408070D02*
X413170D01*
X458870Y243581D02*
X462570D01*
X417970D02*
X421770D01*
X408170D02*
X412970D01*
X458870Y243681D02*
X462570D01*
X417970D02*
X421770D01*
X408570D02*
X412670D01*
X458770Y243781D02*
X462570D01*
X417970D02*
X421770D01*
X408870D02*
X412370D01*
X458670Y243881D02*
X462570D01*
X417970D02*
X421770D01*
X409170D02*
X411570D01*
X458670Y243981D02*
X462570D01*
X417970D02*
X421770D01*
X458770Y244081D02*
X462570D01*
X417970D02*
X421770D01*
X458870Y244181D02*
X462470D01*
X418170D02*
X421770D01*
X458970Y244281D02*
X462470D01*
X418170D02*
X421670D01*
X459070Y244381D02*
X462370D01*
X418270D02*
X421570D01*
X459170Y244481D02*
X462270D01*
X418470D02*
X421470D01*
X461370Y244581D02*
X461770D01*
X459570Y244681D02*
X462070D01*
X451670D02*
X451970D01*
X445670D02*
X447370D01*
X441670D02*
X442370D01*
X436470D02*
X436970D01*
X433170D02*
X433770D01*
X427870D02*
X428270D01*
X424470D02*
X424770D01*
X420770D02*
X421570D01*
X415970D02*
X416370D01*
X410470D02*
X410870D01*
X459470Y244781D02*
X462270D01*
X451370D02*
X452270D01*
X445370D02*
X447570D01*
X441270D02*
X442570D01*
X436270D02*
X437170D01*
X432970D02*
X433870D01*
X427670D02*
X428670D01*
X424170D02*
X425070D01*
X420770D02*
X421870D01*
X415670D02*
X416570D01*
X410170D02*
X411170D01*
X459370Y244881D02*
X462270D01*
X451270D02*
X452370D01*
X445170D02*
X447770D01*
X441270D02*
X442670D01*
X436270D02*
X437270D01*
X432870D02*
X433970D01*
X427570D02*
X428670D01*
X424070D02*
X425270D01*
X420670D02*
X421970D01*
X415470D02*
X416570D01*
X410170D02*
X411270D01*
X458870Y244981D02*
X462670D01*
X451170D02*
X452470D01*
X444770D02*
X448370D01*
X441070D02*
X442670D01*
X436170D02*
X437370D01*
X432870D02*
X433970D01*
X427470D02*
X428770D01*
X424070D02*
X425370D01*
X420670D02*
X421970D01*
X415470D02*
X416670D01*
X410070D02*
X411370D01*
X458670Y245081D02*
X462770D01*
X451070D02*
X452570D01*
X444470D02*
X448470D01*
X440970D02*
X442670D01*
X436070D02*
X437370D01*
X432670D02*
X434070D01*
X427370D02*
X428770D01*
X423970D02*
X425370D01*
X420670D02*
X422070D01*
X415370D02*
X416770D01*
X409970D02*
X411370D01*
X458470Y245181D02*
X462970D01*
X451070D02*
X452570D01*
X444370D02*
X448570D01*
X440870D02*
X442670D01*
X436070D02*
X437470D01*
X432570D02*
X434070D01*
X427370D02*
X428770D01*
X423970D02*
X425470D01*
X420570D02*
X422070D01*
X415370D02*
X416770D01*
X409970D02*
X411470D01*
X458270Y245281D02*
X463070D01*
X450970D02*
X452570D01*
X444170D02*
X448670D01*
X440870D02*
X442670D01*
X436070D02*
X437570D01*
X432570D02*
X434070D01*
X427370D02*
X428870D01*
X423970D02*
X425470D01*
X420570D02*
X422070D01*
X415270D02*
X416870D01*
X409970D02*
X411470D01*
X458170Y245381D02*
X463270D01*
X450970D02*
X452670D01*
X444070D02*
X448770D01*
X440770D02*
X442570D01*
X435970D02*
X437570D01*
X432570D02*
X434170D01*
X427370D02*
X428870D01*
X423970D02*
X425470D01*
X420570D02*
X422070D01*
X415270D02*
X416870D01*
X409970D02*
X411570D01*
X458070Y245481D02*
X463370D01*
X450970D02*
X452670D01*
X443970D02*
X448870D01*
X440770D02*
X442570D01*
X435970D02*
X437570D01*
X432570D02*
X434170D01*
X427370D02*
X428870D01*
X423970D02*
X425470D01*
X420570D02*
X422070D01*
X415170D02*
X416870D01*
X409970D02*
X411570D01*
X457970Y245581D02*
X463370D01*
X450970D02*
X452670D01*
X443870D02*
X448970D01*
X440570D02*
X442570D01*
X435970D02*
X437570D01*
X432570D02*
X434170D01*
X427370D02*
X428870D01*
X423970D02*
X425470D01*
X420570D02*
X422070D01*
X415170D02*
X416870D01*
X409970D02*
X411570D01*
X457970Y245681D02*
X463570D01*
X450970D02*
X452670D01*
X443770D02*
X449070D01*
X440470D02*
X442470D01*
X435970D02*
X437570D01*
X432570D02*
X434170D01*
X427370D02*
X428870D01*
X423970D02*
X425470D01*
X420570D02*
X422070D01*
X415270D02*
X416870D01*
X409970D02*
X411570D01*
X457870Y245781D02*
X463570D01*
X450970D02*
X452670D01*
X443670D02*
X449170D01*
X440470D02*
X442470D01*
X435970D02*
X437570D01*
X432570D02*
X434170D01*
X427370D02*
X428870D01*
X423970D02*
X425470D01*
X420570D02*
X422070D01*
X415270D02*
X416870D01*
X409970D02*
X411570D01*
X457870Y245881D02*
X463670D01*
X450970D02*
X452670D01*
X443570D02*
X449270D01*
X440270D02*
X442370D01*
X435970D02*
X437570D01*
X432570D02*
X434170D01*
X427370D02*
X428870D01*
X423970D02*
X425470D01*
X420570D02*
X422070D01*
X415270D02*
X416870D01*
X409970D02*
X411570D01*
X457970Y245981D02*
X463670D01*
X450970D02*
X452670D01*
X443570D02*
X449270D01*
X440270D02*
X442270D01*
X435970D02*
X437570D01*
X432570D02*
X434170D01*
X427370D02*
X428870D01*
X423970D02*
X425470D01*
X420570D02*
X422070D01*
X415270D02*
X416870D01*
X409970D02*
X411570D01*
X457970Y246081D02*
X463670D01*
X450970D02*
X452670D01*
X443570D02*
X449270D01*
X440170D02*
X442170D01*
X435970D02*
X437570D01*
X432570D02*
X434170D01*
X427370D02*
X428870D01*
X423970D02*
X425470D01*
X420570D02*
X422070D01*
X415270D02*
X416870D01*
X409970D02*
X411570D01*
X461670Y246181D02*
X463770D01*
X457970D02*
X459970D01*
X450970D02*
X452670D01*
X447270D02*
X449270D01*
X443370D02*
X445670D01*
X440170D02*
X442070D01*
X435970D02*
X437570D01*
X432570D02*
X434170D01*
X427370D02*
X428870D01*
X423970D02*
X425470D01*
X420570D02*
X422070D01*
X415270D02*
X416870D01*
X409970D02*
X411570D01*
X461870Y246281D02*
X463770D01*
X457970D02*
X459770D01*
X450970D02*
X452670D01*
X447370D02*
X449270D01*
X443270D02*
X445670D01*
X440070D02*
X442070D01*
X435970D02*
X437570D01*
X432570D02*
X434170D01*
X427370D02*
X428870D01*
X423970D02*
X425470D01*
X420570D02*
X422070D01*
X415170D02*
X416870D01*
X409870D02*
X411570D01*
X461970Y246381D02*
X463770D01*
X458070D02*
X459470D01*
X450970D02*
X452670D01*
X447570D02*
X449270D01*
X443270D02*
X445370D01*
X439970D02*
X441970D01*
X435970D02*
X437570D01*
X432570D02*
X434270D01*
X427370D02*
X428870D01*
X423970D02*
X425470D01*
X420570D02*
X422070D01*
X415170D02*
X416870D01*
X409870D02*
X411570D01*
X462170Y246481D02*
X463770D01*
X458170D02*
X459170D01*
X450970D02*
X452670D01*
X447870D02*
X449170D01*
X443270D02*
X445170D01*
X439870D02*
X441870D01*
X435970D02*
X437570D01*
X432570D02*
X434270D01*
X427370D02*
X428870D01*
X423970D02*
X425470D01*
X420570D02*
X422070D01*
X415170D02*
X416870D01*
X409870D02*
X411570D01*
X462270Y246581D02*
X463770D01*
X458270D02*
X458970D01*
X450970D02*
X452670D01*
X447970D02*
X449070D01*
X443170D02*
X445070D01*
X439870D02*
X441670D01*
X435970D02*
X437570D01*
X432570D02*
X434170D01*
X427370D02*
X428870D01*
X423970D02*
X425470D01*
X420570D02*
X422070D01*
X415170D02*
X416870D01*
X409870D02*
X411570D01*
X462270Y246681D02*
X463770D01*
X450970D02*
X452670D01*
X448170D02*
X448970D01*
X443070D02*
X444970D01*
X439770D02*
X441670D01*
X435970D02*
X437570D01*
X432570D02*
X434170D01*
X427370D02*
X428870D01*
X423970D02*
X425470D01*
X420570D02*
X422070D01*
X415170D02*
X416870D01*
X409870D02*
X411570D01*
X462270Y246781D02*
X463770D01*
X450970D02*
X452670D01*
X442970D02*
X444870D01*
X439670D02*
X441570D01*
X435970D02*
X437570D01*
X432570D02*
X434170D01*
X427370D02*
X428870D01*
X423970D02*
X425470D01*
X420570D02*
X422070D01*
X415170D02*
X416870D01*
X409970D02*
X411570D01*
X462270Y246881D02*
X463770D01*
X450970D02*
X452670D01*
X442970D02*
X444770D01*
X439570D02*
X441570D01*
X435970D02*
X437670D01*
X432570D02*
X434170D01*
X427370D02*
X428870D01*
X423970D02*
X425470D01*
X420570D02*
X422070D01*
X415170D02*
X416870D01*
X409870D02*
X411570D01*
X462270Y246981D02*
X463770D01*
X450970D02*
X452670D01*
X442970D02*
X444670D01*
X439470D02*
X441370D01*
X435970D02*
X437670D01*
X432570D02*
X434170D01*
X427370D02*
X428870D01*
X423970D02*
X425470D01*
X420570D02*
X422070D01*
X415170D02*
X416870D01*
X409870D02*
X411570D01*
X462270Y247081D02*
X463770D01*
X450970D02*
X452670D01*
X442870D02*
X444570D01*
X439370D02*
X441370D01*
X435970D02*
X437870D01*
X432570D02*
X434170D01*
X427370D02*
X428870D01*
X423970D02*
X425470D01*
X420570D02*
X422070D01*
X415270D02*
X416870D01*
X409870D02*
X411570D01*
X462070Y247181D02*
X463770D01*
X450970D02*
X452670D01*
X442870D02*
X444570D01*
X439270D02*
X441270D01*
X435970D02*
X437970D01*
X432570D02*
X434170D01*
X427370D02*
X428870D01*
X423970D02*
X425470D01*
X420570D02*
X422070D01*
X415270D02*
X416870D01*
X409870D02*
X411570D01*
X461970Y247281D02*
X463770D01*
X450970D02*
X452670D01*
X442870D02*
X444470D01*
X439270D02*
X441270D01*
X435970D02*
X438070D01*
X432570D02*
X434170D01*
X427370D02*
X428870D01*
X423970D02*
X425470D01*
X420570D02*
X422070D01*
X415270D02*
X416870D01*
X409870D02*
X411570D01*
X461570Y247381D02*
X463770D01*
X450970D02*
X452670D01*
X442770D02*
X444470D01*
X439070D02*
X441170D01*
X435970D02*
X438170D01*
X432570D02*
X434170D01*
X427370D02*
X428870D01*
X423970D02*
X425470D01*
X420570D02*
X422070D01*
X415270D02*
X416870D01*
X409870D02*
X411570D01*
X461170Y247481D02*
X463770D01*
X450970D02*
X452670D01*
X442770D02*
X444470D01*
X438970D02*
X441070D01*
X435970D02*
X438370D01*
X432570D02*
X434170D01*
X427370D02*
X428870D01*
X423970D02*
X425470D01*
X420570D02*
X422070D01*
X415270D02*
X416870D01*
X409870D02*
X411570D01*
X460970Y247581D02*
X463670D01*
X450970D02*
X452670D01*
X442770D02*
X444470D01*
X438870D02*
X440970D01*
X435970D02*
X438470D01*
X432570D02*
X434170D01*
X427370D02*
X428870D01*
X423970D02*
X425470D01*
X420570D02*
X422070D01*
X415270D02*
X416870D01*
X409870D02*
X411570D01*
X460570Y247681D02*
X463670D01*
X450970D02*
X452670D01*
X448970D02*
X449070D01*
X442770D02*
X444570D01*
X435970D02*
X440870D01*
X432570D02*
X434170D01*
X427370D02*
X428870D01*
X423970D02*
X425470D01*
X420570D02*
X422070D01*
X415270D02*
X416870D01*
X409870D02*
X411570D01*
X459770Y247781D02*
X463670D01*
X450970D02*
X452670D01*
X442770D02*
X449470D01*
X435970D02*
X440770D01*
X432570D02*
X434170D01*
X427370D02*
X428870D01*
X423970D02*
X425470D01*
X420570D02*
X422070D01*
X415270D02*
X416870D01*
X409870D02*
X411570D01*
X459570Y247881D02*
X463670D01*
X450970D02*
X452670D01*
X442770D02*
X449570D01*
X435970D02*
X440770D01*
X432570D02*
X434170D01*
X427370D02*
X428870D01*
X423970D02*
X425470D01*
X420570D02*
X422070D01*
X415270D02*
X416870D01*
X409870D02*
X411570D01*
X459370Y247981D02*
X463570D01*
X450970D02*
X452670D01*
X442770D02*
X449570D01*
X435970D02*
X440670D01*
X432570D02*
X434170D01*
X427370D02*
X428870D01*
X423970D02*
X425470D01*
X420570D02*
X422070D01*
X415270D02*
X416870D01*
X409870D02*
X411570D01*
X458970Y248081D02*
X463470D01*
X450970D02*
X452670D01*
X442670D02*
X449670D01*
X435970D02*
X440570D01*
X432570D02*
X434170D01*
X427370D02*
X428870D01*
X423970D02*
X425470D01*
X420570D02*
X422070D01*
X415270D02*
X416870D01*
X409870D02*
X411570D01*
X458870Y248181D02*
X463370D01*
X450970D02*
X452670D01*
X442670D02*
X449770D01*
X435970D02*
X440470D01*
X432570D02*
X434170D01*
X427370D02*
X428870D01*
X423970D02*
X425470D01*
X420570D02*
X422070D01*
X415270D02*
X416870D01*
X409870D02*
X411570D01*
X458770Y248281D02*
X463270D01*
X450970D02*
X452670D01*
X442670D02*
X449770D01*
X435970D02*
X440370D01*
X432570D02*
X434170D01*
X427370D02*
X428870D01*
X423970D02*
X425470D01*
X420570D02*
X422070D01*
X415270D02*
X416870D01*
X409870D02*
X411570D01*
X458570Y248381D02*
X463170D01*
X450970D02*
X452670D01*
X442670D02*
X449870D01*
X435970D02*
X440370D01*
X432570D02*
X434170D01*
X427370D02*
X428870D01*
X423970D02*
X425470D01*
X420570D02*
X422070D01*
X415270D02*
X416870D01*
X409870D02*
X411570D01*
X458570Y248481D02*
X463070D01*
X450970D02*
X452670D01*
X442670D02*
X449870D01*
X435970D02*
X440270D01*
X432570D02*
X434170D01*
X427370D02*
X428870D01*
X423970D02*
X425470D01*
X420570D02*
X422070D01*
X415270D02*
X416870D01*
X409870D02*
X411570D01*
X458470Y248581D02*
X462670D01*
X450970D02*
X452670D01*
X442670D02*
X449870D01*
X435970D02*
X440170D01*
X432570D02*
X434170D01*
X427370D02*
X428870D01*
X423970D02*
X425470D01*
X420570D02*
X422070D01*
X415270D02*
X416870D01*
X409870D02*
X411570D01*
X458370Y248681D02*
X462570D01*
X450970D02*
X452670D01*
X442670D02*
X449870D01*
X435970D02*
X440170D01*
X432570D02*
X434170D01*
X427370D02*
X428870D01*
X423970D02*
X425470D01*
X420570D02*
X422070D01*
X415270D02*
X416870D01*
X409870D02*
X411570D01*
X458270Y248781D02*
X462470D01*
X450970D02*
X452670D01*
X442670D02*
X449770D01*
X435970D02*
X440070D01*
X432570D02*
X434170D01*
X427370D02*
X428870D01*
X423970D02*
X425470D01*
X420570D02*
X422070D01*
X415270D02*
X416870D01*
X409870D02*
X411570D01*
X458270Y248881D02*
X461470D01*
X450970D02*
X452670D01*
X442770D02*
X449770D01*
X435970D02*
X439970D01*
X432570D02*
X434170D01*
X427370D02*
X428970D01*
X423970D02*
X425470D01*
X420570D02*
X422070D01*
X415270D02*
X416870D01*
X409870D02*
X411570D01*
X458170Y248981D02*
X461270D01*
X450970D02*
X452670D01*
X442770D02*
X449670D01*
X435970D02*
X440070D01*
X432570D02*
X434170D01*
X427370D02*
X428970D01*
X423970D02*
X425470D01*
X420570D02*
X422070D01*
X415270D02*
X416870D01*
X409870D02*
X411570D01*
X458070Y249081D02*
X460970D01*
X450970D02*
X452670D01*
X442770D02*
X449670D01*
X437770D02*
X440170D01*
X435970D02*
X437670D01*
X432570D02*
X434170D01*
X427370D02*
X429070D01*
X423970D02*
X425470D01*
X420570D02*
X422070D01*
X415170D02*
X416970D01*
X409870D02*
X411570D01*
X458070Y249181D02*
X460070D01*
X450970D02*
X452670D01*
X448170D02*
X449670D01*
X442770D02*
X444370D01*
X437970D02*
X440170D01*
X435970D02*
X437570D01*
X432570D02*
X434170D01*
X427370D02*
X429070D01*
X423970D02*
X425470D01*
X420570D02*
X422070D01*
X415170D02*
X416970D01*
X409870D02*
X411570D01*
X458070Y249281D02*
X460070D01*
X450970D02*
X452670D01*
X448170D02*
X449670D01*
X442770D02*
X444470D01*
X438070D02*
X440370D01*
X435970D02*
X437570D01*
X432570D02*
X434170D01*
X427370D02*
X429170D01*
X423970D02*
X425470D01*
X420570D02*
X422070D01*
X415170D02*
X416970D01*
X409870D02*
X411570D01*
X457970Y249381D02*
X459970D01*
X450970D02*
X452770D01*
X448070D02*
X449670D01*
X442870D02*
X444470D01*
X438170D02*
X440470D01*
X435970D02*
X437570D01*
X432570D02*
X434170D01*
X427370D02*
X429170D01*
X423970D02*
X425470D01*
X420570D02*
X422070D01*
X415270D02*
X416970D01*
X409870D02*
X411570D01*
X457970Y249481D02*
X459770D01*
X450970D02*
X452870D01*
X448070D02*
X449670D01*
X442870D02*
X444470D01*
X438370D02*
X440470D01*
X435970D02*
X437570D01*
X432570D02*
X434170D01*
X427370D02*
X429170D01*
X423970D02*
X425470D01*
X420570D02*
X422070D01*
X415270D02*
X417070D01*
X409870D02*
X411570D01*
X457970Y249581D02*
X459770D01*
X450970D02*
X452970D01*
X447970D02*
X449670D01*
X442870D02*
X444570D01*
X438470D02*
X440670D01*
X435970D02*
X437570D01*
X432470D02*
X434070D01*
X427370D02*
X429170D01*
X423970D02*
X425470D01*
X420370D02*
X422070D01*
X415270D02*
X417070D01*
X409870D02*
X411570D01*
X457970Y249681D02*
X459670D01*
X450970D02*
X452970D01*
X447970D02*
X449570D01*
X442870D02*
X444570D01*
X438470D02*
X440670D01*
X435970D02*
X437570D01*
X432370D02*
X434070D01*
X427370D02*
X429270D01*
X423970D02*
X425470D01*
X420370D02*
X422070D01*
X415270D02*
X417170D01*
X409870D02*
X411570D01*
X457970Y249781D02*
X459670D01*
X450970D02*
X452970D01*
X447870D02*
X449570D01*
X442970D02*
X444570D01*
X438670D02*
X440770D01*
X435970D02*
X437570D01*
X432370D02*
X434070D01*
X427370D02*
X429270D01*
X423970D02*
X425470D01*
X420370D02*
X422070D01*
X415270D02*
X417170D01*
X409870D02*
X411570D01*
X457970Y249881D02*
X459670D01*
X450970D02*
X452970D01*
X447870D02*
X449570D01*
X442970D02*
X444670D01*
X438770D02*
X440970D01*
X435970D02*
X437570D01*
X432270D02*
X434070D01*
X427370D02*
X429370D01*
X423970D02*
X425470D01*
X420270D02*
X422070D01*
X415270D02*
X417370D01*
X409870D02*
X411570D01*
X457970Y249981D02*
X459670D01*
X450970D02*
X452970D01*
X447770D02*
X449470D01*
X443070D02*
X444770D01*
X438970D02*
X441070D01*
X435970D02*
X437570D01*
X432270D02*
X433970D01*
X427370D02*
X429470D01*
X423970D02*
X425470D01*
X420270D02*
X421970D01*
X415270D02*
X417470D01*
X409870D02*
X411570D01*
X457970Y250081D02*
X459670D01*
X450970D02*
X453170D01*
X447670D02*
X449370D01*
X443170D02*
X444870D01*
X439070D02*
X441070D01*
X435970D02*
X437570D01*
X432270D02*
X433970D01*
X427370D02*
X429470D01*
X423970D02*
X425470D01*
X420170D02*
X421970D01*
X415270D02*
X417470D01*
X409870D02*
X411570D01*
X462670Y250181D02*
X463070D01*
X457970D02*
X459770D01*
X450970D02*
X453370D01*
X447470D02*
X449370D01*
X443270D02*
X445070D01*
X439170D02*
X441270D01*
X435970D02*
X437570D01*
X432070D02*
X433970D01*
X427370D02*
X429670D01*
X423970D02*
X425470D01*
X420070D02*
X421870D01*
X415270D02*
X417670D01*
X409870D02*
X411570D01*
X462570Y250281D02*
X463270D01*
X458070D02*
X459870D01*
X456070D02*
X456870D01*
X450970D02*
X453570D01*
X447370D02*
X449270D01*
X443270D02*
X445170D01*
X439270D02*
X441370D01*
X435970D02*
X437570D01*
X431970D02*
X433870D01*
X427370D02*
X429770D01*
X423970D02*
X425470D01*
X419970D02*
X421870D01*
X415270D02*
X417770D01*
X409870D02*
X411570D01*
X462370Y250381D02*
X463270D01*
X458170D02*
X459970D01*
X455970D02*
X456970D01*
X450970D02*
X453570D01*
X447270D02*
X449270D01*
X443270D02*
X445370D01*
X439370D02*
X441370D01*
X435970D02*
X437570D01*
X431870D02*
X433870D01*
X427370D02*
X429870D01*
X423970D02*
X425470D01*
X419870D02*
X421770D01*
X415270D02*
X417870D01*
X409870D02*
X411570D01*
X461670Y250481D02*
X463370D01*
X458170D02*
X460570D01*
X455970D02*
X456970D01*
X450970D02*
X454470D01*
X446770D02*
X449270D01*
X443370D02*
X445770D01*
X439470D02*
X441570D01*
X435970D02*
X437570D01*
X431070D02*
X433770D01*
X427370D02*
X430670D01*
X423970D02*
X425470D01*
X419270D02*
X421770D01*
X418570D02*
X418870D01*
X415270D02*
X418470D01*
X409870D02*
X411570D01*
X458270Y250581D02*
X463370D01*
X455870D02*
X456970D01*
X450970D02*
X454770D01*
X443370D02*
X449170D01*
X439570D02*
X441670D01*
X435970D02*
X437570D01*
X427370D02*
X433770D01*
X423970D02*
X425470D01*
X415270D02*
X421770D01*
X409870D02*
X411570D01*
X458270Y250681D02*
X463370D01*
X455870D02*
X457070D01*
X450970D02*
X454770D01*
X443470D02*
X449070D01*
X439670D02*
X441770D01*
X435970D02*
X437570D01*
X427370D02*
X433670D01*
X423970D02*
X425470D01*
X415270D02*
X421770D01*
X409870D02*
X411570D01*
X458270Y250781D02*
X463370D01*
X455870D02*
X457070D01*
X450970D02*
X454970D01*
X443570D02*
X448970D01*
X439770D02*
X441870D01*
X435970D02*
X437570D01*
X427370D02*
X433670D01*
X423970D02*
X425470D01*
X415270D02*
X421670D01*
X409870D02*
X411570D01*
X458270Y250881D02*
X463370D01*
X455770D02*
X457170D01*
X450970D02*
X455070D01*
X443570D02*
X448970D01*
X439870D02*
X441970D01*
X435970D02*
X437570D01*
X427370D02*
X433570D01*
X423970D02*
X425470D01*
X415270D02*
X421670D01*
X409870D02*
X411570D01*
X458470Y250981D02*
X463370D01*
X455770D02*
X457170D01*
X450970D02*
X455070D01*
X443670D02*
X448870D01*
X439970D02*
X442070D01*
X435970D02*
X437570D01*
X427370D02*
X433370D01*
X423970D02*
X425470D01*
X415270D02*
X421470D01*
X409870D02*
X411570D01*
X458570Y251081D02*
X463370D01*
X455770D02*
X457170D01*
X450970D02*
X455070D01*
X443770D02*
X448670D01*
X440170D02*
X442270D01*
X435970D02*
X437570D01*
X427370D02*
X433370D01*
X423970D02*
X425470D01*
X415270D02*
X421470D01*
X409870D02*
X411570D01*
X458570Y251181D02*
X463370D01*
X455770D02*
X457170D01*
X450970D02*
X455070D01*
X443870D02*
X448570D01*
X440170D02*
X442270D01*
X435970D02*
X437570D01*
X427370D02*
X433270D01*
X423970D02*
X425470D01*
X415270D02*
X421370D01*
X409870D02*
X411570D01*
X458670Y251281D02*
X463370D01*
X455770D02*
X457170D01*
X450970D02*
X455070D01*
X444170D02*
X448370D01*
X440270D02*
X442370D01*
X435970D02*
X437570D01*
X427370D02*
X433170D01*
X423970D02*
X425470D01*
X415270D02*
X421170D01*
X409870D02*
X411570D01*
X458870Y251381D02*
X463370D01*
X455770D02*
X457170D01*
X450970D02*
X455070D01*
X444170D02*
X448370D01*
X440370D02*
X442470D01*
X435970D02*
X437570D01*
X427370D02*
X433070D01*
X423970D02*
X425470D01*
X415270D02*
X421070D01*
X409870D02*
X411570D01*
X458970Y251481D02*
X463270D01*
X455770D02*
X457170D01*
X452770D02*
X455070D01*
X450970D02*
X452670D01*
X444270D02*
X448170D01*
X440470D02*
X442370D01*
X435970D02*
X437570D01*
X428970D02*
X433070D01*
X427370D02*
X428870D01*
X423970D02*
X425470D01*
X415270D02*
X420970D01*
X409870D02*
X411570D01*
X459070Y251581D02*
X463070D01*
X455770D02*
X457070D01*
X452870D02*
X455070D01*
X451070D02*
X452570D01*
X444470D02*
X447970D01*
X440570D02*
X442370D01*
X435970D02*
X437570D01*
X429270D02*
X432870D01*
X427370D02*
X428770D01*
X423970D02*
X425470D01*
X417270D02*
X420770D01*
X415270D02*
X416870D01*
X409870D02*
X411570D01*
X459270Y251681D02*
X462870D01*
X455770D02*
X457070D01*
X453170D02*
X454970D01*
X451170D02*
X452570D01*
X444670D02*
X447770D01*
X440770D02*
X442270D01*
X435970D02*
X437570D01*
X429470D02*
X432670D01*
X427470D02*
X428770D01*
X423970D02*
X425370D01*
X417570D02*
X420570D01*
X415270D02*
X416870D01*
X409870D02*
X411570D01*
X459370Y251781D02*
X462670D01*
X455770D02*
X457070D01*
X453270D02*
X454870D01*
X451270D02*
X452370D01*
X444870D02*
X447670D01*
X440870D02*
X442270D01*
X435970D02*
X437570D01*
X429670D02*
X432570D01*
X427470D02*
X428670D01*
X424070D02*
X425270D01*
X417570D02*
X420470D01*
X415270D02*
X416870D01*
X409870D02*
X411570D01*
X459770Y251881D02*
X462370D01*
X455770D02*
X457170D01*
X453670D02*
X454670D01*
X451470D02*
X452070D01*
X445070D02*
X447370D01*
X441070D02*
X441970D01*
X435970D02*
X437570D01*
X429970D02*
X432170D01*
X427670D02*
X428470D01*
X424370D02*
X424970D01*
X417870D02*
X420070D01*
X415270D02*
X416870D01*
X409870D02*
X411570D01*
X460870Y251981D02*
X461070D01*
X455770D02*
X457170D01*
X446070D02*
X446370D01*
X435970D02*
X437570D01*
X415270D02*
X416870D01*
X409870D02*
X411570D01*
X455770Y252081D02*
X457170D01*
X435970D02*
X437570D01*
X415270D02*
X416870D01*
X409870D02*
X411570D01*
X455770Y252181D02*
X457170D01*
X435970D02*
X437570D01*
X415270D02*
X416870D01*
X409870D02*
X411570D01*
X455770Y252281D02*
X457170D01*
X435970D02*
X437570D01*
X415270D02*
X416870D01*
X409870D02*
X411570D01*
X455770Y252381D02*
X457170D01*
X435970D02*
X437570D01*
X415270D02*
X416870D01*
X409870D02*
X411670D01*
X455770Y252481D02*
X457170D01*
X435970D02*
X437570D01*
X415270D02*
X416870D01*
X409870D02*
X411670D01*
X455770Y252581D02*
X457170D01*
X435970D02*
X437570D01*
X415270D02*
X416870D01*
X409870D02*
X411670D01*
X455770Y252681D02*
X457170D01*
X435970D02*
X437570D01*
X415270D02*
X416870D01*
X412770D02*
X413070D01*
X409570D02*
X411770D01*
X409270D02*
X409370D01*
X407670D02*
X407770D01*
X455770Y252781D02*
X457170D01*
X435970D02*
X437570D01*
X415170D02*
X416870D01*
X407270D02*
X414170D01*
X455770Y252881D02*
X457170D01*
X435970D02*
X437570D01*
X424270D02*
X425170D01*
X415170D02*
X416870D01*
X406970D02*
X414470D01*
X455770Y252981D02*
X457170D01*
X435970D02*
X437570D01*
X424070D02*
X425370D01*
X415170D02*
X416870D01*
X406870D02*
X414670D01*
X455770Y253081D02*
X457170D01*
X435970D02*
X437570D01*
X423970D02*
X425370D01*
X415170D02*
X416870D01*
X406870D02*
X414670D01*
X455770Y253181D02*
X457170D01*
X435970D02*
X437570D01*
X423970D02*
X425470D01*
X415270D02*
X416870D01*
X406870D02*
X414670D01*
X455770Y253281D02*
X457170D01*
X435970D02*
X437570D01*
X423870D02*
X425570D01*
X415270D02*
X416870D01*
X406870D02*
X414770D01*
X455770Y253381D02*
X457170D01*
X435970D02*
X437570D01*
X423770D02*
X425670D01*
X415270D02*
X416870D01*
X406870D02*
X414770D01*
X455770Y253481D02*
X457170D01*
X435970D02*
X437570D01*
X423770D02*
X425670D01*
X415270D02*
X416870D01*
X406870D02*
X414770D01*
X455770Y253581D02*
X457070D01*
X435970D02*
X437570D01*
X423770D02*
X425670D01*
X415270D02*
X416870D01*
X406870D02*
X414670D01*
X455770Y253681D02*
X457070D01*
X435970D02*
X437570D01*
X423670D02*
X425670D01*
X415270D02*
X416870D01*
X406870D02*
X414670D01*
X455870Y253781D02*
X457070D01*
X435970D02*
X437570D01*
X423670D02*
X425770D01*
X415270D02*
X416870D01*
X406870D02*
X414570D01*
X455870Y253881D02*
X456970D01*
X435970D02*
X437570D01*
X423770D02*
X425670D01*
X415270D02*
X416870D01*
X406870D02*
X414470D01*
X455970Y253981D02*
X456970D01*
X435970D02*
X437570D01*
X423770D02*
X425670D01*
X415270D02*
X416870D01*
X406970D02*
X414370D01*
X456170Y254081D02*
X456570D01*
X435970D02*
X437570D01*
X423870D02*
X425570D01*
X415170D02*
X416870D01*
X407070D02*
X414170D01*
X435970Y254181D02*
X437470D01*
X423870D02*
X425470D01*
X415270D02*
X416870D01*
X413370D02*
X413670D01*
X412470D02*
X412970D01*
X410270D02*
X412170D01*
X409770D02*
X410070D01*
X408470D02*
X409170D01*
X407270D02*
X407970D01*
X436070Y254281D02*
X437470D01*
X423970D02*
X425470D01*
X415370D02*
X416770D01*
X436070Y254381D02*
X437370D01*
X424070D02*
X425370D01*
X415370D02*
X416770D01*
X436070Y254481D02*
X437370D01*
X424170D02*
X425270D01*
X415470D02*
X416670D01*
X436270Y254581D02*
X437170D01*
X424370D02*
X425070D01*
X415570D02*
X416570D01*
X433970Y257481D02*
X434970D01*
X433170Y257581D02*
X435570D01*
X433070Y257681D02*
X435770D01*
X432870Y257781D02*
X435970D01*
X432570Y257881D02*
X436170D01*
X432370Y257981D02*
X436370D01*
X432270Y258081D02*
X436470D01*
X432070Y258181D02*
X436670D01*
X431970Y258281D02*
X436770D01*
X431870Y258381D02*
X436770D01*
X431670Y258481D02*
X437070D01*
X431670Y258581D02*
X437070D01*
X431670Y258681D02*
X437170D01*
X431470Y258781D02*
X437270D01*
X431370Y258881D02*
X437370D01*
X431370Y258981D02*
X437370D01*
X431270Y259081D02*
X437570D01*
X431170Y259181D02*
X437570D01*
X431070Y259281D02*
X437670D01*
X431070Y259381D02*
X437670D01*
X431070Y259481D02*
X437670D01*
X434770Y259581D02*
X437770D01*
X431070D02*
X434070D01*
X434770Y259681D02*
X437870D01*
X430970D02*
X433970D01*
X434970Y259781D02*
X437970D01*
X430970D02*
X433870D01*
X435170Y259881D02*
X437970D01*
X430870D02*
X433470D01*
X435270Y259981D02*
X437970D01*
X430770D02*
X433370D01*
X435370Y260081D02*
X437970D01*
X430770D02*
X433370D01*
X435570Y260181D02*
X437970D01*
X430770D02*
X433170D01*
X435570Y260281D02*
X437970D01*
X430770D02*
X433070D01*
X435670Y260381D02*
X438070D01*
X430770D02*
X433070D01*
X435670Y260481D02*
X438070D01*
X430770D02*
X433070D01*
X435670Y260581D02*
X438170D01*
X430770D02*
X433070D01*
X435670Y260681D02*
X438170D01*
X430770D02*
X432970D01*
X435770Y260781D02*
X438170D01*
X430770D02*
X432870D01*
X435770Y260881D02*
X438170D01*
X430770D02*
X432770D01*
X435770Y260981D02*
X438170D01*
X430770D02*
X432770D01*
X435770Y261081D02*
X438170D01*
X430770D02*
X432770D01*
X435770Y261181D02*
X438170D01*
X430770D02*
X432770D01*
X435770Y261281D02*
X438170D01*
X430770D02*
X432770D01*
X435770Y261381D02*
X438170D01*
X430770D02*
X432770D01*
X435770Y261481D02*
X438170D01*
X430770D02*
X432870D01*
X435770Y261581D02*
X438170D01*
X430770D02*
X432970D01*
X435670Y261681D02*
X438170D01*
X430770D02*
X432970D01*
X435670Y261781D02*
X438170D01*
X430770D02*
X433070D01*
X435670Y261881D02*
X438070D01*
X430770D02*
X433070D01*
X435570Y261981D02*
X437970D01*
X430770D02*
X433070D01*
X435470Y262081D02*
X437970D01*
X430770D02*
X433270D01*
X435370Y262181D02*
X437970D01*
X430770D02*
X433370D01*
X435270Y262281D02*
X437970D01*
X430770D02*
X433370D01*
X435170Y262381D02*
X437970D01*
X430770D02*
X433570D01*
X434970Y262481D02*
X437970D01*
X430870D02*
X433870D01*
X424770D02*
X426670D01*
X442470Y262581D02*
X443170D01*
X434170D02*
X437870D01*
X430970D02*
X434070D01*
X424570D02*
X426970D01*
X442170Y262681D02*
X443670D01*
X431070D02*
X437870D01*
X424370D02*
X427270D01*
X441570Y262781D02*
X444070D01*
X431070D02*
X437770D01*
X424170D02*
X427370D01*
X441470Y262881D02*
X444170D01*
X431070D02*
X437670D01*
X423970D02*
X427570D01*
X441170Y262981D02*
X444370D01*
X431070D02*
X437570D01*
X423870D02*
X427670D01*
X440970Y263081D02*
X444670D01*
X431170D02*
X437570D01*
X423670D02*
X427870D01*
X440870Y263181D02*
X444770D01*
X431270D02*
X437470D01*
X423670D02*
X427970D01*
X440770Y263281D02*
X444870D01*
X431370D02*
X437370D01*
X423470D02*
X428170D01*
X440570Y263381D02*
X445070D01*
X431370D02*
X437370D01*
X423370D02*
X428270D01*
X440470Y263481D02*
X445170D01*
X431470D02*
X437270D01*
X423270D02*
X428370D01*
X440370Y263581D02*
X445270D01*
X431670D02*
X437070D01*
X423170D02*
X428470D01*
X440270Y263681D02*
X445470D01*
X431670D02*
X437070D01*
X423070D02*
X428570D01*
X440170Y263781D02*
X445570D01*
X431770D02*
X437070D01*
X422970D02*
X428670D01*
X440170Y263881D02*
X445570D01*
X431870D02*
X436770D01*
X422870D02*
X428770D01*
X439970Y263981D02*
X445670D01*
X431970D02*
X436770D01*
X422770D02*
X428770D01*
X439870Y264081D02*
X445870D01*
X432070D02*
X436670D01*
X422770D02*
X428870D01*
X439870Y264181D02*
X445870D01*
X432270D02*
X436470D01*
X422670D02*
X428870D01*
X439670Y264281D02*
X445970D01*
X432270D02*
X436370D01*
X422470D02*
X429070D01*
X439570Y264381D02*
X445970D01*
X432570D02*
X436270D01*
X422470D02*
X429070D01*
X439570Y264481D02*
X445970D01*
X432770D02*
X436070D01*
X422370D02*
X429070D01*
X439570Y264581D02*
X446070D01*
X432870D02*
X435970D01*
X422370D02*
X429170D01*
X439470Y264681D02*
X446170D01*
X432970D02*
X435670D01*
X422270D02*
X429170D01*
X439470Y264781D02*
X446270D01*
X433670D02*
X435070D01*
X426470D02*
X429170D01*
X422270D02*
X425170D01*
X439370Y264881D02*
X446270D01*
X433770D02*
X434870D01*
X426470D02*
X429270D01*
X422270D02*
X425070D01*
X439370Y264981D02*
X446270D01*
X426570D02*
X429370D01*
X422270D02*
X424970D01*
X443670Y265081D02*
X446270D01*
X439270D02*
X442070D01*
X426770D02*
X429370D01*
X422170D02*
X424770D01*
X443670Y265181D02*
X446270D01*
X439270D02*
X441970D01*
X426870D02*
X429370D01*
X422170D02*
X424670D01*
X443770Y265281D02*
X446270D01*
X439270D02*
X441870D01*
X426970D02*
X429370D01*
X422170D02*
X424570D01*
X443970Y265381D02*
X446270D01*
X439170D02*
X441670D01*
X427070D02*
X429370D01*
X422170D02*
X424470D01*
X443970Y265481D02*
X446370D01*
X439170D02*
X441670D01*
X427070D02*
X429370D01*
X422070D02*
X424470D01*
X444070Y265581D02*
X446470D01*
X439070D02*
X441570D01*
X427070D02*
X429470D01*
X422070D02*
X424470D01*
X444170Y265681D02*
X446470D01*
X439070D02*
X441470D01*
X427170D02*
X429470D01*
X421970D02*
X424470D01*
X444170Y265781D02*
X446570D01*
X439070D02*
X441470D01*
X427170D02*
X429470D01*
X421970D02*
X424470D01*
X444170Y265881D02*
X446570D01*
X439070D02*
X441370D01*
X427370D02*
X429470D01*
X421970D02*
X424470D01*
X444170Y265981D02*
X446570D01*
X439070D02*
X441370D01*
X427370D02*
X429470D01*
X421970D02*
X424470D01*
X444170Y266081D02*
X446570D01*
X439070D02*
X441370D01*
X427370D02*
X429470D01*
X421970D02*
X424470D01*
X444270Y266181D02*
X446570D01*
X439070D02*
X441370D01*
X427370D02*
X429470D01*
X421970D02*
X424370D01*
X444270Y266281D02*
X446570D01*
X439070D02*
X441370D01*
X427370D02*
X429470D01*
X421970D02*
X424370D01*
X444270Y266381D02*
X446570D01*
X439070D02*
X441370D01*
X427370D02*
X429470D01*
X421970D02*
X424370D01*
X444270Y266481D02*
X446570D01*
X439070D02*
X441370D01*
X427370D02*
X429470D01*
X421970D02*
X424470D01*
X444170Y266581D02*
X446570D01*
X439070D02*
X441370D01*
X427170D02*
X429470D01*
X421970D02*
X424470D01*
X444170Y266681D02*
X446570D01*
X439070D02*
X441370D01*
X427070D02*
X429470D01*
X421970D02*
X424470D01*
X444170Y266781D02*
X446570D01*
X439070D02*
X441370D01*
X427070D02*
X429470D01*
X421970D02*
X424470D01*
X444170Y266881D02*
X446470D01*
X439070D02*
X441370D01*
X427070D02*
X429470D01*
X422070D02*
X424470D01*
X444170Y266981D02*
X446470D01*
X439070D02*
X441570D01*
X435870D02*
X435970D01*
X432070D02*
X433170D01*
X427070D02*
X429370D01*
X422170D02*
X424570D01*
X444170Y267081D02*
X446470D01*
X439070D02*
X441570D01*
X435470D02*
X436470D01*
X431770D02*
X433370D01*
X426970D02*
X429370D01*
X422170D02*
X424670D01*
X444070Y267181D02*
X446370D01*
X439070D02*
X441670D01*
X435370D02*
X436670D01*
X431670D02*
X433370D01*
X426870D02*
X429370D01*
X422170D02*
X424770D01*
X443970Y267281D02*
X446270D01*
X439170D02*
X441670D01*
X435070D02*
X436770D01*
X431570D02*
X433570D01*
X426770D02*
X429370D01*
X422170D02*
X424870D01*
X443870Y267381D02*
X446270D01*
X439170D02*
X441870D01*
X434970D02*
X436970D01*
X431470D02*
X433670D01*
X426570D02*
X429370D01*
X422170D02*
X424970D01*
X443870Y267481D02*
X446270D01*
X439170D02*
X441970D01*
X434970D02*
X437070D01*
X431370D02*
X433770D01*
X426470D02*
X429270D01*
X422270D02*
X425070D01*
X443570Y267581D02*
X446270D01*
X439270D02*
X442170D01*
X434770D02*
X437070D01*
X431370D02*
X433870D01*
X425970D02*
X429170D01*
X422270D02*
X425670D01*
X443370Y267681D02*
X446270D01*
X439270D02*
X442370D01*
X434770D02*
X437270D01*
X431270D02*
X433970D01*
X422370D02*
X429170D01*
X443270Y267781D02*
X446270D01*
X439370D02*
X442470D01*
X434770D02*
X437270D01*
X431170D02*
X433970D01*
X422470D02*
X429170D01*
X439370Y267881D02*
X446170D01*
X434670D02*
X437370D01*
X431170D02*
X433970D01*
X422470D02*
X429070D01*
X439370Y267981D02*
X446170D01*
X434570D02*
X437370D01*
X431070D02*
X433970D01*
X422470D02*
X429070D01*
X439470Y268081D02*
X446170D01*
X434470D02*
X437470D01*
X431070D02*
X434070D01*
X422570D02*
X429070D01*
X439570Y268181D02*
X445970D01*
X434470D02*
X437470D01*
X431070D02*
X434070D01*
X422670D02*
X428970D01*
X439570Y268281D02*
X445970D01*
X434470D02*
X437470D01*
X431070D02*
X434070D01*
X422770D02*
X428870D01*
X439670Y268381D02*
X445970D01*
X434470D02*
X437470D01*
X431070D02*
X434070D01*
X422770D02*
X428770D01*
X439870Y268481D02*
X445870D01*
X434470D02*
X437470D01*
X431070D02*
X434070D01*
X422870D02*
X428770D01*
X439870Y268581D02*
X445870D01*
X434470D02*
X437470D01*
X431070D02*
X434070D01*
X422970D02*
X428670D01*
X439870Y268681D02*
X445670D01*
X434470D02*
X437470D01*
X431070D02*
X433970D01*
X423070D02*
X428570D01*
X439970Y268781D02*
X445570D01*
X434470D02*
X437470D01*
X431070D02*
X433970D01*
X423170D02*
X428470D01*
X440070Y268881D02*
X445570D01*
X434470D02*
X437370D01*
X431170D02*
X433970D01*
X423270D02*
X428370D01*
X440170Y268981D02*
X445470D01*
X434570D02*
X437370D01*
X431270D02*
X433970D01*
X423370D02*
X428170D01*
X440270Y269081D02*
X445270D01*
X434670D02*
X437370D01*
X431270D02*
X433870D01*
X423470D02*
X428070D01*
X440370Y269181D02*
X445270D01*
X434670D02*
X437270D01*
X431370D02*
X433770D01*
X423570D02*
X427970D01*
X440470Y269281D02*
X445170D01*
X434770D02*
X437170D01*
X431370D02*
X433770D01*
X423770D02*
X427870D01*
X440770Y269381D02*
X444770D01*
X434870D02*
X437070D01*
X431570D02*
X433670D01*
X424070D02*
X427470D01*
X440870Y269481D02*
X444770D01*
X434870D02*
X437070D01*
X431670D02*
X433570D01*
X424170D02*
X427370D01*
X440970Y269581D02*
X444770D01*
X434970D02*
X436970D01*
X431670D02*
X433370D01*
X424270D02*
X427270D01*
X441470Y269681D02*
X444270D01*
X435270D02*
X436670D01*
X432370D02*
X432870D01*
X425170D02*
X426370D01*
X441570Y269781D02*
X444170D01*
X435270D02*
X436670D01*
X425270D02*
X426170D01*
X441770Y269881D02*
X443970D01*
X435470D02*
X436470D01*
X430370D02*
X431170D01*
X437970Y269981D02*
X438070D01*
X430170D02*
X431270D01*
X436870Y270081D02*
X438270D01*
X429870D02*
X431770D01*
X436670Y270181D02*
X438370D01*
X429770D02*
X431870D01*
X436570Y270281D02*
X438470D01*
X429770D02*
X431870D01*
X436470Y270381D02*
X438570D01*
X429570D02*
X432070D01*
X436370Y270481D02*
X438670D01*
X429470D02*
X432170D01*
X436370Y270581D02*
X438770D01*
X429470D02*
X432170D01*
X436270Y270681D02*
X438870D01*
X429470D02*
X432170D01*
X436170Y270781D02*
X438870D01*
X429370D02*
X432170D01*
X436070Y270881D02*
X438870D01*
X429370D02*
X432170D01*
X436070Y270981D02*
X438870D01*
X429370D02*
X432170D01*
X436070Y271081D02*
X438970D01*
X429370D02*
X432170D01*
X436070Y271181D02*
X438970D01*
X429370D02*
X432170D01*
X436070Y271281D02*
X438970D01*
X429370D02*
X432170D01*
X436170Y271381D02*
X438970D01*
X429370D02*
X432170D01*
X436170Y271481D02*
X438970D01*
X429370D02*
X432170D01*
X436170Y271581D02*
X438970D01*
X429470D02*
X432170D01*
X436170Y271681D02*
X438970D01*
X429470D02*
X432170D01*
X436170Y271781D02*
X438870D01*
X429470D02*
X432170D01*
X425370D02*
X425570D01*
X436170Y271881D02*
X438870D01*
X429470D02*
X432170D01*
X424770D02*
X426570D01*
X436170Y271981D02*
X438870D01*
X429470D02*
X432070D01*
X424170D02*
X426970D01*
X436270Y272081D02*
X438870D01*
X429570D02*
X432070D01*
X424070D02*
X426970D01*
X442170Y272181D02*
X442870D01*
X436270D02*
X438870D01*
X429670D02*
X431970D01*
X423870D02*
X427270D01*
X441470Y272281D02*
X443770D01*
X436270D02*
X438770D01*
X429770D02*
X431870D01*
X423670D02*
X427570D01*
X441370Y272381D02*
X443770D01*
X436370D02*
X438670D01*
X429870D02*
X431770D01*
X423670D02*
X427670D01*
X441070Y272481D02*
X444070D01*
X436470D02*
X438570D01*
X429970D02*
X431570D01*
X423470D02*
X427770D01*
X440870Y272581D02*
X444470D01*
X436570D02*
X438470D01*
X430070D02*
X431570D01*
X423370D02*
X427870D01*
X440770Y272681D02*
X444570D01*
X436870D02*
X438170D01*
X432170D02*
X432670D01*
X430370D02*
X431270D01*
X423170D02*
X427970D01*
X440570Y272781D02*
X444670D01*
X437270D02*
X437870D01*
X431770D02*
X432970D01*
X423070D02*
X428070D01*
X440470Y272881D02*
X444770D01*
X435370D02*
X436270D01*
X431570D02*
X433070D01*
X422970D02*
X428170D01*
X440370Y272981D02*
X444970D01*
X435170D02*
X436370D01*
X431470D02*
X433170D01*
X422870D02*
X428270D01*
X440270Y273081D02*
X445070D01*
X434970D02*
X436670D01*
X431370D02*
X433370D01*
X422770D02*
X428370D01*
X440170Y273181D02*
X445170D01*
X434770D02*
X436770D01*
X431170D02*
X433370D01*
X422770D02*
X428470D01*
X440070Y273281D02*
X445270D01*
X434670D02*
X436770D01*
X431070D02*
X433470D01*
X422570D02*
X428570D01*
X439970Y273381D02*
X445370D01*
X434570D02*
X436870D01*
X431070D02*
X433570D01*
X422470D02*
X428570D01*
X439870Y273481D02*
X445470D01*
X434470D02*
X436970D01*
X431070D02*
X433670D01*
X422470D02*
X428770D01*
X439770Y273581D02*
X445570D01*
X434370D02*
X437070D01*
X431070D02*
X433770D01*
X422470D02*
X428770D01*
X439670Y273681D02*
X445570D01*
X434370D02*
X437070D01*
X430970D02*
X433770D01*
X422370D02*
X428770D01*
X439570Y273781D02*
X445670D01*
X434370D02*
X437070D01*
X430970D02*
X433870D01*
X422270D02*
X428870D01*
X439570Y273881D02*
X445770D01*
X434370D02*
X437070D01*
X430870D02*
X433870D01*
X422270D02*
X428970D01*
X439370Y273981D02*
X445870D01*
X434370D02*
X437070D01*
X430770D02*
X433870D01*
X422170D02*
X428970D01*
X439370Y274081D02*
X445870D01*
X434370D02*
X437070D01*
X430770D02*
X433870D01*
X425770D02*
X429070D01*
X422170D02*
X425370D01*
X439270Y274181D02*
X445970D01*
X434270D02*
X437170D01*
X430870D02*
X433870D01*
X426070D02*
X429070D01*
X422170D02*
X425070D01*
X439270Y274281D02*
X445970D01*
X434270D02*
X437270D01*
X430870D02*
X433870D01*
X426370D02*
X429070D01*
X422070D02*
X424770D01*
X439270Y274381D02*
X445970D01*
X434270D02*
X437270D01*
X430870D02*
X433770D01*
X426470D02*
X429070D01*
X421970D02*
X424770D01*
X442570Y274481D02*
X445970D01*
X439070D02*
X442270D01*
X434270D02*
X437270D01*
X430970D02*
X433770D01*
X426670D02*
X429170D01*
X421970D02*
X424570D01*
X443270Y274581D02*
X446070D01*
X439070D02*
X442070D01*
X434270D02*
X437170D01*
X430970D02*
X433770D01*
X426770D02*
X429170D01*
X421970D02*
X424470D01*
X443370Y274681D02*
X446170D01*
X438970D02*
X441970D01*
X434370D02*
X437170D01*
X430970D02*
X433770D01*
X426770D02*
X429170D01*
X421870D02*
X424470D01*
X443570Y274781D02*
X446170D01*
X438970D02*
X441770D01*
X434370D02*
X437070D01*
X431070D02*
X433670D01*
X426870D02*
X429170D01*
X421870D02*
X424370D01*
X443670Y274881D02*
X446270D01*
X438970D02*
X441570D01*
X434370D02*
X437070D01*
X431070D02*
X433570D01*
X427070D02*
X429170D01*
X421870D02*
X424270D01*
X443770Y274981D02*
X446270D01*
X438970D02*
X441570D01*
X434470D02*
X437070D01*
X431070D02*
X433570D01*
X427070D02*
X429170D01*
X421870D02*
X424270D01*
X443870Y275081D02*
X446270D01*
X438970D02*
X441470D01*
X434470D02*
X437070D01*
X431170D02*
X433470D01*
X427070D02*
X429170D01*
X421870D02*
X424170D01*
X443870Y275181D02*
X446270D01*
X438970D02*
X441370D01*
X434570D02*
X436870D01*
X431370D02*
X433370D01*
X427070D02*
X429270D01*
X421870D02*
X424170D01*
X443870Y275281D02*
X446270D01*
X438970D02*
X441370D01*
X434670D02*
X436770D01*
X431370D02*
X433370D01*
X427070D02*
X429270D01*
X421870D02*
X424170D01*
X443970Y275381D02*
X446270D01*
X438870D02*
X441270D01*
X434770D02*
X436770D01*
X431470D02*
X433170D01*
X427070D02*
X429270D01*
X421870D02*
X424170D01*
X444070Y275481D02*
X446270D01*
X438770D02*
X441270D01*
X434870D02*
X436570D01*
X431770D02*
X432870D01*
X427070D02*
X429370D01*
X421870D02*
X424170D01*
X444170Y275581D02*
X446270D01*
X438770D02*
X441270D01*
X434970D02*
X436470D01*
X431870D02*
X432770D01*
X427070D02*
X429370D01*
X421870D02*
X424170D01*
X444170Y275681D02*
X446270D01*
X438770D02*
X441270D01*
X435070D02*
X436370D01*
X432170D02*
X432570D01*
X427070D02*
X429370D01*
X421870D02*
X424170D01*
X444170Y275781D02*
X446270D01*
X438770D02*
X441270D01*
X427070D02*
X429370D01*
X421870D02*
X424170D01*
X444170Y275881D02*
X446270D01*
X438770D02*
X441270D01*
X427070D02*
X429270D01*
X421870D02*
X424170D01*
X444170Y275981D02*
X446270D01*
X438770D02*
X441270D01*
X427070D02*
X429270D01*
X421870D02*
X424170D01*
X444170Y276081D02*
X446270D01*
X438770D02*
X441270D01*
X427070D02*
X429270D01*
X421870D02*
X424270D01*
X444170Y276181D02*
X446270D01*
X438770D02*
X441270D01*
X426870D02*
X429170D01*
X421870D02*
X424270D01*
X444170Y276281D02*
X446270D01*
X438870D02*
X441270D01*
X426770D02*
X429170D01*
X421870D02*
X424370D01*
X444070Y276381D02*
X446270D01*
X438870D02*
X441270D01*
X426770D02*
X429170D01*
X421870D02*
X424370D01*
X443970Y276481D02*
X446270D01*
X438970D02*
X441270D01*
X426770D02*
X429170D01*
X421970D02*
X424470D01*
X443870Y276581D02*
X446270D01*
X438970D02*
X441370D01*
X426770D02*
X429070D01*
X421970D02*
X424570D01*
X443870Y276681D02*
X446270D01*
X438970D02*
X441370D01*
X426770D02*
X429070D01*
X421970D02*
X424570D01*
X443870Y276781D02*
X446270D01*
X438970D02*
X441370D01*
X426270D02*
X429070D01*
X422070D02*
X424870D01*
X443870Y276881D02*
X446270D01*
X438970D02*
X441570D01*
X426270D02*
X429070D01*
X422070D02*
X424970D01*
X443670Y276981D02*
X446170D01*
X439070D02*
X441570D01*
X426170D02*
X429070D01*
X422170D02*
X424970D01*
X443570Y277081D02*
X446170D01*
X439070D02*
X441670D01*
X432970D02*
X434970D01*
X422170D02*
X428970D01*
X443370Y277181D02*
X446170D01*
X439070D02*
X441870D01*
X432770D02*
X435270D01*
X422170D02*
X428870D01*
X443370Y277281D02*
X446070D01*
X439070D02*
X441870D01*
X432670D02*
X435370D01*
X422270D02*
X428870D01*
X439170Y277381D02*
X445970D01*
X432270D02*
X435670D01*
X422370D02*
X428770D01*
X439270Y277481D02*
X445970D01*
X431970D02*
X435970D01*
X422470D02*
X428770D01*
X439270Y277581D02*
X445970D01*
X431970D02*
X436070D01*
X422470D02*
X428770D01*
X439370Y277681D02*
X445970D01*
X431670D02*
X436170D01*
X422570D02*
X428670D01*
X439370Y277781D02*
X445870D01*
X431570D02*
X436370D01*
X422570D02*
X428570D01*
X439470Y277881D02*
X445870D01*
X431570D02*
X436470D01*
X422770D02*
X428470D01*
X439570Y277981D02*
X445670D01*
X431370D02*
X436570D01*
X422770D02*
X428370D01*
X439570Y278081D02*
X445670D01*
X431270D02*
X436670D01*
X422870D02*
X428370D01*
X439670Y278181D02*
X445570D01*
X431170D02*
X436770D01*
X423070D02*
X428170D01*
X439770Y278281D02*
X445470D01*
X431070D02*
X436870D01*
X423170D02*
X428070D01*
X439870Y278381D02*
X445370D01*
X431070D02*
X436970D01*
X423170D02*
X428070D01*
X439970Y278481D02*
X445370D01*
X430970D02*
X437070D01*
X423370D02*
X427870D01*
X440070Y278581D02*
X445270D01*
X430870D02*
X437070D01*
X423470D02*
X427670D01*
X440170Y278681D02*
X445170D01*
X430770D02*
X437070D01*
X423570D02*
X427570D01*
X440270Y278781D02*
X445070D01*
X430770D02*
X437070D01*
X423770D02*
X427470D01*
X440470Y278881D02*
X444870D01*
X430770D02*
X437270D01*
X423970D02*
X427170D01*
X440470Y278981D02*
X444770D01*
X430770D02*
X437370D01*
X424170D02*
X427070D01*
X440570Y279081D02*
X444570D01*
X430670D02*
X437370D01*
X424370D02*
X426870D01*
X440870Y279181D02*
X444270D01*
X434370D02*
X437370D01*
X430670D02*
X433670D01*
X440970Y279281D02*
X444270D01*
X434470D02*
X437470D01*
X430570D02*
X433470D01*
X441170Y279381D02*
X443970D01*
X434670D02*
X437570D01*
X430470D02*
X433370D01*
X442070Y279481D02*
X443070D01*
X434870D02*
X437570D01*
X430470D02*
X433070D01*
X442170Y279581D02*
X442970D01*
X434970D02*
X437570D01*
X430470D02*
X433070D01*
X435070Y279681D02*
X437670D01*
X430470D02*
X432870D01*
X435070Y279781D02*
X437670D01*
X430470D02*
X432770D01*
X435170Y279881D02*
X437670D01*
X430470D02*
X432770D01*
X435270Y279981D02*
X437670D01*
X430370D02*
X432670D01*
X435370Y280081D02*
X437670D01*
X430370D02*
X432470D01*
X435370Y280181D02*
X437670D01*
X430370D02*
X432470D01*
X435370Y280281D02*
X437670D01*
X430370D02*
X432470D01*
X435370Y280381D02*
X437670D01*
X430370D02*
X432470D01*
X435370Y280481D02*
X437670D01*
X430370D02*
X432470D01*
X435370Y280581D02*
X437770D01*
X430370D02*
X432470D01*
X435370Y280681D02*
X437770D01*
X430370D02*
X432470D01*
X435370Y280781D02*
X437770D01*
X430370D02*
X432470D01*
X435370Y280881D02*
X437770D01*
X430370D02*
X432470D01*
X435370Y280981D02*
X437670D01*
X430370D02*
X432470D01*
X435370Y281081D02*
X437670D01*
X430470D02*
X432470D01*
X435370Y281181D02*
X437670D01*
X430470D02*
X432570D01*
X435370Y281281D02*
X437670D01*
X430470D02*
X432670D01*
X435270Y281381D02*
X437670D01*
X430470D02*
X432770D01*
X435170Y281481D02*
X437670D01*
X430470D02*
X432770D01*
X435070Y281581D02*
X437670D01*
X430470D02*
X432770D01*
X434970Y281681D02*
X437670D01*
X430470D02*
X432970D01*
X434870Y281781D02*
X437670D01*
X430470D02*
X433070D01*
X434770Y281881D02*
X437570D01*
X430470D02*
X433070D01*
X434570Y281981D02*
X437570D01*
X430470D02*
X433370D01*
X430570Y282081D02*
X437570D01*
X430670Y282181D02*
X437470D01*
X430670Y282281D02*
X437370D01*
X430770Y282381D02*
X437370D01*
X430770Y282481D02*
X437270D01*
X430770Y282581D02*
X437170D01*
X430870Y282681D02*
X437070D01*
X430970Y282781D02*
X437070D01*
X431070Y282881D02*
X436970D01*
X431070Y282981D02*
X436970D01*
X431070Y283081D02*
X436770D01*
X431270Y283181D02*
X436770D01*
X431370Y283281D02*
X436670D01*
X431470Y283381D02*
X436470D01*
X431670Y283481D02*
X436370D01*
X431670Y283581D02*
X436270D01*
X431870Y283681D02*
X436070D01*
X432070Y283781D02*
X435870D01*
X432170Y283881D02*
X435770D01*
X432270Y283981D02*
X435770D01*
X432570Y284081D02*
X435470D01*
X432670Y284181D02*
X435270D01*
X432970Y284281D02*
X434870D01*
X433470Y284381D02*
X434470D01*
D46*
X469285Y293112D02*
X470118Y291446D01*
X471784Y289779D01*
X473450D01*
X474284Y290613D01*
Y292279D01*
X473450Y293112D01*
X472617D01*
X471784Y292279D01*
Y289779D01*
X479285Y293112D02*
Y289779D01*
X481784D01*
X480951Y291446D01*
Y292279D01*
X481784Y293112D01*
X483450D01*
X484283Y292279D01*
Y290613D01*
X483450Y289779D01*
X474284Y257112D02*
Y253780D01*
X470951Y257112D01*
X470118D01*
X469285Y256279D01*
Y254613D01*
X470118Y253780D01*
X484283Y255780D02*
Y257446D01*
Y256613D01*
X479285D01*
X480118Y255780D01*
X317710Y291143D02*
X318543Y289477D01*
X320210Y287811D01*
X321876D01*
X322709Y288644D01*
Y290310D01*
X321876Y291143D01*
X321042D01*
X320210Y290310D01*
Y287811D01*
X327710Y291143D02*
Y287811D01*
X330209D01*
X329376Y289477D01*
Y290310D01*
X330209Y291143D01*
X331876D01*
X332709Y290310D01*
Y288644D01*
X331876Y287811D01*
X322709Y255143D02*
Y251811D01*
X319376Y255143D01*
X318543D01*
X317710Y254310D01*
Y252644D01*
X318543Y251811D01*
X332709Y253811D02*
Y255477D01*
Y254644D01*
X327710D01*
X328543Y253811D01*
M02*
